<svg width="48" height="48" xmlns="http://www.w3.org/2000/svg" viewBox="0 0 48 48"><title>aws</title><path d="M13.53,20.07a4.91,4.91,0,0,0,.17,1.42,8.5,8.5,0,0,0,.51,1.15.73.73,0,0,1,.12.37.64.64,0,0,1-.31.48l-1,.67a.66.66,0,0,1-.9-.08,5.5,5.5,0,0,1-.57-.75c-.16-.27-.32-.58-.5-.94a5.88,5.88,0,0,1-4.69,2.2,4.35,4.35,0,0,1-3.19-1.15A4.1,4.1,0,0,1,2,20.38a4.12,4.12,0,0,1,1.45-3.29,5.81,5.81,0,0,1,3.91-1.25A12.62,12.62,0,0,1,9,16c.59.08,1.2.21,1.84.35V15.16a3.57,3.57,0,0,0-.75-2.56,3.69,3.69,0,0,0-2.6-.73,7,7,0,0,0-1.73.21,12.71,12.71,0,0,0-1.72.54c-.26.11-.45.17-.56.21a1,1,0,0,1-.26,0c-.22,0-.33-.16-.33-.49V11.6A1,1,0,0,1,3,11a1.27,1.27,0,0,1,.45-.34,9.57,9.57,0,0,1,2-.71A9.54,9.54,0,0,1,8,9.68,5.78,5.78,0,0,1,12.17,11,5.26,5.26,0,0,1,13.5,14.9v5.17ZM7.05,22.5a5.21,5.21,0,0,0,1.64-.29,3.5,3.5,0,0,0,1.52-1,2.52,2.52,0,0,0,.54-1,5.53,5.53,0,0,0,.16-1.39v-.67a12.8,12.8,0,0,0-1.47-.27,10.9,10.9,0,0,0-1.5-.1,3.7,3.7,0,0,0-2.38.64,2.25,2.25,0,0,0-.78,1.84,2.22,2.22,0,0,0,.59,1.69A2.21,2.21,0,0,0,7.05,22.5Zm12.82,1.72a.86.86,0,0,1-.61-.16,1.29,1.29,0,0,1-.34-.62L15.17,11.1a3,3,0,0,1-.14-.64.35.35,0,0,1,.38-.39H17a.89.89,0,0,1,.62.15,1.34,1.34,0,0,1,.32.63L20.6,21.41l2.49-10.56a1.22,1.22,0,0,1,.3-.63,1.16,1.16,0,0,1,.64-.15h1.28a1,1,0,0,1,.64.15,1.12,1.12,0,0,1,.3.63l2.52,10.69,2.76-10.69a1.49,1.49,0,0,1,.32-.63,1.12,1.12,0,0,1,.63-.15H34a.35.35,0,0,1,.4.39c0,.08,0,.16,0,.26a3.23,3.23,0,0,1-.11.4L30.37,23.46a1.24,1.24,0,0,1-.34.62,1,1,0,0,1-.6.16H28.05a.94.94,0,0,1-.63-.16,1.15,1.15,0,0,1-.31-.64L24.64,13.15,22.18,23.43a1.31,1.31,0,0,1-.3.63,1,1,0,0,1-.64.16Zm20.51.43a10.67,10.67,0,0,1-2.46-.28,7.26,7.26,0,0,1-1.84-.64,1.14,1.14,0,0,1-.49-.45,1,1,0,0,1-.1-.45V22c0-.33.13-.49.37-.49a1,1,0,0,1,.29,0l.4.16a8.74,8.74,0,0,0,1.75.56,9.42,9.42,0,0,0,1.9.19A4.3,4.3,0,0,0,42.53,22a1.73,1.73,0,0,0,.83-1.52,1.55,1.55,0,0,0-.43-1.12,4.13,4.13,0,0,0-1.61-.83L39,17.77a4.89,4.89,0,0,1-2.55-1.62,3.82,3.82,0,0,1-.8-2.32,3.62,3.62,0,0,1,.43-1.77,4.13,4.13,0,0,1,1.15-1.31,5,5,0,0,1,1.66-.83,7,7,0,0,1,2-.27A9.59,9.59,0,0,1,42,9.71c.37,0,.7.12,1,.18s.62.16.91.25a4.13,4.13,0,0,1,.67.29,1.54,1.54,0,0,1,.48.4.84.84,0,0,1,.14.53v.75c0,.33-.12.51-.36.51a1.6,1.6,0,0,1-.61-.19,7.23,7.23,0,0,0-3.07-.62,4.16,4.16,0,0,0-2.12.44,1.56,1.56,0,0,0-.75,1.42,1.53,1.53,0,0,0,.48,1.14,4.81,4.81,0,0,0,1.76.87l2.26.72a4.94,4.94,0,0,1,2.48,1.53A3.67,3.67,0,0,1,46,20.17,4.09,4.09,0,0,1,45.6,22a4.4,4.4,0,0,1-1.17,1.41,5.26,5.26,0,0,1-1.77.89A7.71,7.71,0,0,1,40.38,24.65Z" style="fill:#252f3e"/><path d="M43.39,32.41C38.14,36.29,30.51,38.35,24,38.35a35.15,35.15,0,0,1-23.73-9c-.5-.45,0-1.05.54-.7a47.92,47.92,0,0,0,23.75,6.3,47.39,47.39,0,0,0,18.12-3.7C43.5,30.8,44.26,31.77,43.39,32.41Z" style="fill:#f90;fill-rule:evenodd"/><path d="M45.58,29.92c-.67-.86-4.44-.41-6.15-.21-.51.07-.59-.38-.12-.71,3-2.11,7.93-1.5,8.5-.8s-.15,5.65-3,8c-.44.37-.85.18-.66-.3C44.83,34.33,46.25,30.77,45.58,29.92Z" style="fill:#f90;fill-rule:evenodd"/></svg>