<svg height="48" width="48" xmlns="http://www.w3.org/2000/svg" viewBox="0 0 48 48"><title>postgresql</title><path d="M35.5,34.92c.31-2.54.22-2.91,2.11-2.5l.48,0a10.86,10.86,0,0,0,4.47-.75c2.41-1.12,3.83-3,1.46-2.49-5.41,1.12-5.78-.72-5.78-.72C44,20,46.34,9.27,44.28,6.64,38.66-.55,28.93,2.85,28.76,2.94h-.05a19.23,19.23,0,0,0-3.61-.38,8.89,8.89,0,0,0-5.71,1.71S2-2.87,2.84,13.28c.17,3.43,4.92,26,10.59,19.17C15.5,30,17.5,27.86,17.5,27.86a5.24,5.24,0,0,0,3.43.87l.1-.08a3.59,3.59,0,0,0,0,1c-1.46,1.63-1,1.92-3.95,2.52s-1.22,1.69-.09,2a6,6,0,0,0,6.7-2.17l-.09.34c.58.46.54,3.3.62,5.32a19.15,19.15,0,0,0,.63,5c.41,1.12.9,4,4.73,3.16,3.21-.68,5.66-1.67,5.88-10.87"/><path d="M28.33,48C25.8,48,24,46.51,23.1,43.63a2.11,2.11,0,0,0-.1-.3,20,20,0,0,1-.75-5.65c0-.36,0-.74,0-1.14,0-.24,0-.52,0-.81a8.74,8.74,0,0,1-5.65.34,4.77,4.77,0,0,1-2.47-1.42,4.09,4.09,0,0,1-4.06.88c-1.64-.54-4.12-2.28-6.78-11A62.21,62.21,0,0,1,.83,13.38C.57,8.29,2,4.65,4.91,2.56,9.54-.71,16.5,1.16,19.12,2a11.22,11.22,0,0,1,6-1.48,21.73,21.73,0,0,1,3.42.31C31.39,0,40.37-1.61,45.86,5.4c2.88,3.68,0,14.32-4.66,22.17a14.14,14.14,0,0,0,2.41-.32c2.63-.55,3.36,1,3.52,1.49.82,2.47-2.64,4.29-3.72,4.79a12.75,12.75,0,0,1-5.41.94l-.41,0,0,.24-.05.38c-.24,9.38-2.81,11.7-7.46,12.7A8.23,8.23,0,0,1,28.33,48ZM24.9,30.71c1.15.92,1.25,2.59,1.33,5.72,0,.38,0,.75,0,1.09a20.49,20.49,0,0,0,.5,4.41c.05.13.1.29.16.45.41,1.28.58,1.81,2.27,1.45,2.38-.51,4.1-.88,4.29-9l.07-.65c.18-1.5.31-2.68,1.38-3.45a3.05,3.05,0,0,1,2.1-.48,2.8,2.8,0,0,1-.77-1.38l-.17-.83.47-.7c5.69-8.44,7.24-18,6.13-19.5C38.23,2.17,30.45,4.5,29.59,4.78l-.14.08L28.74,5l-.44-.07a16.76,16.76,0,0,0-3.23-.34,7,7,0,0,0-4.47,1.3l-.91.7-1.07-.44c-2.08-.85-8.19-2.56-11.39-.29C5.47,7.1,4.66,9.56,4.84,13.18c.23,4.54,4.1,18.05,6.45,18.54a2.75,2.75,0,0,0,.59-.55C14,28.65,16,26.56,16,26.47l1.17-1.22,1.4.93a3.43,3.43,0,0,0,1.56.56l3.35-2.85-.49,5a2,2,0,0,0,0,.46l.15.94-.63.71,0,0,1.56.72Z"/><path d="M44,29.22c-5.41,1.12-5.78-.72-5.78-.72C44,20,46.34,9.27,44.28,6.64,38.66-.55,28.93,2.85,28.76,2.94h-.05a19.23,19.23,0,0,0-3.61-.38,8.89,8.89,0,0,0-5.71,1.71S2-2.87,2.84,13.28c.17,3.43,4.92,26,10.59,19.17C15.5,30,17.5,27.86,17.5,27.86a5.24,5.24,0,0,0,3.43.87l.1-.08a3.59,3.59,0,0,0,0,1c-1.46,1.63-1,1.92-3.95,2.52s-1.22,1.69-.09,2a6,6,0,0,0,6.7-2.17l-.09.34c.57.46,1,3,.91,5.27s-.11,3.86.34,5.08.9,4,4.73,3.16c3.21-.68,4.87-2.46,5.1-5.43.17-2.11.54-1.8.56-3.69l.3-.89c.34-2.87.05-3.79,2-3.36l.48,0a10.83,10.83,0,0,0,4.47-.75c2.41-1.12,3.83-3,1.46-2.49Z" style="fill:#336791"/><path d="M28.57,46.7a4.88,4.88,0,0,1-4.67-3.6c-.62-1.53-.75-7.26-.61-12.26a.67.67,0,1,1,1.34,0c-.16,5.56.06,10.61.51,11.72.69,1.73,1.75,3.25,4.71,2.61s3.88-1.64,4.36-4.41c.37-2.12,1.09-8.14,1.18-9.32a.67.67,0,1,1,1.33.1c-.09,1.23-.81,7.25-1.19,9.45-.56,3.28-2,4.77-5.4,5.49A7,7,0,0,1,28.57,46.7Z" style="fill:#fff"/><path d="M11.23,34.33a2.74,2.74,0,0,1-.84-.14c-5-1.66-8.16-18.8-8.26-20.95-.23-4.59,1-7.85,3.52-9.67,5.08-3.59,13.6-.17,14,0a.67.67,0,0,1,.36.88.67.67,0,0,1-.87.36C19,4.75,10.9,1.5,6.43,4.67c-2.17,1.54-3.17,4.4-3,8.51.15,3,3.47,18.45,7.34,19.74.25.08,1,.33,2.06-1,2.06-2.48,4-4.46,4-4.48a.67.67,0,0,1,.95,0,.69.69,0,0,1,0,.95s-1.89,2-3.92,4.41A3.49,3.49,0,0,1,11.23,34.33Z" style="fill:#fff"/><path d="M38.2,29.11a.63.63,0,0,1-.37-.12.66.66,0,0,1-.18-.93C43.41,19.51,45.44,9.19,43.71,7,38.56.4,29.83,3.19,29.05,3.47l-.1,0a.71.71,0,0,1-.84-.36.67.67,0,0,1,.26-.85l.18-.06h0l.1,0c1.66-.54,10.7-3,16.13,4,2.46,3.14-.57,14.58-6,22.65A.68.68,0,0,1,38.2,29.11Z" style="fill:#fff"/><path d="M38.5,33.07a5.1,5.1,0,0,1-2.43-.46,1.28,1.28,0,0,1-.68-1c-.15-2.57,1.23-3.08,2-3.3L37,27.8a9,9,0,0,1-1.47-2.37c-.07-.17-.29-.56-.54-1-1.4-2.51-4.3-7.71-2.43-10.4.86-1.23,2.56-1.72,5.06-1.47-.8-2.32-4.37-9.23-12.59-9.37A8,8,0,0,0,19,5.46C15.48,9,15.6,15.3,15.6,15.37a.66.66,0,0,1-.65.68.65.65,0,0,1-.69-.65c0-.28-.13-7,3.73-10.88a9.35,9.35,0,0,1,7.08-2.69c10.29.17,14,10,14.09,11.26a.75.75,0,0,1-.57.89h-.24c-1.69-.27-3.87-.36-4.67.79-1.4,2,1.33,6.89,2.5,9,.29.54.51.93.61,1.17a8.08,8.08,0,0,0,1.28,2,3.59,3.59,0,0,1,.78,1.28c.06.1.8,1.11,5,.25,1.1-.23,1.77,0,2,.59.4,1.21-1.8,2.6-3,3.16A11.41,11.41,0,0,1,38.5,33.07Zm-.37-3.63-.28.09c-.63.17-1.22.34-1.13,2,.4.42,3.71.38,5.52-.46a7.14,7.14,0,0,0,1.91-1.23h0c-2.76.57-4.71.49-5.8-.23Zm6.63.31Z" style="fill:#fff"/><path d="M19,35a9.09,9.09,0,0,1-2.14-.27c-.21-.06-2.08-.56-2-1.75s1.58-1.41,2.16-1.53c2.07-.43,2.2-.6,2.84-1.41.2-.25.43-.55.75-.9h0A2,2,0,0,1,23,28.5a2.74,2.74,0,0,1,1.48,1.77,2.28,2.28,0,0,1-.28,2A6.24,6.24,0,0,1,19,35Zm-2.71-2a2.82,2.82,0,0,0,.9.39,5.3,5.3,0,0,0,6-1.92,1,1,0,0,0,.09-.84,1.46,1.46,0,0,0-.7-.9c-.36-.15-.56-.23-1,.26h0c-.3.33-.52.61-.7.84-.82,1-1.19,1.39-3.62,1.89A4.56,4.56,0,0,0,16.26,33ZM21,29.55h0Z" style="fill:#fff"/><path d="M20.93,30.2a.67.67,0,0,1-.66-.57l0-.27A6.15,6.15,0,0,1,16,27.43a7,7,0,0,1-1.84-5.84,26.86,26.86,0,0,0,.14-5.52c0-.31,0-.55,0-.69,0-1.08,3.17-2.46,5-2.65,2.27-.23,3.77.78,4.22,2.86,1.2,5.54.09,8-.72,9.79-.14.32-.28.63-.4.94l-.1.27a6.51,6.51,0,0,0-.67,2.83.68.68,0,0,1-.57.77ZM15.61,15.58c0,.11,0,.25,0,.41a28.11,28.11,0,0,1-.15,5.78A5.66,5.66,0,0,0,17,26.5,4.75,4.75,0,0,0,20.39,28a15,15,0,0,1,.63-1.9l.09-.26c.13-.34.28-.68.44-1,.77-1.72,1.73-3.85.63-9a2,2,0,0,0-1.57-1.75C18.75,13.69,16.17,15.08,15.61,15.58Zm-.08.08Z" style="fill:#fff"/><path d="M19.3,15.29c0,.22.4.8,1,.88a1,1,0,0,0,1.08-.6c0-.22-.4-.46-1-.54s-1,0-1.07.26Z" style="fill:#fff"/><path d="M20.39,16.4h-.16a1.5,1.5,0,0,1-.95-.59.81.81,0,0,1-.2-.54.41.41,0,0,1,.17-.28,1.72,1.72,0,0,1,1.15-.17,1.73,1.73,0,0,1,1.07.47.46.46,0,0,1,.09.32,1,1,0,0,1-.43.57A1.37,1.37,0,0,1,20.39,16.4Zm-.87-1.07a1.1,1.1,0,0,0,.77.62.88.88,0,0,0,.83-.41,1.45,1.45,0,0,0-.78-.28A1.34,1.34,0,0,0,19.52,15.33Zm0,0Z" style="fill:#fff"/><path d="M36.44,14.84c0,.22-.4.81-1,.88a1,1,0,0,1-1.08-.59c0-.22.41-.46,1-.54s1,0,1.07.25Z" style="fill:#fff"/><path d="M35.35,15.84a1.26,1.26,0,0,1-.73-.25.82.82,0,0,1-.33-.45c0-.33.5-.59,1.06-.66a2.23,2.23,0,0,1,.78,0c.25.06.4.18.43.34a.86.86,0,0,1-.29.58,1.37,1.37,0,0,1-.78.42Zm.37-1.17-.34,0c-.58.08-.88.31-.87.41a.61.61,0,0,0,.25.3.93.93,0,0,0,.7.2,1.13,1.13,0,0,0,.64-.35.71.71,0,0,0,.23-.4s-.08-.11-.25-.15A2,2,0,0,0,35.72,14.67Z" style="fill:#fff"/><path d="M37.26,27.48a.68.68,0,0,1-.38-.12.67.67,0,0,1-.18-.93c1.31-1.95,1.07-3.95.84-5.89A16.43,16.43,0,0,1,37.36,18a19.12,19.12,0,0,1,.24-2.22,11.34,11.34,0,0,0,.19-2.44.67.67,0,0,1,.63-.71.69.69,0,0,1,.71.64A12.64,12.64,0,0,1,38.92,16a17.31,17.31,0,0,0-.22,2.07,15.92,15.92,0,0,0,.17,2.31c.25,2.08.53,4.43-1.06,6.8A.68.68,0,0,1,37.26,27.48Z" style="fill:#fff"/></svg>