<?xml version="1.0" encoding="utf-8"?>
<!-- Generator: Adobe Illustrator 23.0.4, SVG Export Plug-In . SVG Version: 6.00 Build 0)  -->
<svg version="1.1" id="Lager_1" xmlns="http://www.w3.org/2000/svg" xmlns:xlink="http://www.w3.org/1999/xlink" x="0px" y="0px"
	 viewBox="0 0 150 150" style="enable-background:new 0 0 150 150;" xml:space="preserve">
<style type="text/css">
	.st0{fill:#FFFFFF;}
</style>
<g>
	<g>
		<g>
			<g>
				<path class="st0" d="M20.67,96.32v14.51H17.2V96.32H20.67z"/>
			</g>
			<g>
				<path class="st0" d="M25.93,111.01c-1.04,0-1.9-0.26-2.57-0.79c-0.67-0.53-1.01-1.33-1.01-2.41c0-0.8,0.18-1.44,0.55-1.92
					c0.37-0.47,0.86-0.83,1.47-1.06c0.61-0.23,1.29-0.37,2.02-0.44c0.93-0.08,1.59-0.18,1.99-0.3c0.39-0.12,0.59-0.34,0.59-0.67
					v-0.04c0-0.36-0.13-0.64-0.38-0.84c-0.25-0.2-0.59-0.3-1.01-0.3c-0.46,0-0.83,0.1-1.11,0.3c-0.28,0.2-0.46,0.47-0.53,0.82
					l-3.2-0.11c0.14-0.99,0.62-1.82,1.43-2.47s1.96-0.99,3.43-0.99c0.93,0,1.75,0.14,2.48,0.43c0.73,0.29,1.3,0.7,1.71,1.24
					c0.42,0.54,0.63,1.19,0.63,1.96v7.4h-3.26v-1.52h-0.09C28.49,110.45,27.43,111.01,25.93,111.01z M27,108.75
					c0.55,0,1.02-0.17,1.41-0.5c0.39-0.33,0.58-0.76,0.58-1.29v-1.03c-0.19,0.1-0.47,0.19-0.82,0.26c-0.35,0.07-0.69,0.13-1.01,0.18
					c-1.03,0.16-1.54,0.58-1.54,1.28c0,0.36,0.13,0.63,0.38,0.82C26.27,108.65,26.6,108.75,27,108.75z"/>
			</g>
			<g>
				<path class="st0" d="M39.63,111.03c-1.15,0-2.13-0.24-2.95-0.71c-0.82-0.47-1.45-1.13-1.89-1.98s-0.66-1.82-0.66-2.92
					c0-1.11,0.22-2.09,0.66-2.94s1.07-1.5,1.89-1.97s1.8-0.71,2.94-0.71c1.01,0,1.89,0.18,2.64,0.55c0.75,0.36,1.33,0.88,1.75,1.54
					c0.42,0.66,0.65,1.44,0.67,2.33h-3.24c-0.07-0.56-0.25-0.99-0.56-1.31c-0.31-0.32-0.71-0.48-1.21-0.48
					c-0.6,0-1.09,0.25-1.46,0.75c-0.37,0.5-0.55,1.23-0.55,2.19c0,0.97,0.18,1.7,0.55,2.21c0.37,0.5,0.85,0.75,1.46,0.75
					c0.48,0,0.88-0.15,1.2-0.46c0.32-0.31,0.51-0.75,0.57-1.33h3.24c-0.03,0.9-0.25,1.68-0.67,2.35c-0.42,0.67-1,1.19-1.74,1.56
					C41.53,110.85,40.65,111.03,39.63,111.03z"/>
			</g>
			<g>
				<path class="st0" d="M46.46,110.83V96.32h3.47v7.53h0.16l3.06-3.9h3.93l-3.86,4.74l4.02,6.14h-4l-2.59-4.12l-0.7,0.85v3.27
					H46.46z"/>
			</g>
			<g>
				<path class="st0" d="M80.59,111.01c-1.04,0-1.9-0.26-2.57-0.79c-0.67-0.53-1.01-1.33-1.01-2.41c0-0.8,0.18-1.44,0.55-1.92
					c0.37-0.47,0.86-0.83,1.47-1.06c0.61-0.23,1.29-0.37,2.02-0.44c0.93-0.08,1.59-0.18,1.99-0.3c0.4-0.12,0.59-0.34,0.59-0.67
					v-0.04c0-0.36-0.13-0.64-0.38-0.84c-0.25-0.2-0.59-0.3-1.01-0.3c-0.46,0-0.83,0.1-1.11,0.3c-0.28,0.2-0.46,0.47-0.53,0.82
					l-3.2-0.11c0.14-0.99,0.62-1.82,1.43-2.47s1.96-0.99,3.43-0.99c0.93,0,1.75,0.14,2.48,0.43c0.73,0.29,1.3,0.7,1.71,1.24
					c0.42,0.54,0.63,1.19,0.63,1.96v7.4h-3.26v-1.52h-0.09C83.14,110.45,82.09,111.01,80.59,111.01z M81.66,108.75
					c0.55,0,1.02-0.17,1.41-0.5c0.39-0.33,0.59-0.76,0.59-1.29v-1.03c-0.19,0.1-0.47,0.19-0.82,0.26c-0.35,0.07-0.69,0.13-1.01,0.18
					c-1.03,0.16-1.54,0.58-1.54,1.28c0,0.36,0.13,0.63,0.38,0.82C80.93,108.65,81.26,108.75,81.66,108.75z"/>
			</g>
			<g>
				<path class="st0" d="M90.93,114.9c-0.42,0-0.81-0.03-1.18-0.1c-0.37-0.06-0.68-0.15-0.95-0.25l0.77-2.52
					c0.51,0.16,0.94,0.22,1.29,0.17c0.35-0.05,0.62-0.27,0.81-0.66l0.13-0.33l-3.87-11.28h3.63l2.01,7.77h0.11l2.03-7.77l3.65,0.01
					l-4.1,11.92c-0.3,0.88-0.79,1.61-1.46,2.18C93.13,114.61,92.17,114.9,90.93,114.9z"/>
			</g>
			<g>
				<path class="st0" d="M123.45,111.01c-1.04,0-1.9-0.26-2.57-0.79s-1.01-1.33-1.01-2.41c0-0.8,0.18-1.44,0.55-1.92
					c0.37-0.47,0.86-0.83,1.47-1.06c0.61-0.23,1.29-0.37,2.02-0.44c0.93-0.08,1.59-0.18,1.99-0.3c0.4-0.12,0.59-0.34,0.59-0.67
					v-0.04c0-0.36-0.13-0.64-0.38-0.84c-0.25-0.2-0.59-0.3-1.01-0.3c-0.46,0-0.83,0.1-1.11,0.3c-0.28,0.2-0.46,0.47-0.53,0.82
					l-3.2-0.11c0.14-0.99,0.62-1.82,1.44-2.47s1.96-0.99,3.43-0.99c0.93,0,1.75,0.14,2.48,0.43c0.73,0.29,1.3,0.7,1.71,1.24
					c0.42,0.54,0.63,1.19,0.63,1.96v7.4h-3.26v-1.52h-0.09C126.01,110.45,124.96,111.01,123.45,111.01z M124.52,108.75
					c0.55,0,1.02-0.17,1.41-0.5c0.39-0.33,0.59-0.76,0.59-1.29v-1.03c-0.19,0.1-0.47,0.19-0.82,0.26c-0.35,0.07-0.69,0.13-1.01,0.18
					c-1.03,0.16-1.54,0.58-1.54,1.28c0,0.36,0.13,0.63,0.38,0.82C123.79,108.65,124.12,108.75,124.52,108.75z"/>
			</g>
			<g>
				<path class="st0" d="M138.21,99.94v2.55h-1.96v4.91c0,0.32,0.08,0.55,0.23,0.68c0.15,0.13,0.37,0.19,0.65,0.19
					c0.13,0,0.27-0.01,0.42-0.04c0.15-0.03,0.26-0.05,0.34-0.07l0.52,2.5c-0.17,0.05-0.4,0.11-0.69,0.17
					c-0.3,0.07-0.66,0.11-1.08,0.14c-1.22,0.06-2.17-0.19-2.85-0.73c-0.68-0.54-1.01-1.37-1-2.47v-5.29h-1.44v-2.55h1.44v-2.61h3.47
					v2.61H138.21z"/>
			</g>
			<g>
				<path class="st0" d="M143.05,111.01c-1.04,0-1.9-0.26-2.57-0.79s-1.01-1.33-1.01-2.41c0-0.8,0.18-1.44,0.55-1.92
					c0.37-0.47,0.86-0.83,1.47-1.06c0.61-0.23,1.29-0.37,2.02-0.44c0.93-0.08,1.59-0.18,1.99-0.3c0.39-0.12,0.59-0.34,0.59-0.67
					v-0.04c0-0.36-0.12-0.64-0.38-0.84c-0.25-0.2-0.59-0.3-1.01-0.3c-0.46,0-0.83,0.1-1.11,0.3c-0.28,0.2-0.46,0.47-0.53,0.82
					l-3.2-0.11c0.14-0.99,0.62-1.82,1.44-2.47s1.96-0.99,3.43-0.99c0.93,0,1.75,0.14,2.48,0.43c0.73,0.29,1.3,0.7,1.72,1.24
					c0.42,0.54,0.63,1.19,0.63,1.96v7.4h-3.26v-1.52h-0.08C145.61,110.45,144.55,111.01,143.05,111.01z M144.12,108.75
					c0.55,0,1.02-0.17,1.41-0.5c0.39-0.33,0.58-0.76,0.58-1.29v-1.03c-0.19,0.1-0.47,0.19-0.82,0.26c-0.35,0.07-0.69,0.13-1.01,0.18
					c-1.03,0.16-1.54,0.58-1.54,1.28c0,0.36,0.13,0.63,0.38,0.82C143.39,108.65,143.72,108.75,144.12,108.75z"/>
			</g>
			<g>
				<g>
					<path class="st0" d="M15.06,104.95c-0.3-0.51-0.7-0.91-1.2-1.2c-0.5-0.29-1.04-0.45-1.63-0.47v-0.14
						c0.8-0.16,1.45-0.52,1.96-1.08c0.51-0.55,0.76-1.24,0.76-2.07c0-1.1-0.42-1.98-1.25-2.66c-0.83-0.68-2.07-1.01-3.7-1.01H3.95
						v10.65h3.51v-2.42h2.23c0.67,0,1.2,0.16,1.58,0.49c0.39,0.33,0.58,0.77,0.58,1.33c0,0.52-0.18,0.92-0.54,1.2
						c-0.36,0.29-0.92,0.43-1.68,0.43H7.81H7.46H3.95v2.83h6.51c1.07,0,1.98-0.18,2.74-0.53c0.75-0.35,1.33-0.83,1.72-1.45
						c0.4-0.61,0.6-1.31,0.6-2.09C15.52,106.07,15.37,105.46,15.06,104.95z M10.82,101.86c-0.37,0.28-0.84,0.43-1.42,0.43H7.46V99.1
						h2c0.59,0,1.05,0.14,1.4,0.42c0.34,0.28,0.52,0.66,0.52,1.14C11.37,101.18,11.19,101.57,10.82,101.86z"/>
				</g>
				<g>
					<rect x="0.44" y="106.96" class="st0" width="3.51" height="1.04"/>
				</g>
			</g>
			<g>
				<g>
					<path class="st0" d="M75.38,104.95c-0.3-0.51-0.7-0.91-1.2-1.2c-0.5-0.29-1.04-0.45-1.63-0.47v-0.14
						c0.8-0.16,1.45-0.52,1.96-1.08c0.51-0.55,0.76-1.24,0.76-2.07c0-1.1-0.42-1.98-1.25-2.66c-0.83-0.68-2.07-1.01-3.7-1.01h-6.05
						v2.78h3.51h0.33h1.67c0.59,0,1.05,0.14,1.4,0.42c0.34,0.28,0.52,0.66,0.52,1.14c0,0.51-0.18,0.91-0.55,1.19
						c-0.37,0.28-0.84,0.43-1.42,0.43h-1.94v-2.14h-3.51v10.69h6.51c1.07,0,1.98-0.18,2.74-0.53c0.75-0.35,1.33-0.83,1.72-1.45
						c0.4-0.61,0.6-1.31,0.6-2.09C75.83,106.07,75.68,105.46,75.38,104.95z M71.63,107.57c-0.36,0.29-0.92,0.43-1.68,0.43h-2.17
						v-3.46h2.23c0.67,0,1.2,0.16,1.58,0.49c0.39,0.33,0.58,0.77,0.58,1.33C72.17,106.88,71.99,107.28,71.63,107.57z"/>
				</g>
				<g>
					<rect x="60.76" y="99.1" class="st0" width="3.51" height="1.04"/>
				</g>
			</g>
			<g>
				<g>
					<path class="st0" d="M117.47,99.68c-0.58-1.08-1.41-1.91-2.48-2.49c-1.07-0.58-2.34-0.87-3.82-0.87h-5.36v10.48h3.51v-7.49H111
						c1.25,0,2.2,0.32,2.85,0.96c0.65,0.64,0.98,1.74,0.98,3.3c0,1.57-0.33,2.67-0.97,3.31c-0.65,0.64-1.59,0.96-2.81,0.96h-1.5
						h-0.22h-3.51v2.99h5.36c1.47,0,2.75-0.29,3.82-0.87c1.07-0.58,1.9-1.41,2.48-2.5c0.58-1.08,0.87-2.38,0.87-3.89
						C118.34,102.05,118.05,100.76,117.47,99.68z"/>
				</g>
				<g>
					<rect x="102.31" y="106.8" class="st0" width="3.51" height="1.04"/>
				</g>
			</g>
		</g>
		<g>
			<g>
				<path class="st0" d="M3.95,119.46h1.22l2.12,5.17h0.08l2.12-5.17h1.22v6.65H9.75v-4.81H9.68l-1.96,4.8H6.93l-1.96-4.8H4.91v4.81
					H3.95V119.46z"/>
			</g>
			<g>
				<path class="st0" d="M13.18,126.1h-1.07l2.39-6.65h1.16l2.39,6.65H17l-0.61-1.76h-2.6L13.18,126.1z M14.08,123.5h2.01
					l-0.98-2.84h-0.05L14.08,123.5z"/>
			</g>
			<g>
				<path class="st0" d="M24.85,119.46v6.65h-0.92l-3.38-4.88h-0.06v4.88h-1v-6.65h0.93l3.38,4.88h0.06v-4.88H24.85z"/>
			</g>
			<g>
				<path class="st0" d="M27.33,126.1h-1.07l2.39-6.65h1.16l2.39,6.65h-1.07l-0.61-1.76h-2.6L27.33,126.1z M28.23,123.5h2.01
					l-0.98-2.84h-0.05L28.23,123.5z"/>
			</g>
			<g>
				<path class="st0" d="M37.82,121.56c-0.13-0.39-0.33-0.71-0.63-0.93c-0.29-0.23-0.66-0.34-1.1-0.34c-0.37,0-0.71,0.1-1.01,0.29
					c-0.3,0.19-0.54,0.47-0.71,0.85s-0.26,0.83-0.26,1.36c0,0.54,0.09,0.99,0.26,1.37c0.18,0.37,0.42,0.65,0.72,0.85
					c0.31,0.19,0.65,0.29,1.04,0.29c0.53,0,0.96-0.16,1.29-0.47c0.33-0.31,0.5-0.74,0.51-1.28h-1.64v-0.83h2.61v0.76
					c0,0.56-0.12,1.04-0.36,1.45s-0.56,0.73-0.98,0.95c-0.42,0.22-0.89,0.33-1.43,0.33c-0.6,0-1.13-0.14-1.58-0.41
					c-0.45-0.28-0.81-0.67-1.06-1.18c-0.25-0.51-0.38-1.12-0.38-1.82c0-0.71,0.13-1.32,0.39-1.83c0.26-0.51,0.61-0.9,1.06-1.18
					c0.45-0.28,0.96-0.41,1.53-0.41c0.48,0,0.91,0.09,1.3,0.28s0.71,0.44,0.97,0.77c0.26,0.33,0.42,0.71,0.5,1.14H37.82z"/>
			</g>
			<g>
				<path class="st0" d="M40.62,126.1v-6.65h4.17v0.86h-3.17v2.03h2.95v0.86h-2.95v2.04h3.21v0.86H40.62z"/>
			</g>
			<g>
				<path class="st0" d="M46.59,119.46h1.22l2.12,5.17h0.08l2.12-5.17h1.22v6.65h-0.95v-4.81h-0.06l-1.96,4.8h-0.79l-1.96-4.8h-0.06
					v4.81h-0.95V119.46z"/>
			</g>
			<g>
				<path class="st0" d="M55.26,126.1v-6.65h4.17v0.86h-3.17v2.03h2.95v0.86h-2.95v2.04h3.21v0.86H55.26z"/>
			</g>
			<g>
				<path class="st0" d="M66.6,119.46v6.65h-0.92l-3.38-4.88h-0.06v4.88h-1v-6.65h0.93l3.38,4.88h0.06v-4.88H66.6z"/>
			</g>
			<g>
				<path class="st0" d="M68.19,120.32v-0.86h5.15v0.86h-2.08v5.78h-1v-5.78H68.19z"/>
			</g>
			<g>
				<path class="st0" d="M79.67,126.2c-0.45,0-0.83-0.08-1.15-0.24c-0.32-0.16-0.57-0.38-0.74-0.66c-0.17-0.28-0.26-0.6-0.26-0.95
					c0-0.4,0.12-0.73,0.35-1c0.24-0.27,0.54-0.54,0.92-0.8c-0.21-0.26-0.38-0.51-0.52-0.76c-0.14-0.25-0.21-0.52-0.21-0.82
					c0-0.31,0.07-0.58,0.21-0.81s0.33-0.42,0.59-0.56c0.25-0.13,0.55-0.2,0.88-0.2c0.34,0,0.64,0.07,0.88,0.2
					c0.25,0.13,0.44,0.31,0.57,0.53c0.13,0.22,0.2,0.46,0.2,0.72c0,0.32-0.08,0.59-0.23,0.84c-0.16,0.24-0.37,0.46-0.65,0.66
					l-0.45,0.33l1.33,1.59c0.09-0.17,0.15-0.35,0.2-0.54c0.05-0.2,0.07-0.4,0.07-0.63h0.88c0,0.46-0.06,0.84-0.17,1.15
					c-0.11,0.31-0.24,0.55-0.38,0.74l0.95,1.13h-1.1l-0.45-0.53c-0.23,0.21-0.49,0.37-0.8,0.47
					C80.27,126.15,79.97,126.2,79.67,126.2z M80.84,124.94l-1.49-1.75l-0.18,0.13c-0.26,0.19-0.44,0.38-0.54,0.56
					c-0.1,0.19-0.15,0.33-0.15,0.43c0,0.29,0.11,0.54,0.33,0.75s0.51,0.32,0.87,0.32C80.1,125.38,80.48,125.23,80.84,124.94z
					 M79.52,122.02l0.41-0.29c0.18-0.12,0.32-0.25,0.42-0.38c0.1-0.13,0.15-0.3,0.15-0.49c0-0.16-0.07-0.31-0.2-0.45
					c-0.13-0.14-0.31-0.21-0.54-0.21c-0.23,0-0.42,0.08-0.57,0.24c-0.15,0.16-0.22,0.34-0.22,0.53c0,0.17,0.05,0.34,0.16,0.51
					C79.24,121.66,79.37,121.84,79.52,122.02z"/>
			</g>
			<g>
				<path class="st0" d="M92.63,121.62h-1.01c-0.08-0.43-0.28-0.76-0.61-0.99c-0.32-0.23-0.7-0.35-1.12-0.35
					c-0.38,0-0.72,0.1-1.03,0.29c-0.3,0.19-0.54,0.47-0.72,0.85c-0.17,0.37-0.26,0.83-0.26,1.36c0,0.54,0.09,1,0.26,1.37
					c0.18,0.37,0.41,0.65,0.72,0.84c0.3,0.19,0.64,0.29,1.02,0.29c0.42,0,0.79-0.11,1.11-0.34c0.32-0.23,0.53-0.55,0.61-0.98l1.01,0
					c-0.07,0.44-0.23,0.82-0.48,1.16c-0.25,0.34-0.57,0.6-0.95,0.79c-0.39,0.19-0.82,0.28-1.31,0.28c-0.58,0-1.09-0.14-1.54-0.41
					c-0.45-0.27-0.81-0.67-1.06-1.18c-0.26-0.51-0.39-1.12-0.39-1.83c0-0.71,0.13-1.32,0.39-1.83c0.26-0.51,0.61-0.9,1.07-1.17
					c0.45-0.27,0.96-0.41,1.54-0.41c0.47,0,0.9,0.09,1.28,0.27c0.39,0.18,0.71,0.43,0.96,0.77
					C92.39,120.74,92.55,121.15,92.63,121.62z"/>
			</g>
			<g>
				<path class="st0" d="M100.07,122.78c0,0.71-0.13,1.32-0.39,1.83s-0.62,0.9-1.07,1.18c-0.45,0.27-0.96,0.41-1.54,0.41
					c-0.58,0-1.09-0.14-1.54-0.41c-0.45-0.27-0.81-0.67-1.07-1.18c-0.26-0.51-0.39-1.12-0.39-1.83c0-0.71,0.13-1.32,0.39-1.83
					c0.26-0.51,0.62-0.9,1.07-1.17c0.45-0.27,0.96-0.41,1.54-0.41c0.57,0,1.09,0.14,1.54,0.41c0.45,0.27,0.81,0.67,1.07,1.17
					S100.07,122.07,100.07,122.78z M99.07,122.78c0-0.54-0.09-1-0.26-1.37c-0.17-0.37-0.41-0.65-0.71-0.84
					c-0.3-0.19-0.64-0.29-1.02-0.29c-0.38,0-0.72,0.1-1.02,0.29c-0.3,0.19-0.54,0.47-0.71,0.84c-0.17,0.37-0.26,0.83-0.26,1.37
					c0,0.54,0.09,0.99,0.26,1.37c0.17,0.37,0.41,0.65,0.71,0.85c0.3,0.19,0.64,0.29,1.02,0.29c0.38,0,0.72-0.1,1.02-0.29
					c0.3-0.19,0.54-0.47,0.71-0.85C98.98,123.78,99.07,123.32,99.07,122.78z"/>
			</g>
			<g>
				<path class="st0" d="M107.14,119.46v6.65h-0.92l-3.38-4.88h-0.06v4.88h-1v-6.65h0.93l3.38,4.88h0.06v-4.88H107.14z"/>
			</g>
			<g>
				<path class="st0" d="M112.69,121.2c-0.03-0.31-0.18-0.55-0.43-0.72c-0.25-0.17-0.57-0.25-0.95-0.25c-0.41,0-0.73,0.09-0.97,0.28
					s-0.36,0.42-0.36,0.7c0,0.21,0.06,0.38,0.19,0.52c0.13,0.13,0.29,0.24,0.47,0.31c0.19,0.08,0.37,0.14,0.54,0.18l0.65,0.17
					c0.21,0.05,0.43,0.12,0.65,0.21c0.22,0.09,0.43,0.21,0.62,0.35c0.19,0.14,0.35,0.32,0.46,0.54c0.12,0.21,0.18,0.47,0.18,0.77
					c0,0.37-0.1,0.71-0.29,1c-0.19,0.29-0.47,0.52-0.84,0.69c-0.37,0.17-0.81,0.25-1.33,0.25c-0.74,0-1.34-0.17-1.78-0.52
					c-0.44-0.35-0.68-0.82-0.71-1.42h1.01c0.03,0.36,0.19,0.63,0.47,0.8c0.28,0.18,0.62,0.26,1,0.26c0.43,0,0.78-0.1,1.06-0.3
					c0.28-0.2,0.42-0.46,0.42-0.78c0-0.2-0.06-0.36-0.17-0.49c-0.11-0.13-0.26-0.23-0.45-0.31c-0.19-0.08-0.4-0.15-0.64-0.22
					l-0.79-0.21c-0.53-0.15-0.96-0.36-1.27-0.64c-0.31-0.28-0.46-0.65-0.46-1.12c0-0.38,0.1-0.72,0.31-1s0.49-0.51,0.85-0.67
					c0.36-0.16,0.76-0.24,1.2-0.24c0.45,0,0.85,0.08,1.19,0.24c0.35,0.16,0.62,0.38,0.82,0.65c0.2,0.28,0.3,0.59,0.31,0.95H112.69z"
					/>
			</g>
			<g>
				<path class="st0" d="M119.68,119.46h1v4.4c0,0.5-0.12,0.93-0.35,1.28c-0.24,0.35-0.55,0.62-0.95,0.8
					c-0.4,0.19-0.84,0.28-1.34,0.28c-0.49,0-0.93-0.09-1.33-0.28c-0.4-0.19-0.72-0.45-0.95-0.8c-0.24-0.35-0.35-0.78-0.35-1.28v-4.4
					h1v4.38c0,0.31,0.07,0.57,0.22,0.79s0.35,0.38,0.6,0.49c0.25,0.11,0.52,0.17,0.82,0.17c0.3,0,0.57-0.06,0.82-0.17
					c0.25-0.11,0.45-0.28,0.6-0.49c0.15-0.22,0.22-0.48,0.22-0.79V119.46z"/>
			</g>
			<g>
				<path class="st0" d="M122.6,126.1v-6.65h1v5.78h3.01v0.86H122.6z"/>
			</g>
			<g>
				<path class="st0" d="M127.03,120.32v-0.86h5.15v0.86h-2.08v5.78h-1v-5.78H127.03z"/>
			</g>
			<g>
				<path class="st0" d="M134.77,119.46v6.65h-1v-6.65H134.77z"/>
			</g>
			<g>
				<path class="st0" d="M142.06,119.46v6.65h-0.92l-3.38-4.88h-0.06v4.88h-1v-6.65h0.93l3.38,4.88h0.06v-4.88H142.06z"/>
			</g>
			<g>
				<path class="st0" d="M148.48,121.56c-0.13-0.39-0.34-0.71-0.63-0.93c-0.29-0.23-0.66-0.34-1.1-0.34c-0.37,0-0.71,0.1-1.01,0.29
					c-0.3,0.19-0.54,0.47-0.71,0.85c-0.17,0.37-0.26,0.83-0.26,1.36c0,0.54,0.09,0.99,0.26,1.37c0.18,0.37,0.42,0.65,0.72,0.85
					c0.31,0.19,0.65,0.29,1.04,0.29c0.53,0,0.96-0.16,1.29-0.47c0.33-0.31,0.5-0.74,0.51-1.28h-1.64v-0.83h2.61v0.76
					c0,0.56-0.12,1.04-0.36,1.45c-0.24,0.41-0.56,0.73-0.98,0.95c-0.42,0.22-0.89,0.33-1.43,0.33c-0.6,0-1.13-0.14-1.58-0.41
					c-0.45-0.28-0.81-0.67-1.06-1.18c-0.25-0.51-0.38-1.12-0.38-1.82c0-0.71,0.13-1.32,0.39-1.83s0.61-0.9,1.06-1.18
					c0.45-0.28,0.96-0.41,1.53-0.41c0.48,0,0.91,0.09,1.3,0.28s0.71,0.44,0.97,0.77c0.26,0.33,0.42,0.71,0.5,1.14H148.48z"/>
			</g>
		</g>
	</g>
	<g>
		<g>
			<g>
				<path class="st0" d="M95.59,87.64l-13.01-1.51l-0.49-9.18c-4.53,0.82-8.73,2.47-12.37,4.76l-0.18,3.36l-11.63,2.57l-0.39,0.49
					h38.45L95.59,87.64z"/>
			</g>
			<g>
				<g>
					<path class="st0" d="M81.11,50.16v1.06c0.47,0.21,0.74,0.45,0.74,0.71v2.48c1.31,0.35,2.14,0.84,2.14,1.38v2.85
						c-0.74-1.03-3.54-1.71-7.23-1.71c-3.69,0-6.49,0.69-7.23,1.71v-2.85c0-0.54,0.82-1.03,2.14-1.38v-2.48
						c0-0.26,0.27-0.5,0.74-0.71v-1.06l-21.35,4.2c-0.01,0.34-0.05,0.66-0.05,1c0,11.81,7.96,21.74,18.81,24.78l0.18-3.46
						c3.44-2.25,7.47-3.83,11.85-4.52l-0.32-6.03c-4.06,0.81-7.84,2.28-11.19,4.29l0.27-5.04c3.56-2.21,7.71-3.71,12.2-4.28
						l1.01,19.02c10.48-2.98,18.22-12.42,18.66-23.74l4.89,0.96l1.68-1.68L81.11,50.16z"/>
				</g>
			</g>
			<g>
				<path class="st0" d="M80.44,50.97v-5.75c0-0.57-1.65-1.04-3.68-1.04c-2.03,0-3.69,0.47-3.69,1.04v5.75
					c0.55-0.18,1.28-0.31,2.09-0.39v-2.73c0-0.24,0.73-0.43,1.64-0.43c0.91,0,1.64,0.19,1.64,0.43v2.73
					C79.22,50.66,79.91,50.79,80.44,50.97z"/>
			</g>
		</g>
		<g>
			<g>
				<path class="st0" d="M81.11,45.84v2.57l19.05-3.75c-4.06-8.88-13.01-15.06-23.41-15.06c-9.67,0-18.09,5.34-22.49,13.23
					l-8.1-1.59l-1.68,1.68l27.92,5.49v-2.57c-0.47-0.21-0.74-0.45-0.74-0.71c0-0.15,0.09-0.29,0.25-0.43
					c0.64-0.67,2.34-1.65,3.58-2.19v-2.08c0-0.58,0.4-1.06,0.93-1.21v-3.34c0-0.04,0.14-0.08,0.32-0.08c0.18,0,0.33,0.04,0.33,0.08
					v3.34c0.53,0.15,0.93,0.63,0.93,1.21v2.08c1.25,0.54,2.94,1.53,3.58,2.19c0.17,0.14,0.26,0.28,0.26,0.43
					C81.85,45.39,81.57,45.63,81.11,45.84z"/>
			</g>
		</g>
	</g>
</g>
</svg>
