<?xml version="1.0" encoding="utf-8"?>
<!-- Generator: Adobe Illustrator 23.0.4, SVG Export Plug-In . SVG Version: 6.00 Build 0)  -->
<svg class="black-bay-data" version="1.1" id="Lager_1" xmlns="http://www.w3.org/2000/svg" xmlns:xlink="http://www.w3.org/1999/xlink" x="0px" y="0px"
	 viewBox="0 0 700 90" style="enable-background:new 0 0 700 90;" xml:space="preserve">
<style>
	.black-bay-data {
		fill: #283848;
	}
	.letter-line {
		animation: move-line 1.5s ease-out 1s forwards;
	}
	@keyframes move-line {
		to {
			transform: translateX(-15px);
		}
	}
</style>
<!--bLack bay data-->
<path d="M115.78,4.68v62.56h-14.94V4.68H115.78z"/>
<!--blAck bay data-->
<path d="M138.47,68.03c-4.48,0-8.17-1.14-11.07-3.42c-2.9-2.28-4.35-5.74-4.35-10.39c0-3.46,0.79-6.22,2.38-8.26
	c1.59-2.05,3.71-3.56,6.35-4.55c2.65-0.99,5.55-1.61,8.7-1.88c4.01-0.35,6.87-0.77,8.57-1.28c1.7-0.51,2.55-1.48,2.55-2.9v-0.15
	c0-1.57-0.54-2.78-1.62-3.63c-1.08-0.85-2.53-1.28-4.37-1.28c-1.98,0-3.56,0.43-4.77,1.28c-1.2,0.86-1.97,2.04-2.29,3.54
	l-13.78-0.49c0.59-4.27,2.65-7.83,6.19-10.66c3.53-2.83,8.46-4.25,14.77-4.25c3.99,0,7.55,0.62,10.68,1.85
	c3.13,1.23,5.59,3.01,7.39,5.33c1.8,2.32,2.7,5.14,2.7,8.46v31.89h-14.05V60.7h-0.37C149.49,65.59,144.95,68.03,138.47,68.03z
	 M143.08,58.26c2.38,0,4.41-0.71,6.09-2.14c1.68-1.42,2.52-3.28,2.52-5.56V46.1c-0.83,0.45-2.01,0.83-3.53,1.13
	c-1.52,0.3-2.97,0.56-4.35,0.76c-4.42,0.68-6.63,2.5-6.63,5.5c0,1.55,0.55,2.73,1.65,3.54C139.94,57.85,141.35,58.26,143.08,58.26z"
	/>
<!--blaCk bay data-->
<path d="M197.52,68.12c-4.95,0-9.19-1.02-12.72-3.07c-3.53-2.05-6.25-4.89-8.14-8.52c-1.89-3.63-2.84-7.84-2.84-12.6
	c0-4.81,0.95-9.03,2.84-12.66s4.61-6.47,8.16-8.51s7.77-3.05,12.68-3.05c4.36,0,8.15,0.78,11.36,2.35c3.22,1.57,5.74,3.78,7.56,6.65
	c1.82,2.86,2.78,6.22,2.89,10.06h-13.96c-0.29-2.4-1.09-4.29-2.43-5.65c-1.33-1.36-3.07-2.05-5.21-2.05c-2.61,0-4.7,1.08-6.29,3.25
	c-1.59,2.17-2.38,5.32-2.38,9.46c0,4.18,0.79,7.35,2.37,9.52c1.58,2.17,3.68,3.25,6.31,3.25c2.06,0,3.78-0.66,5.16-1.99
	c1.39-1.32,2.21-3.23,2.47-5.71h13.96c-0.12,3.87-1.08,7.25-2.87,10.14c-1.79,2.89-4.29,5.14-7.5,6.74S201.92,68.12,197.52,68.12z"
	/>
<!--blacK bay data-->
<path d="M226.96,67.24V4.68h14.94v32.44h0.67l13.2-16.8h16.92l-16.65,20.44l17.32,26.48h-17.26l-11.18-17.75l-3.02,3.67v14.08
	H226.96z"/>

<!--black bAy data-->
<path d="M374.09,68.03c-4.48,0-8.17-1.14-11.07-3.42c-2.9-2.28-4.35-5.74-4.35-10.39c0-3.46,0.79-6.22,2.38-8.26
	c1.59-2.05,3.71-3.56,6.35-4.55c2.65-0.99,5.55-1.61,8.7-1.88c4.01-0.35,6.87-0.77,8.57-1.28c1.7-0.51,2.55-1.48,2.55-2.9v-0.15
	c0-1.57-0.54-2.78-1.62-3.63c-1.08-0.85-2.54-1.28-4.37-1.28c-1.98,0-3.56,0.43-4.76,1.28c-1.2,0.86-1.97,2.04-2.29,3.54
	l-13.78-0.49c0.59-4.27,2.65-7.83,6.19-10.66s8.45-4.25,14.77-4.25c3.99,0,7.55,0.62,10.68,1.85c3.13,1.23,5.59,3.01,7.39,5.33
	c1.8,2.32,2.7,5.14,2.7,8.46v31.89h-14.05V60.7h-0.37C385.11,65.59,380.57,68.03,374.09,68.03z M378.7,58.26
	c2.38,0,4.41-0.71,6.09-2.14c1.68-1.42,2.52-3.28,2.52-5.56V46.1c-0.84,0.45-2.01,0.83-3.53,1.13c-1.52,0.3-2.97,0.56-4.35,0.76
	c-4.42,0.68-6.63,2.5-6.63,5.5c0,1.55,0.55,2.73,1.65,3.54C375.56,57.85,376.97,58.26,378.7,58.26z"/>
<!--black baY data-->
<path d="M418.66,84.77c-1.79,0-3.48-0.14-5.07-0.41c-1.59-0.28-2.95-0.64-4.09-1.08l3.3-10.84c2.2,0.71,4.06,0.96,5.57,0.75
	c1.52-0.22,2.68-1.16,3.5-2.83l0.58-1.41l-16.68-48.63h15.64l8.65,33.48h0.49l8.77-33.48l15.73,0.03l-17.69,51.38
	c-1.3,3.81-3.4,6.93-6.29,9.38C428.17,83.55,424.03,84.77,418.66,84.77z"/>

<!--black bay dAta-->
<path d="M558.88,68.03c-4.48,0-8.17-1.14-11.07-3.42c-2.9-2.28-4.35-5.74-4.35-10.39c0-3.46,0.79-6.22,2.38-8.26
	c1.59-2.05,3.7-3.56,6.35-4.55c2.65-0.99,5.55-1.61,8.71-1.88c4.01-0.35,6.87-0.77,8.57-1.28c1.7-0.51,2.55-1.48,2.55-2.9v-0.15
	c0-1.57-0.54-2.78-1.62-3.63c-1.08-0.85-2.54-1.28-4.37-1.28c-1.98,0-3.56,0.43-4.76,1.28c-1.2,0.86-1.97,2.04-2.29,3.54
	l-13.78-0.49c0.59-4.27,2.65-7.83,6.19-10.66s8.45-4.25,14.77-4.25c3.99,0,7.55,0.62,10.68,1.85c3.13,1.23,5.59,3.01,7.39,5.33
	c1.8,2.32,2.7,5.14,2.7,8.46v31.89h-14.05V60.7h-0.37C569.89,65.59,565.35,68.03,558.88,68.03z M563.49,58.26
	c2.38,0,4.41-0.71,6.09-2.14c1.68-1.42,2.52-3.28,2.52-5.56V46.1c-0.84,0.45-2.01,0.83-3.53,1.13c-1.52,0.3-2.97,0.56-4.35,0.76
	c-4.42,0.68-6.63,2.5-6.63,5.5c0,1.55,0.55,2.73,1.65,3.54C560.34,57.85,561.75,58.26,563.49,58.26z"/>
<!--black bay daTa-->
<path d="M622.5,20.32v10.99h-8.46v21.17c0,1.39,0.33,2.36,0.99,2.92c0.66,0.56,1.6,0.84,2.79,0.84c0.57,0,1.18-0.06,1.82-0.17
	s1.13-0.21,1.45-0.29l2.26,10.78c-0.71,0.2-1.71,0.45-2.99,0.75c-1.28,0.29-2.83,0.49-4.64,0.59c-5.27,0.24-9.37-0.8-12.3-3.14
	c-2.92-2.34-4.36-5.89-4.32-10.63V31.31h-6.2V20.32h6.2V9.08h14.94v11.24H622.5z"/>
<!--black bay datA-->
<path d="M643.37,68.03c-4.48,0-8.17-1.14-11.07-3.42c-2.9-2.28-4.35-5.74-4.35-10.39c0-3.46,0.79-6.22,2.38-8.26
	c1.59-2.05,3.7-3.56,6.35-4.55c2.65-0.99,5.55-1.61,8.71-1.88c4.01-0.35,6.87-0.77,8.57-1.28c1.7-0.51,2.55-1.48,2.55-2.9v-0.15
	c0-1.57-0.54-2.78-1.62-3.63c-1.08-0.85-2.53-1.28-4.37-1.28c-1.98,0-3.56,0.43-4.76,1.28c-1.2,0.86-1.97,2.04-2.29,3.54
	l-13.78-0.49c0.59-4.27,2.65-7.83,6.19-10.66s8.45-4.25,14.77-4.25c3.99,0,7.55,0.62,10.67,1.85c3.13,1.23,5.59,3.01,7.39,5.33
	c1.8,2.32,2.7,5.14,2.7,8.46v31.89h-14.05V60.7h-0.36C654.38,65.59,649.84,68.03,643.37,68.03z M647.98,58.26
	c2.38,0,4.41-0.71,6.1-2.14c1.68-1.42,2.52-3.28,2.52-5.56V46.1c-0.84,0.45-2.01,0.83-3.53,1.13c-1.52,0.3-2.97,0.56-4.35,0.76
	c-4.42,0.68-6.63,2.5-6.63,5.5c0,1.55,0.55,2.73,1.65,3.54C644.83,57.85,646.24,58.26,647.98,58.26z"/>
<!--Black bay data-->
<path d="M91.61,41.9c-1.3-2.21-3.03-3.94-5.18-5.19c-2.15-1.25-4.49-1.93-7.01-2.03v-0.61c3.44-0.71,6.25-2.26,8.43-4.64
	c2.18-2.38,3.27-5.36,3.27-8.92c0-4.73-1.8-8.54-5.39-11.46c-3.59-2.91-8.9-4.37-15.93-4.37H43.72v45.9h15.12V40.14h9.62
	c2.89,0,5.17,0.71,6.83,2.12c1.66,1.42,2.49,3.33,2.49,5.73c0,2.22-0.78,3.95-2.34,5.19c-1.56,1.24-3.98,1.86-7.25,1.86h-7.82h-1.53
	H43.72v12.19h28.07c4.62,0,8.55-0.76,11.79-2.28c3.24-1.51,5.71-3.59,7.42-6.23c1.71-2.64,2.57-5.64,2.57-9
	C93.57,46.72,92.92,44.11,91.61,41.9z M73.32,28.56c-1.59,1.22-3.63,1.83-6.11,1.83h-8.37V16.68h8.61c2.52,0,4.53,0.61,6.02,1.82
	c1.49,1.21,2.23,2.85,2.23,4.93C75.7,25.63,74.9,27.34,73.32,28.56z"/>

<!--B1-line-->
<rect x="43.72" y="50.58" width="15.12" height="4.48" class="letter-line"/>

<!--black Bay data-->
<path d="M351.64,41.9c-1.3-2.21-3.03-3.94-5.18-5.19c-2.15-1.25-4.49-1.93-7.01-2.03v-0.61c3.44-0.71,6.25-2.26,8.43-4.64
	c2.18-2.38,3.27-5.36,3.27-8.92c0-4.73-1.8-8.54-5.39-11.46c-3.59-2.91-8.9-4.37-15.93-4.37h-26.09v12.01h15.12h1.43h7.18
	c2.52,0,4.53,0.61,6.02,1.82c1.49,1.21,2.23,2.85,2.23,4.93c0,2.2-0.79,3.91-2.38,5.13c-1.59,1.22-3.63,1.83-6.11,1.83h-8.37v-9.24
	h-15.12v46.08h28.07c4.62,0,8.55-0.76,11.79-2.28c3.24-1.51,5.71-3.59,7.42-6.23s2.57-5.64,2.57-9
	C353.6,46.72,352.94,44.11,351.64,41.9z M335.47,53.19c-1.56,1.24-3.98,1.86-7.25,1.86h-9.35V40.14h9.62c2.89,0,5.17,0.71,6.83,2.12
	c1.66,1.42,2.49,3.33,2.49,5.73C337.8,50.21,337.02,51.95,335.47,53.19z"/>

<!--B2-line-->
<rect x="303.74" y="16.67" width="15.12" height="4.48" class="letter-line"/>

<!--black bay Data-->
<path d="M533.09,19.16c-2.5-4.66-6.06-8.24-10.68-10.74c-4.61-2.49-10.11-3.74-16.48-3.74h-23.09v45.2h15.12v-32.3h7.21
	c5.38,0,9.48,1.37,12.3,4.12c2.82,2.75,4.23,7.49,4.23,14.23c0,6.76-1.4,11.52-4.2,14.28c-2.8,2.76-6.84,4.14-12.11,4.14h-6.46
	h-0.96h-15.12v12.89h23.12c6.36,0,11.84-1.25,16.46-3.76c4.62-2.5,8.18-6.09,10.68-10.77c2.49-4.68,3.74-10.27,3.74-16.79
	S535.6,23.82,533.09,19.16z"/>

<!--D-line-->
<rect x="482.84" y="49.86" width="15.12" height="4.48" class="letter-line"/>

</svg>
