<?xml version="1.0" encoding="utf-8"?>
<!-- Generator: Adobe Illustrator 19.2.0, SVG Export Plug-In . SVG Version: 6.00 Build 0)  -->
<svg version="1.1" id="Lager_1" xmlns="http://www.w3.org/2000/svg" xmlns:xlink="http://www.w3.org/1999/xlink" x="0px" y="0px"
	 viewBox="0 0 600 493" style="enable-background:new 0 0 600 493;" xml:space="preserve">
<style type="text/css">
	.st0{fill:#FC3535;}
	.st1{fill:#8DA58F;}
	.st2{fill:#B2312C;}
	.st3{opacity:0.8;}
	.st4{fill:#FFC04D;}
	.st5{fill:#C0953E;}
	.st6{fill:#B5D4B7;}
	.st7{fill:none;stroke:#B5D4B7;stroke-miterlimit:10;}
	.st8{fill:none;stroke:#FFC04D;stroke-miterlimit:10;}
	.st9{fill:#283848;}
	.st10{opacity:0.2;fill:#FFFFFF;}
	.st11{opacity:0.39;fill:#FFFFFF;}
	.st12{opacity:0.8;fill:#FFFFFF;}
	.st13{opacity:0.5;fill:#FFFFFF;}
	.st14{opacity:0.3;fill:#FFFFFF;}
	.st15{opacity:0.5;fill:#B5D4B7;}
	.st16{opacity:0.3;fill:#B5D4B7;}
	.st17{fill:#FFE1BD;}
	.st18{fill:#1A2631;}
	.st19{fill:#3A3A3A;}
	.st20{fill:#594A5F;}
	.st21{fill:#4C4051;}
	.st22{fill:#F4D4B3;}
	.st23{fill:#E6991D;}
	.st24{fill:#39202E;}
	.st25{fill:#FFFFFF;}
	.st26{fill:#B4BCC5;}
	.st27{display:none;}
	.st28{display:inline;fill:#5FB0E7;}
	.st29{display:inline;fill:#EBFAFF;}
	.st30{display:inline;fill:#80D4DD;}
	.st31{fill:#703412;}
	.st32{fill:#8C3200;}
	.st33{opacity:0.47;fill:#FCCB95;}
	.st34{display:none;fill:#3A3A3A;}
	.st35{opacity:0.3;}
	.st36{fill:#FCCB95;}
	.st37{fill:#F29127;}
</style>
<title>3_work</title>
<desc>Created with Sketch.</desc>
<g>
	<g>
		<g>
			<path class="st0" d="M78.9,279.1c-5.1-5.9-12.6-9.6-21-9.6c-7.8,0-14.8,3.2-19.9,8.3c-4.9,5-8,11.9-8,19.5
				c0,15.4,12.5,27.9,27.9,27.9c4.5,0,8.7-1.1,12.4-2.9c7.5-3.7,13-10.7,14.8-19.1c0.4-1.9,0.6-3.8,0.6-5.8
				C85.8,290.4,83.2,284,78.9,279.1z M80.6,302.2c-1.5,7-6.1,12.8-12.3,15.9c-3.1,1.6-6.6,2.4-10.3,2.4c-12.8,0-23.1-10.4-23.1-23.2
				c0-6.3,2.5-12,6.7-16.2c4.2-4.3,10-6.9,16.5-6.9c7,0,13.2,3.1,17.4,7.9c3.6,4.1,5.7,9.4,5.7,15.2
				C81.1,299.1,80.9,300.7,80.6,302.2z"/>
		</g>
		<path class="st1" d="M85.2,303.2c-1.8,8.4-7.4,15.4-14.8,19.1l-2.1-4.2c6.2-3.1,10.8-8.9,12.3-15.9L85.2,303.2z"/>
		<path class="st2" d="M78.9,279.1l-3.6,3.1c-4.2-4.9-10.5-7.9-17.4-7.9c-6.5,0-12.3,2.7-16.5,6.9l-3.4-3.3
			c5.1-5.2,12.1-8.3,19.9-8.3C66.3,269.5,73.8,273.2,78.9,279.1z"/>
	</g>
	<g class="st3">
		<g>
			<path class="st4" d="M245.1,46.9c-2.2-4.7-6.3-8.5-11.7-10c-5-1.4-10.1-0.7-14.2,1.6c-4.1,2.3-7.3,6.1-8.7,11
				c-2.9,9.8,2.8,20.1,12.6,23c2.9,0.8,5.8,0.9,8.5,0.4c5.5-1,10.3-4.4,13-9.5c0.6-1.1,1.1-2.3,1.5-3.6
				C247.4,55.4,246.9,50.9,245.1,46.9z M241.8,62c-2.2,4.2-6.3,7-10.8,7.9c-2.3,0.4-4.7,0.3-7.1-0.4c-8.2-2.4-12.9-10.9-10.5-19.1
				c1.2-4,3.9-7.2,7.3-9.1c3.5-2,7.7-2.6,11.8-1.4c4.4,1.3,7.9,4.4,9.7,8.3c1.5,3.3,1.9,7.1,0.8,10.8
				C242.7,60.1,242.3,61.1,241.8,62z"/>
		</g>
		<path class="st5" d="M245.1,46.9l-2.9,1.3c-1.8-3.9-5.2-7-9.7-8.3c-4.1-1.2-8.3-0.6-11.8,1.4l-1.5-2.7c4.2-2.4,9.3-3.1,14.2-1.6
			C238.8,38.5,242.9,42.2,245.1,46.9z"/>
	</g>
	<path class="st6" d="M35.4,369.8l2.8-2.1c-1.4-2.2-3.2-4-5.4-5.4l-2.1,2.8c-1.2-0.7-2.5-1.3-3.9-1.6l0.5-3.5
		c-1.2-0.3-2.5-0.4-3.8-0.4c-1.3,0-2.6,0.2-3.8,0.4l0.5,3.5c-1.4,0.3-2.7,0.9-3.9,1.6l-2.1-2.8c-2.2,1.4-4,3.2-5.4,5.4l2.8,2.1
		c-0.7,1.2-1.3,2.5-1.6,3.9l-3.5-0.5C6.2,374.4,6,375.7,6,377c0,1.3,0.2,2.6,0.4,3.8l3.5-0.5c0.3,1.4,0.9,2.7,1.6,3.9l-2.8,2.1
		c1.4,2.2,3.2,4,5.4,5.4l2.1-2.8c1.2,0.7,2.5,1.3,3.9,1.6l-0.5,3.5c1.2,0.3,2.5,0.4,3.8,0.4c1.3,0,2.6-0.2,3.8-0.4l-0.5-3.5
		c1.4-0.3,2.7-0.9,3.9-1.6l2.1,2.8c2.2-1.4,4-3.2,5.4-5.4l-2.8-2.1c0.7-1.2,1.3-2.5,1.6-3.9l3.5,0.5c0.3-1.2,0.4-2.5,0.4-3.8
		c0-1.3-0.2-2.6-0.4-3.8l-3.5,0.5C36.7,372.3,36.1,371,35.4,369.8z M23.5,386.3c-5.1,0-9.3-4.1-9.3-9.3c0-5.1,4.1-9.3,9.3-9.3
		s9.3,4.1,9.3,9.3C32.7,382.2,28.6,386.3,23.5,386.3z"/>
	<path class="st6" d="M576.7,104.6l4.2-3.2c-2.1-3.3-4.8-6-8.1-8.1l-3.2,4.2c-1.8-1.1-3.8-1.9-5.9-2.4l0.8-5.2
		c-1.8-0.4-3.8-0.6-5.7-0.6c-2,0-3.9,0.2-5.7,0.6l0.8,5.2c-2.1,0.5-4.1,1.3-5.9,2.4l-3.2-4.2c-3.3,2.1-6,4.8-8.1,8.1l4.2,3.2
		c-1.1,1.8-1.9,3.8-2.4,5.9l-5.2-0.8c-0.4,1.8-0.6,3.8-0.6,5.7c0,2,0.2,3.9,0.6,5.7l5.2-0.8c0.5,2.1,1.3,4.1,2.4,5.9l-4.2,3.2
		c2.1,3.3,4.8,6,8.1,8.1l3.2-4.2c1.8,1.1,3.8,1.9,5.9,2.4l-0.8,5.2c1.8,0.4,3.8,0.6,5.7,0.6c2,0,3.9-0.2,5.7-0.6l-0.8-5.2
		c2.1-0.5,4.1-1.3,5.9-2.4l3.2,4.2c3.3-2.1,6-4.8,8.1-8.1l-4.2-3.2c1.1-1.8,1.9-3.8,2.4-5.9l5.2,0.8c0.4-1.8,0.6-3.8,0.6-5.7
		c0-2-0.2-3.9-0.6-5.7l-5.2,0.8C578.7,108.4,577.8,106.4,576.7,104.6z M558.9,129.4c-7.7,0-13.9-6.2-13.9-13.9
		c0-7.7,6.2-13.9,13.9-13.9c7.7,0,13.9,6.2,13.9,13.9C572.8,123.2,566.5,129.4,558.9,129.4z"/>
	<circle class="st7" cx="170.3" cy="21.5" r="7.2"/>
	<circle class="st7" cx="448.3" cy="47.6" r="7.2"/>
	<circle class="st7" cx="265" cy="100.5" r="11.2"/>
	<circle class="st8" cx="585" cy="268.1" r="11.2"/>
</g>
<g>
	<polygon class="st1" points="341.6,465.3 246.5,465.3 256.8,424.7 259.1,415.5 263.7,397.6 324.4,397.6 329,415.5 331.3,424.7 	"/>
	<path class="st1" d="M527.9,134.6v269.5c0,6.4-5.2,11.6-11.6,11.6H71.8c-6.4,0-11.6-5.2-11.6-11.6V134.6c0-6.4,5.2-11.6,11.6-11.6
		h444.5C522.7,123,527.9,128.2,527.9,134.6z"/>
	<polygon class="st6" points="331.3,424.7 256.8,424.7 259.1,415.5 329,415.5 	"/>
	<path class="st6" d="M378.2,476.5H209.9c-4,0-7.3-3.3-7.3-7.3l0,0c0-4,3.3-7.3,7.3-7.3h168.2c4,0,7.3,3.3,7.3,7.3l0,0
		C385.5,473.3,382.2,476.5,378.2,476.5z"/>
	<rect x="59.3" y="164.6" class="st9" width="468.6" height="204.5"/>
	<path class="st6" d="M294,402.4L294,402.4c-5.9,0-10.8-4.9-10.8-10.8l0,0c0-5.9,4.9-10.8,10.8-10.8l0,0c5.9,0,10.8,4.9,10.8,10.8
		l0,0C304.8,397.5,300,402.4,294,402.4z"/>
</g>
<g>
	<g>
		<path class="st10" d="M514.2,296.5H224.7c-1.8,0-3.3-1.5-3.3-3.3V173.3c0-1.8,1.5-3.3,3.3-3.3h289.5c1.8,0,3.3,1.5,3.3,3.3v119.9
			C517.5,295,516,296.5,514.2,296.5z"/>
		<path class="st11" d="M509.5,237.7v48.1c0,2.1-1.7,3.9-3.9,3.9H232.1c-2.2,0-3.9-1.7-3.9-3.9V180.2c25.3,0,37.8,9.4,45.2,21.8
			c0.5,0.8,0.9,1.6,1.3,2.4c12.5,23.6,8.7,56,36.1,56c1,0,2-0.1,2.9-0.4c0.6-0.1,1.2-0.3,1.7-0.6c18.5-7.8,15.6-62.9,48.4-62.5
			c7,0.1,12.3,2.8,16.4,7.1c0.4,0.4,0.8,0.9,1.2,1.3c14.7,17.2,14.9,55.7,37.5,62.7c8.1,2.5,15.3-0.9,22.4-6.5
			c0.4-0.4,0.9-0.7,1.4-1.1c15-12.5,29.9-33.8,53.1-28.5c0.7,0.2,1.3,0.3,2,0.5C501.5,233.5,505.4,235.2,509.5,237.7z"/>
		<path class="st12" d="M509.5,228c-4.9,0.1-8.7,1.7-11.7,4.4c-5.6,4.9-8.6,13.4-11.5,21.6c-4.4,12.4-8.9,25.1-22.2,25.1
			c-0.7,0-1.4,0-2.2-0.1c-8.6-0.8-15-7.9-20.6-17.5c-3.5-6-6.7-12.9-9.9-20.1c-9.2-20.1-18.7-40.9-36.1-41.4c-0.2,0-0.4,0-0.6,0
			c-5.3,0-9.6,2-13.3,5.4c-7.4,6.7-12.1,18.9-16.7,30.8c-6.8,17.6-13.8,35.8-29.7,36.1c-11.4,0.2-16.6-4.1-21.2-12.2
			c-1.8-3.2-3.5-6.9-5.5-11.2c-3.6-7.9-8.1-17.6-15.5-29c-5-7.6-11.3-12.5-18.1-15.4c-18.3-8-39.8-2.1-46.6,0.1v-1.8
			c7.2-2.3,27.3-7.4,45.2-0.7c7.8,2.9,15.2,8.2,20.9,16.9c7.5,11.5,12,21.3,15.6,29.2c2,4.4,3.8,8.3,5.6,11.4
			c4.4,7.6,9.2,11.3,19.5,11.1c14.7-0.3,21.2-17.2,28.1-35c4.7-12.1,9.5-24.5,17.1-31.5c4.1-3.7,8.9-5.9,15.1-5.7
			c18.6,0.5,28.3,21.8,37.7,42.4c3.2,7,6.3,13.8,9.7,19.7c5.4,9.3,11.4,16.1,19.4,16.9c13.6,1.3,18-10.9,22.6-23.9
			c2.9-8.1,5.8-16.3,11.1-21.6c3.4-3.4,7.7-5.5,13.7-5.6L509.5,228z"/>
	</g>
	<g>
		<path class="st6" d="M514.7,329.5h-151c-1.5,0-2.8-1.2-2.8-2.8v-22.1c0-1.5,1.2-2.8,2.8-2.8h151c1.5,0,2.8,1.2,2.8,2.8v22.1
			C517.5,328.3,516.2,329.5,514.7,329.5z"/>
		<path class="st10" d="M514.7,363h-151c-1.5,0-2.8-1.2-2.8-2.8v-22.1c0-1.5,1.2-2.8,2.8-2.8h151c1.5,0,2.8,1.2,2.8,2.8v22.1
			C517.5,361.8,516.2,363,514.7,363z"/>
	</g>
	<g>
		<path class="st1" d="M213.3,231.2H74.6c-1.8,0-3.3-1.5-3.3-3.3v-54.6c0-1.8,1.5-3.3,3.3-3.3h138.7c1.8,0,3.3,1.5,3.3,3.3v54.6
			C216.6,229.8,215.1,231.2,213.3,231.2z"/>
		<g>
			<path class="st9" d="M196.7,226h-8.4c-0.5,0-0.8-0.4-0.8-0.8v-39c0-0.5,0.4-0.8,0.8-0.8h8.4c0.5,0,0.8,0.4,0.8,0.8v39
				C197.6,225.7,197.2,226,196.7,226z"/>
			<path class="st9" d="M210.5,226h-8.2c-0.5,0-0.9-0.4-0.9-0.9v-48.3c0-0.5,0.4-0.9,0.9-0.9h8.2c0.5,0,0.9,0.4,0.9,0.9v48.3
				C211.4,225.6,211,226,210.5,226z"/>
			<path class="st9" d="M86.2,226H78c-0.5,0-0.9-0.4-0.9-0.9v-48.3c0-0.5,0.4-0.9,0.9-0.9h8.2c0.5,0,0.9,0.4,0.9,0.9v48.3
				C87.1,225.6,86.7,226,86.2,226z"/>
			<path class="st9" d="M100.1,226h-8.4c-0.4,0-0.8-0.4-0.8-0.8v-36.7c0-0.4,0.4-0.8,0.8-0.8h8.4c0.4,0,0.8,0.4,0.8,0.8v36.7
				C100.9,225.7,100.6,226,100.1,226z"/>
			<path class="st9" d="M113.8,226h-8.2c-0.5,0-0.9-0.4-0.9-0.9v-48.3c0-0.5,0.4-0.9,0.9-0.9h8.2c0.5,0,0.9,0.4,0.9,0.9v48.3
				C114.7,225.6,114.3,226,113.8,226z"/>
			<path class="st9" d="M127.8,226h-8.7c-0.4,0-0.7-0.3-0.7-0.7V199c0-0.4,0.3-0.7,0.7-0.7h8.7c0.4,0,0.7,0.3,0.7,0.7v26.3
				C128.5,225.7,128.2,226,127.8,226z"/>
			<path class="st9" d="M141.4,226h-8.2c-0.5,0-0.9-0.4-0.9-0.9v-48.3c0-0.5,0.4-0.9,0.9-0.9h8.2c0.5,0,0.9,0.4,0.9,0.9v48.3
				C142.3,225.6,141.9,226,141.4,226z"/>
			<path class="st9" d="M155.3,226h-8.4c-0.5,0-0.8-0.4-0.8-0.8v-39c0-0.5,0.4-0.8,0.8-0.8h8.4c0.5,0,0.8,0.4,0.8,0.8v39
				C156.1,225.7,155.8,226,155.3,226z"/>
			<path class="st9" d="M169,226h-8.2c-0.5,0-0.9-0.4-0.9-0.9v-48.3c0-0.5,0.4-0.9,0.9-0.9h8.2c0.5,0,0.9,0.4,0.9,0.9v48.3
				C170,225.6,169.5,226,169,226z"/>
			<path class="st9" d="M183,226h-8.4c-0.4,0-0.8-0.4-0.8-0.8v-36.7c0-0.4,0.4-0.8,0.8-0.8h8.4c0.4,0,0.8,0.4,0.8,0.8v36.7
				C183.8,225.7,183.4,226,183,226z"/>
		</g>
	</g>
	<g>
		<path class="st10" d="M213.3,297.1H74.6c-1.8,0-3.3-1.5-3.3-3.3v-54.6c0-1.8,1.5-3.3,3.3-3.3h138.7c1.8,0,3.3,1.5,3.3,3.3v54.6
			C216.6,295.6,215.1,297.1,213.3,297.1z"/>
		<path class="st10" d="M213.3,363H74.6c-1.8,0-3.3-1.5-3.3-3.3v-54.6c0-1.8,1.5-3.3,3.3-3.3h138.7c1.8,0,3.3,1.5,3.3,3.3v54.6
			C216.6,361.5,215.1,363,213.3,363z"/>
		<path class="st13" d="M209.3,243.9c-1.5,0-2.7,1.2-2.7,2.7c0,0.5,0.1,1,0.4,1.4L184.7,273c-0.3-0.1-0.7-0.2-1-0.2
			c-0.4,0-0.8,0.1-1.1,0.2l-23.9-23.5c0.2-0.3,0.2-0.7,0.2-1.1c0-1.5-1.2-2.7-2.7-2.7c-1.5,0-2.7,1.2-2.7,2.7c0,0.4,0.1,0.8,0.3,1.2
			L123,282.8c-0.4-0.3-1-0.5-1.6-0.5c-0.5,0-0.9,0.1-1.3,0.4l-16.8-21.9c0.3-0.4,0.5-1,0.5-1.6c0-1.5-1.2-2.7-2.7-2.7
			c-1.5,0-2.7,1.2-2.7,2.7c0,0.5,0.1,0.9,0.4,1.3l-18.8,24.4c-0.3-0.1-0.6-0.2-1-0.2c-1.5,0-2.7,1.2-2.7,2.7c0,1.5,1.2,2.7,2.7,2.7
			c1.5,0,2.7-1.2,2.7-2.7c0-0.5-0.2-1-0.4-1.5l18.8-24.3c0.3,0.1,0.7,0.2,1.1,0.2c0.3,0,0.6-0.1,0.8-0.1l17,22.2
			c-0.1,0.3-0.2,0.7-0.2,1.1c0,1.5,1.2,2.7,2.7,2.7c1.5,0,2.7-1.2,2.7-2.7c0-0.3-0.1-0.6-0.1-0.8l30.9-33.4c0.4,0.2,0.8,0.3,1.3,0.3
			c0.5,0,0.9-0.1,1.3-0.3l23.8,23.4c-0.2,0.4-0.4,0.8-0.4,1.3c0,1.5,1.2,2.7,2.7,2.7c1.5,0,2.7-1.2,2.7-2.7c0-0.5-0.1-1-0.4-1.4
			l22.2-25.1c0.3,0.1,0.7,0.2,1.1,0.2c1.5,0,2.7-1.2,2.7-2.7C212,245.1,210.8,243.9,209.3,243.9z"/>
		<path class="st14" d="M198.1,311.6H78c-0.8,0-1.4-0.6-1.4-1.4v-2.3c0-0.8,0.6-1.4,1.4-1.4h120.1c0.8,0,1.4,0.6,1.4,1.4v2.3
			C199.5,311,198.9,311.6,198.1,311.6z"/>
		<path class="st14" d="M185.8,320.8H78c-0.7,0-1.4-0.6-1.4-1.4V317c0-0.7,0.6-1.4,1.4-1.4h107.9c0.7,0,1.4,0.6,1.4,1.4v2.5
			C187.2,320.2,186.6,320.8,185.8,320.8z"/>
		<path class="st14" d="M209.4,330.1H79.2c-1.4,0-2.6-1.2-2.6-2.6l0,0c0-1.4,1.2-2.6,2.6-2.6h130.2c1.4,0,2.6,1.2,2.6,2.6l0,0
			C212,328.9,210.9,330.1,209.4,330.1z"/>
		<path class="st14" d="M173.7,339.3H77.9c-0.7,0-1.3-0.6-1.3-1.3v-2.6c0-0.7,0.6-1.3,1.3-1.3h95.8c0.7,0,1.3,0.6,1.3,1.3v2.6
			C175,338.7,174.4,339.3,173.7,339.3z"/>
		<path class="st14" d="M199.4,348.5H78.1c-0.8,0-1.4-0.6-1.4-1.4v-2.3c0-0.8,0.6-1.4,1.4-1.4h121.3c0.8,0,1.4,0.6,1.4,1.4v2.3
			C200.8,347.9,200.2,348.5,199.4,348.5z"/>
		<path class="st14" d="M209.4,357.7H79.2c-1.4,0-2.6-1.2-2.6-2.6l0,0c0-1.4,1.2-2.6,2.6-2.6h130.2c1.4,0,2.6,1.2,2.6,2.6l0,0
			C212,356.6,210.9,357.7,209.4,357.7z"/>
	</g>
	<g>
		<path class="st15" d="M282.9,332.4c0,16.9-13.7,30.6-30.6,30.6c-16.9,0-30.6-13.7-30.6-30.6c0-16.9,13.7-30.6,30.6-30.6
			c2.4,0,4.8,0.3,7.1,0.8c12.7,3,22.4,14,23.4,27.3C282.9,330.8,282.9,331.6,282.9,332.4z"/>
		<path class="st6" d="M282.8,330l-30.5,2.4l7.1-29.8C272.1,305.6,281.8,316.6,282.8,330z"/>
		<path class="st15" d="M351,306.7h-58.9c-1.1,0-2-0.9-2-2l0,0c0-1.1,0.9-2,2-2H351c1.1,0,2,0.9,2,2l0,0
			C353.1,305.8,352.2,306.7,351,306.7z"/>
		<path class="st15" d="M343.1,314.7h-51.9c-0.6,0-1.1-0.5-1.1-1.1v-1.9c0-0.6,0.5-1.1,1.1-1.1h51.9c0.6,0,1.1,0.5,1.1,1.1v1.9
			C344.2,314.2,343.7,314.7,343.1,314.7z"/>
		<path class="st15" d="M331,322.7h-39.9c-0.5,0-1-0.4-1-1v-2.1c0-0.5,0.4-1,1-1H331c0.5,0,1,0.4,1,1v2.1
			C332,322.3,331.5,322.7,331,322.7z"/>
		<path class="st15" d="M351,330.7h-58.9c-1.1,0-2-0.9-2-2l0,0c0-1.1,0.9-2,2-2H351c1.1,0,2,0.9,2,2l0,0
			C353.1,329.8,352.2,330.7,351,330.7z"/>
		<path class="st15" d="M345.1,338.7h-53.8c-0.6,0-1.1-0.5-1.1-1.1v-1.8c0-0.6,0.5-1.1,1.1-1.1h53.8c0.6,0,1.1,0.5,1.1,1.1v1.8
			C346.2,338.2,345.7,338.7,345.1,338.7z"/>
		<path class="st15" d="M351,346.8h-58.9c-1.1,0-2-0.9-2-2l0,0c0-1.1,0.9-2,2-2H351c1.1,0,2,0.9,2,2l0,0
			C353.1,345.8,352.2,346.8,351,346.8z"/>
		<path class="st15" d="M339.9,354.8h-48.7c-0.6,0-1.1-0.5-1.1-1.1v-1.9c0-0.6,0.5-1.1,1.1-1.1h48.7c0.6,0,1.1,0.5,1.1,1.1v1.9
			C341,354.3,340.5,354.8,339.9,354.8z"/>
		<path class="st15" d="M351,362.8h-58.9c-1.1,0-2-0.9-2-2l0,0c0-1.1,0.9-2,2-2H351c1.1,0,2,0.9,2,2l0,0
			C353.1,361.9,352.2,362.8,351,362.8z"/>
	</g>
</g>
<g>
	<path class="st16" d="M482.8,415c-0.5-0.8-1.1-1.5-1.7-2.2c0,0,0,0,0,0c0,0,0-0.1-0.1-0.1c-0.3-0.4-0.7-0.8-1-1.2
		c-6.2-7.5-6.6-13.8-6.6-14c-0.1-8.5-0.2-20.2-0.3-28.5c0-2.3,0-4.4-0.1-6c0-0.7,0-1.3,0-1.8c0,0,0.1-0.7,0.3-1.6
		c0.1-0.9,0.3-2,0.5-2.9c0.2-0.9,0.4-2,0.5-3.2c0,0,0,0,0,0v0c0.3-2.6,0.5-5.8,0-9.2c1.1,0.1,2.2,0.3,3.1,0.7c0,0-1.3-4.4-2.6-9.8
		c-0.5-1.9-0.9-3.9-1.4-5.8c-0.8-3.8-1.5-7.3-1.7-9.5c-0.3-4.4,1-10.9,1.8-18.2c0.2-1.7,0.4-3.5,0.5-5.3c0.1-1.7,0.2-3.5,0.2-5.2
		c0-0.5,0-1.1,0-1.6c-0.2-4.6-1.3-8.6-2.8-12.1c-0.2-0.5-0.5-1.1-0.8-1.6c-1.6-3.2-3.7-6.1-5.7-8.7c-0.7-1.9-1.7-2.6-1.7-2.6
		c-0.7-2.2-0.4-5.3-0.4-5.3c2.7-1.1,5.4-11.5,4.2-19c-0.1-0.4-0.2-0.9-0.3-1.3c-1.5-6.5-5.8-9.1-8.9-8.6c-6.7-8.2-16.9,0.8-19.2,1.9
		c-2.9,1.4-5.9,2.3-8.3,2.6c-0.7,0.1-1.3,0.1-1.8,0.1c-0.5,0-0.9-0.1-1.2-0.2c0.5,6.9,3.1,10.2,6.3,11.4c0.7,0.3,1.4,0.4,2.2,0.5
		c0.6,0.1,1.2,0.1,1.8,0.1c-0.1,0.6-0.2,1.9,1,3.8c0.2,0.2,0.8,0.6,0.9,0.9c0.3,1,0.1,2,0,2.9c0,0.1,0,0.2,0,0.2
		c-0.2,0.7-0.3,1.7-0.4,2.6c-0.1,0.5-0.1,1.1-0.1,1.5c0,0.4,0,0.7,0.1,0.9c0.2,0.6,0.9,0.7,1.7,0.7c0.3,0,0.6,0,0.8-0.1
		c0.1,0.2,0.2,0.5,0.3,0.7c1,2,2.1,3.7,3.5,5.2c0.4,0.2,0.8,0.3,1.3,0.3c1.9,0.2,4.6-0.4,7.3-1.5c0.3,0.8,0.4,1.5,0.6,2.1
		c-0.7,0.2-1.1,0.4-1.1,0.4c-0.2,1.2,0,3.9,0,3.9c-0.5,0.4-0.9,0.8-1.3,1.3c-0.3,0.3-0.5,0.6-0.7,0.9c-0.1,0.2-0.2,0.4-0.3,0.6
		c-2.9,4.5-5.2,9.8-7,15.5c-0.7,2.2-1.4,4.5-1.9,6.8c0,0,0,0.1,0,0.1c-0.3,0.1-0.7,0.1-1.1,0.2c-4.8,0.9-13.3,2.6-22.2,5.1l-2.5,0.7
		l0.1,0.4c-1.4,0-3.5-0.2-4.8-0.1c-0.8,0.1-2.6,1.7-4.2,3c-1.3,1.5-2.5,2.8-2.1,3.1c0.1,0,0.1,0.1,0.2,0.1c0.3,0,0.7-0.3,1.2-0.7
		c0.1,0.1,0.4,0.1,0.7,0c0.6-0.2,1.6-1.4,2.1-1.7c0.2-0.2,0.7-0.5,1.2-0.8c0.5-0.1,1.1-0.1,1.6,0c0.2,0.3-0.1,0.7-0.4,0.9
		c-0.4,0.3-1.4,0.4-1.5,0.7c-0.1,0.3,0,0.8,1.5,0.6c1.4-0.3,2.6-0.9,3-1.2c0.5-0.4,1-0.5,2.1-0.7l0.1,0.6c0,0,11.1,0.1,21.5-0.1
		c0.6,0,1.1,0,1.7-0.1c-0.2,0.8-0.3,1.6-0.4,2.4c-0.2,0-0.4,0.1-0.6,0.1l-3.8,0.1c-0.1,0-0.2-0.1-0.3-0.1h-35l-2.6-7.2l-1.9-5.3
		l-2.5-6.8l-4.4-12.3c-0.2-0.6-0.8-0.8-1.4-0.7l-0.4,0.2c-0.6,0.2-0.9,0.8-0.7,1.4l4.1,11.4l2.5,6.8l1.9,5.3l2.6,7.2
		c-0.8-0.7-1.3-0.8-1.2-0.1c0.1,1,1.2,2.3,1.2,2.3c0.8,1,1,1.3,2.8,2.3c0.9,0.5,3.2,1,4.5,1.3c0.6,0.1,1.2,0.1,1.8-0.1
		c0.7-0.2,1.8-0.4,3.2-0.4l0,1.1c0,0,11.4,1.2,19.3,2.4c3.3,0.5,6.5,0.7,9.4,0.9c-0.1,0.8-0.2,1.7-0.3,2.5c-0.3,2.9-0.5,5.6-0.7,8.2
		c-0.2,2.1-0.3,4-0.4,5.8c-0.4,7.6-0.5,12.8-0.8,13.5c0,0,1,1,4.4,1.2c0.1,0.7,0.1,1.4,0.2,2.1c0,0,0,0,0,0
		c-0.1,1.1-0.4,5.4-0.8,10.9c-0.1,1.9-0.3,3.9-0.4,6c-0.6,8.7-1.3,18.5-1.7,23.9c-0.3,0.6-0.4,1.5-0.4,2.7c0,0.6,0,6.7,0,7.4
		c0.1,2.8,0.4,7.3,0.7,12.7h14.3c-0.1-0.5-0.2-1-0.3-1.5c0-0.2-0.1-0.4-0.1-0.6c0-0.3-0.1-0.7-0.1-1.2c-0.8-6.7-0.8-4.7,1-13.2
		c0.9-2.4,2.1-5.3,3.3-8.4c2,7,3.6,12.9,4.3,16.4c0,0,0,0.1,0,0.1c0,0.2,0.1,0.4,0.1,0.5c0,0.2,0.1,0.5,0.3,0.9
		c0,0.1,0.1,0.2,0.1,0.3c0.2,0.5,0.5,1.1,0.8,1.6c0,0,0,0.1,0.1,0.1c0.8,1.3,1.9,3,3.2,4.9h18.2C483.1,415.4,483,415.2,482.8,415z"
		/>
</g>
<g>
	<path class="st17" d="M458.2,259.4L458.2,259.4c1-1.6,1.6-3.9,1.3-6.9c-0.8-7.8-6.9-15-7.3-15.2c-0.4-0.2-12.5,2.1-13,2.2
		c-0.5,0.1-6.1,7.3-6.1,7.3s-0.7,1.5,0.9,4.1c0.2,0.2,0.8,0.6,0.9,0.9c0.3,1.1,0,2.2,0,3.1v0c-0.3,1.5-0.7,4.2-0.4,5
		c0.3,0.8,1.6,0.7,2.5,0.6c1,2.2,2.3,4.3,3.8,5.9c2,0.9,5.2,0.2,8.6-1.1c1.4,4,0.4,5.6,0.4,5.6s6.9-0.6,10-4.3
		C457.7,264.8,458.2,259.4,458.2,259.4z"/>
	<g>
		<ellipse class="st18" cx="459.8" cy="475.6" rx="54.9" ry="2.9"/>
	</g>
	<g>
		<path class="st17" d="M435.9,460.2c0,0-0.3,7.8,0.1,9.5c0.3,1.4,4.7,1.5,5.2,0.8c0.5-0.7,1.2-9.8,1.2-9.8"/>
		<path class="st19" d="M442.5,471.8c0,1.5-0.4,3.9-0.4,3.9h-5.3l-0.3-0.9c0,0-1.7,0.9-3,0.9H429c-3.2,0-5.1-0.4-5.2-1
			c-0.3-2.4,3.5-2.3,4.5-2.3c2.9,0,6-1.4,6.7-2.8c0.5-1.1,0.3-1.3,0.9-1.1c0,0,0.5,0.1,0.9,0.8c0.6,1,1.6,1.7,2.7,1.5
			c0.7-0.1,1.3-0.4,1.8-0.9C441.4,469.9,442.5,470.3,442.5,471.8z"/>
	</g>
	<g>
		<path class="st17" d="M490.6,461.2c0,0,1.4,3.9,2.1,5.2c0.6,1.3,4.9-0.3,5.1-1.2c0.2-0.9-3.3-7.5-3.3-7.5"/>
		<path class="st19" d="M499.4,465.9c0.6,1.4,1.4,4.1,1.4,4.1l-4,2.4l-0.8-0.6c0,0-0.9,1.4-2.1,2.2c-0.9,0.6-2.9,1.4-3.9,1.6
			c-3.6,0.8-6.5,0.4-6.7-0.1c-1.2-2.1,3.6-3.2,4.6-3.6c2.7-1.1,3.9-3.7,4-5.3c0.1-1.2-0.2-1.3,0.4-1.4c0,0,1.2-0.2,2,1.6
			c0,0,2.9-0.5,3.6-2.3C497.7,464.5,498.8,464.5,499.4,465.9z"/>
	</g>
	<g>
		<path class="st20" d="M478.1,415c-0.5-0.8-1.1-1.5-1.6-2.2c0,0,0,0,0,0c0,0,0-0.1-0.1-0.1c-0.3-0.4-0.7-0.8-1-1.2
			c-6.2-7.5-6.6-13.8-6.6-14c-0.2-13.5-0.4-35.6-0.4-38.3c-0.1-3.6-0.9-7.6-4.1-9.9c-7.7-5.4-23.7-16.4-24.1-2.6
			c-0.1,3.8,3.6,17,7.4,30.4c1.3,4.5,2.6,8.9,3.7,13c2.1,7.2,3.8,13.5,4.5,17.1c0,0,0,0.1,0,0.1c0,0.2,0.1,0.4,0.1,0.5
			c0,0.2,0.1,0.5,0.3,0.9c0,0.1,0.1,0.2,0.1,0.3c0.2,0.5,0.5,1.1,0.8,1.6c0,0,0,0.1,0.1,0.1c4.3,6.9,16.4,24.3,25.8,39.8
			c0,0,0,0.1,0,0.1c0,0,0,0,0,0c1.8,2.9,3.4,5.7,4.9,8.4c0,0.1,0.1,0.1,0.1,0.1l0,0c0.5,0.9,0.9,1.7,1.4,2.5l0.6,1.1
			c0,0,2.7-0.9,6.8-3.3C492,448.1,486.8,428.2,478.1,415z"/>
		<path class="st21" d="M488,459c-1.5-2.7-3.2-5.5-4.9-8.4c0,0,0,0,0,0c0,0,0-0.1,0-0.1c-9.5-15.5-21.5-33-25.8-39.8
			c0,0-0.1-0.1-0.1-0.1c-0.4-0.6-0.6-1.1-0.8-1.6c0-0.1-0.1-0.2-0.1-0.3c-0.1-0.3-0.2-0.6-0.3-0.9c0-0.2-0.1-0.3-0.1-0.5
			c0,0,0-0.1,0-0.1c-0.7-3.6-2.4-9.8-4.5-17.1l12.1-32.5h4.4c0,0-5,15-7,21.7c-2,6.7-2.6,17.3-2.8,21.2c-0.4,8.5,10,22.9,13,28.1
			C474.3,434.4,486.9,456.9,488,459z"/>
		<path class="st20" d="M462.9,331.5c0,0-10.6,4.8-19.1,5.3c-6.7,0.5-8.2,0-8.2,0s-0.2,4.6,0.6,15.3c0,0,0,0,0,0
			c-0.3,2.9-2.1,30.3-3,40.8c-0.3,0.6-0.4,1.5-0.4,2.7c0,0.6,0,6.7,0,7.4c0.4,10.1,2.6,42.1,2.2,61.7l0,1.3c0,0,2.5,0.5,7,0.5
			c0.2,0,0.4,0,0.6,0c1.4-12.6,8.2-37.1,4.8-52.4c0-0.2-0.1-0.4-0.1-0.6c0-0.3-0.1-0.7-0.1-1.2c-0.8-6.7-0.8-4.7,1-13.2
			c4.2-10.9,12.4-31.2,14.6-36.7l5.6-1.4c0,0,0.4-2.7,0.8-4.4C470.2,351.3,471.9,340.2,462.9,331.5z"/>
	</g>
	<path class="st22" d="M408.2,304.5c0,0-2-0.3-2.2-0.2c-0.2,0.2-0.8,0.5-0.8,0.5v0.4c-0.1,0-0.1,0-0.1,0c-0.1,0-1.4,0.9-1.6,1
		c-0.1,0.1-1.8,2-1.8,2s0.3,0.2,0.9,0.1c0.6-0.2,1.6-1.4,2.1-1.7c0.2-0.2,0.7-0.5,1.2-0.8c0.6-0.1,1.6-0.2,2.1,0.3
		C408.8,306.9,408.2,304.5,408.2,304.5z"/>
	<path class="st17" d="M417.2,301.6c0,0-3.5,1.1-4.6,1.3c-1.1,0.2-4.1-0.2-5.7,0c-0.8,0.1-2.5,1.7-4.2,3c-1.3,1.5-2.5,2.8-2.1,3.1
		c0.7,0.5,2.6-1.9,4.1-3c1.2-0.8,2.1-0.8,2.6-0.4c0.5,0.4,0.3,0.9-0.2,1.2c-0.4,0.3-1.5,0.4-1.5,0.7c-0.1,0.3,0,0.8,1.5,0.6
		c1.5-0.3,2.5-0.9,3-1.2c0.5-0.4,1-0.5,2.1-0.6c1.1-0.1,6.5-1.1,6.5-1.1"/>
	<path class="st4" d="M440.1,296.1l-1.1,9.3l-0.1,0.9c-0.3,0-0.6,0-0.9,0c-1.4,0.1-2.8,0.1-4.3,0.1c-10.4,0.2-21.5,0.1-21.5,0.1
		l-0.6-4.1c9.8-2.9,19.5-4.8,24.8-5.8C438.7,296.3,440.1,296.1,440.1,296.1z"/>
	<g>
		<path class="st9" d="M395.1,310.3l-1.3,0.5c-0.3,0.1-0.7-0.1-0.8-0.4l-11.7-32.6c-0.1-0.3,0.1-0.7,0.4-0.8l1.3-0.5
			c0.3-0.1,0.7,0.1,0.8,0.4l11.7,32.6C395.6,309.8,395.4,310.2,395.1,310.3z"/>
		<path class="st9" d="M430.8,311.7h-37.1c-0.4,0-0.7-0.3-0.7-0.7v-1.3c0-0.4,0.3-0.7,0.7-0.7h37.1c0.4,0,0.7,0.3,0.7,0.7v1.3
			C431.5,311.4,431.2,311.7,430.8,311.7z"/>
	</g>
	<path class="st23" d="M440.1,296.1l-1.1,9.3c-0.3,0.3-0.6,0.6-1,1c-1.4,0.1-2.8,0.1-4.3,0.1c0.7-3.9,2.2-8.4,2.7-9.8
		C438.7,296.3,440.1,296.1,440.1,296.1z"/>
	<path class="st20" d="M462.5,363c0,0,4.5-1.6,7.1-9.4l-2.8-4.9l-6,2.8c0,0-1,5.4-0.8,5.6C460.3,357.3,462.5,363,462.5,363z"/>
	<path class="st17" d="M407.3,313.7l-0.4-3.3c0,0-3,0.4-4.4,0.2c-1.4-0.2-3.1-0.9-5.1-1.3c-2.1-0.4-2.5,0.4-2.2,0.9
		c0.4,0.6,2.7,0.9,2.7,0.9s0.3,0.3-0.9,0.3h-1.3c-0.6-0.1-1.5-0.7-1.5-0.7c-0.2-0.2-0.5-0.5-0.7-0.7c-1.3-1.4-2.2-1.9-2.1-0.9
		c0.1,1,1.2,2.3,1.2,2.3c0.9,1,1,1.3,2.8,2.3c0.9,0.5,3.2,1,4.5,1.3c0.6,0.1,1.2,0.1,1.8,0c0.8-0.2,2.1-0.4,3.9-0.5
		c1.1,0,1.8,0.1,1.8,0.1C409.9,314.6,408.6,314.1,407.3,313.7z"/>
	<path class="st24" d="M450.5,249.7c0,0-3.2-0.7-3.3-4.9c-0.1-4.2-0.7-4.3-3.2-2c-2.5,2.3-19.7,11.4-21.2-7.8
		c1.9,0.6,6.7-0.4,11.3-2.6c2.4-1.1,12.5-10.1,19.2-1.9c3.3-0.6,7.9,2.4,9.1,9.9c1.2,7.5-1.5,17.9-4.2,19c-1.7,0.7-2.5-1-3.2-4.6
		c-0.3-1.8,4.5-5.4-0.5-10.1C452.4,243.3,448,245.9,450.5,249.7z"/>
	<path class="st4" d="M467.1,320c-0.4-6.5,2.5-17.5,2.6-28.7c0-10.6-4.5-17.9-9.3-23.9l0,0c-0.7-1.9-1.7-2.6-1.7-2.6
		c-3.2,0.6-9.9,2.9-9.9,2.9c-0.2,1.2,0,3.9,0,3.9c0,0,0,0,0,0c-0.8,0.7-1.5,1.4-2,2.1c-6.7,9.9-10.2,24.4-12.2,37.9
		c-0.5,3.3-0.9,6.6-1.2,9.8c-1.5,14.7-1.4,26.5-1.8,27.5c0,0,2.8,3,16.1-0.3c13.3-3.3,20.4-5.4,25.1-3.5
		C472.7,345.1,467.5,326.5,467.1,320z"/>
	<path class="st23" d="M444.8,321.2c-2.7,0.3-6.8,0.4-11.4,0.1c0.3-3.1,0.7-6.4,1.2-9.8l0.4,0c2.5-0.1,4.6-1.7,5.2-4.1
		c0.9-3.3,2.4-8.6,4.6-15.6c4-12.5,8.2-13,8.2-13s6.1-3.1,6.4,3.5C459.6,288.8,452.6,320.2,444.8,321.2z"/>
	<path class="st4" d="M452.3,276.2c0,0-4.2,0.5-8.2,13c-2.2,7-3.7,12.3-4.6,15.6c-0.6,2.4-2.8,4.1-5.2,4.1l-29.3,0.8l-0.2,5.8
		c0,0,11.4,1.2,19.3,2.4c7.9,1.1,15.7,1.2,19.9,0.7c7.8-1,15.5-35.3,15.1-38.8C458.6,274.3,452.3,276.2,452.3,276.2z"/>
</g>
<g>
	<g>
		<path class="st16" d="M545.5,221.1H394.6c-1.5,0-2.8-1.3-2.8-2.8V149c0-1.5,1.3-2.8,2.8-2.8h150.9c1.5,0,2.8,1.3,2.8,2.8v69.4
			C548.3,219.9,547,221.1,545.5,221.1z"/>
		<path class="st25" d="M544.9,147.6v65.3c0,2.7-2.2,4.8-4.8,4.8H393.2c-2.7,0-4.8-2.2-4.8-4.8v-65.3c0-2.7,2.2-4.8,4.8-4.8H540
			C542.7,142.7,544.9,144.9,544.9,147.6z"/>
		<path class="st9" d="M544.9,147.6v9.4H388.3v-9.4c0-2.7,2.2-4.8,4.8-4.8H540C542.7,142.7,544.9,144.9,544.9,147.6z"/>
		<path class="st26" d="M538.7,164.9v45.1H394.2v-14.4c5.8-8,13.8-13.3,32-2.5c17.5,10.3,17.5-23,37.5-21.3
			c20,1.7,25.3,31.6,40.9,8.8C520.1,157.7,538.7,164.9,538.7,164.9z"/>
		<rect x="394.2" y="164.6" class="st26" width="28.5" height="1.9"/>
		<rect x="394.2" y="168" class="st26" width="48.1" height="1.9"/>
		<rect x="394.2" y="171.5" class="st26" width="36.1" height="1.9"/>
		<rect x="394.2" y="174.9" class="st26" width="43.6" height="1.9"/>
		<rect x="394.2" y="178.4" class="st26" width="28.5" height="1.9"/>
	</g>
	<g>
		<path class="st16" d="M182.3,123c-6.6,17.7-23.6,30.3-43.6,30.3c-20,0-37.1-12.6-43.6-30.3H182.3z"/>
		<g>
			<path class="st0" d="M95.8,76.7c-5.3,7.5-8.3,16.7-8.3,26.6c0,5.3,0.9,10.4,2.5,15.1l44-15.1L95.8,76.7z"/>
			<path class="st2" d="M140.6,52.4V99l34.2,31.5c7.6-8.3,12.3-19.4,12.3-31.5C187.2,73.3,166.3,52.4,140.6,52.4z"/>
			<path class="st4" d="M134,56.8c-15.8,0-29.8,7.9-38.2,20l38.2,26.6V56.8z"/>
			<path class="st5" d="M125.3,149c2.8,0.5,5.7,0.8,8.6,0.8c13.5,0,25.7-5.8,34.2-15L134,103.3L125.3,149z"/>
			<path class="st9" d="M89.9,118.4c5.4,15.6,18.8,27.5,35.4,30.6l8.6-45.7L89.9,118.4z"/>
		</g>
	</g>
	<g>
		<path class="st16" d="M114.1,224.5h-62c-1.7,0-3.1,1.4-3.1,3.1v19.6c0,1.7,1.4,3.1,3.1,3.1h51.4c0.3,2.1,1.7,6.2,9.2,6.2
			c0,0-3.1-0.6-3.7-6.2h5.1c1.7,0,3.1-1.4,3.1-3.1v-19.6C117.2,225.9,115.8,224.5,114.1,224.5z"/>
		<path class="st25" d="M110,222.9H48c-1.7,0-3.1,1.4-3.1,3.1v19.6c0,1.7,1.4,3.1,3.1,3.1h51.4c0.3,2.1,1.7,6.2,9.2,6.2
			c0,0-3.1-0.6-3.7-6.2h5.1c1.7,0,3.1-1.4,3.1-3.1V226C113.1,224.3,111.7,222.9,110,222.9z"/>
		<path class="st6" d="M110,228H47.5c-0.3,0-0.6-0.2-0.6-0.6v-1.6c0-0.3,0.2-0.6,0.6-0.6H110c0.3,0,0.6,0.2,0.6,0.6v1.6
			C110.6,227.8,110.3,228,110,228z"/>
		<path class="st6" d="M110,232.5H47.5c-0.3,0-0.6-0.2-0.6-0.6v-1.6c0-0.3,0.2-0.6,0.6-0.6H110c0.3,0,0.6,0.2,0.6,0.6v1.6
			C110.6,232.2,110.3,232.5,110,232.5z"/>
		<path class="st6" d="M110,237H47.5c-0.3,0-0.6-0.2-0.6-0.6v-1.6c0-0.3,0.2-0.6,0.6-0.6H110c0.3,0,0.6,0.2,0.6,0.6v1.6
			C110.6,236.7,110.3,237,110,237z"/>
		<path class="st6" d="M110,241.4H47.5c-0.3,0-0.6-0.2-0.6-0.6v-1.6c0-0.3,0.2-0.6,0.6-0.6H110c0.3,0,0.6,0.2,0.6,0.6v1.6
			C110.6,241.2,110.3,241.4,110,241.4z"/>
		<path class="st6" d="M110,245.9H47.5c-0.3,0-0.6-0.2-0.6-0.6v-1.6c0-0.3,0.2-0.6,0.6-0.6H110c0.3,0,0.6,0.2,0.6,0.6v1.6
			C110.6,245.7,110.3,245.9,110,245.9z"/>
	</g>
	<g class="st27">
		<path class="st28" d="M472,234.2h62c1.7,0,3.1,1.4,3.1,3.1v19.6c0,1.7-1.4,3.1-3.1,3.1h-51.4c-0.3,2.1-1.7,6.2-9.2,6.2
			c0,0,3.1-0.6,3.7-6.2H472c-1.7,0-3.1-1.4-3.1-3.1v-19.6C468.9,235.6,470.3,234.2,472,234.2z"/>
		<path class="st29" d="M473.1,232.7h62c1.7,0,3.1,1.4,3.1,3.1v19.6c0,1.7-1.4,3.1-3.1,3.1h-51.4c-0.3,2.1-1.7,6.2-9.2,6.2
			c0,0,3.1-0.6,3.7-6.2h-5.1c-1.7,0-3.1-1.4-3.1-3.1v-19.6C470.1,234.1,471.4,232.7,473.1,232.7z"/>
		<path class="st30" d="M517.5,255.6h17.9c0.5,0,0.8-0.4,0.8-0.8v-18.6c0-0.5-0.4-0.8-0.8-0.8h-17.9c-0.5,0-0.8,0.4-0.8,0.8v18.6
			C516.6,255.3,517,255.6,517.5,255.6z"/>
		<path class="st30" d="M473.2,237.9h40.4c0.2,0,0.4-0.2,0.4-0.4v-1.7c0-0.2-0.2-0.4-0.4-0.4h-40.4c-0.2,0-0.4,0.2-0.4,0.4v1.7
			C472.7,237.8,472.9,237.9,473.2,237.9z"/>
		<path class="st30" d="M482.1,242.4h31.4c0.2,0,0.4-0.2,0.4-0.4v-1.8c0-0.2-0.2-0.4-0.4-0.4h-31.4c-0.2,0-0.4,0.2-0.4,0.4v1.8
			C481.7,242.2,481.9,242.4,482.1,242.4z"/>
		<path class="st30" d="M473.2,246.8h40.4c0.2,0,0.4-0.2,0.4-0.4v-1.7c0-0.2-0.2-0.4-0.4-0.4h-40.4c-0.2,0-0.4,0.2-0.4,0.4v1.7
			C472.7,246.6,472.9,246.8,473.2,246.8z"/>
		<path class="st30" d="M476.5,251.2h37.1c0.2,0,0.4-0.2,0.4-0.4v-1.7c0-0.2-0.2-0.4-0.4-0.4h-37.1c-0.2,0-0.4,0.2-0.4,0.4v1.7
			C476.1,251,476.3,251.2,476.5,251.2z"/>
		<path class="st30" d="M498.5,255.6h15.2c0.1,0,0.3-0.1,0.3-0.3v-2c0-0.1-0.1-0.3-0.3-0.3h-15.2c-0.1,0-0.3,0.1-0.3,0.3v2
			C498.2,255.5,498.3,255.6,498.5,255.6z"/>
	</g>
</g>
<g>
	<path class="st4" d="M356.5,123h-62.6c0,0,0-0.9,0.6-2.2c1.6-3.8,7.4-11.4,28.3-14.8l10.3-2.1C333.1,103.9,357.1,103.9,356.5,123z"
		/>
	<path class="st23" d="M335.8,123h-41.9c0,0,0-0.9,0.6-2.2c1.5-0.5,3.5-0.4,5,0c1.5,0.4,2.6,0.7,2.6,0.7s21.9,0,27.2,0
		C334.6,121.4,335.8,123,335.8,123z"/>
	<path class="st31" d="M299,78.5c0,0-0.4,11.5,4.8,11.3c5.1-0.2,0-12.7,0-12.7L299,78.5z"/>
	<path class="st17" d="M334,104.8c-1.9-2.9-3-11.4-3-11.4l-1.1,1.2c0-1,0-2.1-0.2-3.4c-0.6-5.8-2.5-13.5-2.5-13.5
		s-11.6-0.8-11.8-0.8c-0.2,0-12.3,1.4-13.3,2.9c-0.9,1.3-0.6,5.9-0.6,6.3c0.2,1.8,0.7,6.8,2.6,11.8c0.1,0.2,0.1,0.4,0.2,0.6
		c2.1,5.3,5.6,10.3,11.7,10.6c0.5,0,1.1,0,1.7,0c1.2-0.2,2.5-0.8,3.8-1.7c0.1,0.4,0.2,0.8,0.3,1.1c0.4,1.6,1.9,2.8,3.6,2.7
		C334.6,110.5,334,104.8,334,104.8z"/>
	<path class="st32" d="M331.6,91C331.6,91,331.6,91,331.6,91c0-5-0.4-16.3-2.7-19.5c-2.9-4-6.3-3.8-6.3-3.8s-3.6-3.1-12.2-0.6
		c-8.5,2.5-13.1-0.7-13-0.4c0,0.2-1.4,2.7-0.8,8.3c0,0,0.4,8.8,14.9,5.3c4-1,7.5-1.9,9.5-0.8c3,9.3,3.1,13.8,4.1,13.4
		c1.3-0.5-2.2-8.2,2.3-7.4c2.9,0.5,0.8,6.6,0.1,8.6c-1.1,2.4-2.9,5-3.8,5.5c-0.1,0.1-0.3,0.1-0.5,0c-0.9-0.1-3.5-0.9-4.9-1.1
		c-1.6-0.2-4.9-0.3-7.1,0.6c-3.4,1.3-1.9,2.9-3.1,2.8c-1.3-0.1-3.8-4.2-3.8-4.2c0.1,0.2,0.1,0.4,0.2,0.6c2,5.5,4.6,11,11.9,10.7
		c0.5,0,1-0.1,1.5-0.1c6.8-0.6,12.8-8.2,13.6-13.2c0-0.2,0.1-0.3,0.1-0.5C331.5,94.2,331.7,92.7,331.6,91z"/>
	<path class="st16" d="M359.5,123c0,0-0.7,15.1-6.9,24.7v0c0,0-0.1,0.1-0.2,0.2c-0.1,0.1-0.1,0.1-0.2,0.2
		c-1.9,2.8-12.2,18.1-18.8,24.2c-7.3,6.7-15.7,14.3-15.7,14.3l-0.3-0.3c-1.1,1-2.1,2.1-2.4,2.6c-0.6,1-1.1,4.8-2.2,5.2
		c-0.1,0.1-0.3,0.1-0.5,0.1c-0.4,0.3-1,0.6-1.6,0.7c-1.2,0.2-2.9-0.2-3.4-0.3c-0.4,0.3-0.8,0.8-1.6,1.2c-1.5,0.8-2.9,1.8-4.1,2.2
		c-1.2,0.4-1.4,0-1.1-0.8c0.2-0.8,2.6-2,3.4-2.7c0.8-0.6,2.2-2.5,2.7-3.6c0.5-1.1,0.5-1.7,0-1.7c-0.5,0-2.1,1-3.3,1.2
		c-1.2,0.3-1.8-0.1-1.2-0.8c0.6-0.7,2.3-2.8,4.2-3.3c2-0.5,2.6-0.5,4-1.6c0.7-0.5,1.6-1.7,2.2-2.7l-0.5-0.4c0,0,13.2-18.4,23-32.5
		c0.2-0.3,0.4-0.6,0.7-0.9c5.6-11.2,6.1-20.1,6.1-23.6c-0.7-1.3-1.7-1.6-1.7-1.6L359.5,123z"/>
	<path class="st17" d="M309.5,180c0,0-2.1,3.6-3.5,4.7c-1.4,1.1-2,1.1-4,1.6c-2,0.5-3.7,2.6-4.2,3.3c-0.6,0.7,0,1,1.2,0.8
		c1.2-0.3,2.8-1.2,3.3-1.2c0.5,0,0.5,0.6,0,1.7c-0.5,1.1-1.9,3-2.7,3.6c-0.8,0.6-3.1,1.9-3.4,2.7c-0.3,0.8-0.1,1.1,1.1,0.8
		c1.2-0.4,2.6-1.4,4.1-2.2c0.8-0.4,1.2-0.9,1.5-1.2c0.5,0.1,2.2,0.5,3.4,0.3c0.6-0.1,1.2-0.4,1.6-0.7c0.2,0,0.4-0.1,0.5-0.1
		c1.1-0.4,1.7-4.2,2.2-5.2c0.6-1,4.8-4.8,4.8-4.8L309.5,180z"/>
	<path class="st4" d="M348.2,147.7L348.2,147.7c6.2-9.6,8.3-24.7,8.3-24.7l-7.9-5.4l-4.1,1.9c-2.5-1.1-6.9-2.8-6.9-2.8l-1.9,6.2
		c0,0,1,0.4,1.7,1.6c0,3.5-0.5,12.4-6.1,23.6c-0.2,0.3-0.4,0.6-0.7,0.9c-9.8,14.2-23,32.5-23,32.5l5.6,5c0,0,8.4-7.6,15.8-14.3
		c6.6-6.1,17-21.4,18.8-24.2c0.1-0.1,0.1-0.2,0.2-0.2C348.2,147.8,348.2,147.7,348.2,147.7z"/>
	<path class="st16" d="M305.9,126.7c-0.1,0-0.1,0-0.2-0.1c0.2,0.3,0.4,0.5,0.5,0.6c0.2,0.2,0.1,0.4,0.1,0.4c-0.3,0.3-0.6,0.3-1,0.3
		c-0.2,0-0.4-0.1-0.7-0.3c-0.3,0.2-0.5,0.2-0.9,0.2c-0.4,0-0.8-0.4-1.4-1c0.1,0.2,0,0.3,0,0.3c-0.3,0.3-0.6,0.3-1,0.3
		c-0.4,0-0.9-0.4-1.5-1.1c-0.2-0.2-0.5-0.6-0.8-0.9c-0.3-0.2-0.6-0.4-0.8-0.5c-0.5-0.3-1-0.4-1.2-0.4c0,0-0.1,0-0.1,0v0
		c-3-0.1-4.3-1.3-7.9-1.3h16.5c0,0-0.1,0-0.1,0.1c-0.2,0.1-0.6,0.1-1,0.2c0,0,0,0,0.1,0.1c0.2,0.2,0.4,0.5,0.6,0.7
		c0.7,0.8,1.5,1.8,1.7,2c0.2,0.3,0.1,0.4,0.1,0.4C306.5,126.8,306.3,126.7,305.9,126.7z"/>
	<path class="st17" d="M303.7,126.7c-0.1,0-0.1,0-0.2-0.1c0.2,0.3,0.4,0.5,0.5,0.6c0.2,0.2,0.1,0.4,0.1,0.4c-0.3,0.3-0.6,0.3-1,0.3
		c-0.2,0-0.4-0.1-0.7-0.3c-0.3,0.2-0.5,0.2-0.9,0.2c-0.4,0-0.8-0.4-1.4-1c0.1,0.2,0,0.3,0,0.3c-0.3,0.3-0.6,0.3-1,0.3
		c-0.4,0-0.9-0.4-1.5-1.1c-0.2-0.2-0.5-0.6-0.8-0.9c-0.3-0.2-0.6-0.4-0.8-0.5c-0.5-0.3-1-0.4-1.2-0.4c0,0-0.1,0-0.1,0v0
		c-3-0.1-4.3-1.3-7.9-1.3c0,0,8.5-4.1,13.6-1.2c0.5,0.1,1.5,0.2,2.2,0.2c1.5,0,1.1,0.8,0.6,1c-0.2,0.1-0.6,0.1-1,0.2
		c0,0,0,0,0.1,0.1c0.2,0.2,0.4,0.5,0.6,0.7c0.7,0.8,1.5,1.8,1.7,2c0.2,0.3,0.1,0.4,0.1,0.4C304.4,126.8,304.1,126.7,303.7,126.7z"/>
	<path class="st33" d="M303.2,123c-0.2,0.1-0.6,0.1-1,0.2c0,0-1.2-1.2-1.8-1.4c0.5,0.1,1.5,0.2,2.2,0.2
		C304.1,122,303.7,122.8,303.2,123z"/>
	<path class="st34" d="M324.6,85.3c-0.2-0.6-2.9-0.4-4.8,0c-1.9,0.3-7,1.2-8.1,1.9c-1,0.7-1,1.1-1.5,1.2c-0.5,0.1-0.6-0.3-1.8-0.6
		c-1.2-0.3-4.2,0.2-6.1,0.6c-1.9,0.3-3.7,0.8-3.7,1.4c0,0.6,0.4,1.7,0.8,1.9c0.4,0.1,0.4,0.1,1.9,2.5c0.8,1.3,2.1,2,4.6,1.4
		c3.1-0.8,3.3-3.4,3.6-4.5c0.2-1.1,0.5-1.3,0.9-1.4c0.5-0.1,0.8,0,1.4,1c0.6,1,1,3.3,4.3,3.1c4.2-0.2,6-1.4,6.6-3.4
		c0.8-2.7,0.6-2.7,0.9-3c0.1-0.1,1.1-0.5,1.1-0.9C324.8,86.1,324.7,85.6,324.6,85.3z M308.5,92.2c-0.1,1.4-1,2.7-3.1,3.1
		c-1.9,0.3-2.8-0.3-3.9-2.1c-0.9-1.5-1-2.7-0.6-3.2c0.3-0.5,1.4-0.5,3.8-0.8c2.4-0.3,3.2-0.4,3.6,0.3
		C308.4,89.8,308.6,90.8,308.5,92.2z M322.3,89.6c-0.4,2-1.4,3-4,3.4c-3.8,0.6-4.5-0.4-5-1.6s-0.7-2.3-0.7-2.6
		c0.1-0.8,0.9-1,3.3-1.5c2.4-0.5,5.5-1.2,6-0.9C322.2,86.7,322.6,87.8,322.3,89.6z"/>
</g>
<g>
	<g class="st35">
		<g>
			<path class="st6" d="M213.9,264.8c0.2-0.7-0.6-0.8-1.4,0.4c-1.1,1.8-2.8,2.8-5,3.3c-0.1-0.3,0.3-0.5,0.7-1.2
				c0.4-0.8,0.1-1.4-0.2-1.6c-0.3-0.1-0.9,0.9-1.2,1c-0.8,0.7-1.7,1.4-2.5,2.1c-0.9,0.8-1.4,1.3-1.8,2.5c0,0.1-0.1,0.3-0.1,0.6
				c-5.6,4.3-24.1,9.6-26.6,11.1c-0.6,0.4-4.5,0.4-9.2,0.4c0-0.6-0.1-0.9-0.1-0.9s-7.7-1.3-11.3-3.4c-2.1-1.3-4.3-1.2-5.2-1
				c-0.2-0.3-0.3-0.6-0.6-0.8c0-0.1-0.1-0.1-0.1-0.1c-0.9-1.1-2.3-1.7-3.2-2.8c-0.1-1.4-0.1-4.5,0.6-5.9c0.5-1,2.6-2.9,5.1-4.9
				c1.1-0.9,1.9-2.7,1.3-5.4c-0.9-4.2-1.3-6-1.9-7.2c-0.4-0.9-1.2-1.5-1.6-2.3c-0.1-0.1-0.2-0.3-0.2-0.4c1.1-1.2-2.1-10.1-11.9-9.9
				c-2.5,0.1-5,0.2-7.2,1.3c-2.2,1.1-4.6,3.1-4.5,5c-3.5,0.7-3.9,4.2-4.2,5.5c-0.4,1.9-0.4,3.8-0.2,5.7c0.4,2.8,1.4,5.5,2,8.3
				c0.4,2.3,0.6,4.8-0.3,6.9c-0.9,2.1-2.9,3.2-4,5.2c-1.3,2.6-1.2,5.7,0.1,8.3c0.6,1.2,1.3,2.1,1.8,3.1c-0.9,2.8-2.1,6.7-2.8,10.5
				l-25.6,4.3c-0.8,0.1-1.3,0.8-1.1,1.6l6.4,37.4c0.1,0.7,0.8,1.3,1.6,1.1l21.6-3.7c-0.3,2.8-0.4,5.8,0,8.9c0.3,2.5,2.9,9.5,3.3,12
				c0.9,5.8,2.7,14.2,2.6,20.8c0.6,0.4,1.2,0.8,1.8,1.1c1.4,7.9,2.5,15.1,2.4,16.2c-0.3,2.5-3.1,9.4-4,16.6c0,0.3-0.1,0.6-0.1,0.9
				h14.2c1-5.2,1.8-9.8,2.3-13.3v0c0.1-0.9,0.2-1.7,0.3-2.4c0-0.1,0-0.2,0-0.2c0-0.4,0.1-0.8,0.1-1.1c0.1-0.6,0.1-1.2,0.1-1.9
				c0-0.2,0-0.4,0-0.6c0-0.5,0.1-1.1,0.1-1.7c0-0.2,0-0.3,0-0.5c0-0.7,0-1.4,0.1-2.2c0-0.2,0-0.5,0-0.7c0-0.6,0-1.2,0-1.8
				c0-0.3,0-0.6,0-0.8v-0.7c2.4,6.9,4.2,12.2,4.2,12.2s-2.1,7.2-2.5,15.6h13.6c0.4-7.9,0.8-14.4,0.9-17.5c0.2-5.3,0.1-10.7-0.4-16.4
				c0,0,0,0,0,0c0.8-7.9,0.7-14.2,0.1-25.2c-0.5-8.7-2.7-17.1-4.8-23.3l13.4-2.3c0.7-0.1,1.3-0.8,1.1-1.6l-5.9-34.8
				c1.5,0,2.1,0.1,2.1,0.1c0.1-0.4,0.2-1,0.3-1.6c4.8-0.4,8.8-0.8,9.8-1c7.8-1.5,27.3-14.7,29-15.9c1.2,0.3,4.8-1,5.7-2.5
				c0.3-0.5,0.5-1.1,0.4-1.6c0.6-0.7,1.5-3-0.2-2.5C213,268.4,213.5,266.7,213.9,264.8z"/>
		</g>
	</g>
	<g>
		<ellipse class="st18" cx="142.4" cy="478.3" rx="38.3" ry="4.3"/>
		<g>
			<g>
				<path class="st17" d="M138.5,341.8l-18.2-14.6c0,0-4.3,10.3-0.9,21.1c1.7,5.3-0.1,9.1,0.8,11.6c0.8,2.4,7,35.8,6.7,38.2
					c-0.3,2.5-3.1,9.4-4,16.6c-1,8-0.4,32.3-0.9,42.1l0,0c0,0-0.4,7.3-1.3,9c-0.8,1.6-2,3.4-2.2,5.6c-0.1,1.3,0.6,2.6,2.1,3.3
					c1.5,0.7,2.4-0.1,2.9,0c3,0.3,3.6,2.6,8.8,3.3c1.6,0.2,4-0.4,5.4-1.5c0.5-0.4,0.5-1.1,0.2-1.6c-0.3-0.5-4.2-1.7-5.9-2.8
					c-1.7-1-3.4-3.9-3.8-4.9c-0.1-0.3-0.1-1,0-1.9c0.2-1.6,0.4-3.2,0.7-4.8c0.2-1.2,0.4-2.1,0.4-2.1l-0.1,0
					c3.3-21.5,9.6-49.9,10.5-59.6C140.6,387.8,139.7,368,138.5,341.8z"/>
				<g>
					<path class="st36" d="M139,363.1l-7.3,18c3.4,5.5,5.5,11.9,5.9,18.5c0.2,3.4,0,6.9,0.2,10.3c0,0.2,0.1,0.5,0.1,0.7
						c0.9-5.1,1.6-9.3,1.8-12.1c0.7-7.7,0.4-19.9-0.3-35.6C139.3,363.1,139.2,363.1,139,363.1z"/>
				</g>
				<path class="st20" d="M138.2,476.8c0.4-0.7,0.4-1.6,0.1-1.9c-0.5-0.3-2.3-1.4-3.3-1.9c-1-0.4-2.6-0.8-2.1-0.5
					c0.6,0.3-0.4,1.5-1.4,1.4c-3.3-0.1-5.7-2.2-7.6-2.6c-2.7-0.6-3.9-3.7-4-4.2c-0.5,0.3-1.6,2.9-1.8,3.7c-0.2,0.7-0.6,2.1-0.3,2.8
					c0.2,0.5,0.5,1.6,0.4,2.7c0,0,0.5,0.4,1.9,0.6c0.9,0.2,2.1,0,2.1,0l0.2-1.7c0,0,0.7,0,1.7,0.1c0.9,0.2,2.5,1,2.6,1.1
					c0.4,0.4,0.7,1.2,1.2,1.5c1.3,0.6,2.6,0.9,4.3,1C135.6,479,137.6,477.9,138.2,476.8z"/>
			</g>
			<g>
				<path class="st17" d="M164.7,475.2c-0.4-0.4-4.5-1.1-6.5-1.8c-1.9-0.8-4.1-3.2-4.6-4.3c-0.4-1-0.4-6.4-0.4-8.6
					c0.2-15.4,2.7-53.2,3-62.3c0.6-15.7-1.6-31.9-7.9-57.1l-22.7-17c0,0-6.2,11.8-4,23c1.3,6.5,6.7,7.4,7.6,9.9
					c0.9,2.5,15,43.1,15,43.1s-2.6,8.8-2.6,18.5c0,8.2,3.9,33,4.7,42.5c0.1,1.8,0.5,6.3-0.1,7.7c-0.7,1.7-2.3,3.8-2.2,6
					c0.1,1.3,1,2.5,2.6,2.9c1.6,0.5,2.5-0.5,3-0.5c3.2-0.2,4.1,2,9.5,2c1.7,0,4.1-1,5.4-2.3C165.2,476.3,165.1,475.6,164.7,475.2z"
					/>
				<path class="st20" d="M165.2,477.1c0.3-0.7,0.2-1.7-0.2-1.9c-0.6-0.2-2.5-1.1-3.6-1.4c-1.1-0.3-2.8-0.4-2.2-0.2
					c0.6,0.2-0.3,1.5-1.2,1.6c-3.4,0.4-6.2-1.3-8.2-1.5c-2.9-0.2-3.9-3.1-4.1-3.6c-0.5,0.4-1.9,3.1-2,4c-0.1,0.8-0.3,2.1,0,2.8
					c0.2,0.5,0.7,1.5,0.7,2.6c0,0,0.6,0.3,2.1,0.4c0.9,0,2.1-0.3,2.1-0.3l0-1.7c0,0,0.7-0.2,1.7-0.1c1,0,2.2,0.5,2.8,1
					c0.5,0.3,1,0.9,1.5,1.1c1.6,0.4,2.7,0.5,4.4,0.3C162.7,479.6,164.7,478.3,165.2,477.1z"/>
			</g>
			<path class="st17" d="M209.5,264.8c0.2-0.7-0.6-0.8-1.4,0.4c-1.1,1.8-2.8,2.8-5,3.3c-0.1-0.4,0.3-0.5,0.7-1.2
				c0.4-0.8,0.1-1.4-0.2-1.6c-0.3-0.1-0.9,0.9-1.2,1c-0.8,0.7-1.7,1.4-2.5,2.1c-0.9,0.8-1.4,1.3-1.8,2.5c0,0.1-0.1,0.3-0.1,0.6
				c-5.6,4.3-24.1,9.6-26.6,11.1c-1.6,1-28.2-0.1-28.2-0.1l3.1,11c8.4-0.1,23.6-1.5,25.7-2c7.8-1.5,27.3-14.7,29-15.9
				c1.2,0.3,4.8-1,5.7-2.5c0.3-0.5,0.5-1.1,0.4-1.6c0.6-0.7,1.5-3-0.2-2.5C208.6,268.5,209.1,266.7,209.5,264.8z"/>
			<path class="st4" d="M118.1,283.6c0,0-3.6,9.7-4.8,17.3l8.7,1.4V290"/>
			<g>
				<g>
					<path class="st18" d="M165.1,330.8l-70.6,12c-0.4,0.1-0.9-0.2-0.9-0.7L87,303.6c-0.1-0.4,0.2-0.9,0.7-0.9l70.6-12
						c0.4-0.1,0.9,0.2,0.9,0.7l6.5,38.5C165.8,330.3,165.5,330.8,165.1,330.8z"/>
					<path class="st9" d="M162.1,328.6L96.6,340c-0.7,0.1-1.3-0.3-1.4-1l-5.5-32.6c-0.1-0.7,0.3-1.3,1-1.4l65.6-11.4
						c0.7-0.1,1.3,0.3,1.4,1l5.5,32.6C163.2,327.8,162.8,328.4,162.1,328.6z"/>
					<g>
						<path class="st6" d="M100,336.9l-1.1,0.2c-0.6,0.1-1.1-0.3-1.2-0.8l-4.8-28.1c-0.1-0.6,0.3-1.1,0.8-1.2l1.1-0.2
							c0.6-0.1,1.1,0.3,1.2,0.8l4.8,28.1C100.9,336.3,100.6,336.8,100,336.9z"/>
						<path class="st6" d="M105.9,335.8l-1.1,0.2c-0.6,0.1-1.1-0.3-1.2-0.8l-4.8-28.1c-0.1-0.6,0.3-1.1,0.8-1.2l1.1-0.2
							c0.6-0.1,1.1,0.3,1.2,0.8l4.8,28.1C106.8,335.2,106.4,335.7,105.9,335.8z"/>
						<path class="st6" d="M111.8,334.7l-1.1,0.2c-0.6,0.1-1.1-0.3-1.2-0.8l-4.8-28.1c-0.1-0.6,0.3-1.1,0.8-1.2l1.1-0.2
							c0.6-0.1,1.1,0.3,1.2,0.8l4.8,28.1C112.7,334,112.3,334.6,111.8,334.7z"/>
						<path class="st6" d="M117.7,333.5l-1.1,0.2c-0.6,0.1-1.1-0.3-1.2-0.8l-4.8-28.1c-0.1-0.6,0.3-1.1,0.8-1.2l1.1-0.2
							c0.6-0.1,1.1,0.3,1.2,0.8l4.8,28.1C118.6,332.9,118.2,333.4,117.7,333.5z"/>
						<path class="st6" d="M123.5,332.4l-1.1,0.2c-0.6,0.1-1.1-0.3-1.2-0.8l-4.8-28.1c-0.1-0.6,0.3-1.1,0.8-1.2l1.1-0.2
							c0.6-0.1,1.1,0.3,1.2,0.8l4.8,28.1C124.5,331.8,124.1,332.3,123.5,332.4z"/>
						<path class="st6" d="M129.4,331.3l-1.1,0.2c-0.6,0.1-1.1-0.3-1.2-0.8l-4.8-28.1c-0.1-0.6,0.3-1.1,0.8-1.2l1.1-0.2
							c0.6-0.1,1.1,0.3,1.2,0.8l4.8,28.1C130.4,330.7,130,331.2,129.4,331.3z"/>
						<path class="st6" d="M135.3,330.2l-1.1,0.2c-0.6,0.1-1.1-0.3-1.2-0.8l-4.8-28.1c-0.1-0.6,0.3-1.1,0.8-1.2l1.1-0.2
							c0.6-0.1,1.1,0.3,1.2,0.8l4.8,28.1C136.3,329.5,135.9,330.1,135.3,330.2z"/>
						<path class="st6" d="M141.2,329l-1.1,0.2c-0.6,0.1-1.1-0.3-1.2-0.8l-4.8-28.1c-0.1-0.6,0.3-1.1,0.8-1.2l1.1-0.2
							c0.6-0.1,1.1,0.3,1.2,0.8l4.8,28.1C142.2,328.4,141.8,328.9,141.2,329z"/>
						<path class="st6" d="M147.1,327.9l-1.1,0.2c-0.6,0.1-1.1-0.3-1.2-0.8l-4.8-28.1c-0.1-0.6,0.3-1.1,0.8-1.2l1.1-0.2
							c0.6-0.1,1.1,0.3,1.2,0.8l4.8,28.1C148,327.3,147.7,327.8,147.1,327.9z"/>
						<path class="st6" d="M153,326.8l-1.1,0.2c-0.6,0.1-1.1-0.3-1.2-0.8l-4.8-28.1c-0.1-0.6,0.3-1.1,0.8-1.2l1.1-0.2
							c0.6-0.1,1.1,0.3,1.2,0.8l4.8,28.1C153.9,326.1,153.5,326.7,153,326.8z"/>
						<path class="st6" d="M158.9,325.7l-1.1,0.2c-0.6,0.1-1.1-0.3-1.2-0.8l-4.8-28.1c-0.1-0.6,0.3-1.1,0.8-1.2l1.1-0.2
							c0.6-0.1,1.1,0.3,1.2,0.8l4.8,28.1C159.8,325,159.4,325.6,158.9,325.7z"/>
					</g>
				</g>
			</g>
			<g>
				<path class="st20" d="M121.6,324c-5.4,10.5-5.7,18.5-4.8,23.9c0.6,4.1,2.4,6,3.3,12c0.9,5.8,2.7,14.2,2.6,20.8
					c8.4,6.1,25.5,5.6,33.2,1c0.4-4,0.6-7.5,0.6-11.5c0,0,0.1-7.3-0.5-13.8c-1.3-14.3-6.9-29.3-8.5-33.4"/>
			</g>
			<path class="st37" d="M147.2,308.1c-0.3,3,0,7.5,0.4,12.6c0.1,0.9,0.5,2.5,0.4,3.3c0,0.5-0.3,0.9-0.7,1.3v0
				c0.6-1.3-0.8-7.5-1.4-11c-0.6-3.5-0.4-10.3,0.8-14.6c1.2-4.3,1.7-6.3,1.7-6.3s1-1.5,1.6-2.6c0.8,2.3,0.7,3.9,0,6
				C148.7,300.8,147.7,303.7,147.2,308.1z"/>
			<path class="st4" d="M162.1,282.6c0,0-7.7-1.3-11.3-3.4c-2.7-1.6-5.6-1-5.6-1l-0.6,1.1c-2.2-3.2-4.8-5.4-5.4-5.5
				c-1.5-0.2-0.8-4.7-2.3-4.9l-19,5.4c-1.3,11.3-0.8,17.4,1.1,27.5c0.9,4.8,1,15.7,0.8,20.4c-0.1,2.2-1.1,2.8-1.1,3.9
				c0,1.6,2.7,2.5,5.3,1.9c2.8-0.5,12.6,0.2,18.8-0.9c1.9-0.3,3.7-0.9,4.6-1.8c0.4-0.4,0.6-0.8,0.7-1.3c0.1-0.9-0.3-2.5-0.4-3.3
				c-0.4-5.1-0.7-9.6-0.4-12.6c0.5-4.5,1.5-7.3,3-11.3c0.2-0.5,0.3-1,0.5-1.5c0.4-0.1,0.7-0.1,1-0.1c7.5-0.8,10.1-0.4,10.1-0.4
				C162.7,291.3,162.1,282.6,162.1,282.6z"/>
			<path class="st17" d="M145.3,248.7c-1.9-3.6-4.8-8.6-11.9-7.9c-7.1,0.7-13.1,5.2-13,10.4c0.1,5.3,3.7,11.7,5.1,15.3
				c1.4,3.7,0.8,9.1,0.8,9.1l15.7-0.6c0,0-0.4-4.8,0.5-6.6c0.5-1,2.6-2.9,5.1-4.9c1.1-0.9,1.9-2.6,1.3-5.4c-1-4.2-1.3-6-1.9-7.2
				C146.4,250,145.7,249.4,145.3,248.7z"/>
			<g>
				<path class="st24" d="M145,277.2c-0.9-1.1-2.4-1.7-3.2-2.9c-0.8-1.1-1.3-2.8-1.1-4.2c0.1-0.9,0.6-1.6,0.9-2.4
					c1.7-3.4,1.8-5.7-0.6-8.4c-0.8-0.9-1.6-1.9-2-3c-0.4-1-0.7-2.2,0.3-2.8c0.7-0.4,1.3-0.5,1.8,0c0.4,0.3,1.5,3.6,1.7,1.4
					c0.2-2.2,1-2.7-0.9-6.6c-0.2-0.5-1.3-2.3-1.1-2.7c2.4,0.5,3.3,1.1,4.3,2.7c1.1-1.2-2.1-10.1-11.9-9.9c-2.5,0.1-5,0.2-7.2,1.3
					c-2.2,1.1-4.6,3.1-4.5,5.1c-3.5,0.7-3.9,4.2-4.2,5.5c-0.4,1.9-0.5,3.8-0.2,5.7c0.4,2.8,1.4,5.5,2,8.3c0.5,2.3,0.6,4.8-0.3,6.9
					c-0.9,2.1-2.9,3.2-4,5.2c-1.3,2.6-1.2,5.7,0.1,8.3c1.3,2.6,3,4.2,2.6,7.4c-0.1,1-1.1,5.7,3.3,9.6c1.8,1.6,5.1,2.4,7.5,2
					c2.3-0.4,4.1-0.8,6.1-1.9c3.6-2,6.9-3.3,9.3-8.5c1.3-3-0.6-3.4,0.6-6.5c0.7-1.7,2.1-3.1,2.3-5c0.2-1.6-0.4-3.2-1.4-4.4
					C145.1,277.2,145,277.2,145,277.2z"/>
			</g>
		</g>
	</g>
</g>
</svg>
