<?xml version="1.0" encoding="utf-8"?>
<!-- Generator: Adobe Illustrator 22.1.0, SVG Export Plug-In . SVG Version: 6.00 Build 0)  -->
<svg version="1.1" id="Lager_1" xmlns="http://www.w3.org/2000/svg" xmlns:xlink="http://www.w3.org/1999/xlink" x="0px" y="0px"
	 viewBox="0 0 150 150" style="enable-background:new 0 0 150 150;" xml:space="preserve">
<metadata><?xpacket begin="﻿" id="W5M0MpCehiHzreSzNTczkc9d"?>
<x:xmpmeta xmlns:x="adobe:ns:meta/" x:xmptk="Adobe XMP Core 5.6-c143 79.161356, 2017/09/07-01:11:22        ">
   <rdf:RDF xmlns:rdf="http://www.w3.org/1999/02/22-rdf-syntax-ns#">
      <rdf:Description rdf:about=""/>
   </rdf:RDF>
</x:xmpmeta>
                                                                                                    
                                                                                                    
                                                                                                    
                                                                                                    
                                                                                                    
                                                                                                    
                                                                                                    
                                                                                                    
                                                                                                    
                                                                                                    
                                                                                                    
                                                                                                    
                                                                                                    
                                                                                                    
                                                                                                    
                                                                                                    
                                                                                                    
                                                                                                    
                                                                                                    
                                                                                                    
                           
<?xpacket end="w"?></metadata>
<style type="text/css">
	.st0{fill:#FFFFFF;}
</style>
<g>
	<g>
		<path class="st0" d="M118,140.7l-29.7-3.4l-1.1-20.9c-10.3,1.9-19.9,5.6-28.2,10.9l-0.4,7.7L32,140.7l-0.9,1.1h87.8L118,140.7z"/>
		<g>
			<path class="st0" d="M84.9,55.1v2.4c1.1,0.5,1.7,1,1.7,1.6v5.7c3,0.8,4.9,1.9,4.9,3.2v6.5c-1.7-2.3-8.1-3.9-16.5-3.9
				c-8.4,0-14.8,1.6-16.5,3.9V68c0-1.2,1.9-2.3,4.9-3.2v-5.7c0-0.6,0.6-1.2,1.7-1.6v-2.4l-48.7,9.6c0,0.8-0.1,1.5-0.1,2.3
				c0,27,18.2,49.6,42.9,56.6l0.4-7.9c7.8-5.1,17-8.7,27-10.3l-0.7-13.8c-9.3,1.8-17.9,5.2-25.5,9.8l0.6-11.5
				c8.1-5,17.6-8.5,27.8-9.8l2.3,43.4c23.9-6.8,41.6-28.3,42.6-54.2l11.2,2.2l3.8-3.8L84.9,55.1z"/>
		</g>
		<path class="st0" d="M83.4,57V43.8c0-1.3-3.8-2.4-8.4-2.4c-4.6,0-8.4,1.1-8.4,2.4V57c1.3-0.4,2.9-0.7,4.8-0.9v-6.2
			c0-0.5,1.7-1,3.7-1c2.1,0,3.7,0.4,3.7,1v6.2C80.6,56.3,82.2,56.6,83.4,57z"/>
	</g>
	<g>
		<path class="st0" d="M84.9,45.3v5.9l43.5-8.6C119.1,22.3,98.7,8.2,75,8.2c-22.1,0-41.3,12.2-51.3,30.2L5.2,34.8l-3.8,3.8
			l63.7,12.5v-5.9c-1.1-0.5-1.7-1-1.7-1.6c0-0.3,0.2-0.7,0.6-1c1.5-1.5,5.3-3.8,8.2-5v-4.7c0-1.3,0.9-2.4,2.1-2.8v-7.6
			c0-0.1,0.3-0.2,0.7-0.2c0.4,0,0.7,0.1,0.7,0.2v7.6c1.2,0.3,2.1,1.4,2.1,2.8v4.7c2.8,1.2,6.7,3.5,8.2,5c0.4,0.3,0.6,0.6,0.6,1
			C86.6,44.2,86,44.8,84.9,45.3z"/>
	</g>
</g>
</svg>
