<?xml version="1.0" encoding="utf-8"?>
<!-- Generator: Adobe Illustrator 23.0.4, SVG Export Plug-In . SVG Version: 6.00 Build 0)  -->
<svg class="black-bay-data" version="1.1" id="Lager_1" xmlns="http://www.w3.org/2000/svg" xmlns:xlink="http://www.w3.org/1999/xlink" x="0px" y="0px"
	 viewBox="0 0 194 63" style="enable-background:new 0 0 194 63;" xml:space="preserve">
<style>
	.black-bay-data {
		fill: #283848;
	}
	.letter-line {
		animation: move-line 1.5s ease-out 1s forwards;
	}
	@keyframes move-line {
		to {
			transform: translateX(-15px);
		}
	}
</style>
<path d="M63.02,37.44c-1.3-2.21-3.03-3.94-5.18-5.19s-4.49-1.93-7.01-2.03v-0.61c3.44-0.71,6.25-2.26,8.43-4.64s3.27-5.36,3.27-8.92
	c0-4.73-1.8-8.54-5.39-11.46c-3.59-2.91-8.9-4.37-15.93-4.37H15.12v45.9h15.12V35.69h9.62c2.89,0,5.17,0.71,6.83,2.12
	c1.66,1.42,2.49,3.33,2.49,5.73c0,2.22-0.78,3.95-2.34,5.19s-3.98,1.86-7.25,1.86h-7.82h-1.53H15.12v12.19h28.07
	c4.62,0,8.55-0.76,11.79-2.28c3.24-1.51,5.71-3.59,7.42-6.23c1.71-2.64,2.57-5.64,2.57-9C64.97,42.27,64.32,39.65,63.02,37.44z
	 M44.72,24.11c-1.59,1.22-3.63,1.83-6.11,1.83h-8.37V12.22h8.61c2.52,0,4.53,0.61,6.02,1.82s2.23,2.85,2.23,4.93
	C47.1,21.18,46.31,22.89,44.72,24.11z"/>

<rect x="15.12" y="46.12" width="15.12" height="4.48" class="letter-line"/>

<path d="M125.05,37.44c-1.3-2.21-3.03-3.94-5.18-5.19s-4.49-1.93-7.01-2.03v-0.61c3.44-0.71,6.25-2.26,8.43-4.64
	s3.27-5.36,3.27-8.92c0-4.73-1.8-8.54-5.39-11.46c-3.59-2.91-8.9-4.37-15.93-4.37H77.15v12.01h15.12h1.43h7.18
	c2.52,0,4.53,0.61,6.02,1.82s2.23,2.85,2.23,4.93c0,2.2-0.79,3.91-2.38,5.13c-1.59,1.22-3.63,1.83-6.11,1.83h-8.37V16.7H77.15v46.08
	h28.07c4.62,0,8.55-0.76,11.79-2.28c3.24-1.51,5.71-3.59,7.42-6.23s2.57-5.64,2.57-9C127,42.27,126.35,39.65,125.05,37.44z
	 M108.87,48.73c-1.56,1.24-3.98,1.86-7.25,1.86h-9.35v-14.9h9.62c2.89,0,5.17,0.71,6.83,2.12c1.66,1.42,2.49,3.33,2.49,5.73
	C111.21,45.76,110.43,47.49,108.87,48.73z"/>

<rect x="77.15" y="12.21" width="15.12" height="4.48" class="letter-line"/>

<path d="M189.5,14.7c-2.5-4.66-6.06-8.24-10.68-10.74c-4.61-2.49-10.11-3.74-16.48-3.74h-23.09v45.2h15.12v-32.3h7.21
	c5.38,0,9.48,1.37,12.3,4.12s4.23,7.49,4.23,14.23c0,6.76-1.4,11.52-4.2,14.28s-6.84,4.14-12.11,4.14h-6.46h-0.96h-15.12v12.89
	h23.12c6.36,0,11.84-1.25,16.46-3.76c4.62-2.5,8.18-6.09,10.68-10.77c2.49-4.68,3.74-10.27,3.74-16.79S192,19.36,189.5,14.7z"/>

<rect x="139.25" y="45.41" width="15.12" height="4.48" class="letter-line"/>
</svg>
