<?xml version="1.0" encoding="utf-8"?>
<!-- Generator: Adobe Illustrator 19.2.0, SVG Export Plug-In . SVG Version: 6.00 Build 0)  -->
<svg version="1.1" id="Lager_1" xmlns="http://www.w3.org/2000/svg" xmlns:xlink="http://www.w3.org/1999/xlink" x="0px" y="0px"
	 viewBox="0 0 135 20" style="enable-background:new 0 0 135 20;" xml:space="preserve">
<style type="text/css">
	.st0{fill:#FFFFFF;}
</style>
<path class="st0" d="M9.6,0.6H0.9v19.1h8.7c6.2,0,10.5-3.8,10.5-9.5C20.1,4.4,15.8,0.6,9.6,0.6z M9.4,16.1h-4V4.2h4
	c3.8,0,6.3,2.3,6.3,5.9C15.6,13.8,13.2,16.1,9.4,16.1z"/>
<path class="st0" d="M29,4.8c-2.3,0-4.7,0.6-6.3,1.8l1.5,3c1.1-0.8,2.7-1.4,4.2-1.4c2.3,0,3.4,1.1,3.4,2.9h-3.4
	c-4.5,0-6.3,1.8-6.3,4.4c0,2.5,2,4.4,5.5,4.4c2.2,0,3.7-0.7,4.5-2v1.8h4v-8.4C36.1,6.9,33.5,4.8,29,4.8z M31.8,15.1
	c-0.5,1.3-1.7,2-3.1,2c-1.5,0-2.4-0.7-2.4-1.8c0-1,0.6-1.7,2.6-1.7h2.9V15.1z"/>
<g>
	<path class="st0" d="M49.4,19c-0.9,0.6-2.2,0.9-3.5,0.9c-3.5,0-5.5-1.8-5.5-5.3v-6h-2.3V5.4h2.3V1.8h4.3v3.6h3.7v3.3h-3.7v6
		c0,1.3,0.7,1.9,1.8,1.9c0.6,0,1.3-0.2,1.7-0.5L49.4,19z"/>
</g>
<path class="st0" d="M57.7,4.8c-2.3,0-4.7,0.6-6.3,1.8l1.5,3c1.1-0.8,2.7-1.4,4.2-1.4c2.3,0,3.4,1.1,3.4,2.9h-3.4
	c-4.5,0-6.3,1.8-6.3,4.4c0,2.5,2,4.4,5.5,4.4c2.2,0,3.7-0.7,4.5-2v1.8h4v-8.4C64.8,6.9,62.2,4.8,57.7,4.8z M60.5,15.1
	c-0.5,1.3-1.7,2-3.1,2c-1.5,0-2.4-0.7-2.4-1.8c0-1,0.6-1.7,2.6-1.7h2.9V15.1z"/>
<g>
	<polygon class="st0" points="95.1,0.6 88.6,19.7 87.7,19.7 81.5,1.9 75.3,19.7 74.3,19.7 67.8,0.6 68.8,0.6 74.8,18.4 81,0.6 
		81.9,0.6 88.1,18.4 94.2,0.6 	"/>
</g>
<g>
	<path class="st0" d="M98.2,1c0-0.5,0.4-0.9,0.9-0.9S100,0.5,100,1s-0.4,0.9-0.9,0.9S98.2,1.4,98.2,1z"/>
	<rect x="98.7" y="5.6" class="st0" width="0.9" height="14.1"/>
</g>
<g>
	<path class="st0" d="M103.5,17.9l0.4-0.7c1.1,1,3,1.8,5.2,1.8c3.2,0,4.5-1.2,4.5-2.9c0-4.5-9.6-1.3-9.6-6.8c0-2,1.6-3.8,5.2-3.8
		c1.7,0,3.7,0.6,4.7,1.4l-0.5,0.7c-1.1-0.9-2.8-1.3-4.3-1.3c-2.9,0-4.2,1.3-4.2,2.9c0,4.6,9.5,1.5,9.5,6.9c0,2.2-1.8,3.7-5.4,3.7
		C106.7,19.8,104.6,19,103.5,17.9z"/>
</g>
<path class="st0" d="M130.1,12.5c0-4.1-2.9-7.1-6.6-7.1c-3.8,0-6.7,3-6.7,7.2s3,7.2,7.2,7.2c2.1,0,4-0.8,5.3-2.3l-0.6-0.6
	c-1.1,1.4-2.8,2.1-4.7,2.1c-3.6,0-6.2-2.5-6.3-6.2h12.4L130.1,12.5L130.1,12.5z M117.8,12c0.2-3.3,2.5-5.8,5.8-5.8
	c3.2,0,5.6,2.4,5.8,5.8H117.8z"/>
<path class="st0" d="M133,0.7c-0.9,0-1.6,0.7-1.6,1.6s0.7,1.6,1.6,1.6s1.6-0.7,1.6-1.6C134.6,1.3,133.9,0.7,133,0.7z M133,3.7
	c-0.8,0-1.4-0.6-1.4-1.4s0.6-1.4,1.4-1.4c0.8,0,1.4,0.6,1.4,1.4S133.8,3.7,133,3.7z"/>
<path class="st0" d="M133.4,2.5c0.3-0.1,0.4-0.3,0.4-0.6c0-0.4-0.3-0.6-0.7-0.6h-0.7v1.8h0.2V2.5h0.5h0.1l0.4,0.6h0.2L133.4,2.5z
	 M133.1,2.4h-0.5V1.5h0.5c0.3,0,0.5,0.1,0.5,0.4S133.4,2.4,133.1,2.4z"/>
</svg>
