<?xml version="1.0" encoding="utf-8"?>
<!-- Generator: Adobe Illustrator 19.2.0, SVG Export Plug-In . SVG Version: 6.00 Build 0)  -->
<svg version="1.1" id="Lager_1" xmlns="http://www.w3.org/2000/svg" xmlns:xlink="http://www.w3.org/1999/xlink" x="0px" y="0px"
	 viewBox="0 0 59 26" style="enable-background:new 0 0 59 26;" xml:space="preserve">
<style type="text/css">
	.st0{fill:#1A2631;}
</style>
<path class="st0" d="M0.9,7.6h3.7c2.7,0,4.5,1.6,4.5,4.1s-1.8,4.1-4.5,4.1H0.9V7.6z M4.6,14.2c1.6,0,2.7-1,2.7-2.6S6.2,9.1,4.6,9.1
	H2.8v5.1H4.6z M16.1,12.2v3.6h-1.7V15c-0.3,0.6-1,0.9-1.9,0.9c-1.5,0-2.4-0.8-2.4-1.9c0-1.1,0.8-1.9,2.7-1.9h1.5
	c0-0.8-0.5-1.2-1.5-1.2c-0.7,0-1.4,0.2-1.8,0.6l-0.7-1.3C11,9.7,12,9.4,13,9.4C15,9.4,16.1,10.3,16.1,12.2z M14.3,13.8v-0.6H13
	c-0.9,0-1.1,0.3-1.1,0.7c0,0.5,0.4,0.8,1,0.8C13.5,14.7,14,14.4,14.3,13.8z M21.8,15.5c-0.4,0.3-0.9,0.4-1.5,0.4
	c-1.5,0-2.4-0.8-2.4-2.3V11h-1V9.6h1V8.1h1.8v1.5h1.6V11h-1.6v2.6c0,0.5,0.3,0.8,0.8,0.8c0.3,0,0.5-0.1,0.7-0.2L21.8,15.5z
	 M28.4,12.2v3.6h-1.7V15c-0.3,0.6-1,0.9-1.9,0.9c-1.5,0-2.4-0.8-2.4-1.9c0-1.1,0.8-1.9,2.7-1.9h1.5c0-0.8-0.5-1.2-1.5-1.2
	c-0.7,0-1.4,0.2-1.8,0.6l-0.7-1.3c0.7-0.5,1.7-0.8,2.7-0.8C27.3,9.4,28.4,10.3,28.4,12.2z M26.6,13.8v-0.6h-1.3
	c-0.9,0-1.1,0.3-1.1,0.7c0,0.5,0.4,0.8,1,0.8C25.9,14.7,26.4,14.4,26.6,13.8z M41.5,7.6l-2.8,8.2h-0.4l-2.7-7.7L33,15.8h-0.4
	l-2.8-8.2h0.4l2.6,7.7l2.7-7.7h0.4l2.7,7.7l2.6-7.7H41.5z M42.9,7.7c0-0.2,0.2-0.4,0.4-0.4c0.2,0,0.4,0.2,0.4,0.4
	c0,0.2-0.2,0.4-0.4,0.4C43.1,8.1,42.9,7.9,42.9,7.7z M43.1,9.7h0.4v6.1h-0.4V9.7z M45.1,15l0.2-0.3c0.5,0.4,1.3,0.8,2.2,0.8
	c1.4,0,1.9-0.5,1.9-1.3c0-1.9-4.1-0.6-4.1-2.9c0-0.9,0.7-1.6,2.2-1.6c0.8,0,1.6,0.2,2,0.6l-0.2,0.3c-0.5-0.4-1.2-0.6-1.9-0.6
	c-1.3,0-1.8,0.6-1.8,1.3c0,2,4.1,0.6,4.1,3c0,1-0.8,1.6-2.3,1.6C46.5,15.8,45.6,15.5,45.1,15z M56.6,12.8h-5.3
	c0,1.6,1.2,2.7,2.7,2.7c0.8,0,1.6-0.3,2-0.9l0.2,0.3c-0.6,0.7-1.4,1-2.3,1c-1.8,0-3.1-1.3-3.1-3.1c0-1.8,1.2-3.1,2.9-3.1
	c1.6,0,2.9,1.3,2.9,3V12.8z M51.3,12.5h5c-0.1-1.4-1.1-2.5-2.5-2.5C52.4,10,51.4,11.1,51.3,12.5z M58.6,8.3c0,0.4-0.3,0.7-0.7,0.7
	c-0.4,0-0.7-0.3-0.7-0.7c0-0.4,0.3-0.7,0.7-0.7C58.3,7.6,58.6,7.9,58.6,8.3z M58.5,8.3c0-0.3-0.3-0.6-0.6-0.6
	c-0.4,0-0.6,0.3-0.6,0.6c0,0.3,0.3,0.6,0.6,0.6C58.2,8.9,58.5,8.6,58.5,8.3z M58.1,8.4l0.2,0.3h-0.1L58.1,8.4c-0.1,0-0.1,0-0.1,0
	h-0.2v0.3h-0.1V7.9h0.3c0.2,0,0.3,0.1,0.3,0.3C58.2,8.3,58.2,8.4,58.1,8.4z M58.1,8.2C58.1,8,58,8,57.9,8h-0.2v0.4h0.2
	C58,8.3,58.1,8.3,58.1,8.2z"/>
</svg>
