<?xml version="1.0" encoding="utf-8"?>
<!-- Generator: Adobe Illustrator 19.2.0, SVG Export Plug-In . SVG Version: 6.00 Build 0)  -->
<svg version="1.1" id="Lager_1" xmlns="http://www.w3.org/2000/svg" xmlns:xlink="http://www.w3.org/1999/xlink" x="0px" y="0px"
	 viewBox="0 0 600 546" style="enable-background:new 0 0 600 546;" xml:space="preserve">
<style type="text/css">
	.st0{opacity:0.3;fill:#B5D4B7;}
	.st1{fill:url(#SVGID_1_);}
	.st2{fill:none;stroke:#B5D4B7;stroke-miterlimit:10;}
	.st3{fill:#FFFFFF;}
	.st4{clip-path:url(#SVGID_3_);}
	.st5{fill:#283848;}
	.st6{display:none;opacity:0.29;}
	.st7{display:inline;}
	.st8{fill:#56A4FE;}
	.st9{fill:#FC3535;}
	.st10{fill:#B2312C;}
	.st11{fill:#EDF1F2;}
	.st12{fill:url(#SVGID_4_);}
	.st13{display:none;fill:#FFE1BD;}
	.st14{fill:#FFE1BD;}
	.st15{fill:#FFC04D;}
	.st16{fill:#FCCB95;}
	.st17{fill:#492107;}
	.st18{fill:#594A5F;}
	.st19{fill:#4C4051;}
	.st20{fill:#E6991D;}
	.st21{fill:#FFB9B0;}
	.st22{fill:#B4BCC5;}
	.st23{fill:#39202E;}
	.st24{fill:url(#SVGID_5_);}
	.st25{fill:#3A3A3A;}
	.st26{fill:#1C0811;}
	.st27{fill:#E5BB98;}
	.st28{fill:#C49A6C;}
	.st29{opacity:0.3;fill:#231F20;}
	.st30{opacity:0.38;fill:#4C4051;}
	.st31{fill:#B5D4B7;}
	.st32{fill:#8C3200;}
	.st33{fill:#F4F4F4;}
	.st34{fill:url(#SVGID_6_);}
	.st35{fill:none;stroke:#FFFFFF;stroke-miterlimit:10;}
	.st36{fill:none;stroke:#FFFFFF;stroke-miterlimit:10;stroke-dasharray:4.0095,3.0072;}
	.st37{fill:none;stroke:#FFFFFF;stroke-miterlimit:10;stroke-dasharray:3.9627,2.972;}
	.st38{fill:none;stroke:#FFFFFF;stroke-miterlimit:10;stroke-dasharray:4,3;}
</style>
<title>12_work</title>
<desc>Created with Sketch.</desc>
<g>
	<g>
		<path class="st0" d="M416.7,156.1c0-1.1,0.1-2.2,0.1-3.3v-0.9l-0.7,0.1c-6.2-35.7-37.2-62.8-74.7-62.8c-5.2,0-10.2,0.5-15.1,1.5
			c-16.3-24.7-44.3-40.9-76.1-40.9c-47.9,0-87.2,36.9-90.9,83.9c-8.3-4.7-17.9-7.4-28.1-7.4c-31.6,0-57.3,25.6-57.3,57.3v0.6
			c0,31.3,25.4,56.7,56.7,56.7h198.3c2.2,0,4.3-0.1,6.5-0.3c2,0.2,4.1,0.3,6.2,0.3c41.9,0,75.8-33.9,75.8-75.8
			C417.2,162,417,159,416.7,156.1z"/>
		<linearGradient id="SVGID_1_" gradientUnits="userSpaceOnUse" x1="229.7882" y1="226.6023" x2="229.7882" y2="35.5563">
			<stop  offset="0" style="stop-color:#B5D4B7"/>
			<stop  offset="1" style="stop-color:#283848"/>
		</linearGradient>
		<path class="st1" d="M401,142c0-1.1,0.1-2.2,0.1-3.3v-0.9l-0.7,0.1c-6.2-35.7-37.2-62.8-74.7-62.8c-5.2,0-10.2,0.5-15.1,1.5
			c-16.3-24.7-44.3-40.9-76.1-40.9c-47.9,0-87.2,36.9-90.9,83.9c-8.3-4.7-17.9-7.4-28.1-7.4c-31.6,0-57.3,25.6-57.3,57.3v0.6
			c0,31.3,25.4,56.7,56.7,56.7H313c2.2,0,4.3-0.1,6.5-0.3c2,0.2,4.1,0.3,6.2,0.3c41.9,0,75.8-33.9,75.8-75.8
			C401.5,147.8,401.3,144.9,401,142z"/>
		<path class="st2" d="M377,130c0-1.1,0.1-2.2,0.1-3.3v-0.9l-0.7,0.1C370.3,90.2,339.2,63,301.8,63c-5.2,0-10.2,0.5-15.1,1.5
			c-16.3-24.7-44.3-40.9-76.1-40.9c-47.9,0-87.2,36.9-90.9,83.9c-8.3-4.7-17.9-7.4-28.1-7.4c-31.6,0-57.3,25.6-57.3,57.3v0.6
			c0,31.3,25.4,56.7,56.7,56.7h198.3c2.2,0,4.3-0.1,6.5-0.3c2,0.2,4.1,0.3,6.2,0.3c41.9,0,75.8-33.9,75.8-75.8
			C377.6,135.8,377.4,132.9,377,130z"/>
	</g>
	<g>
		<path class="st0" d="M524.7,104c-5,0-9.7,1.2-14,3.2c-1.7-27.1-24.1-48.5-51.6-48.5c-6.6,0-12.9,1.3-18.8,3.5
			C431.7,40.4,410.5,25,385.8,25c-31.7,0-57.5,25.1-58.6,56.5c0,0,0,0-0.1,0c-24.2,0-43.7,19.6-43.7,43.7
			c0,24.2,19.6,43.7,43.7,43.7h197.6c18,0,32.5-14.6,32.5-32.5S542.7,104,524.7,104z M414.4,136.5h-3.1c0.8-0.4,1.6-0.8,2.4-1.2
			C414,135.7,414.2,136.1,414.4,136.5z"/>
		<path class="st3" d="M512.8,93.3c-5,0-9.7,1.2-14,3.2c-1.7-27.1-24.1-48.5-51.6-48.5c-6.6,0-12.9,1.3-18.8,3.5
			c-8.6-21.7-29.8-37.1-54.6-37.1c-31.7,0-57.5,25.1-58.6,56.5c0,0,0,0-0.1,0c-24.2,0-43.7,19.6-43.7,43.7
			c0,24.2,19.6,43.7,43.7,43.7h197.6c18,0,32.5-14.6,32.5-32.5S530.8,93.3,512.8,93.3z M402.6,125.8h-3.1c0.8-0.4,1.6-0.8,2.4-1.2
			C402.1,125,402.3,125.4,402.6,125.8z"/>
		<g>
			<defs>
				<path id="SVGID_2_" d="M512.8,93.3c-5,0-9.7,1.2-14,3.2c-1.7-27.1-24.1-48.5-51.6-48.5c-6.6,0-12.9,1.3-18.8,3.5
					c-8.6-21.7-29.8-37.1-54.6-37.1c-31.7,0-57.5,25.1-58.6,56.5c0,0,0,0-0.1,0c-24.2,0-43.7,19.6-43.7,43.7
					c0,24.2,19.6,43.7,43.7,43.7h197.6c18,0,32.5-14.6,32.5-32.5S530.8,93.3,512.8,93.3z M402.6,125.8h-3.1c0.8-0.4,1.6-0.8,2.4-1.2
					C402.1,125,402.3,125.4,402.6,125.8z"/>
			</defs>
			<clipPath id="SVGID_3_">
				<use xlink:href="#SVGID_2_"  style="overflow:visible;"/>
			</clipPath>
			<g class="st4">
				<g>
					<g>
						<g>
							<path class="st5" d="M362.4,19.2c-3.3,0-5.3,3-5.3,8.6s2,8.7,5.3,8.7c3.3,0,5.3-3.1,5.3-8.7S365.7,19.2,362.4,19.2z
								 M362.4,34.7c-1.9,0-3.2-2.1-3.2-6.9c0-4.9,1.3-6.8,3.2-6.8c1.9,0,3.2,2,3.2,6.8C365.6,32.6,364.3,34.7,362.4,34.7z"/>
						</g>
						<g>
							<path class="st5" d="M392.3,19.5h-1.6c-0.9,0.5-2,1-3.5,1.2v1.4h3v12.2h-3.8v1.8h9.4v-1.8h-3.4V19.5z"/>
						</g>
						<g>
							<path class="st5" d="M334.5,48.4c-3.3,0-5.3,3-5.3,8.6s2,8.7,5.3,8.7c3.3,0,5.3-3.1,5.3-8.7S337.8,48.4,334.5,48.4z
								 M334.5,63.9c-2,0-3.3-2.1-3.3-6.9c0-4.9,1.3-6.8,3.3-6.8c1.9,0,3.2,2,3.2,6.8C337.7,61.9,336.4,63.9,334.5,63.9z"/>
						</g>
						<g>
							<path class="st5" d="M363.9,48.7h-1.6c-0.9,0.5-2,1-3.5,1.2v1.4h3v12.2h-3.8v1.8h9.4v-1.8h-3.4V48.7z"/>
						</g>
						<g>
							<path class="st5" d="M390.8,48.4c-3.3,0-5.3,3-5.3,8.6s2,8.7,5.3,8.7c3.3,0,5.3-3.1,5.3-8.7S394.1,48.4,390.8,48.4z
								 M390.8,63.9c-2,0-3.3-2.1-3.3-6.9c0-4.9,1.3-6.8,3.3-6.8c1.9,0,3.2,2,3.2,6.8C394,61.9,392.7,63.9,390.8,63.9z"/>
						</g>
						<g>
							<path class="st5" d="M305.7,77.7c-3.3,0-5.3,3-5.3,8.6c0,5.6,2,8.7,5.3,8.7c3.3,0,5.3-3.1,5.3-8.7
								C311,80.7,309,77.7,305.7,77.7z M305.7,93.2c-2,0-3.3-2.1-3.3-6.9c0-4.9,1.3-6.8,3.3-6.8c1.9,0,3.2,2,3.2,6.8
								C309,91.1,307.7,93.2,305.7,93.2z"/>
						</g>
						<g>
							<path class="st5" d="M336,78h-1.6c-0.9,0.5-2,1-3.5,1.2v1.4h3v12.2H330v1.8h9.4v-1.8H336V78z"/>
						</g>
						<g>
							<path class="st5" d="M279.2,77.7c-3.3,0-5.3,3-5.3,8.6c0,5.6,2,8.7,5.3,8.7c3.3,0,5.3-3.1,5.3-8.7
								C284.5,80.7,282.5,77.7,279.2,77.7z M279.2,93.2c-1.9,0-3.2-2.1-3.2-6.9c0-4.9,1.3-6.8,3.2-6.8c1.9,0,3.2,2,3.2,6.8
								C282.4,91.1,281.1,93.2,279.2,93.2z"/>
						</g>
						<g>
							<path class="st5" d="M362.4,77.7c-3.3,0-5.3,3-5.3,8.6c0,5.6,2,8.7,5.3,8.7c3.3,0,5.3-3.1,5.3-8.7
								C367.7,80.7,365.7,77.7,362.4,77.7z M362.4,93.2c-1.9,0-3.2-2.1-3.2-6.9c0-4.9,1.3-6.8,3.2-6.8c1.9,0,3.2,2,3.2,6.8
								C365.6,91.1,364.3,93.2,362.4,93.2z"/>
						</g>
						<g>
							<path class="st5" d="M392.3,78h-1.6c-0.9,0.5-2,1-3.5,1.2v1.4h3v12.2h-3.8v1.8h9.4v-1.8h-3.4V78z"/>
						</g>
						<g>
							<path class="st5" d="M307.2,107.3h-1.6c-0.9,0.5-2,1-3.5,1.2v1.4h3v12.2h-3.8v1.8h9.4v-1.8h-3.4V107.3z"/>
						</g>
						<g>
							<path class="st5" d="M336,107.3h-1.6c-0.9,0.5-2,1-3.5,1.2v1.4h3v12.2H330v1.8h9.4v-1.8H336V107.3z"/>
						</g>
						<g>
							<path class="st5" d="M279.2,107c-3.3,0-5.3,3-5.3,8.6c0,5.6,2,8.7,5.3,8.7c3.3,0,5.3-3.1,5.3-8.7
								C284.5,110,282.5,107,279.2,107z M279.2,122.5c-1.9,0-3.2-2.1-3.2-6.9c0-4.9,1.3-6.8,3.2-6.8c1.9,0,3.2,2,3.2,6.8
								C282.4,120.4,281.1,122.5,279.2,122.5z"/>
						</g>
						<g>
							<path class="st5" d="M362.4,107c-3.3,0-5.3,3-5.3,8.6c0,5.6,2,8.7,5.3,8.7c3.3,0,5.3-3.1,5.3-8.7
								C367.7,110,365.7,107,362.4,107z M362.4,122.5c-1.9,0-3.2-2.1-3.2-6.9c0-4.9,1.3-6.8,3.2-6.8c1.9,0,3.2,2,3.2,6.8
								C365.6,120.4,364.3,122.5,362.4,122.5z"/>
						</g>
						<g>
							<path class="st5" d="M390.8,107c-3.3,0-5.3,3-5.3,8.6c0,5.6,2,8.7,5.3,8.7c3.3,0,5.3-3.1,5.3-8.7
								C396.1,110,394.1,107,390.8,107z M390.8,122.5c-2,0-3.3-2.1-3.3-6.9c0-4.9,1.3-6.8,3.3-6.8c1.9,0,3.2,2,3.2,6.8
								C394,120.4,392.7,122.5,390.8,122.5z"/>
						</g>
						<g>
							<path class="st5" d="M307.2,136.6h-1.6c-0.9,0.5-2,1-3.5,1.2v1.4h3v12.2h-3.8v1.8h9.4v-1.8h-3.4V136.6z"/>
						</g>
						<g>
							<path class="st5" d="M334.5,136.3c-3.3,0-5.3,3-5.3,8.6c0,5.6,2,8.7,5.3,8.7c3.3,0,5.3-3.1,5.3-8.7
								C339.8,139.3,337.8,136.3,334.5,136.3z M334.5,151.8c-2,0-3.3-2.1-3.3-6.9c0-4.9,1.3-6.8,3.3-6.8c1.9,0,3.2,2,3.2,6.8
								C337.7,149.7,336.4,151.8,334.5,151.8z"/>
						</g>
						<g>
							<path class="st5" d="M279.2,136.3c-3.3,0-5.3,3-5.3,8.6c0,5.6,2,8.7,5.3,8.7c3.3,0,5.3-3.1,5.3-8.7
								C284.5,139.3,282.5,136.3,279.2,136.3z M279.2,151.8c-1.9,0-3.2-2.1-3.2-6.9c0-4.9,1.3-6.8,3.2-6.8c1.9,0,3.2,2,3.2,6.8
								C282.4,149.7,281.1,151.8,279.2,151.8z"/>
						</g>
						<g>
							<path class="st5" d="M362.4,136.3c-3.3,0-5.3,3-5.3,8.6c0,5.6,2,8.7,5.3,8.7c3.3,0,5.3-3.1,5.3-8.7
								C367.7,139.3,365.7,136.3,362.4,136.3z M362.4,151.8c-1.9,0-3.2-2.1-3.2-6.9c0-4.9,1.3-6.8,3.2-6.8c1.9,0,3.2,2,3.2,6.8
								C365.6,149.7,364.3,151.8,362.4,151.8z"/>
						</g>
						<g>
							<path class="st5" d="M392.3,136.6h-1.6c-0.9,0.5-2,1-3.5,1.2v1.4h3v12.2h-3.8v1.8h9.4v-1.8h-3.4V136.6z"/>
						</g>
					</g>
				</g>
				<g>
					<g>
						<g>
							<path class="st5" d="M417.4,19.5h-1.6c-0.9,0.5-2,1-3.5,1.2v1.4h3v12.2h-3.8v1.8h9.4v-1.8h-3.4V19.5z"/>
						</g>
						<g>
							<path class="st5" d="M471.1,19.5h-1.6c-0.9,0.5-2,1-3.5,1.2v1.4h3v12.2h-3.8v1.8h9.4v-1.8h-3.4V19.5z"/>
						</g>
						<g>
							<path class="st5" d="M499.8,19.5h-1.6c-0.9,0.5-2,1-3.5,1.2v1.4h3v12.2h-3.8v1.8h9.4v-1.8h-3.4V19.5z"/>
						</g>
						<g>
							<path class="st5" d="M443,19.2c-3.3,0-5.3,3-5.3,8.6s2,8.7,5.3,8.7c3.3,0,5.3-3.1,5.3-8.7S446.3,19.2,443,19.2z M443,34.7
								c-2,0-3.3-2.1-3.3-6.9c0-4.9,1.3-6.8,3.3-6.8c1.9,0,3.2,2,3.2,6.8C446.3,32.6,445,34.7,443,34.7z"/>
						</g>
						<g>
							<path class="st5" d="M526.2,19.2c-3.3,0-5.3,3-5.3,8.6s2,8.7,5.3,8.7c3.3,0,5.3-3.1,5.3-8.7S529.5,19.2,526.2,19.2z
								 M526.2,34.7c-2,0-3.3-2.1-3.3-6.9c0-4.9,1.3-6.8,3.3-6.8c1.9,0,3.2,2,3.2,6.8C529.5,32.6,528.2,34.7,526.2,34.7z"/>
						</g>
						<g>
							<path class="st5" d="M556.2,19.5h-1.6c-0.9,0.5-2,1-3.5,1.2v1.4h3v12.2h-3.8v1.8h9.4v-1.8h-3.4V19.5z"/>
						</g>
						<g>
							<path class="st5" d="M415.9,48.4c-3.3,0-5.3,3-5.3,8.6s2,8.7,5.3,8.7c3.3,0,5.3-3.1,5.3-8.7S419.2,48.4,415.9,48.4z
								 M415.9,63.9c-1.9,0-3.2-2.1-3.2-6.9c0-4.9,1.3-6.8,3.2-6.8c1.9,0,3.2,2,3.2,6.8C419.2,61.9,417.9,63.9,415.9,63.9z"/>
						</g>
						<g>
							<path class="st5" d="M471.1,48.7h-1.6c-0.9,0.5-2,1-3.5,1.2v1.4h3v12.2h-3.8v1.8h9.4v-1.8h-3.4V48.7z"/>
						</g>
						<g>
							<path class="st5" d="M498.3,48.4c-3.3,0-5.3,3-5.3,8.6s2,8.7,5.3,8.7c3.3,0,5.3-3.1,5.3-8.7S501.6,48.4,498.3,48.4z
								 M498.3,63.9c-1.9,0-3.2-2.1-3.2-6.9c0-4.9,1.3-6.8,3.2-6.8c1.9,0,3.2,2,3.2,6.8C501.5,61.9,500.2,63.9,498.3,63.9z"/>
						</g>
						<g>
							<path class="st5" d="M443,48.4c-3.3,0-5.3,3-5.3,8.6s2,8.7,5.3,8.7c3.3,0,5.3-3.1,5.3-8.7S446.3,48.4,443,48.4z M443,63.9
								c-2,0-3.3-2.1-3.3-6.9c0-4.9,1.3-6.8,3.3-6.8c1.9,0,3.2,2,3.2,6.8C446.3,61.9,445,63.9,443,63.9z"/>
						</g>
						<g>
							<path class="st5" d="M527.7,48.7h-1.6c-0.9,0.5-2,1-3.5,1.2v1.4h3v12.2h-3.8v1.8h9.4v-1.8h-3.4V48.7z"/>
						</g>
						<g>
							<path class="st5" d="M554.7,48.4c-3.3,0-5.3,3-5.3,8.6s2,8.7,5.3,8.7c3.3,0,5.3-3.1,5.3-8.7S558,48.4,554.7,48.4z
								 M554.7,63.9c-1.9,0-3.2-2.1-3.2-6.9c0-4.9,1.3-6.8,3.2-6.8c1.9,0,3.2,2,3.2,6.8C557.9,61.9,556.6,63.9,554.7,63.9z"/>
						</g>
						<g>
							<path class="st5" d="M417.4,78h-1.6c-0.9,0.5-2,1-3.5,1.2v1.4h3v12.2h-3.8v1.8h9.4v-1.8h-3.4V78z"/>
						</g>
						<g>
							<path class="st5" d="M469.6,77.7c-3.3,0-5.3,3-5.3,8.6c0,5.6,2,8.7,5.3,8.7c3.3,0,5.3-3.1,5.3-8.7
								C474.9,80.7,472.9,77.7,469.6,77.7z M469.6,93.2c-1.9,0-3.2-2.1-3.2-6.9c0-4.9,1.3-6.8,3.2-6.8c1.9,0,3.2,2,3.2,6.8
								C472.8,91.1,471.5,93.2,469.6,93.2z"/>
						</g>
						<g>
							<path class="st5" d="M499.8,78h-1.6c-0.9,0.5-2,1-3.5,1.2v1.4h3v12.2h-3.8v1.8h9.4v-1.8h-3.4V78z"/>
						</g>
						<g>
							<path class="st5" d="M443,77.7c-3.3,0-5.3,3-5.3,8.6c0,5.6,2,8.7,5.3,8.7c3.3,0,5.3-3.1,5.3-8.7
								C448.3,80.7,446.3,77.7,443,77.7z M443,93.2c-2,0-3.3-2.1-3.3-6.9c0-4.9,1.3-6.8,3.3-6.8c1.9,0,3.2,2,3.2,6.8
								C446.3,91.1,445,93.2,443,93.2z"/>
						</g>
						<g>
							<path class="st5" d="M556.2,78h-1.6c-0.9,0.5-2,1-3.5,1.2v1.4h3v12.2h-3.8v1.8h9.4v-1.8h-3.4V78z"/>
						</g>
						<g>
							<path class="st5" d="M415.9,107c-3.3,0-5.3,3-5.3,8.6c0,5.6,2,8.7,5.3,8.7c3.3,0,5.3-3.1,5.3-8.7
								C421.2,110,419.2,107,415.9,107z M415.9,122.5c-1.9,0-3.2-2.1-3.2-6.9c0-4.9,1.3-6.8,3.2-6.8c1.9,0,3.2,2,3.2,6.8
								C419.2,120.4,417.9,122.5,415.9,122.5z"/>
						</g>
						<g>
							<path class="st5" d="M471.1,107.3h-1.6c-0.9,0.5-2,1-3.5,1.2v1.4h3v12.2h-3.8v1.8h9.4v-1.8h-3.4V107.3z"/>
						</g>
						<g>
							<path class="st5" d="M499.8,107.3h-1.6c-0.9,0.5-2,1-3.5,1.2v1.4h3v12.2h-3.8v1.8h9.4v-1.8h-3.4V107.3z"/>
						</g>
						<g>
							<path class="st5" d="M443,107c-3.3,0-5.3,3-5.3,8.6c0,5.6,2,8.7,5.3,8.7c3.3,0,5.3-3.1,5.3-8.7C448.3,110,446.3,107,443,107z
								 M443,122.5c-2,0-3.3-2.1-3.3-6.9c0-4.9,1.3-6.8,3.3-6.8c1.9,0,3.2,2,3.2,6.8C446.3,120.4,445,122.5,443,122.5z"/>
						</g>
						<g>
							<path class="st5" d="M526.2,107c-3.3,0-5.3,3-5.3,8.6c0,5.6,2,8.7,5.3,8.7c3.3,0,5.3-3.1,5.3-8.7
								C531.5,110,529.5,107,526.2,107z M526.2,122.5c-2,0-3.3-2.1-3.3-6.9c0-4.9,1.3-6.8,3.3-6.8c1.9,0,3.2,2,3.2,6.8
								C529.5,120.4,528.2,122.5,526.2,122.5z"/>
						</g>
						<g>
							<path class="st5" d="M554.7,107c-3.3,0-5.3,3-5.3,8.6c0,5.6,2,8.7,5.3,8.7c3.3,0,5.3-3.1,5.3-8.7C560,110,558,107,554.7,107z
								 M554.7,122.5c-1.9,0-3.2-2.1-3.2-6.9c0-4.9,1.3-6.8,3.2-6.8c1.9,0,3.2,2,3.2,6.8C557.9,120.4,556.6,122.5,554.7,122.5z"/>
						</g>
						<g>
							<path class="st5" d="M417.4,136.6h-1.6c-0.9,0.5-2,1-3.5,1.2v1.4h3v12.2h-3.8v1.8h9.4v-1.8h-3.4V136.6z"/>
						</g>
						<g>
							<path class="st5" d="M471.1,136.6h-1.6c-0.9,0.5-2,1-3.5,1.2v1.4h3v12.2h-3.8v1.8h9.4v-1.8h-3.4V136.6z"/>
						</g>
						<g>
							<path class="st5" d="M498.3,136.3c-3.3,0-5.3,3-5.3,8.6c0,5.6,2,8.7,5.3,8.7c3.3,0,5.3-3.1,5.3-8.7
								C503.6,139.3,501.6,136.3,498.3,136.3z M498.3,151.8c-1.9,0-3.2-2.1-3.2-6.9c0-4.9,1.3-6.8,3.2-6.8c1.9,0,3.2,2,3.2,6.8
								C501.5,149.7,500.2,151.8,498.3,151.8z"/>
						</g>
						<g>
							<path class="st5" d="M443,136.3c-3.3,0-5.3,3-5.3,8.6c0,5.6,2,8.7,5.3,8.7c3.3,0,5.3-3.1,5.3-8.7
								C448.3,139.3,446.3,136.3,443,136.3z M443,151.8c-2,0-3.3-2.1-3.3-6.9c0-4.9,1.3-6.8,3.3-6.8c1.9,0,3.2,2,3.2,6.8
								C446.3,149.7,445,151.8,443,151.8z"/>
						</g>
						<g>
							<path class="st5" d="M531.2,136.6h-1.6c-0.9,0.5-2,1-3.5,1.2v1.4h3v12.2h-3.8v1.8h9.4v-1.8h-3.4V136.6z"/>
						</g>
					</g>
				</g>
			</g>
		</g>
	</g>
	<g>
		<g class="st6">
			<g class="st7">
				<g>
					<g>
						<path class="st8" d="M7.8,105.9H6.3c-0.8,0.5-1.8,0.9-3.2,1.1v1.2h2.7v11H2.4v1.6h8.5v-1.6H7.8V105.9z"/>
					</g>
					<g>
						<path class="st8" d="M56.6,105.9h-1.5c-0.8,0.5-1.8,0.9-3.2,1.1v1.2h2.7v11h-3.5v1.6h8.5v-1.6h-3.1V105.9z"/>
					</g>
					<g>
						<g>
							<path class="st8" d="M82.7,105.9h-1.5c-0.8,0.5-1.8,0.9-3.2,1.1v1.2h2.7v11h-3.5v1.6h8.5v-1.6h-3.1V105.9z"/>
						</g>
					</g>
					<g>
						<path class="st8" d="M31.1,105.6c-3,0-4.8,2.7-4.8,7.7c0,5,1.8,7.8,4.8,7.8c3,0,4.8-2.8,4.8-7.8
							C35.9,108.3,34.1,105.6,31.1,105.6z M31.1,119.5c-1.8,0-3-1.9-3-6.2c0-4.4,1.2-6.1,3-6.1c1.7,0,2.9,1.8,2.9,6.1
							C34,117.7,32.8,119.5,31.1,119.5z"/>
					</g>
					<g>
						<path class="st8" d="M106.6,105.6c-3,0-4.8,2.7-4.8,7.7c0,5,1.8,7.8,4.8,7.8c3,0,4.8-2.8,4.8-7.8
							C111.5,108.3,109.7,105.6,106.6,105.6z M106.6,119.5c-1.8,0-3-1.9-3-6.2c0-4.4,1.2-6.1,3-6.1c1.7,0,2.9,1.8,2.9,6.1
							C109.6,117.7,108.4,119.5,106.6,119.5z"/>
					</g>
					<g>
						<path class="st8" d="M133.9,105.9h-1.5c-0.8,0.5-1.8,0.9-3.2,1.1v1.2h2.7v11h-3.5v1.6h8.5v-1.6h-3.1V105.9z"/>
					</g>
					<g>
						<path class="st8" d="M6.4,131.9c-3,0-4.9,2.7-4.9,7.7c0,5,1.8,7.8,4.9,7.8c3,0,4.8-2.8,4.8-7.8
							C11.3,134.6,9.4,131.9,6.4,131.9z M6.4,145.8c-1.8,0-3-1.9-3-6.2c0-4.4,1.2-6.1,3-6.1c1.7,0,2.9,1.8,2.9,6.1
							C9.4,143.9,8.2,145.8,6.4,145.8z"/>
					</g>
					<g>
						<path class="st8" d="M56.6,132.2h-1.5c-0.8,0.5-1.8,0.9-3.2,1.1v1.2h2.7v11h-3.5v1.6h8.5v-1.6h-3.1V132.2z"/>
					</g>
					<g>
						<path class="st8" d="M81.3,131.9c-3,0-4.8,2.7-4.8,7.7c0,5,1.8,7.8,4.8,7.8c3,0,4.8-2.8,4.8-7.8
							C86.1,134.6,84.3,131.9,81.3,131.9z M81.3,145.8c-1.8,0-3-1.9-3-6.2c0-4.4,1.2-6.1,3-6.1c1.7,0,2.9,1.8,2.9,6.1
							C84.2,143.9,83,145.8,81.3,145.8z"/>
					</g>
					<g>
						<path class="st8" d="M31.1,131.9c-3,0-4.8,2.7-4.8,7.7c0,5,1.8,7.8,4.8,7.8c3,0,4.8-2.8,4.8-7.8
							C35.9,134.6,34.1,131.9,31.1,131.9z M31.1,145.8c-1.8,0-3-1.9-3-6.2c0-4.4,1.2-6.1,3-6.1c1.7,0,2.9,1.8,2.9,6.1
							C34,143.9,32.8,145.8,31.1,145.8z"/>
					</g>
					<g>
						<path class="st8" d="M108,132.2h-1.5c-0.8,0.5-1.8,0.9-3.2,1.1v1.2h2.7v11h-3.5v1.6h8.5v-1.6H108V132.2z"/>
					</g>
					<g>
						<path class="st8" d="M132.5,131.9c-3,0-4.9,2.7-4.9,7.7c0,5,1.8,7.8,4.9,7.8c3,0,4.8-2.8,4.8-7.8
							C137.3,134.6,135.5,131.9,132.5,131.9z M132.5,145.8c-1.8,0-3-1.9-3-6.2c0-4.4,1.2-6.1,3-6.1c1.7,0,2.9,1.8,2.9,6.1
							C135.4,143.9,134.3,145.8,132.5,145.8z"/>
					</g>
					<g>
						<path class="st8" d="M7.8,158.4H6.3c-0.8,0.5-1.8,0.9-3.2,1.1v1.2h2.7v11H2.4v1.6h8.5v-1.6H7.8V158.4z"/>
					</g>
					<g>
						<path class="st8" d="M55.2,158.1c-3,0-4.9,2.7-4.9,7.7c0,5,1.8,7.8,4.9,7.8c3,0,4.8-2.8,4.8-7.8
							C60,160.8,58.2,158.1,55.2,158.1z M55.2,172c-1.8,0-3-1.9-3-6.2s1.2-6.1,3-6.1c1.7,0,2.9,1.8,2.9,6.1S56.9,172,55.2,172z"/>
					</g>
					<g>
						<path class="st8" d="M82.7,158.4h-1.5c-0.8,0.5-1.8,0.9-3.2,1.1v1.2h2.7v11h-3.5v1.6h8.5v-1.6h-3.1V158.4z"/>
					</g>
					<g>
						<path class="st8" d="M31.1,158.1c-3,0-4.8,2.7-4.8,7.7c0,5,1.8,7.8,4.8,7.8c3,0,4.8-2.8,4.8-7.8
							C35.9,160.8,34.1,158.1,31.1,158.1z M31.1,172c-1.8,0-3-1.9-3-6.2s1.2-6.1,3-6.1c1.7,0,2.9,1.8,2.9,6.1S32.8,172,31.1,172z"/>
					</g>
					<g>
						<path class="st8" d="M106.6,158.1c-3,0-4.8,2.7-4.8,7.7c0,5,1.8,7.8,4.8,7.8c3,0,4.8-2.8,4.8-7.8
							C111.5,160.8,109.7,158.1,106.6,158.1z M106.6,172c-1.8,0-3-1.9-3-6.2s1.2-6.1,3-6.1c1.7,0,2.9,1.8,2.9,6.1
							S108.4,172,106.6,172z"/>
					</g>
					<g>
						<path class="st8" d="M133.9,158.4h-1.5c-0.8,0.5-1.8,0.9-3.2,1.1v1.2h2.7v11h-3.5v1.6h8.5v-1.6h-3.1V158.4z"/>
					</g>
					<g>
						<path class="st8" d="M6.4,184.4c-3,0-4.9,2.7-4.9,7.7c0,5,1.8,7.8,4.9,7.8c3,0,4.8-2.8,4.8-7.8
							C11.3,187.1,9.4,184.4,6.4,184.4z M6.4,198.3c-1.8,0-3-1.9-3-6.2c0-4.4,1.2-6.1,3-6.1c1.7,0,2.9,1.8,2.9,6.1
							C9.4,196.4,8.2,198.3,6.4,198.3z"/>
					</g>
					<g>
						<path class="st8" d="M56.6,184.7h-1.5c-0.8,0.5-1.8,0.9-3.2,1.1v1.2h2.7v11h-3.5v1.6h8.5V198h-3.1V184.7z"/>
					</g>
					<g>
						<path class="st8" d="M82.7,184.7h-1.5c-0.8,0.5-1.8,0.9-3.2,1.1v1.2h2.7v11h-3.5v1.6h8.5V198h-3.1V184.7z"/>
					</g>
					<g>
						<g>
							<path class="st8" d="M31.1,184.4c-3,0-4.8,2.7-4.8,7.7c0,5,1.8,7.8,4.8,7.8c3,0,4.8-2.8,4.8-7.8
								C35.9,187.1,34.1,184.4,31.1,184.4z M31.1,198.3c-1.8,0-3-1.9-3-6.2c0-4.4,1.2-6.1,3-6.1c1.7,0,2.9,1.8,2.9,6.1
								C34,196.4,32.8,198.3,31.1,198.3z"/>
						</g>
					</g>
					<g>
						<path class="st8" d="M106.6,184.4c-3,0-4.8,2.7-4.8,7.7c0,5,1.8,7.8,4.8,7.8c3,0,4.8-2.8,4.8-7.8
							C111.5,187.1,109.7,184.4,106.6,184.4z M106.6,198.3c-1.8,0-3-1.9-3-6.2c0-4.4,1.2-6.1,3-6.1c1.7,0,2.9,1.8,2.9,6.1
							C109.6,196.4,108.4,198.3,106.6,198.3z"/>
					</g>
					<g>
						<path class="st8" d="M132.5,184.4c-3,0-4.9,2.7-4.9,7.7c0,5,1.8,7.8,4.9,7.8c3,0,4.8-2.8,4.8-7.8
							C137.3,187.1,135.5,184.4,132.5,184.4z M132.5,198.3c-1.8,0-3-1.9-3-6.2c0-4.4,1.2-6.1,3-6.1c1.7,0,2.9,1.8,2.9,6.1
							C135.4,196.4,134.3,198.3,132.5,198.3z"/>
					</g>
					<g>
						<g>
							<path class="st8" d="M7.8,210.9H6.3c-0.8,0.5-1.8,0.9-3.2,1.1v1.2h2.7v11H2.4v1.6h8.5v-1.6H7.8V210.9z"/>
						</g>
					</g>
					<g>
						<path class="st8" d="M56.6,210.9h-1.5c-0.8,0.5-1.8,0.9-3.2,1.1v1.2h2.7v11h-3.5v1.6h8.5v-1.6h-3.1V210.9z"/>
					</g>
					<g>
						<path class="st8" d="M81.3,210.6c-3,0-4.8,2.7-4.8,7.7c0,5,1.8,7.8,4.8,7.8c3,0,4.8-2.8,4.8-7.8
							C86.1,213.3,84.3,210.6,81.3,210.6z M81.3,224.5c-1.8,0-3-1.9-3-6.2c0-4.4,1.2-6.1,3-6.1c1.7,0,2.9,1.8,2.9,6.1
							C84.2,222.7,83,224.5,81.3,224.5z"/>
					</g>
					<g>
						<path class="st8" d="M31.1,210.6c-3,0-4.8,2.7-4.8,7.7c0,5,1.8,7.8,4.8,7.8c3,0,4.8-2.8,4.8-7.8
							C35.9,213.3,34.1,210.6,31.1,210.6z M31.1,224.5c-1.8,0-3-1.9-3-6.2c0-4.4,1.2-6.1,3-6.1c1.7,0,2.9,1.8,2.9,6.1
							C34,222.7,32.8,224.5,31.1,224.5z"/>
					</g>
					<g>
						<path class="st8" d="M106.6,210.6c-3,0-4.8,2.7-4.8,7.7c0,5,1.8,7.8,4.8,7.8c3,0,4.8-2.8,4.8-7.8
							C111.5,213.3,109.7,210.6,106.6,210.6z M106.6,224.5c-1.8,0-3-1.9-3-6.2c0-4.4,1.2-6.1,3-6.1c1.7,0,2.9,1.8,2.9,6.1
							C109.6,222.7,108.4,224.5,106.6,224.5z"/>
					</g>
					<g>
						<path class="st8" d="M133.9,210.9h-1.5c-0.8,0.5-1.8,0.9-3.2,1.1v1.2h2.7v11h-3.5v1.6h8.5v-1.6h-3.1V210.9z"/>
					</g>
				</g>
				<g>
					<g>
						<path class="st8" d="M7.8,236.2H6.3c-0.8,0.5-1.8,0.9-3.2,1.1v1.2h2.7v11H2.4v1.6h8.5v-1.6H7.8V236.2z"/>
					</g>
					<g>
						<path class="st8" d="M56.6,236.2h-1.5c-0.8,0.5-1.8,0.9-3.2,1.1v1.2h2.7v11h-3.5v1.6h8.5v-1.6h-3.1V236.2z"/>
					</g>
					<g>
						<path class="st8" d="M82.7,236.2h-1.5c-0.8,0.5-1.8,0.9-3.2,1.1v1.2h2.7v11h-3.5v1.6h8.5v-1.6h-3.1V236.2z"/>
					</g>
					<g>
						<path class="st8" d="M31.1,235.9c-3,0-4.8,2.7-4.8,7.7c0,5,1.8,7.8,4.8,7.8c3,0,4.8-2.8,4.8-7.8
							C35.9,238.6,34.1,235.9,31.1,235.9z M31.1,249.8c-1.8,0-3-1.9-3-6.2c0-4.4,1.2-6.1,3-6.1c1.7,0,2.9,1.8,2.9,6.1
							C34,247.9,32.8,249.8,31.1,249.8z"/>
					</g>
					<g>
						<path class="st8" d="M106.6,235.9c-3,0-4.8,2.7-4.8,7.7c0,5,1.8,7.8,4.8,7.8c3,0,4.8-2.8,4.8-7.8
							C111.5,238.6,109.7,235.9,106.6,235.9z M106.6,249.8c-1.8,0-3-1.9-3-6.2c0-4.4,1.2-6.1,3-6.1c1.7,0,2.9,1.8,2.9,6.1
							C109.6,247.9,108.4,249.8,106.6,249.8z"/>
					</g>
					<g>
						<path class="st8" d="M133.9,236.2h-1.5c-0.8,0.5-1.8,0.9-3.2,1.1v1.2h2.7v11h-3.5v1.6h8.5v-1.6h-3.1V236.2z"/>
					</g>
					<g>
						<g>
							<path class="st8" d="M6.4,262.1c-3,0-4.9,2.7-4.9,7.7c0,5,1.8,7.8,4.9,7.8c3,0,4.8-2.8,4.8-7.8
								C11.3,264.8,9.4,262.1,6.4,262.1z M6.4,276c-1.8,0-3-1.9-3-6.2c0-4.4,1.2-6.1,3-6.1c1.7,0,2.9,1.8,2.9,6.1
								C9.4,274.2,8.2,276,6.4,276z"/>
						</g>
					</g>
					<g>
						<path class="st8" d="M56.6,262.4h-1.5c-0.8,0.5-1.8,0.9-3.2,1.1v1.2h2.7v11h-3.5v1.6h8.5v-1.6h-3.1V262.4z"/>
					</g>
					<g>
						<g>
							<path class="st8" d="M81.3,262.1c-3,0-4.8,2.7-4.8,7.7c0,5,1.8,7.8,4.8,7.8c3,0,4.8-2.8,4.8-7.8
								C86.1,264.8,84.3,262.1,81.3,262.1z M81.3,276c-1.8,0-3-1.9-3-6.2c0-4.4,1.2-6.1,3-6.1c1.7,0,2.9,1.8,2.9,6.1
								C84.2,274.2,83,276,81.3,276z"/>
						</g>
					</g>
					<g>
						<path class="st8" d="M31.1,262.1c-3,0-4.8,2.7-4.8,7.7c0,5,1.8,7.8,4.8,7.8c3,0,4.8-2.8,4.8-7.8
							C35.9,264.8,34.1,262.1,31.1,262.1z M31.1,276c-1.8,0-3-1.9-3-6.2c0-4.4,1.2-6.1,3-6.1c1.7,0,2.9,1.8,2.9,6.1
							C34,274.2,32.8,276,31.1,276z"/>
					</g>
					<g>
						<path class="st8" d="M108,262.4h-1.5c-0.8,0.5-1.8,0.9-3.2,1.1v1.2h2.7v11h-3.5v1.6h8.5v-1.6H108V262.4z"/>
					</g>
					<g>
						<path class="st8" d="M132.5,262.1c-3,0-4.9,2.7-4.9,7.7c0,5,1.8,7.8,4.9,7.8c3,0,4.8-2.8,4.8-7.8
							C137.3,264.8,135.5,262.1,132.5,262.1z M132.5,276c-1.8,0-3-1.9-3-6.2c0-4.4,1.2-6.1,3-6.1c1.7,0,2.9,1.8,2.9,6.1
							C135.4,274.2,134.3,276,132.5,276z"/>
					</g>
					<g>
						<path class="st8" d="M7.8,288.7H6.3c-0.8,0.5-1.8,0.9-3.2,1.1v1.2h2.7v11H2.4v1.6h8.5V302H7.8V288.7z"/>
					</g>
					<g>
						<g>
							<path class="st8" d="M55.2,288.4c-3,0-4.9,2.7-4.9,7.7c0,5,1.8,7.8,4.9,7.8c3,0,4.8-2.8,4.8-7.8
								C60,291.1,58.2,288.4,55.2,288.4z M55.2,302.3c-1.8,0-3-1.9-3-6.2c0-4.4,1.2-6.1,3-6.1c1.7,0,2.9,1.8,2.9,6.1
								C58.1,300.4,56.9,302.3,55.2,302.3z"/>
						</g>
					</g>
					<g>
						<path class="st8" d="M82.7,288.7h-1.5c-0.8,0.5-1.8,0.9-3.2,1.1v1.2h2.7v11h-3.5v1.6h8.5V302h-3.1V288.7z"/>
					</g>
					<g>
						<path class="st8" d="M31.1,288.4c-3,0-4.8,2.7-4.8,7.7c0,5,1.8,7.8,4.8,7.8c3,0,4.8-2.8,4.8-7.8
							C35.9,291.1,34.1,288.4,31.1,288.4z M31.1,302.3c-1.8,0-3-1.9-3-6.2c0-4.4,1.2-6.1,3-6.1c1.7,0,2.9,1.8,2.9,6.1
							C34,300.4,32.8,302.3,31.1,302.3z"/>
					</g>
					<g>
						<path class="st8" d="M106.6,288.4c-3,0-4.8,2.7-4.8,7.7c0,5,1.8,7.8,4.8,7.8c3,0,4.8-2.8,4.8-7.8
							C111.5,291.1,109.7,288.4,106.6,288.4z M106.6,302.3c-1.8,0-3-1.9-3-6.2c0-4.4,1.2-6.1,3-6.1c1.7,0,2.9,1.8,2.9,6.1
							C109.6,300.4,108.4,302.3,106.6,302.3z"/>
					</g>
					<g>
						<path class="st8" d="M133.9,288.7h-1.5c-0.8,0.5-1.8,0.9-3.2,1.1v1.2h2.7v11h-3.5v1.6h8.5V302h-3.1V288.7z"/>
					</g>
					<g>
						<path class="st8" d="M6.4,314.6c-3,0-4.9,2.7-4.9,7.7c0,5,1.8,7.8,4.9,7.8c3,0,4.8-2.8,4.8-7.8
							C11.3,317.3,9.4,314.6,6.4,314.6z M6.4,328.6c-1.8,0-3-1.9-3-6.2c0-4.4,1.2-6.1,3-6.1c1.7,0,2.9,1.8,2.9,6.1
							C9.4,326.7,8.2,328.6,6.4,328.6z"/>
					</g>
					<g>
						<path class="st8" d="M56.6,314.9h-1.5c-0.8,0.5-1.8,0.9-3.2,1.1v1.2h2.7v11h-3.5v1.6h8.5v-1.6h-3.1V314.9z"/>
					</g>
					<g>
						<path class="st8" d="M82.7,314.9h-1.5c-0.8,0.5-1.8,0.9-3.2,1.1v1.2h2.7v11h-3.5v1.6h8.5v-1.6h-3.1V314.9z"/>
					</g>
					<g>
						<path class="st8" d="M31.1,314.6c-3,0-4.8,2.7-4.8,7.7c0,5,1.8,7.8,4.8,7.8c3,0,4.8-2.8,4.8-7.8
							C35.9,317.3,34.1,314.6,31.1,314.6z M31.1,328.6c-1.8,0-3-1.9-3-6.2c0-4.4,1.2-6.1,3-6.1c1.7,0,2.9,1.8,2.9,6.1
							C34,326.7,32.8,328.6,31.1,328.6z"/>
					</g>
					<g>
						<path class="st8" d="M106.6,314.6c-3,0-4.8,2.7-4.8,7.7c0,5,1.8,7.8,4.8,7.8c3,0,4.8-2.8,4.8-7.8
							C111.5,317.3,109.7,314.6,106.6,314.6z M106.6,328.6c-1.8,0-3-1.9-3-6.2c0-4.4,1.2-6.1,3-6.1c1.7,0,2.9,1.8,2.9,6.1
							C109.6,326.7,108.4,328.6,106.6,328.6z"/>
					</g>
					<g>
						<path class="st8" d="M132.5,314.6c-3,0-4.9,2.7-4.9,7.7c0,5,1.8,7.8,4.9,7.8c3,0,4.8-2.8,4.8-7.8
							C137.3,317.3,135.5,314.6,132.5,314.6z M132.5,328.6c-1.8,0-3-1.9-3-6.2c0-4.4,1.2-6.1,3-6.1c1.7,0,2.9,1.8,2.9,6.1
							C135.4,326.7,134.3,328.6,132.5,328.6z"/>
					</g>
				</g>
			</g>
			<g class="st7">
				<g>
					<g>
						<path class="st8" d="M160,105.9h-1.5c-0.8,0.5-1.8,0.9-3.2,1.1v1.2h2.7v11h-3.5v1.6h8.5v-1.6H160V105.9z"/>
					</g>
					<g>
						<path class="st8" d="M208.7,105.9h-1.5c-0.8,0.5-1.8,0.9-3.2,1.1v1.2h2.7v11h-3.5v1.6h8.5v-1.6h-3.1V105.9z"/>
					</g>
					<g>
						<g>
							<path class="st8" d="M234.8,105.9h-1.5c-0.8,0.5-1.8,0.9-3.2,1.1v1.2h2.7v11h-3.5v1.6h8.5v-1.6h-3.1V105.9z"/>
						</g>
					</g>
					<g>
						<path class="st8" d="M183.2,105.6c-3,0-4.8,2.7-4.8,7.7c0,5,1.8,7.8,4.8,7.8c3,0,4.8-2.8,4.8-7.8
							C188.1,108.3,186.2,105.6,183.2,105.6z M183.2,119.5c-1.8,0-3-1.9-3-6.2c0-4.4,1.2-6.1,3-6.1c1.7,0,2.9,1.8,2.9,6.1
							C186.2,117.7,185,119.5,183.2,119.5z"/>
					</g>
					<g>
						<path class="st8" d="M258.8,105.6c-3,0-4.8,2.7-4.8,7.7c0,5,1.8,7.8,4.8,7.8c3,0,4.8-2.8,4.8-7.8
							C263.7,108.3,261.8,105.6,258.8,105.6z M258.8,119.5c-1.8,0-3-1.9-3-6.2c0-4.4,1.2-6.1,3-6.1c1.7,0,2.9,1.8,2.9,6.1
							C261.8,117.7,260.6,119.5,258.8,119.5z"/>
					</g>
					<g>
						<path class="st8" d="M286.1,105.9h-1.5c-0.8,0.5-1.8,0.9-3.2,1.1v1.2h2.7v11h-3.5v1.6h8.5v-1.6h-3.1V105.9z"/>
					</g>
					<g>
						<path class="st8" d="M158.6,131.9c-3,0-4.9,2.7-4.9,7.7c0,5,1.8,7.8,4.9,7.8c3,0,4.8-2.8,4.8-7.8
							C163.4,134.6,161.6,131.9,158.6,131.9z M158.6,145.8c-1.8,0-3-1.9-3-6.2c0-4.4,1.2-6.1,3-6.1c1.7,0,2.9,1.8,2.9,6.1
							C161.6,143.9,160.4,145.8,158.6,145.8z"/>
					</g>
					<g>
						<path class="st8" d="M208.7,132.2h-1.5c-0.8,0.5-1.8,0.9-3.2,1.1v1.2h2.7v11h-3.5v1.6h8.5v-1.6h-3.1V132.2z"/>
					</g>
					<g>
						<path class="st8" d="M233.5,131.9c-3,0-4.8,2.7-4.8,7.7c0,5,1.8,7.8,4.8,7.8c3,0,4.8-2.8,4.8-7.8
							C238.3,134.6,236.5,131.9,233.5,131.9z M233.5,145.8c-1.8,0-3-1.9-3-6.2c0-4.4,1.2-6.1,3-6.1c1.7,0,2.9,1.8,2.9,6.1
							C236.4,143.9,235.2,145.8,233.5,145.8z"/>
					</g>
					<g>
						<path class="st8" d="M183.2,131.9c-3,0-4.8,2.7-4.8,7.7c0,5,1.8,7.8,4.8,7.8c3,0,4.8-2.8,4.8-7.8
							C188.1,134.6,186.2,131.9,183.2,131.9z M183.2,145.8c-1.8,0-3-1.9-3-6.2c0-4.4,1.2-6.1,3-6.1c1.7,0,2.9,1.8,2.9,6.1
							C186.2,143.9,185,145.8,183.2,145.8z"/>
					</g>
					<g>
						<path class="st8" d="M260.2,132.2h-1.5c-0.8,0.5-1.8,0.9-3.2,1.1v1.2h2.7v11h-3.5v1.6h8.5v-1.6h-3.1V132.2z"/>
					</g>
					<g>
						<path class="st8" d="M284.7,131.9c-3,0-4.9,2.7-4.9,7.7c0,5,1.8,7.8,4.9,7.8c3,0,4.8-2.8,4.8-7.8
							C289.5,134.6,287.7,131.9,284.7,131.9z M284.7,145.8c-1.8,0-3-1.9-3-6.2c0-4.4,1.2-6.1,3-6.1c1.7,0,2.9,1.8,2.9,6.1
							C287.6,143.9,286.4,145.8,284.7,145.8z"/>
					</g>
					<g>
						<path class="st8" d="M160,158.4h-1.5c-0.8,0.5-1.8,0.9-3.2,1.1v1.2h2.7v11h-3.5v1.6h8.5v-1.6H160V158.4z"/>
					</g>
					<g>
						<path class="st8" d="M207.4,158.1c-3,0-4.9,2.7-4.9,7.7c0,5,1.8,7.8,4.9,7.8c3,0,4.8-2.8,4.8-7.8
							C212.2,160.8,210.4,158.1,207.4,158.1z M207.4,172c-1.8,0-3-1.9-3-6.2c0-4.4,1.2-6.1,3-6.1c1.7,0,2.9,1.8,2.9,6.1
							C210.3,170.2,209.1,172,207.4,172z"/>
					</g>
					<g>
						<path class="st8" d="M234.8,158.4h-1.5c-0.8,0.5-1.8,0.9-3.2,1.1v1.2h2.7v11h-3.5v1.6h8.5v-1.6h-3.1V158.4z"/>
					</g>
					<g>
						<path class="st8" d="M183.2,158.1c-3,0-4.8,2.7-4.8,7.7c0,5,1.8,7.8,4.8,7.8c3,0,4.8-2.8,4.8-7.8
							C188.1,160.8,186.2,158.1,183.2,158.1z M183.2,172c-1.8,0-3-1.9-3-6.2c0-4.4,1.2-6.1,3-6.1c1.7,0,2.9,1.8,2.9,6.1
							C186.2,170.2,185,172,183.2,172z"/>
					</g>
					<g>
						<path class="st8" d="M258.8,158.1c-3,0-4.8,2.7-4.8,7.7c0,5,1.8,7.8,4.8,7.8c3,0,4.8-2.8,4.8-7.8
							C263.7,160.8,261.8,158.1,258.8,158.1z M258.8,172c-1.8,0-3-1.9-3-6.2c0-4.4,1.2-6.1,3-6.1c1.7,0,2.9,1.8,2.9,6.1
							C261.8,170.2,260.6,172,258.8,172z"/>
					</g>
					<g>
						<path class="st8" d="M286.1,158.4h-1.5c-0.8,0.5-1.8,0.9-3.2,1.1v1.2h2.7v11h-3.5v1.6h8.5v-1.6h-3.1V158.4z"/>
					</g>
					<g>
						<path class="st8" d="M158.6,184.4c-3,0-4.9,2.7-4.9,7.7c0,5,1.8,7.8,4.9,7.8c3,0,4.8-2.8,4.8-7.8
							C163.4,187.1,161.6,184.4,158.6,184.4z M158.6,198.3c-1.8,0-3-1.9-3-6.2c0-4.4,1.2-6.1,3-6.1c1.7,0,2.9,1.8,2.9,6.1
							C161.6,196.4,160.4,198.3,158.6,198.3z"/>
					</g>
					<g>
						<path class="st8" d="M208.7,184.7h-1.5c-0.8,0.5-1.8,0.9-3.2,1.1v1.2h2.7v11h-3.5v1.6h8.5V198h-3.1V184.7z"/>
					</g>
					<g>
						<path class="st8" d="M234.8,184.7h-1.5c-0.8,0.5-1.8,0.9-3.2,1.1v1.2h2.7v11h-3.5v1.6h8.5V198h-3.1V184.7z"/>
					</g>
					<g>
						<g>
							<path class="st8" d="M183.2,184.4c-3,0-4.8,2.7-4.8,7.7c0,5,1.8,7.8,4.8,7.8c3,0,4.8-2.8,4.8-7.8
								C188.1,187.1,186.2,184.4,183.2,184.4z M183.2,198.3c-1.8,0-3-1.9-3-6.2c0-4.4,1.2-6.1,3-6.1c1.7,0,2.9,1.8,2.9,6.1
								C186.2,196.4,185,198.3,183.2,198.3z"/>
						</g>
					</g>
					<g>
						<path class="st8" d="M258.8,184.4c-3,0-4.8,2.7-4.8,7.7c0,5,1.8,7.8,4.8,7.8c3,0,4.8-2.8,4.8-7.8
							C263.7,187.1,261.8,184.4,258.8,184.4z M258.8,198.3c-1.8,0-3-1.9-3-6.2c0-4.4,1.2-6.1,3-6.1c1.7,0,2.9,1.8,2.9,6.1
							C261.8,196.4,260.6,198.3,258.8,198.3z"/>
					</g>
					<g>
						<path class="st8" d="M284.7,184.4c-3,0-4.9,2.7-4.9,7.7c0,5,1.8,7.8,4.9,7.8c3,0,4.8-2.8,4.8-7.8
							C289.5,187.1,287.7,184.4,284.7,184.4z M284.7,198.3c-1.8,0-3-1.9-3-6.2c0-4.4,1.2-6.1,3-6.1c1.7,0,2.9,1.8,2.9,6.1
							C287.6,196.4,286.4,198.3,284.7,198.3z"/>
					</g>
					<g>
						<g>
							<path class="st8" d="M160,210.9h-1.5c-0.8,0.5-1.8,0.9-3.2,1.1v1.2h2.7v11h-3.5v1.6h8.5v-1.6H160V210.9z"/>
						</g>
					</g>
					<g>
						<path class="st8" d="M208.7,210.9h-1.5c-0.8,0.5-1.8,0.9-3.2,1.1v1.2h2.7v11h-3.5v1.6h8.5v-1.6h-3.1V210.9z"/>
					</g>
					<g>
						<path class="st8" d="M233.5,210.6c-3,0-4.8,2.7-4.8,7.7c0,5,1.8,7.8,4.8,7.8c3,0,4.8-2.8,4.8-7.8
							C238.3,213.3,236.5,210.6,233.5,210.6z M233.5,224.5c-1.8,0-3-1.9-3-6.2c0-4.4,1.2-6.1,3-6.1c1.7,0,2.9,1.8,2.9,6.1
							C236.4,222.7,235.2,224.5,233.5,224.5z"/>
					</g>
					<g>
						<path class="st8" d="M183.2,210.6c-3,0-4.8,2.7-4.8,7.7c0,5,1.8,7.8,4.8,7.8c3,0,4.8-2.8,4.8-7.8
							C188.1,213.3,186.2,210.6,183.2,210.6z M183.2,224.5c-1.8,0-3-1.9-3-6.2c0-4.4,1.2-6.1,3-6.1c1.7,0,2.9,1.8,2.9,6.1
							C186.2,222.7,185,224.5,183.2,224.5z"/>
					</g>
					<g>
						<path class="st8" d="M258.8,210.6c-3,0-4.8,2.7-4.8,7.7c0,5,1.8,7.8,4.8,7.8c3,0,4.8-2.8,4.8-7.8
							C263.7,213.3,261.8,210.6,258.8,210.6z M258.8,224.5c-1.8,0-3-1.9-3-6.2c0-4.4,1.2-6.1,3-6.1c1.7,0,2.9,1.8,2.9,6.1
							C261.8,222.7,260.6,224.5,258.8,224.5z"/>
					</g>
					<g>
						<path class="st8" d="M286.1,210.9h-1.5c-0.8,0.5-1.8,0.9-3.2,1.1v1.2h2.7v11h-3.5v1.6h8.5v-1.6h-3.1V210.9z"/>
					</g>
				</g>
				<g>
					<g>
						<path class="st8" d="M160,236.2h-1.5c-0.8,0.5-1.8,0.9-3.2,1.1v1.2h2.7v11h-3.5v1.6h8.5v-1.6H160V236.2z"/>
					</g>
					<g>
						<path class="st8" d="M208.7,236.2h-1.5c-0.8,0.5-1.8,0.9-3.2,1.1v1.2h2.7v11h-3.5v1.6h8.5v-1.6h-3.1V236.2z"/>
					</g>
					<g>
						<path class="st8" d="M234.8,236.2h-1.5c-0.8,0.5-1.8,0.9-3.2,1.1v1.2h2.7v11h-3.5v1.6h8.5v-1.6h-3.1V236.2z"/>
					</g>
					<g>
						<path class="st8" d="M183.2,235.9c-3,0-4.8,2.7-4.8,7.7c0,5,1.8,7.8,4.8,7.8c3,0,4.8-2.8,4.8-7.8
							C188.1,238.6,186.2,235.9,183.2,235.9z M183.2,249.8c-1.8,0-3-1.9-3-6.2c0-4.4,1.2-6.1,3-6.1c1.7,0,2.9,1.8,2.9,6.1
							C186.2,247.9,185,249.8,183.2,249.8z"/>
					</g>
					<g>
						<path class="st8" d="M258.8,235.9c-3,0-4.8,2.7-4.8,7.7c0,5,1.8,7.8,4.8,7.8c3,0,4.8-2.8,4.8-7.8
							C263.7,238.6,261.8,235.9,258.8,235.9z M258.8,249.8c-1.8,0-3-1.9-3-6.2c0-4.4,1.2-6.1,3-6.1c1.7,0,2.9,1.8,2.9,6.1
							C261.8,247.9,260.6,249.8,258.8,249.8z"/>
					</g>
					<g>
						<path class="st8" d="M286.1,236.2h-1.5c-0.8,0.5-1.8,0.9-3.2,1.1v1.2h2.7v11h-3.5v1.6h8.5v-1.6h-3.1V236.2z"/>
					</g>
					<g>
						<g>
							<path class="st8" d="M158.6,262.1c-3,0-4.9,2.7-4.9,7.7c0,5,1.8,7.8,4.9,7.8c3,0,4.8-2.8,4.8-7.8
								C163.4,264.8,161.6,262.1,158.6,262.1z M158.6,276c-1.8,0-3-1.9-3-6.2c0-4.4,1.2-6.1,3-6.1c1.7,0,2.9,1.8,2.9,6.1
								C161.6,274.2,160.4,276,158.6,276z"/>
						</g>
					</g>
					<g>
						<path class="st8" d="M208.7,262.4h-1.5c-0.8,0.5-1.8,0.9-3.2,1.1v1.2h2.7v11h-3.5v1.6h8.5v-1.6h-3.1V262.4z"/>
					</g>
					<g>
						<g>
							<path class="st8" d="M233.5,262.1c-3,0-4.8,2.7-4.8,7.7c0,5,1.8,7.8,4.8,7.8c3,0,4.8-2.8,4.8-7.8
								C238.3,264.8,236.5,262.1,233.5,262.1z M233.5,276c-1.8,0-3-1.9-3-6.2c0-4.4,1.2-6.1,3-6.1c1.7,0,2.9,1.8,2.9,6.1
								C236.4,274.2,235.2,276,233.5,276z"/>
						</g>
					</g>
					<g>
						<path class="st8" d="M183.2,262.1c-3,0-4.8,2.7-4.8,7.7c0,5,1.8,7.8,4.8,7.8c3,0,4.8-2.8,4.8-7.8
							C188.1,264.8,186.2,262.1,183.2,262.1z M183.2,276c-1.8,0-3-1.9-3-6.2c0-4.4,1.2-6.1,3-6.1c1.7,0,2.9,1.8,2.9,6.1
							C186.2,274.2,185,276,183.2,276z"/>
					</g>
					<g>
						<path class="st8" d="M260.2,262.4h-1.5c-0.8,0.5-1.8,0.9-3.2,1.1v1.2h2.7v11h-3.5v1.6h8.5v-1.6h-3.1V262.4z"/>
					</g>
					<g>
						<path class="st8" d="M284.7,262.1c-3,0-4.9,2.7-4.9,7.7c0,5,1.8,7.8,4.9,7.8c3,0,4.8-2.8,4.8-7.8
							C289.5,264.8,287.7,262.1,284.7,262.1z M284.7,276c-1.8,0-3-1.9-3-6.2c0-4.4,1.2-6.1,3-6.1c1.7,0,2.9,1.8,2.9,6.1
							C287.6,274.2,286.4,276,284.7,276z"/>
					</g>
					<g>
						<path class="st8" d="M160,288.7h-1.5c-0.8,0.5-1.8,0.9-3.2,1.1v1.2h2.7v11h-3.5v1.6h8.5V302H160V288.7z"/>
					</g>
					<g>
						<g>
							<path class="st8" d="M207.4,288.4c-3,0-4.9,2.7-4.9,7.7c0,5,1.8,7.8,4.9,7.8c3,0,4.8-2.8,4.8-7.8
								C212.2,291.1,210.4,288.4,207.4,288.4z M207.4,302.3c-1.8,0-3-1.9-3-6.2c0-4.4,1.2-6.1,3-6.1c1.7,0,2.9,1.8,2.9,6.1
								C210.3,300.4,209.1,302.3,207.4,302.3z"/>
						</g>
					</g>
					<g>
						<path class="st8" d="M234.8,288.7h-1.5c-0.8,0.5-1.8,0.9-3.2,1.1v1.2h2.7v11h-3.5v1.6h8.5V302h-3.1V288.7z"/>
					</g>
					<g>
						<path class="st8" d="M183.2,288.4c-3,0-4.8,2.7-4.8,7.7c0,5,1.8,7.8,4.8,7.8c3,0,4.8-2.8,4.8-7.8
							C188.1,291.1,186.2,288.4,183.2,288.4z M183.2,302.3c-1.8,0-3-1.9-3-6.2c0-4.4,1.2-6.1,3-6.1c1.7,0,2.9,1.8,2.9,6.1
							C186.2,300.4,185,302.3,183.2,302.3z"/>
					</g>
					<g>
						<path class="st8" d="M258.8,288.4c-3,0-4.8,2.7-4.8,7.7c0,5,1.8,7.8,4.8,7.8c3,0,4.8-2.8,4.8-7.8
							C263.7,291.1,261.8,288.4,258.8,288.4z M258.8,302.3c-1.8,0-3-1.9-3-6.2c0-4.4,1.2-6.1,3-6.1c1.7,0,2.9,1.8,2.9,6.1
							C261.8,300.4,260.6,302.3,258.8,302.3z"/>
					</g>
					<g>
						<path class="st8" d="M286.1,288.7h-1.5c-0.8,0.5-1.8,0.9-3.2,1.1v1.2h2.7v11h-3.5v1.6h8.5V302h-3.1V288.7z"/>
					</g>
					<g>
						<path class="st8" d="M158.6,314.6c-3,0-4.9,2.7-4.9,7.7c0,5,1.8,7.8,4.9,7.8c3,0,4.8-2.8,4.8-7.8
							C163.4,317.3,161.6,314.6,158.6,314.6z M158.6,328.6c-1.8,0-3-1.9-3-6.2c0-4.4,1.2-6.1,3-6.1c1.7,0,2.9,1.8,2.9,6.1
							C161.6,326.7,160.4,328.6,158.6,328.6z"/>
					</g>
					<g>
						<path class="st8" d="M208.7,314.9h-1.5c-0.8,0.5-1.8,0.9-3.2,1.1v1.2h2.7v11h-3.5v1.6h8.5v-1.6h-3.1V314.9z"/>
					</g>
					<g>
						<path class="st8" d="M234.8,314.9h-1.5c-0.8,0.5-1.8,0.9-3.2,1.1v1.2h2.7v11h-3.5v1.6h8.5v-1.6h-3.1V314.9z"/>
					</g>
					<g>
						<path class="st8" d="M183.2,314.6c-3,0-4.8,2.7-4.8,7.7c0,5,1.8,7.8,4.8,7.8c3,0,4.8-2.8,4.8-7.8
							C188.1,317.3,186.2,314.6,183.2,314.6z M183.2,328.6c-1.8,0-3-1.9-3-6.2c0-4.4,1.2-6.1,3-6.1c1.7,0,2.9,1.8,2.9,6.1
							C186.2,326.7,185,328.6,183.2,328.6z"/>
					</g>
					<g>
						<path class="st8" d="M258.8,314.6c-3,0-4.8,2.7-4.8,7.7c0,5,1.8,7.8,4.8,7.8c3,0,4.8-2.8,4.8-7.8
							C263.7,317.3,261.8,314.6,258.8,314.6z M258.8,328.6c-1.8,0-3-1.9-3-6.2c0-4.4,1.2-6.1,3-6.1c1.7,0,2.9,1.8,2.9,6.1
							C261.8,326.7,260.6,328.6,258.8,328.6z"/>
					</g>
					<g>
						<path class="st8" d="M284.7,314.6c-3,0-4.9,2.7-4.9,7.7c0,5,1.8,7.8,4.9,7.8c3,0,4.8-2.8,4.8-7.8
							C289.5,317.3,287.7,314.6,284.7,314.6z M284.7,328.6c-1.8,0-3-1.9-3-6.2c0-4.4,1.2-6.1,3-6.1c1.7,0,2.9,1.8,2.9,6.1
							C287.6,326.7,286.4,328.6,284.7,328.6z"/>
					</g>
				</g>
			</g>
			<g class="st7">
				<g>
					<g>
						<path class="st8" d="M312.2,105.8h-1.5c-0.8,0.5-1.8,0.9-3.2,1.1v1.2h2.7v11h-3.5v1.6h8.5v-1.6h-3.1V105.8z"/>
					</g>
					<g>
						<path class="st8" d="M360.9,105.8h-1.5c-0.8,0.5-1.8,0.9-3.2,1.1v1.2h2.7v11h-3.5v1.6h8.5v-1.6h-3.1V105.8z"/>
					</g>
					<g>
						<g>
							<path class="st8" d="M387,105.8h-1.5c-0.8,0.5-1.8,0.9-3.2,1.1v1.2h2.7v11h-3.5v1.6h8.5v-1.6H387V105.8z"/>
						</g>
					</g>
					<g>
						<path class="st8" d="M335.4,105.5c-3,0-4.8,2.7-4.8,7.7c0,5,1.8,7.8,4.8,7.8c3,0,4.8-2.8,4.8-7.8
							C340.2,108.2,338.4,105.5,335.4,105.5z M335.4,119.4c-1.8,0-3-1.9-3-6.2c0-4.4,1.2-6.1,3-6.1c1.7,0,2.9,1.8,2.9,6.1
							C338.4,117.5,337.2,119.4,335.4,119.4z"/>
					</g>
					<g>
						<path class="st8" d="M411,105.5c-3,0-4.8,2.7-4.8,7.7c0,5,1.8,7.8,4.8,7.8c3,0,4.8-2.8,4.8-7.8
							C415.8,108.2,414,105.5,411,105.5z M411,119.4c-1.8,0-3-1.9-3-6.2c0-4.4,1.2-6.1,3-6.1c1.7,0,2.9,1.8,2.9,6.1
							C413.9,117.5,412.8,119.4,411,119.4z"/>
					</g>
					<g>
						<path class="st8" d="M438.2,105.8h-1.5c-0.8,0.5-1.8,0.9-3.2,1.1v1.2h2.7v11h-3.5v1.6h8.5v-1.6h-3.1V105.8z"/>
					</g>
					<g>
						<path class="st8" d="M310.8,131.7c-3,0-4.8,2.7-4.8,7.7c0,5,1.8,7.8,4.8,7.8c3,0,4.8-2.8,4.8-7.8
							C315.6,134.4,313.8,131.7,310.8,131.7z M310.8,145.7c-1.8,0-3-1.9-3-6.2c0-4.4,1.2-6.1,3-6.1c1.7,0,2.9,1.8,2.9,6.1
							C313.7,143.8,312.5,145.7,310.8,145.7z"/>
					</g>
					<g>
						<path class="st8" d="M360.9,132h-1.5c-0.8,0.5-1.8,0.9-3.2,1.1v1.2h2.7v11h-3.5v1.6h8.5v-1.6h-3.1V132z"/>
					</g>
					<g>
						<path class="st8" d="M385.6,131.7c-3,0-4.9,2.7-4.9,7.7c0,5,1.8,7.8,4.9,7.8c3,0,4.8-2.8,4.8-7.8
							C390.5,134.4,388.7,131.7,385.6,131.7z M385.6,145.7c-1.8,0-3-1.9-3-6.2c0-4.4,1.2-6.1,3-6.1c1.7,0,2.9,1.8,2.9,6.1
							C388.6,143.8,387.4,145.7,385.6,145.7z"/>
					</g>
					<g>
						<path class="st8" d="M335.4,131.7c-3,0-4.8,2.7-4.8,7.7c0,5,1.8,7.8,4.8,7.8c3,0,4.8-2.8,4.8-7.8
							C340.2,134.4,338.4,131.7,335.4,131.7z M335.4,145.7c-1.8,0-3-1.9-3-6.2c0-4.4,1.2-6.1,3-6.1c1.7,0,2.9,1.8,2.9,6.1
							C338.4,143.8,337.2,145.7,335.4,145.7z"/>
					</g>
					<g>
						<path class="st8" d="M412.4,132h-1.5c-0.8,0.5-1.8,0.9-3.2,1.1v1.2h2.7v11H407v1.6h8.5v-1.6h-3.1V132z"/>
					</g>
					<g>
						<path class="st8" d="M436.9,131.7c-3,0-4.9,2.7-4.9,7.7c0,5,1.8,7.8,4.9,7.8c3,0,4.8-2.8,4.8-7.8
							C441.7,134.4,439.9,131.7,436.9,131.7z M436.9,145.7c-1.8,0-3-1.9-3-6.2c0-4.4,1.2-6.1,3-6.1c1.7,0,2.9,1.8,2.9,6.1
							C439.8,143.8,438.6,145.7,436.9,145.7z"/>
					</g>
					<g>
						<path class="st8" d="M312.2,158.3h-1.5c-0.8,0.5-1.8,0.9-3.2,1.1v1.2h2.7v11h-3.5v1.6h8.5v-1.6h-3.1V158.3z"/>
					</g>
					<g>
						<path class="st8" d="M359.6,158c-3,0-4.9,2.7-4.9,7.7c0,5,1.8,7.8,4.9,7.8c3,0,4.8-2.8,4.8-7.8
							C364.4,160.7,362.6,158,359.6,158z M359.6,171.9c-1.8,0-3-1.9-3-6.2c0-4.4,1.2-6.1,3-6.1c1.7,0,2.9,1.8,2.9,6.1
							C362.5,170,361.3,171.9,359.6,171.9z"/>
					</g>
					<g>
						<path class="st8" d="M387,158.3h-1.5c-0.8,0.5-1.8,0.9-3.2,1.1v1.2h2.7v11h-3.5v1.6h8.5v-1.6H387V158.3z"/>
					</g>
					<g>
						<path class="st8" d="M335.4,158c-3,0-4.8,2.7-4.8,7.7c0,5,1.8,7.8,4.8,7.8c3,0,4.8-2.8,4.8-7.8
							C340.2,160.7,338.4,158,335.4,158z M335.4,171.9c-1.8,0-3-1.9-3-6.2c0-4.4,1.2-6.1,3-6.1c1.7,0,2.9,1.8,2.9,6.1
							C338.4,170,337.2,171.9,335.4,171.9z"/>
					</g>
					<g>
						<path class="st8" d="M411,158c-3,0-4.8,2.7-4.8,7.7c0,5,1.8,7.8,4.8,7.8c3,0,4.8-2.8,4.8-7.8C415.8,160.7,414,158,411,158z
							 M411,171.9c-1.8,0-3-1.9-3-6.2c0-4.4,1.2-6.1,3-6.1c1.7,0,2.9,1.8,2.9,6.1C413.9,170,412.8,171.9,411,171.9z"/>
					</g>
					<g>
						<path class="st8" d="M438.2,158.3h-1.5c-0.8,0.5-1.8,0.9-3.2,1.1v1.2h2.7v11h-3.5v1.6h8.5v-1.6h-3.1V158.3z"/>
					</g>
					<g>
						<path class="st8" d="M310.8,184.3c-3,0-4.8,2.7-4.8,7.7c0,5,1.8,7.8,4.8,7.8c3,0,4.8-2.8,4.8-7.8
							C315.6,186.9,313.8,184.3,310.8,184.3z M310.8,198.2c-1.8,0-3-1.9-3-6.2c0-4.4,1.2-6.1,3-6.1c1.7,0,2.9,1.8,2.9,6.1
							C313.7,196.3,312.5,198.2,310.8,198.2z"/>
					</g>
					<g>
						<path class="st8" d="M360.9,184.5h-1.5c-0.8,0.5-1.8,0.9-3.2,1.1v1.2h2.7v11h-3.5v1.6h8.5v-1.6h-3.1V184.5z"/>
					</g>
					<g>
						<path class="st8" d="M387,184.5h-1.5c-0.8,0.5-1.8,0.9-3.2,1.1v1.2h2.7v11h-3.5v1.6h8.5v-1.6H387V184.5z"/>
					</g>
					<g>
						<g>
							<path class="st8" d="M335.4,184.3c-3,0-4.8,2.7-4.8,7.7c0,5,1.8,7.8,4.8,7.8c3,0,4.8-2.8,4.8-7.8
								C340.2,186.9,338.4,184.3,335.4,184.3z M335.4,198.2c-1.8,0-3-1.9-3-6.2c0-4.4,1.2-6.1,3-6.1c1.7,0,2.9,1.8,2.9,6.1
								C338.4,196.3,337.2,198.2,335.4,198.2z"/>
						</g>
					</g>
					<g>
						<path class="st8" d="M411,184.3c-3,0-4.8,2.7-4.8,7.7c0,5,1.8,7.8,4.8,7.8c3,0,4.8-2.8,4.8-7.8
							C415.8,186.9,414,184.3,411,184.3z M411,198.2c-1.8,0-3-1.9-3-6.2c0-4.4,1.2-6.1,3-6.1c1.7,0,2.9,1.8,2.9,6.1
							C413.9,196.3,412.8,198.2,411,198.2z"/>
					</g>
					<g>
						<path class="st8" d="M436.9,184.3c-3,0-4.9,2.7-4.9,7.7c0,5,1.8,7.8,4.9,7.8c3,0,4.8-2.8,4.8-7.8
							C441.7,186.9,439.9,184.3,436.9,184.3z M436.9,198.2c-1.8,0-3-1.9-3-6.2c0-4.4,1.2-6.1,3-6.1c1.7,0,2.9,1.8,2.9,6.1
							C439.8,196.3,438.6,198.2,436.9,198.2z"/>
					</g>
					<g>
						<g>
							<path class="st8" d="M312.2,210.8h-1.5c-0.8,0.5-1.8,0.9-3.2,1.1v1.2h2.7v11h-3.5v1.6h8.5v-1.6h-3.1V210.8z"/>
						</g>
					</g>
					<g>
						<path class="st8" d="M360.9,210.8h-1.5c-0.8,0.5-1.8,0.9-3.2,1.1v1.2h2.7v11h-3.5v1.6h8.5v-1.6h-3.1V210.8z"/>
					</g>
					<g>
						<path class="st8" d="M385.6,210.5c-3,0-4.9,2.7-4.9,7.7c0,5,1.8,7.8,4.9,7.8c3,0,4.8-2.8,4.8-7.8
							C390.5,213.2,388.7,210.5,385.6,210.5z M385.6,224.4c-1.8,0-3-1.9-3-6.2c0-4.4,1.2-6.1,3-6.1c1.7,0,2.9,1.8,2.9,6.1
							C388.6,222.6,387.4,224.4,385.6,224.4z"/>
					</g>
					<g>
						<path class="st8" d="M335.4,210.5c-3,0-4.8,2.7-4.8,7.7c0,5,1.8,7.8,4.8,7.8c3,0,4.8-2.8,4.8-7.8
							C340.2,213.2,338.4,210.5,335.4,210.5z M335.4,224.4c-1.8,0-3-1.9-3-6.2c0-4.4,1.2-6.1,3-6.1c1.7,0,2.9,1.8,2.9,6.1
							C338.4,222.6,337.2,224.4,335.4,224.4z"/>
					</g>
					<g>
						<path class="st8" d="M411,210.5c-3,0-4.8,2.7-4.8,7.7c0,5,1.8,7.8,4.8,7.8c3,0,4.8-2.8,4.8-7.8
							C415.8,213.2,414,210.5,411,210.5z M411,224.4c-1.8,0-3-1.9-3-6.2c0-4.4,1.2-6.1,3-6.1c1.7,0,2.9,1.8,2.9,6.1
							C413.9,222.6,412.8,224.4,411,224.4z"/>
					</g>
					<g>
						<path class="st8" d="M438.2,210.8h-1.5c-0.8,0.5-1.8,0.9-3.2,1.1v1.2h2.7v11h-3.5v1.6h8.5v-1.6h-3.1V210.8z"/>
					</g>
				</g>
				<g>
					<g>
						<path class="st8" d="M312.2,236h-1.5c-0.8,0.5-1.8,0.9-3.2,1.1v1.2h2.7v11h-3.5v1.6h8.5v-1.6h-3.1V236z"/>
					</g>
					<g>
						<path class="st8" d="M360.9,236h-1.5c-0.8,0.5-1.8,0.9-3.2,1.1v1.2h2.7v11h-3.5v1.6h8.5v-1.6h-3.1V236z"/>
					</g>
					<g>
						<path class="st8" d="M387,236h-1.5c-0.8,0.5-1.8,0.9-3.2,1.1v1.2h2.7v11h-3.5v1.6h8.5v-1.6H387V236z"/>
					</g>
					<g>
						<path class="st8" d="M335.4,235.8c-3,0-4.8,2.7-4.8,7.7c0,5,1.8,7.8,4.8,7.8c3,0,4.8-2.8,4.8-7.8
							C340.2,238.4,338.4,235.8,335.4,235.8z M335.4,249.7c-1.8,0-3-1.9-3-6.2c0-4.4,1.2-6.1,3-6.1c1.7,0,2.9,1.8,2.9,6.1
							C338.4,247.8,337.2,249.7,335.4,249.7z"/>
					</g>
					<g>
						<path class="st8" d="M411,235.8c-3,0-4.8,2.7-4.8,7.7c0,5,1.8,7.8,4.8,7.8c3,0,4.8-2.8,4.8-7.8
							C415.8,238.4,414,235.8,411,235.8z M411,249.7c-1.8,0-3-1.9-3-6.2c0-4.4,1.2-6.1,3-6.1c1.7,0,2.9,1.8,2.9,6.1
							C413.9,247.8,412.8,249.7,411,249.7z"/>
					</g>
					<g>
						<path class="st8" d="M438.2,236h-1.5c-0.8,0.5-1.8,0.9-3.2,1.1v1.2h2.7v11h-3.5v1.6h8.5v-1.6h-3.1V236z"/>
					</g>
					<g>
						<g>
							<path class="st8" d="M310.8,262c-3,0-4.8,2.7-4.8,7.7c0,5,1.8,7.8,4.8,7.8c3,0,4.8-2.8,4.8-7.8
								C315.6,264.7,313.8,262,310.8,262z M310.8,275.9c-1.8,0-3-1.9-3-6.2c0-4.4,1.2-6.1,3-6.1c1.7,0,2.9,1.8,2.9,6.1
								C313.7,274,312.5,275.9,310.8,275.9z"/>
						</g>
					</g>
					<g>
						<path class="st8" d="M360.9,262.3h-1.5c-0.8,0.5-1.8,0.9-3.2,1.1v1.2h2.7v11h-3.5v1.6h8.5v-1.6h-3.1V262.3z"/>
					</g>
					<g>
						<g>
							<path class="st8" d="M385.6,262c-3,0-4.9,2.7-4.9,7.7c0,5,1.8,7.8,4.9,7.8c3,0,4.8-2.8,4.8-7.8
								C390.5,264.7,388.7,262,385.6,262z M385.6,275.9c-1.8,0-3-1.9-3-6.2c0-4.4,1.2-6.1,3-6.1c1.7,0,2.9,1.8,2.9,6.1
								C388.6,274,387.4,275.9,385.6,275.9z"/>
						</g>
					</g>
					<g>
						<path class="st8" d="M335.4,262c-3,0-4.8,2.7-4.8,7.7c0,5,1.8,7.8,4.8,7.8c3,0,4.8-2.8,4.8-7.8
							C340.2,264.7,338.4,262,335.4,262z M335.4,275.9c-1.8,0-3-1.9-3-6.2c0-4.4,1.2-6.1,3-6.1c1.7,0,2.9,1.8,2.9,6.1
							C338.4,274,337.2,275.9,335.4,275.9z"/>
					</g>
					<g>
						<path class="st8" d="M412.4,262.3h-1.5c-0.8,0.5-1.8,0.9-3.2,1.1v1.2h2.7v11H407v1.6h8.5v-1.6h-3.1V262.3z"/>
					</g>
					<g>
						<path class="st8" d="M436.9,262c-3,0-4.9,2.7-4.9,7.7c0,5,1.8,7.8,4.9,7.8c3,0,4.8-2.8,4.8-7.8
							C441.7,264.7,439.9,262,436.9,262z M436.9,275.9c-1.8,0-3-1.9-3-6.2c0-4.4,1.2-6.1,3-6.1c1.7,0,2.9,1.8,2.9,6.1
							C439.8,274,438.6,275.9,436.9,275.9z"/>
					</g>
					<g>
						<path class="st8" d="M312.2,288.5h-1.5c-0.8,0.5-1.8,0.9-3.2,1.1v1.2h2.7v11h-3.5v1.6h8.5v-1.6h-3.1V288.5z"/>
					</g>
					<g>
						<g>
							<path class="st8" d="M359.6,288.3c-3,0-4.9,2.7-4.9,7.7c0,5,1.8,7.8,4.9,7.8c3,0,4.8-2.8,4.8-7.8
								C364.4,290.9,362.6,288.3,359.6,288.3z M359.6,302.2c-1.8,0-3-1.9-3-6.2c0-4.4,1.2-6.1,3-6.1c1.7,0,2.9,1.8,2.9,6.1
								C362.5,300.3,361.3,302.2,359.6,302.2z"/>
						</g>
					</g>
					<g>
						<path class="st8" d="M387,288.5h-1.5c-0.8,0.5-1.8,0.9-3.2,1.1v1.2h2.7v11h-3.5v1.6h8.5v-1.6H387V288.5z"/>
					</g>
					<g>
						<path class="st8" d="M335.4,288.3c-3,0-4.8,2.7-4.8,7.7c0,5,1.8,7.8,4.8,7.8c3,0,4.8-2.8,4.8-7.8
							C340.2,290.9,338.4,288.3,335.4,288.3z M335.4,302.2c-1.8,0-3-1.9-3-6.2c0-4.4,1.2-6.1,3-6.1c1.7,0,2.9,1.8,2.9,6.1
							C338.4,300.3,337.2,302.2,335.4,302.2z"/>
					</g>
					<g>
						<path class="st8" d="M411,288.3c-3,0-4.8,2.7-4.8,7.7c0,5,1.8,7.8,4.8,7.8c3,0,4.8-2.8,4.8-7.8
							C415.8,290.9,414,288.3,411,288.3z M411,302.2c-1.8,0-3-1.9-3-6.2c0-4.4,1.2-6.1,3-6.1c1.7,0,2.9,1.8,2.9,6.1
							C413.9,300.3,412.8,302.2,411,302.2z"/>
					</g>
					<g>
						<path class="st8" d="M438.2,288.5h-1.5c-0.8,0.5-1.8,0.9-3.2,1.1v1.2h2.7v11h-3.5v1.6h8.5v-1.6h-3.1V288.5z"/>
					</g>
					<g>
						<path class="st8" d="M310.8,314.5c-3,0-4.8,2.7-4.8,7.7c0,5,1.8,7.8,4.8,7.8c3,0,4.8-2.8,4.8-7.8
							C315.6,317.2,313.8,314.5,310.8,314.5z M310.8,328.4c-1.8,0-3-1.9-3-6.2c0-4.4,1.2-6.1,3-6.1c1.7,0,2.9,1.8,2.9,6.1
							C313.7,326.6,312.5,328.4,310.8,328.4z"/>
					</g>
					<g>
						<path class="st8" d="M360.9,314.8h-1.5c-0.8,0.5-1.8,0.9-3.2,1.1v1.2h2.7v11h-3.5v1.6h8.5v-1.6h-3.1V314.8z"/>
					</g>
					<g>
						<path class="st8" d="M387,314.8h-1.5c-0.8,0.5-1.8,0.9-3.2,1.1v1.2h2.7v11h-3.5v1.6h8.5v-1.6H387V314.8z"/>
					</g>
					<g>
						<path class="st8" d="M335.4,314.5c-3,0-4.8,2.7-4.8,7.7c0,5,1.8,7.8,4.8,7.8c3,0,4.8-2.8,4.8-7.8
							C340.2,317.2,338.4,314.5,335.4,314.5z M335.4,328.4c-1.8,0-3-1.9-3-6.2c0-4.4,1.2-6.1,3-6.1c1.7,0,2.9,1.8,2.9,6.1
							C338.4,326.6,337.2,328.4,335.4,328.4z"/>
					</g>
					<g>
						<path class="st8" d="M411,314.5c-3,0-4.8,2.7-4.8,7.7c0,5,1.8,7.8,4.8,7.8c3,0,4.8-2.8,4.8-7.8
							C415.8,317.2,414,314.5,411,314.5z M411,328.4c-1.8,0-3-1.9-3-6.2c0-4.4,1.2-6.1,3-6.1c1.7,0,2.9,1.8,2.9,6.1
							C413.9,326.6,412.8,328.4,411,328.4z"/>
					</g>
					<g>
						<path class="st8" d="M436.9,314.5c-3,0-4.9,2.7-4.9,7.7c0,5,1.8,7.8,4.9,7.8c3,0,4.8-2.8,4.8-7.8
							C441.7,317.2,439.9,314.5,436.9,314.5z M436.9,328.4c-1.8,0-3-1.9-3-6.2c0-4.4,1.2-6.1,3-6.1c1.7,0,2.9,1.8,2.9,6.1
							C439.8,326.6,438.6,328.4,436.9,328.4z"/>
					</g>
				</g>
			</g>
			<g class="st7">
				<g>
					<g>
						<path class="st8" d="M464.4,105.6h-1.5c-0.8,0.5-1.8,0.9-3.2,1.1v1.2h2.7v11H459v1.6h8.5v-1.6h-3.1V105.6z"/>
					</g>
					<g>
						<path class="st8" d="M513.1,105.6h-1.5c-0.8,0.5-1.8,0.9-3.2,1.1v1.2h2.7v11h-3.5v1.6h8.5v-1.6h-3.1V105.6z"/>
					</g>
					<g>
						<g>
							<path class="st8" d="M539.2,105.6h-1.5c-0.8,0.5-1.8,0.9-3.2,1.1v1.2h2.7v11h-3.5v1.6h8.5v-1.6h-3.1V105.6z"/>
						</g>
					</g>
					<g>
						<path class="st8" d="M487.6,105.4c-3,0-4.8,2.7-4.8,7.7c0,5,1.8,7.8,4.8,7.8c3,0,4.8-2.8,4.8-7.8
							C492.4,108,490.6,105.4,487.6,105.4z M487.6,119.3c-1.8,0-3-1.9-3-6.2c0-4.4,1.2-6.1,3-6.1c1.7,0,2.9,1.8,2.9,6.1
							C490.5,117.4,489.4,119.3,487.6,119.3z"/>
					</g>
					<g>
						<path class="st8" d="M563.2,105.4c-3,0-4.9,2.7-4.9,7.7c0,5,1.8,7.8,4.9,7.8c3,0,4.8-2.8,4.8-7.8
							C568,108,566.2,105.4,563.2,105.4z M563.2,119.3c-1.8,0-3-1.9-3-6.2c0-4.4,1.2-6.1,3-6.1c1.7,0,2.9,1.8,2.9,6.1
							C566.1,117.4,564.9,119.3,563.2,119.3z"/>
					</g>
					<g>
						<path class="st8" d="M590.4,105.6h-1.5c-0.8,0.5-1.8,0.9-3.2,1.1v1.2h2.7v11H585v1.6h8.5v-1.6h-3.1V105.6z"/>
					</g>
					<g>
						<path class="st8" d="M463,131.6c-3,0-4.9,2.7-4.9,7.7c0,5,1.8,7.8,4.9,7.8c3,0,4.8-2.8,4.8-7.8
							C467.8,134.3,466,131.6,463,131.6z M463,145.5c-1.8,0-3-1.9-3-6.2c0-4.4,1.2-6.1,3-6.1c1.7,0,2.9,1.8,2.9,6.1
							C465.9,143.7,464.7,145.5,463,145.5z"/>
					</g>
					<g>
						<path class="st8" d="M513.1,131.9h-1.5c-0.8,0.5-1.8,0.9-3.2,1.1v1.2h2.7v11h-3.5v1.6h8.5v-1.6h-3.1V131.9z"/>
					</g>
					<g>
						<path class="st8" d="M537.8,131.6c-3,0-4.9,2.7-4.9,7.7c0,5,1.8,7.8,4.9,7.8c3,0,4.8-2.8,4.8-7.8
							C542.7,134.3,540.8,131.6,537.8,131.6z M537.8,145.5c-1.8,0-3-1.9-3-6.2c0-4.4,1.2-6.1,3-6.1c1.7,0,2.9,1.8,2.9,6.1
							C540.8,143.7,539.6,145.5,537.8,145.5z"/>
					</g>
					<g>
						<path class="st8" d="M487.6,131.6c-3,0-4.8,2.7-4.8,7.7c0,5,1.8,7.8,4.8,7.8c3,0,4.8-2.8,4.8-7.8
							C492.4,134.3,490.6,131.6,487.6,131.6z M487.6,145.5c-1.8,0-3-1.9-3-6.2c0-4.4,1.2-6.1,3-6.1c1.7,0,2.9,1.8,2.9,6.1
							C490.5,143.7,489.4,145.5,487.6,145.5z"/>
					</g>
					<g>
						<path class="st8" d="M564.6,131.9h-1.5c-0.8,0.5-1.8,0.9-3.2,1.1v1.2h2.7v11h-3.5v1.6h8.5v-1.6h-3.1V131.9z"/>
					</g>
					<g>
						<path class="st8" d="M589.1,131.6c-3,0-4.9,2.7-4.9,7.7c0,5,1.8,7.8,4.9,7.8c3,0,4.8-2.8,4.8-7.8
							C593.9,134.3,592.1,131.6,589.1,131.6z M589.1,145.5c-1.8,0-3-1.9-3-6.2c0-4.4,1.2-6.1,3-6.1c1.7,0,2.9,1.8,2.9,6.1
							C592,143.7,590.8,145.5,589.1,145.5z"/>
					</g>
					<g>
						<path class="st8" d="M464.4,158.2h-1.5c-0.8,0.5-1.8,0.9-3.2,1.1v1.2h2.7v11H459v1.6h8.5v-1.6h-3.1V158.2z"/>
					</g>
					<g>
						<path class="st8" d="M511.7,157.9c-3,0-4.8,2.7-4.8,7.7c0,5,1.8,7.8,4.8,7.8c3,0,4.8-2.8,4.8-7.8
							C516.6,160.6,514.7,157.9,511.7,157.9z M511.7,171.8c-1.8,0-3-1.9-3-6.2c0-4.4,1.2-6.1,3-6.1c1.7,0,2.9,1.8,2.9,6.1
							C514.7,169.9,513.5,171.8,511.7,171.8z"/>
					</g>
					<g>
						<path class="st8" d="M539.2,158.2h-1.5c-0.8,0.5-1.8,0.9-3.2,1.1v1.2h2.7v11h-3.5v1.6h8.5v-1.6h-3.1V158.2z"/>
					</g>
					<g>
						<path class="st8" d="M487.6,157.9c-3,0-4.8,2.7-4.8,7.7c0,5,1.8,7.8,4.8,7.8c3,0,4.8-2.8,4.8-7.8
							C492.4,160.6,490.6,157.9,487.6,157.9z M487.6,171.8c-1.8,0-3-1.9-3-6.2c0-4.4,1.2-6.1,3-6.1c1.7,0,2.9,1.8,2.9,6.1
							C490.5,169.9,489.4,171.8,487.6,171.8z"/>
					</g>
					<g>
						<path class="st8" d="M563.2,157.9c-3,0-4.9,2.7-4.9,7.7c0,5,1.8,7.8,4.9,7.8c3,0,4.8-2.8,4.8-7.8
							C568,160.6,566.2,157.9,563.2,157.9z M563.2,171.8c-1.8,0-3-1.9-3-6.2c0-4.4,1.2-6.1,3-6.1c1.7,0,2.9,1.8,2.9,6.1
							C566.1,169.9,564.9,171.8,563.2,171.8z"/>
					</g>
					<g>
						<path class="st8" d="M590.4,158.2h-1.5c-0.8,0.5-1.8,0.9-3.2,1.1v1.2h2.7v11H585v1.6h8.5v-1.6h-3.1V158.2z"/>
					</g>
					<g>
						<path class="st8" d="M463,184.1c-3,0-4.9,2.7-4.9,7.7c0,5,1.8,7.8,4.9,7.8c3,0,4.8-2.8,4.8-7.8
							C467.8,186.8,466,184.1,463,184.1z M463,198c-1.8,0-3-1.9-3-6.2s1.2-6.1,3-6.1c1.7,0,2.9,1.8,2.9,6.1S464.7,198,463,198z"/>
					</g>
					<g>
						<path class="st8" d="M513.1,184.4h-1.5c-0.8,0.5-1.8,0.9-3.2,1.1v1.2h2.7v11h-3.5v1.6h8.5v-1.6h-3.1V184.4z"/>
					</g>
					<g>
						<path class="st8" d="M539.2,184.4h-1.5c-0.8,0.5-1.8,0.9-3.2,1.1v1.2h2.7v11h-3.5v1.6h8.5v-1.6h-3.1V184.4z"/>
					</g>
					<g>
						<g>
							<path class="st8" d="M487.6,184.1c-3,0-4.8,2.7-4.8,7.7c0,5,1.8,7.8,4.8,7.8c3,0,4.8-2.8,4.8-7.8
								C492.4,186.8,490.6,184.1,487.6,184.1z M487.6,198c-1.8,0-3-1.9-3-6.2s1.2-6.1,3-6.1c1.7,0,2.9,1.8,2.9,6.1
								S489.4,198,487.6,198z"/>
						</g>
					</g>
					<g>
						<path class="st8" d="M563.2,184.1c-3,0-4.9,2.7-4.9,7.7c0,5,1.8,7.8,4.9,7.8c3,0,4.8-2.8,4.8-7.8
							C568,186.8,566.2,184.1,563.2,184.1z M563.2,198c-1.8,0-3-1.9-3-6.2s1.2-6.1,3-6.1c1.7,0,2.9,1.8,2.9,6.1S564.9,198,563.2,198
							z"/>
					</g>
					<g>
						<path class="st8" d="M589.1,184.1c-3,0-4.9,2.7-4.9,7.7c0,5,1.8,7.8,4.9,7.8c3,0,4.8-2.8,4.8-7.8
							C593.9,186.8,592.1,184.1,589.1,184.1z M589.1,198c-1.8,0-3-1.9-3-6.2s1.2-6.1,3-6.1c1.7,0,2.9,1.8,2.9,6.1
							S590.8,198,589.1,198z"/>
					</g>
					<g>
						<g>
							<path class="st8" d="M464.4,210.7h-1.5c-0.8,0.5-1.8,0.9-3.2,1.1v1.2h2.7v11H459v1.6h8.5V224h-3.1V210.7z"/>
						</g>
					</g>
					<g>
						<path class="st8" d="M513.1,210.7h-1.5c-0.8,0.5-1.8,0.9-3.2,1.1v1.2h2.7v11h-3.5v1.6h8.5V224h-3.1V210.7z"/>
					</g>
					<g>
						<path class="st8" d="M537.8,210.4c-3,0-4.9,2.7-4.9,7.7c0,5,1.8,7.8,4.9,7.8c3,0,4.8-2.8,4.8-7.8
							C542.7,213.1,540.8,210.4,537.8,210.4z M537.8,224.3c-1.8,0-3-1.9-3-6.2c0-4.4,1.2-6.1,3-6.1c1.7,0,2.9,1.8,2.9,6.1
							C540.8,222.4,539.6,224.3,537.8,224.3z"/>
					</g>
					<g>
						<path class="st8" d="M487.6,210.4c-3,0-4.8,2.7-4.8,7.7c0,5,1.8,7.8,4.8,7.8c3,0,4.8-2.8,4.8-7.8
							C492.4,213.1,490.6,210.4,487.6,210.4z M487.6,224.3c-1.8,0-3-1.9-3-6.2c0-4.4,1.2-6.1,3-6.1c1.7,0,2.9,1.8,2.9,6.1
							C490.5,222.4,489.4,224.3,487.6,224.3z"/>
					</g>
					<g>
						<path class="st8" d="M563.2,210.4c-3,0-4.9,2.7-4.9,7.7c0,5,1.8,7.8,4.9,7.8c3,0,4.8-2.8,4.8-7.8
							C568,213.1,566.2,210.4,563.2,210.4z M563.2,224.3c-1.8,0-3-1.9-3-6.2c0-4.4,1.2-6.1,3-6.1c1.7,0,2.9,1.8,2.9,6.1
							C566.1,222.4,564.9,224.3,563.2,224.3z"/>
					</g>
					<g>
						<path class="st8" d="M590.4,210.7h-1.5c-0.8,0.5-1.8,0.9-3.2,1.1v1.2h2.7v11H585v1.6h8.5V224h-3.1V210.7z"/>
					</g>
				</g>
				<g>
					<g>
						<path class="st8" d="M464.4,235.9h-1.5c-0.8,0.5-1.8,0.9-3.2,1.1v1.2h2.7v11H459v1.6h8.5v-1.6h-3.1V235.9z"/>
					</g>
					<g>
						<path class="st8" d="M513.1,235.9h-1.5c-0.8,0.5-1.8,0.9-3.2,1.1v1.2h2.7v11h-3.5v1.6h8.5v-1.6h-3.1V235.9z"/>
					</g>
					<g>
						<path class="st8" d="M539.2,235.9h-1.5c-0.8,0.5-1.8,0.9-3.2,1.1v1.2h2.7v11h-3.5v1.6h8.5v-1.6h-3.1V235.9z"/>
					</g>
					<g>
						<path class="st8" d="M487.6,235.6c-3,0-4.8,2.7-4.8,7.7c0,5,1.8,7.8,4.8,7.8c3,0,4.8-2.8,4.8-7.8
							C492.4,238.3,490.6,235.6,487.6,235.6z M487.6,249.5c-1.8,0-3-1.9-3-6.2c0-4.4,1.2-6.1,3-6.1c1.7,0,2.9,1.8,2.9,6.1
							C490.5,247.7,489.4,249.5,487.6,249.5z"/>
					</g>
					<g>
						<path class="st8" d="M563.2,235.6c-3,0-4.9,2.7-4.9,7.7c0,5,1.8,7.8,4.9,7.8c3,0,4.8-2.8,4.8-7.8
							C568,238.3,566.2,235.6,563.2,235.6z M563.2,249.5c-1.8,0-3-1.9-3-6.2c0-4.4,1.2-6.1,3-6.1c1.7,0,2.9,1.8,2.9,6.1
							C566.1,247.7,564.9,249.5,563.2,249.5z"/>
					</g>
					<g>
						<path class="st8" d="M590.4,235.9h-1.5c-0.8,0.5-1.8,0.9-3.2,1.1v1.2h2.7v11H585v1.6h8.5v-1.6h-3.1V235.9z"/>
					</g>
					<g>
						<g>
							<path class="st8" d="M463,261.9c-3,0-4.9,2.7-4.9,7.7c0,5,1.8,7.8,4.9,7.8c3,0,4.8-2.8,4.8-7.8
								C467.8,264.6,466,261.9,463,261.9z M463,275.8c-1.8,0-3-1.9-3-6.2c0-4.4,1.2-6.1,3-6.1c1.7,0,2.9,1.8,2.9,6.1
								C465.9,273.9,464.7,275.8,463,275.8z"/>
						</g>
					</g>
					<g>
						<path class="st8" d="M513.1,262.2h-1.5c-0.8,0.5-1.8,0.9-3.2,1.1v1.2h2.7v11h-3.5v1.6h8.5v-1.6h-3.1V262.2z"/>
					</g>
					<g>
						<g>
							<path class="st8" d="M537.8,261.9c-3,0-4.9,2.7-4.9,7.7c0,5,1.8,7.8,4.9,7.8c3,0,4.8-2.8,4.8-7.8
								C542.7,264.6,540.8,261.9,537.8,261.9z M537.8,275.8c-1.8,0-3-1.9-3-6.2c0-4.4,1.2-6.1,3-6.1c1.7,0,2.9,1.8,2.9,6.1
								C540.8,273.9,539.6,275.8,537.8,275.8z"/>
						</g>
					</g>
					<g>
						<path class="st8" d="M487.6,261.9c-3,0-4.8,2.7-4.8,7.7c0,5,1.8,7.8,4.8,7.8c3,0,4.8-2.8,4.8-7.8
							C492.4,264.6,490.6,261.9,487.6,261.9z M487.6,275.8c-1.8,0-3-1.9-3-6.2c0-4.4,1.2-6.1,3-6.1c1.7,0,2.9,1.8,2.9,6.1
							C490.5,273.9,489.4,275.8,487.6,275.8z"/>
					</g>
					<g>
						<path class="st8" d="M564.6,262.2h-1.5c-0.8,0.5-1.8,0.9-3.2,1.1v1.2h2.7v11h-3.5v1.6h8.5v-1.6h-3.1V262.2z"/>
					</g>
					<g>
						<path class="st8" d="M589.1,261.9c-3,0-4.9,2.7-4.9,7.7c0,5,1.8,7.8,4.9,7.8c3,0,4.8-2.8,4.8-7.8
							C593.9,264.6,592.1,261.9,589.1,261.9z M589.1,275.8c-1.8,0-3-1.9-3-6.2c0-4.4,1.2-6.1,3-6.1c1.7,0,2.9,1.8,2.9,6.1
							C592,273.9,590.8,275.8,589.1,275.8z"/>
					</g>
					<g>
						<path class="st8" d="M464.4,288.4h-1.5c-0.8,0.5-1.8,0.9-3.2,1.1v1.2h2.7v11H459v1.6h8.5v-1.6h-3.1V288.4z"/>
					</g>
					<g>
						<g>
							<path class="st8" d="M511.7,288.1c-3,0-4.8,2.7-4.8,7.7c0,5,1.8,7.8,4.8,7.8c3,0,4.8-2.8,4.8-7.8
								C516.6,290.8,514.7,288.1,511.7,288.1z M511.7,302c-1.8,0-3-1.9-3-6.2c0-4.4,1.2-6.1,3-6.1c1.7,0,2.9,1.8,2.9,6.1
								C514.7,300.2,513.5,302,511.7,302z"/>
						</g>
					</g>
					<g>
						<path class="st8" d="M539.2,288.4h-1.5c-0.8,0.5-1.8,0.9-3.2,1.1v1.2h2.7v11h-3.5v1.6h8.5v-1.6h-3.1V288.4z"/>
					</g>
					<g>
						<path class="st8" d="M487.6,288.1c-3,0-4.8,2.7-4.8,7.7c0,5,1.8,7.8,4.8,7.8c3,0,4.8-2.8,4.8-7.8
							C492.4,290.8,490.6,288.1,487.6,288.1z M487.6,302c-1.8,0-3-1.9-3-6.2c0-4.4,1.2-6.1,3-6.1c1.7,0,2.9,1.8,2.9,6.1
							C490.5,300.2,489.4,302,487.6,302z"/>
					</g>
					<g>
						<path class="st8" d="M563.2,288.1c-3,0-4.9,2.7-4.9,7.7c0,5,1.8,7.8,4.9,7.8c3,0,4.8-2.8,4.8-7.8
							C568,290.8,566.2,288.1,563.2,288.1z M563.2,302c-1.8,0-3-1.9-3-6.2c0-4.4,1.2-6.1,3-6.1c1.7,0,2.9,1.8,2.9,6.1
							C566.1,300.2,564.9,302,563.2,302z"/>
					</g>
					<g>
						<path class="st8" d="M590.4,288.4h-1.5c-0.8,0.5-1.8,0.9-3.2,1.1v1.2h2.7v11H585v1.6h8.5v-1.6h-3.1V288.4z"/>
					</g>
					<g>
						<path class="st8" d="M463,314.4c-3,0-4.9,2.7-4.9,7.7c0,5,1.8,7.8,4.9,7.8c3,0,4.8-2.8,4.8-7.8
							C467.8,317.1,466,314.4,463,314.4z M463,328.3c-1.8,0-3-1.9-3-6.2c0-4.4,1.2-6.1,3-6.1c1.7,0,2.9,1.8,2.9,6.1
							C465.9,326.4,464.7,328.3,463,328.3z"/>
					</g>
					<g>
						<path class="st8" d="M513.1,314.7h-1.5c-0.8,0.5-1.8,0.9-3.2,1.1v1.2h2.7v11h-3.5v1.6h8.5V328h-3.1V314.7z"/>
					</g>
					<g>
						<path class="st8" d="M539.2,314.7h-1.5c-0.8,0.5-1.8,0.9-3.2,1.1v1.2h2.7v11h-3.5v1.6h8.5V328h-3.1V314.7z"/>
					</g>
					<g>
						<path class="st8" d="M487.6,314.4c-3,0-4.8,2.7-4.8,7.7c0,5,1.8,7.8,4.8,7.8c3,0,4.8-2.8,4.8-7.8
							C492.4,317.1,490.6,314.4,487.6,314.4z M487.6,328.3c-1.8,0-3-1.9-3-6.2c0-4.4,1.2-6.1,3-6.1c1.7,0,2.9,1.8,2.9,6.1
							C490.5,326.4,489.4,328.3,487.6,328.3z"/>
					</g>
					<g>
						<path class="st8" d="M563.2,314.4c-3,0-4.9,2.7-4.9,7.7c0,5,1.8,7.8,4.9,7.8c3,0,4.8-2.8,4.8-7.8
							C568,317.1,566.2,314.4,563.2,314.4z M563.2,328.3c-1.8,0-3-1.9-3-6.2c0-4.4,1.2-6.1,3-6.1c1.7,0,2.9,1.8,2.9,6.1
							C566.1,326.4,564.9,328.3,563.2,328.3z"/>
					</g>
					<g>
						<path class="st8" d="M589.1,314.4c-3,0-4.9,2.7-4.9,7.7c0,5,1.8,7.8,4.9,7.8c3,0,4.8-2.8,4.8-7.8
							C593.9,317.1,592.1,314.4,589.1,314.4z M589.1,328.3c-1.8,0-3-1.9-3-6.2c0-4.4,1.2-6.1,3-6.1c1.7,0,2.9,1.8,2.9,6.1
							C592,326.4,590.8,328.3,589.1,328.3z"/>
					</g>
				</g>
			</g>
		</g>
		<g>
			<ellipse class="st0" cx="309.6" cy="499.2" rx="290.1" ry="32.8"/>
			<g>
				<g>
					<g>
						<path class="st9" d="M393.5,476.5l-43.9-104.9l7-2.8l40,106.5c0.4,1.1,0.1,2.2-0.8,2.6C395,478.2,393.9,477.6,393.5,476.5z"/>
						<path class="st9" d="M324,475.8l-2.1-113.7h7.6l-2.1,113.7c0,1.2-0.8,2.1-1.7,2.1C324.7,477.9,324,477,324,475.8z"/>
						<path class="st9" d="M262.6,469.8l43.9-104.9l-7-2.8l-40,106.5c-0.4,1.1-0.1,2.2,0.8,2.6C261.1,471.5,262.2,470.9,262.6,469.8
							z"/>
					</g>
					<g>
						<path class="st10" d="M357.8,372.1l-4.5,1.8l41.3,103.9c-0.5-0.2-0.9-0.7-1.1-1.2l-43.9-104.9l7-2.8L357.8,372.1z"/>
						<path class="st10" d="M329.3,365.1h-5.6l2.1,112.8c-0.1,0-0.1,0-0.2,0c-0.9,0-1.6-0.9-1.7-2.1l-2.1-113.7h7.6L329.3,365.1z"/>
						<path class="st10" d="M259.5,468.6l40-106.5l7,2.8l-0.8,1.9l-4.4-1.7L261.6,471c-0.4,0.3-0.9,0.3-1.3,0.2
							C259.5,470.8,259.1,469.7,259.5,468.6z"/>
					</g>
				</g>
				<g>
					<g>
						<g>
							<g>
								<path class="st11" d="M275.5,371.4c7.7,6.2,19,12,47.9,12.6c38,0.7,57.9-3.6,68.7-23.2c18-32.7-4.5-138.4-40.1-115
									c-29.7,19.6-35.7,82.1-39.6,90.7C308.4,345.1,256.8,356.3,275.5,371.4z"/>
							</g>
						</g>
					</g>
				</g>
				<g>
					<g>
						<g>
							<linearGradient id="SVGID_4_" gradientUnits="userSpaceOnUse" x1="271.4335" y1="316.0158" x2="398.378" y2="316.0158">
								<stop  offset="0" style="stop-color:#EDF1F2"/>
								<stop  offset="1" style="stop-color:#B4BCC5"/>
							</linearGradient>
							<path class="st12" d="M316.8,375.9c38,0.7,57.9-3.6,68.7-23.2c12.3-22.3,5.7-78.7-11-104.7c21.4,19.9,31.4,87.8,17.6,112.8
								c-10.8,19.6-30.7,23.9-68.7,23.2c-28.9-0.6-40.2-6.3-47.9-12.6c-2.6-2.1-3.8-4.2-4-6.1C279.1,370.7,290.9,375.4,316.8,375.9z
								"/>
						</g>
					</g>
				</g>
			</g>
			<g>
				<g>
					<g>
						<path class="st13" d="M255.2,261.2c0,0-6.2-4.4-6.5-6.3c-0.2-1.8-4.6-9.3-6-10.8c-1.4-1.5-8.7-4-10.3-4.3
							c-1.6-0.2-10.5,0.5-9.4,1.8c1.1,1.2,6.9,0.8,8,1.4c1.1,0.7,1.1,0.7,1.1,0.7s-1.1,1.5-0.7,2.4c0.4,0.9-1.9,2.3-1,3.9
							c0.9,1.6-0.4,1.5,0.4,3.1c1.3,2.7,4.7,4.2,5.6,3.5c0.7,1.6,3.2,4.8,5.6,4.6c2.4-0.2,8.2,5.2,8.2,5.2"/>
						<path class="st14" d="M255.9,259.5c-4.9-1.2-6.8-3.1-7.6-4.8c-0.8-1.6-0.5-2.7-1.7-4.9c-0.4-0.6-0.7-1.1-1-1.5
							c-0.6-0.7-1.2-0.9-1.7-1.7c0,0,0,0,0,0c-0.9-1.4-1-2.9-1-3.4c-0.1-2.9,1.6-4.5,0.9-5.3c-0.5-0.5-1.7-0.5-2.6,0
							c-2.6,1.4-1.3,6-3.4,7c-1.8,0.9-4-1.9-5.8-0.9c-1,0.6-1.3,2.2-1.3,3.4c-0.4,0.3-1.5,1.4-1.8,3.2c0,0.3-0.3,2.1,0.5,3.1
							c0.1,0.2,0.4,0.5,0.5,0.9c0.1,0.4,0,0.6,0,1c0.1,0.4,0.3,0.7,0.5,1c0.5,0.6,2.1,2.1,4.5,3.8c2.4,0.4,5.2,0.9,8.1,1.8
							c3.5,1,6.6,2.2,9.1,3.4"/>
						<g>
							<path class="st14" d="M350.4,229.9c0.2,4.2-0.1,11.5,1.1,12.6c1.2,1.1,5.1,0.9,5.1,0.9s-13.8,17.5-15.1,16.6
								c-1.2-1-17.6-14.3-13.9-15c3.7-0.7,7.3-0.5,7.2-2.4c-0.1-1.9-0.2-3.8-0.3-5.7"/>
						</g>
						<path class="st15" d="M366.2,323.4c0,0-27,3.1-33.2,3.2c-6.2,0.1-5.9-3.1-5.9-3.1c-0.3-6.8-1.5-23-2.8-28.5
							c-1.2-5.1-1.7-7-2.8-11.8c-2.3-10.8-2.2-12.8-4.7-26.2l16.1-13c0,0,1.7,5,8.4,5.1c9,0.1,11.9-6.2,11.9-6.2l22,14.6l2.1,35.6
							l-2.6,29.3"/>
						<g>
							<path class="st14" d="M350.7,226.1c-0.5,2.1-1.1,4.2-1.9,6.2c-1.4,3.7-3.5,5-7.5,5.1c-2.8,0.1-5.5,0.1-8.3,0.2
								c-2.1,0.1-4.8,0.1-6.5-1.4c-1.7-1.5-1.7-4-2.1-6c-0.5-2.6-0.9-5.2-1.2-7.9c-0.6-5.2-0.8-10.4-0.7-15.6c0-0.7,0-1.4,0.2-2.1
								c0.1-0.3,0.1-0.6,0.4-0.8c0.3-0.3,0.6-0.3,1-0.4c5.2-0.8,10.4-1.2,15.6-1c3.7,0.1,7.6,0.5,10.5,2.8c2.9,2.3,4.3,6,5.6,9.5
								c0.2,0.6,0.4,1.3-0.1,1.7"/>
						</g>
						<g>
							<g>
								<path class="st16" d="M271.4,448.6c0,0,1,6.1,1.8,8.2c0.8,2.1,7.7,0.2,8.1-1.2c0.5-1.3-2.2-11.3-2.2-11.3"/>
								<path class="st17" d="M283.7,457.3c0.6,2.2,1.3,6.6,1.3,6.6l-6.8,3l-1.1-1.1c0,0-1.7,2.1-3.8,3c-1.6,0.7-4.9,1.7-6.6,1.8
									c-6,0.6-13,0.1-13.4-0.7c-1.5-3.5,6.4-4.4,8-4.8c4.5-1.2,9.7-5.6,10.2-8.1c0.3-1.8-0.1-2.1,0.9-2.1c0,0,0.9,0,1.7,0.8
									c1.3,1.3,3.2,1.9,4.9,1.1c1-0.4,1.9-1.1,2.4-2C281.4,454.9,283.1,455.1,283.7,457.3z"/>
							</g>
							<g>
								<g>
									<path class="st18" d="M301.6,368.9c-10.7,2.1-24.1,2.3-34.9,0.8c1.5,4.3,5.2,9.9,6.6,16c4.7,20.1,6.3,47.2,7.5,63.9
										c0,0-2.2,4.3-9.4,1c-10.7-26.4-29.4-80.1-29.2-91.7c0.2-14.8,37.2-18.4,64.3-22"/>
								</g>
								<g>
									<path class="st19" d="M348.8,339.2c8.5,6.2-47.2,29.6-47.2,29.6c-6.2,1.2-12.2,1.8-18.3,1.7c-0.6-1.1-1.1-2.2-1.4-3.5
										c-0.3-1.6-0.2-3.3-0.4-4.9c-0.5-3.2-2.8-5.8-5.6-7.5c-2.7-1.7-5.9-2.4-9.1-3c-7.5-1.2-20.7-0.4-20.7-0.4
										c16.7-12.3,51-14,67-15C316.2,341.5,347.6,338.3,348.8,339.2z"/>
								</g>
							</g>
							<g>
								<path class="st16" d="M289.1,462.7c0,0-0.1,6.2,0.4,8.4c0.4,2.2,7.5,1.5,8.2,0.2c0.7-1.2-0.2-11.5-0.2-11.5"/>
								<path class="st17" d="M299.7,473.4c0.2,2.3,0.2,6.7,0.2,6.7l-7.3,1.7l-0.9-1.2c0,0-2,1.7-4.3,2.3c-1.7,0.4-5.1,0.8-6.8,0.7
									c-6-0.4-14.3-2.2-14.5-3c-0.9-3.7,7.1-3.2,8.7-3.3c4.7-0.4,12-3.8,12.9-6.2c0.7-1.7,0.3-2.1,1.3-1.9c0,0,0.9,0.1,1.5,1.1
									c1,1.5,2.8,2.4,4.6,2c1-0.3,2-0.7,2.7-1.6C297.8,470.6,299.5,471.1,299.7,473.4z"/>
							</g>
							<g>
								<path class="st18" d="M367.4,338c0,0-17,1.7-37.7,1.2c-4.8,0-41.3,6.8-44.8,13c-5.7,10.2,3.7,69.6,2.9,112.1
									c0,0,4.4,3.6,12.1,0.2c1.9-20.9,14.3-70.2,5.8-93.2c20.1,2.7,36.3,5.3,54.6-0.7c4.3-1.4,7.5-4.4,9.4-10
									C371.5,355.1,370.5,342.9,367.4,338z"/>
							</g>
						</g>
						<g>
							<path class="st15" d="M332.9,244c0,0-3.9,0.2-4.6,0.3c-3.2,0.3-6.5,0.7-9.5,1.8c-4.4,1.6-7.5,5.7-11,8.9
								c-3.4,3.1-21.2,20-24.5,20.6c-3.3,0.6-32.4-19.3-32.4-19.3l-7.1,7.1c0,0,31.6,29.2,41,29.2c4.6,0,29.8-13.3,37.9-18.4
								L332.9,244z"/>
							<path class="st20" d="M284.8,287.1c-6.5,0.4-36.3-22.4-39.7-25l-1.4,1.4c0,0,31.6,29.2,41,29.2c3.8,0,22-9.2,32.6-15.3
								l2.7-1.6l-1.6-9.8C318.3,266,291.6,286.7,284.8,287.1z"/>
						</g>
						<g>
							<path class="st20" d="M364.7,264.4c-3.6,16.3-4.2,29-5.3,40.6c-12.6,4.9-21.5,11.8-33.9,17.3c0,0-6-1.2-7.1,2.5
								c-0.6,2.1,10.9,1.3,10.9,1.3c11.5,0.1,42.3-5.8,44.3-6.4c2-0.6,8-39,8.2-59.8c0-3-0.1-6.2-1.9-8.5c-1-1.2-2.3-2-3.7-2.8
								c-8.1-4.1-14-5.2-23.1-5.8"/>
						</g>
						<g>
							<path class="st21" d="M331,323.4c-1.4-1.7-3.8-2-6-1.9c-1.6,0-3.2,0.2-4.8,0.4c-0.7,0.1-1.6,0.3-1.6,1.1
								c-0.1,0.8,3.5,0,5.4,0.5c-3.7,0.3-7.5,0.4-11.2,0.3c-0.4,0-0.9,0-1.3,0.1c-0.4,0.2-0.8,0.5-0.7,1c0,0.3,0.3,0.6,0.5,0.9
								c1,0.9,2.5,1.3,3.8,1.5c5.7,1,11.7,0.8,17-1.5"/>
						</g>
						<g>
							<path class="st15" d="M363.9,264.1c-0.3,17.4-1.5,25.4-1.2,42.8c-8.7,1.9-23.5,9.3-35.8,14.8c0,0,0.4,4.2,1.5,6.2
								c0.9,0.3,43.3-8.8,46.5-11.8c2.9-2.7,6.8-35.3,7-56.1c0-3-0.1-6.2-1.9-8.5c-1-1.2-2.3-2-3.7-2.8c-8.1-4.1-14-5.2-23.1-5.8"/>
						</g>
						<g>
							<path class="st11" d="M254.4,328.2h72.3l-13-42.3c-0.7-2.3-2.9-3.9-5.3-3.9h-63.3c-2.4,0-4.2,2.3-3.4,4.7L254.4,328.2z"/>
							<path class="st22" d="M253.5,328.2h71.2l-13-42.3c-0.7-2.3-2.9-3.9-5.3-3.9h-63.3c-2.4,0-4.2,2.3-3.4,4.7l12.4,40.5
								C252.3,327.7,252.9,328.2,253.5,328.2z"/>
							<path class="st11" d="M287.8,304.1c0.9,4.1-1.8,7.5-5.9,7.5c-4.1,0-8.2-3.4-9-7.5c-0.9-4.1,1.8-7.5,5.9-7.5
								S287,299.9,287.8,304.1z"/>
						</g>
					</g>
					<g>
						<path class="st23" d="M357.3,210.5c-0.2-1.5-0.4-2.9-0.8-4.3c-1-3.7-3.3-6.9-6.7-8.8c-4.4-2.4-10.3-2.8-15.1-1.5
							c-2.8,0.8-3.8,2.2-5.2,2.2c-1.1,0-2.5-0.8-3.9-1.3c-10.8-3.9-9,6.7-7.8,9.6c0.5,1.3,3,2.2,3.3,2.8c0.3,0.5,0.3,3.2,0.5,4.3
							c0.2,1.2,1.3,1.6,1.3,1.6s0.1-3.4,0.1-3.9c0.1-1.2,0.5-2.5,1.6-3.2c1.1-0.8,2.6-0.9,3.9-1.1c1.3-0.2,7.5,1,8,1.3
							c2,1.7,2.5,5.7,3.1,8c0.3,1.1,0.5,1.8,1,1.8c0.3-3.2,1.4-3.3,3.4-2.2c1,0.6,1.6,2.6,1.6,4.3c0,2-1.1,4.3-3.2,4.7
							c-0.8,0.2,1.5,4.5,2.6,5.6c0.4,0.4,0.7,0.7,1.1,1c0.4,0.2,0.9,0.4,1.3,0.5c0.5,0.1,1,0.3,1.5,0.4c0.7,0.2,1.4,0.4,2.1,0.2
							c1.1-0.3,1.7-1.5,2.3-2.6c0.8-1.8,1.8-3.5,2.5-5.3C357.4,220.5,357.8,215.3,357.3,210.5z"/>
					</g>
					<path class="st5" d="M338.9,214.7c-0.2-0.7-1.8-0.9-3.5-0.7c-1.7,0.2-6.1,0.8-7.1,1.5c-0.9,0.7-0.9,1.2-1.4,1.3
						c-0.5,0.1-0.5-0.4-1.6-0.9c-1.1-0.4-3.6-0.1-5.3,0.1c-1.7,0.2-3.3,0.6-3.2,1.3c0,0.7,0.3,2,0.7,2.2c0.3,0.2,0.3,0.2,1.6,3.1
						c0.7,1.6,1.9,2.6,4,2.1c2.8-0.6,2.9-3.6,3.2-4.9c0.2-1.3,0.4-1.5,0.8-1.5c0.4-0.1,0.7,0.1,1.2,1.3c0.5,1.2,0.9,3.9,3.7,4
						c3.7,0.2,5.3-1,5.8-3.3c0.7-3.1,0.5-3.1,0.8-3.4c0.1-0.1,1.9,0.1,1.9,0.1l0.2-0.6l0.2-0.4C341.1,215.9,338.9,214.9,338.9,214.7
						z M325.5,221c-0.1,1.6-0.9,3-2.7,3.3c-1.7,0.2-2.5-0.7-3.4-2.8c-0.8-1.8-0.8-3.3-0.5-3.8c0.3-0.5,1.2-0.5,3.3-0.6
						c2.1-0.1,2.8-0.2,3.1,0.7C325.4,218.2,325.5,219.5,325.5,221z M337.5,219.3c-0.4,2.3-1.2,3.4-3.5,3.6c-3.3,0.4-3.9-0.9-4.4-2.4
						c-0.5-1.5-0.6-2.8-0.6-3.1c0.1-1,0.8-1.1,2.9-1.5c2.1-0.4,4.8-0.9,5.3-0.4C337.5,215.9,337.8,217.3,337.5,219.3z"/>
				</g>
			</g>
			<g>
				<g>
					<g>
						<path class="st9" d="M61.6,476.5l43.9-104.9l-7-2.8l-40,106.5c-0.4,1.1-0.1,2.2,0.8,2.6C60.1,478.2,61.1,477.6,61.6,476.5z"/>
						<path class="st9" d="M129.1,475.8l2.1-113.7h-7.6l2.1,113.7c0,1.2,0.8,2.1,1.7,2.1C128.3,477.9,129,477,129.1,475.8z"/>
						<path class="st9" d="M195.3,476.5l-43.9-104.9l7-2.8l40,106.5c0.4,1.1,0.1,2.2-0.8,2.6C196.8,478.2,195.7,477.6,195.3,476.5z"
							/>
					</g>
					<g>
						<path class="st10" d="M97.3,372.1l4.5,1.8L60.4,477.7c0.5-0.2,0.9-0.7,1.1-1.2l43.9-104.9l-7-2.8L97.3,372.1z"/>
						<path class="st10" d="M123.7,365.1h5.6l-2.1,112.8c0.1,0,0.1,0,0.2,0c0.9,0,1.6-0.9,1.7-2.1l2.1-113.7h-7.6L123.7,365.1z"/>
						<path class="st10" d="M198.4,475.3l-40-106.5l-7,2.8l0.8,1.9l4.4-1.7l39.8,105.9c0.4,0.3,0.9,0.3,1.3,0.2
							C198.4,477.5,198.8,476.4,198.4,475.3z"/>
					</g>
				</g>
				<g>
					<g>
						<g>
							<g>
								<path class="st11" d="M177.6,371.4c-7.7,6.2-19,12-47.9,12.6c-38,0.7-57.9-3.6-68.7-23.2c-18-32.7,4.5-138.4,40.1-115
									c29.7,19.6,35.7,82.1,39.6,90.7C144.7,345.1,196.2,356.3,177.6,371.4z"/>
							</g>
						</g>
					</g>
				</g>
				<g>
					<g>
						<g>
							<linearGradient id="SVGID_5_" gradientUnits="userSpaceOnUse" x1="54.6535" y1="316.0158" x2="181.5979" y2="316.0158">
								<stop  offset="0" style="stop-color:#B4BCC5"/>
								<stop  offset="1" style="stop-color:#EDF1F2"/>
							</linearGradient>
							<path class="st24" d="M136.2,375.9c-38,0.7-57.9-3.6-68.7-23.2c-12.3-22.3-5.7-78.7,11-104.7C57.2,267.9,47.2,335.7,61,360.8
								c10.8,19.6,30.7,23.9,68.7,23.2c28.9-0.6,40.2-6.3,47.9-12.6c2.6-2.1,3.8-4.2,4-6.1C173.9,370.7,162.1,375.4,136.2,375.9z"/>
						</g>
					</g>
				</g>
			</g>
			<g>
				<path class="st25" d="M184.1,449.3c0.5,2.8-4.7,10.1,2.3,16.3c7,6.2,23,12.6,12.4,12.9c-10.6,0.2-20.7-2.2-26.1-4.9
					c-5.4-2.7-1.1-6.8-7.8-8.9c-8.8-2.8-8.7-3.3-4.4-12.9C166.3,438.5,182.5,440.4,184.1,449.3z"/>
				<path class="st25" d="M194.3,458.7c1.2,2.4,7.1,7.9,15.3,11.6c8.1,3.6,25.4,5.3,15.8,8.6c-9.6,3.2-20.8,1.3-26.4,0.4
					c-5.7-0.9-11.2-1-17.8-1.1c-8.8-0.1-8.9-0.6-7.7-10.5C175,453.8,190.3,451,194.3,458.7z"/>
				<path class="st16" d="M173.5,453.2l3.4,8.4c0,0,8.4,2.1,12.5-0.1c4-2.1,2.4-4,2.4-4l-3.5-12.4L173.5,453.2z"/>
				<path class="st19" d="M135.2,341c0,0,36.2,7.9,49.3,11.1c13.1,3.2,23.3,8.8,17.2,30.6c-6.1,21.9-16.3,61.9-16.3,61.9h-23.3
					l12.3-71.9l-68.3-8l-12.6-27.9L135.2,341z"/>
				<path class="st18" d="M81.9,341c1.6,11.3-1.8,24.3,15.8,29.3c17.5,5.1,44.8,5.5,44.8,5.5l27.4,82.1c0,0,7.6,1.1,17-1.7
					c3.8-1.2,5.2-6.1,5.2-6.1l-24.8-84c-1.9-6.6-7.2-11.6-13.8-13.3l-42-12.8L81.9,341z"/>
				<g>
					<path class="st15" d="M88.2,303.1c1.7,4.4,2.1,9.2,1.1,13.8c-2,9.1,0.3,9.8,0.3,9.8s12.4,7.9,22.7,11.1
						c7.4,2.3,13.7,1.9,13.5-6.2l0-0.1c0-0.5,0-1,0-1.4c-0.3-18.3,3.5-19.3,4.4-39.8c1-21-4.7-32.8-10.2-37.9
						c-5.6-5.1-13.2-5.3-27.5-1.9c-10.8,2.5-14.3,5.4-14.2,13.4c0,2.6,0.5,5.9,1.2,9.8C81.1,283.6,85.3,295.7,88.2,303.1z"/>
					<path class="st20" d="M88.2,303.1c1.7,4.4,2.1,9.2,1.1,13.8c-2,9.1,0.3,9.8,0.3,9.8s12.4,7.9,22.7,11.1l9.6-0.9l3.9-3l0-2.4
						c0-0.5,0-1,0-1.4c-2.2,0.2-7.2,0.5-14.5-0.4c-5.7-0.6-10.8-2.3-14.3-3.6c-2.5-0.9-4-3.5-3.5-6.2c0.6-3.6,1.4-8.8,1.3-12.8
						c0-4-1.9-10.9-3.4-15.8c-1.2-3.8-1.6-7.7-1.3-11.7c0.5-6.8,0-13.3,0-13.3l-7.6-4.1l-4.2,1.6c0,2.6,0.5,5.9,1.2,9.8
						C81.1,283.6,85.3,295.7,88.2,303.1z"/>
					<g>
						<path class="st26" d="M122.8,214.7c0,0,1,2.7-0.5,4.8l-5.9-8l4.1,0L122.8,214.7z"/>
						<path class="st14" d="M90.7,225.3c0.3,10.3,9.2,16.3,9.2,16.3l-0.6,9.4l6,3.9l4.1,2.7l2.4-4.9l0.3-6.1
							c0.1-1.4,1.1-2.6,2.5-2.9c1.5-0.3,3.7-1.2,5.9-3.5c0.1-0.1,0.3-0.3,0.4-0.5c0,0,0,0,0,0c3.9-5.3,5.4-25.7-8-31.4
							C99.1,202.2,90.5,214.9,90.7,225.3z"/>
						<path class="st16" d="M105.7,249.2l-0.4,5.6l4.1,2.7l2.4-4.9l0.3-6.1c0.1-1.4,1.1-2.6,2.5-2.9c1.5-0.3,3.7-1.2,5.9-3.5
							c0.1-0.1,0.3-0.3,0.4-0.5c-0.3,0.2-3.5,2-8.4,2.6C108.8,242.6,106,245.6,105.7,249.2z"/>
						<path class="st23" d="M105.1,228.4c-0.5,0.2-1-0.6-1-0.6s-2.9-6.5-3.9-7.5c-1.8-1.8-6-1.6-6.3,3.9c-0.3,4.3,4.8,13.5,6.4,16.2
							c0.2,0.4,0.1,1-0.3,1.3c-0.2,0.1-0.4,0.2-0.6,0.2h-0.1c-0.2,0-0.5-0.1-0.7-0.2c-3.3-2.9-17.8-16.8-6.3-29.9
							c0,0,9.2,0.6,10.6,5c1.4,4.4,2.4,10.4,2.4,10.4S105.7,228.2,105.1,228.4z"/>
						<path class="st23" d="M122.8,214.7c0,0-8-6.2-20.2,1.4l-10-2.5c0,0-0.4-0.1-0.2-1.6c0.2-1.5,1.3-16.1,18.8-12.9
							C121.3,200.9,127.4,207.9,122.8,214.7z"/>
					</g>
					<path class="st20" d="M99.4,246.6c0,0-1.4,0.8-2.9,3c0,0,2,0.9,3.7,1.9c1.6,1,9.2,6.3,9.2,6.3l2.2-4.6
						C111.6,253.2,103.7,247.8,99.4,246.6z"/>
					<path class="st20" d="M111.6,253.2c0,0,2.7,0.9,3.5,2.9c0,0,1.4-2.6-0.4-7.2c0,0-1.5-1.4-2.6-1.9L111.6,253.2z"/>
					<path class="st27" d="M90.5,335.5c0,0,1.4,1.8,1.8,2c0.4,0.2,0.5-0.3,0.3-0.6C92.5,336.6,90.6,335.1,90.5,335.5z"/>
					<path class="st26" d="M99.5,242L99.5,242c-0.3,0-0.5-0.1-0.7-0.2c-3.3-2.9-17.8-16.8-6.3-29.9c0,0-0.6,2.3-0.3,4.2
						C92.1,216,84.8,227.9,99.5,242z"/>
					<path class="st14" d="M67.2,289.8c0,0-7.7,35.5-4.1,38.2c3.6,2.7,44.8,3.1,48.6,3.7c3.8,0.6,19.5,3.2,27.5-3.9
						c1-0.9-4.9-0.5-6.3-3.6c-1.4-3.1,0.7-2.7,0-4c-2.8-5-19.1,1.1-19.1,1.1s-26.6-4.6-34.3-2.4c4.6-5.6,5.7-26.5,5.7-26.5
						L67.2,289.8z"/>
					<path class="st20" d="M65.1,291.6c0,0,5.2-32.5,15-36.9c9.8-4.4,16.8,9.7,13.2,24.1c-3.6,14.4-4.6,19.7-4.6,19.7
						S74,300,65.1,291.6z"/>
				</g>
			</g>
			<g>
				<g>
					<polygon class="st28" points="60.2,493.7 53.2,493.7 58.7,333.1 72.7,333.1 					"/>
					<polygon class="st28" points="469.1,493.7 476.1,493.7 470.5,333.1 456.5,333.1 					"/>
					<path class="st28" d="M487.1,340.2h-445c-1.7,0-3.1-1.4-3.1-3.1V330c0-1.7,1.4-3.1,3.1-3.1h445c1.7,0,3.1,1.4,3.1,3.1v7.1
						C490.2,338.8,488.8,340.2,487.1,340.2z"/>
				</g>
				<path class="st29" d="M470.6,335.8h-13.9H72.5H58.6H39.3c0.7,2.5,3,4.4,5.8,4.4h13.4L58,353h13.1l1-12.8h384.9l1,12.8h13.1
					l-0.4-12.8h13.4c2.8,0,5.1-1.9,5.8-4.4H470.6z"/>
			</g>
			<g>
				<path class="st22" d="M89.3,327h101.2v-2.8H90.5c-0.6,0-1.2,0.5-1.2,1.2V327z"/>
				<g>
					<path class="st11" d="M123.7,327h68.4l6.6-41.9c0.3-2.1-1.1-3.9-3.2-3.9h-60.7c-2.1,0-4.1,1.7-4.5,3.9L123.7,327z"/>
					<path class="st22" d="M134.8,281.2h1.9c-2.1,0-4.1,1.7-4.5,3.9l-6.6,41.9h-1.9l6.6-41.9C130.7,282.9,132.7,281.2,134.8,281.2z"
						/>
					<path class="st22" d="M154.1,304.1c-0.7,4.1,2.2,7.5,6.3,7.5s8-3.4,8.6-7.5c0.7-4.1-2.2-7.5-6.3-7.5
						C158.6,296.6,154.8,299.9,154.1,304.1z"/>
				</g>
			</g>
			<g>
				<g>
					<polygon class="st14" points="449.1,462.8 450.4,470.7 456.5,470.7 459.1,470.3 457.2,458 					"/>
					<path id="XMLID_39_" class="st18" d="M458,460.6c-0.6,0.3-1.2,0.5-1.8,0.7c-3.3,1.1-7.8,1.7-7.8,1.7
						c-7.2-11.8-25.9-69.5-25.9-69.5c-1.7-7.3,9.2,2,13.8,1.8c1.6-0.1,3.1,0.1,4.2,0.6c4.4,1.8,10.7,14.2,10.7,14.2s1.9,4.3,4,13.1
						C457.1,431.9,458,460.6,458,460.6z"/>
					<path id="XMLID_38_" class="st30" d="M458,460.6c-0.6,0.3-1.2,0.5-1.8,0.7c-0.5-3.5-1.1-9.1-2.1-18c-2.2-20-14.9-42.9-17.9-48
						c1.6-0.1,3.1,0.1,4.2,0.6c4.4,1.8,10.7,14.2,10.7,14.2s1.9,4.3,4,13.1C457.1,431.9,458,460.6,458,460.6z"/>
					<path id="XMLID_37_" class="st5" d="M450,469.6c0,0,2.6,0,4.6-0.7c2.4-0.9,3.9-2.5,3.9-2.5s6.4,3.9,6.4,10.9
						c0,0.4-0.2,0.7-0.6,0.8c0,0-15.4,6.8-20.6,8.7c-3.2,1.1-8.5,2.2-8.5,2.2c-0.4,0.1-0.8-0.1-0.9-0.4c-0.3-0.7-0.4-2,1.2-3.2
						c2.4-1.8,5-3.3,6.8-4.8c1.8-1.5,3.7-5.7,5.1-6.9C449.2,472.3,450,469.6,450,469.6z"/>
				</g>
				<g>
					<g>
						<path class="st10" d="M408.5,490.5l46.3-110.7l-7.4-2.9l-42.2,112.3c-0.4,1.1-0.1,2.3,0.8,2.7
							C407,492.2,408.1,491.6,408.5,490.5z"/>
						<path class="st10" d="M481.9,504.5l2.2-119.9h-8l2.2,119.9c0,1.2,0.8,2.2,1.7,2.2C481,506.7,481.8,505.7,481.9,504.5z"/>
						<path class="st10" d="M551.7,490.5l-46.3-110.7l7.4-2.9l42.2,112.3c0.4,1.1,0.1,2.3-0.8,2.7
							C553.3,492.2,552.2,491.6,551.7,490.5z"/>
					</g>
					<g>
						<path class="st9" d="M446.2,380.3l4.7,1.9l-43.6,109.6c0.5-0.2,0.9-0.7,1.2-1.3l46.3-110.7l-7.4-2.9L446.2,380.3z"/>
						<path class="st9" d="M476.2,387.7h5.9l-2.2,119c0.1,0,0.1,0,0.2,0c0.9,0,1.7-1,1.7-2.2l2.2-119.9h-8L476.2,387.7z"/>
						<path class="st9" d="M554.9,489.2l-42.2-112.3l-7.4,2.9l0.9,2l4.6-1.8l41.9,111.7c0.5,0.3,1,0.4,1.4,0.2
							C555,491.5,555.4,490.3,554.9,489.2z"/>
					</g>
				</g>
				<g>
					<path id="XMLID_36_" class="st11" d="M423.9,323.7h-73.3l-14.5-45.6c-0.7-2.3,1-4.6,3.4-4.6h65.8c1.6,0,2.9,1,3.4,2.5
						L423.9,323.7z"/>
					<path id="XMLID_35_" class="st5" d="M422.7,323.7h-70.2l-14.4-44.8c-0.7-2.3,1-4.6,3.4-4.6h62.8c1.5,0,2.9,1,3.4,2.4
						L422.7,323.7z"/>
					<path id="XMLID_34_" class="st31" d="M378.7,282.8h-32c-0.5,0-0.9-0.4-0.9-0.9l0,0c0-0.5,0.4-0.9,0.9-0.9h32
						c0.5,0,0.9,0.4,0.9,0.9l0,0C379.5,282.5,379.2,282.8,378.7,282.8z"/>
					<path id="XMLID_33_" class="st31" d="M383.6,286.8H348c-0.5,0-0.9-0.4-0.9-0.9l0,0c0-0.5,0.4-0.9,0.9-0.9h35.7
						c0.5,0,0.9,0.4,0.9,0.9l0,0C384.5,286.4,384.1,286.8,383.6,286.8z"/>
					<path id="XMLID_32_" class="st31" d="M380.3,290.8h-31.1c-0.5,0-0.9-0.4-0.9-0.9l0,0c0-0.5,0.4-0.9,0.9-0.9h31.1
						c0.5,0,0.9,0.4,0.9,0.9l0,0C381.2,290.4,380.8,290.8,380.3,290.8z"/>
					<path id="XMLID_31_" class="st31" d="M375.1,294.8h-24.6c-0.5,0-0.9-0.4-0.9-0.9l0,0c0-0.5,0.4-0.9,0.9-0.9h24.6
						c0.5,0,0.9,0.4,0.9,0.9l0,0C376,294.4,375.6,294.8,375.1,294.8z"/>
					<path id="XMLID_30_" class="st31" d="M387.5,298.8h-35.7c-0.5,0-0.9-0.4-0.9-0.9l0,0c0-0.5,0.4-0.9,0.9-0.9h35.7
						c0.5,0,0.9,0.4,0.9,0.9l0,0C388.4,298.4,388,298.8,387.5,298.8z"/>
					<path id="XMLID_29_" class="st31" d="M384.2,302.8h-31.1c-0.5,0-0.9-0.4-0.9-0.9l0,0c0-0.5,0.4-0.9,0.9-0.9h31.1
						c0.5,0,0.9,0.4,0.9,0.9l0,0C385,302.4,384.6,302.8,384.2,302.8z"/>
					<path id="XMLID_28_" class="st31" d="M391.3,310.8h-35.7c-0.5,0-0.9-0.4-0.9-0.9l0,0c0-0.5,0.4-0.9,0.9-0.9h35.7
						c0.5,0,0.9,0.4,0.9,0.9l0,0C392.2,310.4,391.8,310.8,391.3,310.8z"/>
					<path id="XMLID_27_" class="st31" d="M392.6,314.7H357c-0.5,0-0.9-0.4-0.9-0.9l0,0c0-0.5,0.4-0.9,0.9-0.9h35.7
						c0.5,0,0.9,0.4,0.9,0.9l0,0C393.5,314.4,393.1,314.7,392.6,314.7z"/>
					<path id="XMLID_26_" class="st31" d="M411.6,314.7h-11.5c-1.1,0-2-0.7-2.3-1.7l-9.6-30.4c-0.5-1.6,0.7-3.2,2.3-3.2H402
						c1.1,0,2,0.7,2.3,1.7l9.6,30.4C414.4,313.1,413.2,314.7,411.6,314.7z"/>
					<path id="XMLID_25_" class="st11" d="M430.1,327h-79.7c-1.3,0-2.4-1.1-2.4-2.4l0,0c0-1.3,1.1-2.4,2.4-2.4h79.7
						c1.3,0,2.4,1.1,2.4,2.4l0,0C432.4,326,431.4,327,430.1,327z"/>
					<g id="XMLID_21_">
						<path id="XMLID_22_" class="st5" d="M453.1,264c-0.7,0-1.4-0.4-1.7-1l-2.7-4.7c-0.3-0.5-0.3-1-0.2-1.5c0.2-0.5,0.5-1,1-1.2
							l7.4-3.9c1-0.5,2.2-0.1,2.7,0.8l2.5,4.6c0.3,0.5,0.3,1,0.2,1.5c-0.2,0.5-0.5,0.9-1,1.2l-7.3,3.9
							C453.7,263.9,453.4,264,453.1,264z M457.8,252.4c-0.2,0-0.3,0-0.5,0.1l-7.4,3.9c-0.3,0.1-0.4,0.4-0.5,0.6
							c-0.1,0.3,0,0.6,0.1,0.8v0l2.7,4.7c0.3,0.5,0.9,0.7,1.4,0.4l7.2-3.9c0.3-0.1,0.4-0.4,0.5-0.6c0.1-0.3,0.1-0.6-0.1-0.8
							l-2.5-4.6C458.5,252.6,458.2,252.4,457.8,252.4z"/>
					</g>
					<path id="XMLID_20_" class="st14" d="M422.8,312.2c-0.5,0.7-0.9,1.1-0.9,1.1s-3.9-2.9-4.9-3.2c-1.1-0.3-3.4,0.6-4.7,0.7
						c-1.3,0.1-1.4-0.7-1.4-0.7s-5,2.1-5.8,2.3c-0.8,0.2-1.3-0.1-0.8-1.3c0.1-0.3,0.4-0.7,0.9-1.3l0,0c1.7-1.9,5.2-5,6.5-5.6
						c1.6-0.8,3.8-1.9,5.6-1.2c1.8,0.7,7.5,4.9,7.5,4.9C424.8,309.3,423.7,311.1,422.8,312.2z"/>
					<path id="XMLID_19_" class="st16" d="M424,308.1l-1.2,4.1c-0.5,0.7-0.9,1.1-0.9,1.1s-3.9-2.9-4.9-3.2c-1.1-0.3-3.4,0.6-4.7,0.7
						c-1.3,0.1-1.4-0.7-1.4-0.7s-5,2.1-5.8,2.3c-0.8,0.2-1.3-0.1-0.8-1.3c0.1-0.3,0.4-0.7,0.9-1.3c-0.4,0.6-0.9,1.2-0.6,1.9
						c0.3,0.9,5.7-1.6,9.6-4c0.1,0,0.4-0.2,0.5,0c0.1,0.1-0.2,0.4-0.2,0.4c-0.6,0.7-3.9,0.9-3.2,2c0.9,1.5,4.3-1.2,6.1-0.6
						c1.8,0.6,4.1,2.3,4.1,2.3S422.3,308.6,424,308.1z"/>
					<path id="XMLID_18_" class="st20" d="M421.3,313.3c0,0,19,16.6,33.2,18.3c14.2,1.7,38.1-25.2,38.1-25.2s-1.5-14.3-10.4-12.7
						c-8.8,1.7-20.7,23-25.8,24c-5.1,1-31.9-10.3-31.9-10.3s-0.8,0.5-1.7,2C421.9,311,421.3,313.3,421.3,313.3z"/>
					<path id="XMLID_17_" class="st14" d="M485.8,231.6c-5.2-5.9-12.9-6.6-18.8-5.9c-7.8,0.9-14.5,6.1-16.8,13.6
						c-1,3.2-1.2,7,0.4,11.2c4.8,13.3,9.9,21.9,14.6,24.4c1.8,1,5.2,0.3,8.9-1c0.5-0.2,1,0,1.3,0.5l1.6,2.9l13.7-3
						c0,0-1.8-3.8-2.7-7.8C489.9,264,495.3,242.4,485.8,231.6z"/>
					<path id="XMLID_16_" class="st32" d="M458.2,250.6c1.7-0.1,3.3,0.8,4,2.3c1.1,2.7,2.9,6.4,4.2,7.6c0.3,0.2,0.9,0.3,1.5,0
						c0.6-0.3,0.7-0.8,0.7-1.2c-0.1-1.2-1-3.7-1.6-5.3c-0.8-2.1,0.1-4.4,2.7-5c0.5-0.1,1.6,0,2.2,0.1c4,1.2,1.3,7.6,1.2,10.9
						c-0.1,2.3,2.7,7.7,4,8.2c4.1,1.6,10.2,0.2,13.5-3.9c3.3-4,4-17.5,2.2-25.5c-1.8-8.1-8.2-12.6-10.4-13.1
						c-1.1-0.3-1.9-0.3-2.5-0.2c-0.6,0.1-1.3-0.2-1.8-0.6c-2.1-1.9-8.6-6.1-18.7-1.8c-12.7,5.5-14.8,17.1-14.6,22.4
						c0.1,3.4,2.9,3.2,4.7,2.6c1-0.3,2.2-0.1,3,0.6C453.6,249.9,455.4,250.8,458.2,250.6z"/>
					<path id="XMLID_15_" class="st20" d="M476.5,279.4c0,0-1.2-1.3-0.7-2.1c0.6-1,6.5-5.7,13.5-5.5c1.1,0,2.4,0,3.7,2.9
						c1.3,2.8,1.6,4.7,1.6,4.7H476.5z"/>
					<path id="XMLID_14_" class="st15" d="M503.2,394.1c-0.4,0.1-0.9,0.2-1.4,0.3c-5.9,1.1-15.6,1.2-15.6,1.2
						c-19-0.3-28.7-18.1-31.7-23.4c-1.1-1.9-1.5-3.1-1.5-3.1c1.1-0.6,14-7.6,13.3-31.4c-0.1-4.9-0.1-16-2.5-20.3
						c-1.4-2.4-5.4-7.1-7.9-12.2c-2.1-4.1-3.1-8.5-0.9-11.8c5.6-8.2,14.4-12.6,14.4-12.6s16.2-6.5,30-5c8.8,0.9,16.5,5,18.6,16.1
						C523.4,320.5,503.2,394.1,503.2,394.1z"/>
					<path id="XMLID_13_" class="st20" d="M471.6,331.6c2.4,23.4-13.6,38.2-17.1,40.7c-1.1-1.9-1.5-3.1-1.5-3.1
						c1.1-0.6,13.2-11.1,13.3-31.4c0-4.9-0.1-16-2.5-20.3c-1.4-2.4-5.4-7.1-7.9-12.2l1.1-0.4l6.5-1.1l3.3,2.7
						C466.7,306.6,470,316.4,471.6,331.6z"/>
					<path id="XMLID_12_" class="st20" d="M503.2,394.1c-0.4,0.1-0.9,0.2-1.4,0.3c1.2-6.4,8.9-46.6,11.4-61.1
						c4.9-28.8-0.2-43.3-3.1-48.6c-2.3-4.2-6.9-6.5-10.7-8.7c8.8,0.9,16.5,5,18.6,16.1C523.4,320.5,503.2,394.1,503.2,394.1z"/>
					<path id="XMLID_11_" class="st14" d="M409.8,479.9c0,0-2,0.9-4.5,0.9c-2.8,0-3.6-1-3.6-1v-6.4l9.2-1.2L409.8,479.9z"/>
					<path id="XMLID_10_" class="st18" d="M482.1,390.8c-0.1,4.1-1.2,10.8-7.4,12.6c-9.3,2.8-16.1,1.2-26.8-0.7
						c-9-1.5-32.7-6.6-37-8.3c-0.6-0.2-1.1,0.3-1,0.9c2.1,10,3.7,14.4,5,29.4c1.1,12.7-3.7,48.5-3.7,48.5s-1.5,0.5-3.1,0.7
						c-0.6,0.1-1.2,0.2-1.8,0.2c-2.3,0-5.1-0.4-5.1-0.4s-9.6-52.8-10.9-74.2c-1.3-21.4,0.7-23.1,10.5-27.7
						c9.7-4.5,53.2-2.9,53.2-2.9l0,0c0.1,0.4,2.6,7.1,9.8,13.1C467.9,385.7,473.9,389.1,482.1,390.8z"/>
					<g>
						<path class="st19" d="M455.7,372.7c-1.2-2.1-1.7-3.5-1.8-3.7l0,0c0,0-0.5,0-1.4,0C453.4,370.2,454.4,371.4,455.7,372.7z"/>
						<path class="st30" d="M476.1,389.1c-0.9,3.1-2.8,6.2-6.7,7.4c-9.3,2.8-16.1,1.2-26.8-0.7c-9-1.5-32.7-6.6-37-8.3
							c-0.6-0.2-1.1,0.3-1,0.9c2.1,10,3.7,14.4,5,29.4c0.9,9.9,0.5,42,0.3,55.7c0.7-0.2,1.3-0.3,1.3-0.3s4.9-35.8,3.7-48.5
							c-1.3-15.1-3-19.4-5-29.4c-0.1-0.6,0.4-1.1,1-0.9c4.4,1.7,28,6.8,37,8.3c10.7,1.9,17.6,3.4,26.8,0.7c6.2-1.9,7.3-8.5,7.4-12.6
							C480,390.4,478,389.8,476.1,389.1z"/>
					</g>
					<path id="XMLID_9_" class="st5" d="M401.5,478.9c0,0,2.4,0.9,4.6,0.9c2.6,0,4.5-0.9,4.5-0.9s4.6,5.9,2.2,12.5
						c-0.1,0.3-0.5,0.6-0.8,0.6h-31.1c-0.4,0-0.7-0.3-0.7-0.7c0-0.8,0.3-2,2.2-2.6c2.9-0.9,5.8-1.4,8.1-2.2c2.2-0.8,5.4-4,7.2-4.7
						C399.8,481.1,401.5,478.9,401.5,478.9z"/>
					<path id="XMLID_8_" class="st14" d="M387.4,323c0,0-2.8-0.7-4.2-1c-0.6-0.1-1.1-0.2-1.5-0.2c-0.6-0.1-1.2,0-1.8,0.1l-14.9,2.1
						c-0.4,0.1-0.8-0.2-0.9-0.7c-0.1-0.6,0.1-1.2,0.6-1.5l1.5-1.3l4.3-3.7c2.2-1.8,3.9-2.2,6.7-2.3c0.5,0,2.7,0.5,3.1,0.6
						c2.9,0.5,3.6,0.9,5.5,1.3c0.8,0.2,1.3,0.2,1.6,0.3c0.5,0,0.6,0,0.6,0C389,320.2,387.4,323,387.4,323z"/>
					<path id="XMLID_7_" class="st33" d="M410.1,324.5C410,324.5,410,324.5,410.1,324.5c-0.5-0.1-2.8-1.1-4.1-1.5
						c-0.5-0.2-0.9-0.3-1.3-0.4c-0.5-0.1-1.5-0.2-2-0.2h-14.9c-0.5,0-0.9-0.4-0.9-0.8c0-0.6,0.3-1.1,0.8-1.4l1.6-1
						c-1.5,1.2-1.8,2-1,2.1c0.6,0.1,2.1-0.1,5.7-1.1c0.1,0,0.1,0.1,0,0.2c-0.8,0.5-0.5,1.6,0.5,1.5c0.6,0,3.2-0.2,3.8-0.2
						c2.3-0.1,5.7-0.4,6.4-0.2c1.3,0.2,2.3,0.6,3.3,1.1c0.6,0.3,1.3-0.4,1.5-1.1c0.3-1,0.8-2.3,1.3-3.3c0.5,0.1,0.6,0.1,0.6,0.1
						C412,321.7,410.3,324.1,410.1,324.5z"/>
					<path id="XMLID_4_" class="st15" d="M468.8,288.7c-2-1.2-7.9-4.5-15.6,7.5c-7.7,12-13.8,20.9-16.5,22.5
						c-2.7,1.6-9.3,0.5-11.7,0.5s-37.2-2.7-37.2-2.7s-1.7,3.6-2,6.7c0,0,31.9,8.4,51.7,8.4c19.8,0.1,34.8-29.8,35.5-33.4
						C473.8,294.5,473.5,291.6,468.8,288.7z"/>
					<g id="XMLID_2_">
						<path id="XMLID_3_" class="st5" d="M449.7,260.8c-0.2,0-0.3-0.1-0.4-0.3c-0.1-0.2,0-0.5,0.2-0.6l17.2-8.8c1.9-1,5.9-3,8.9,1.3
							c0.1,0.2,0.1,0.5-0.1,0.6c-0.2,0.1-0.5,0.1-0.6-0.1c-2.3-3.4-5-2.4-7.6-1l-17.2,8.8C449.9,260.8,449.8,260.8,449.7,260.8z"/>
					</g>
					<path id="XMLID_1_" class="st14" d="M467,252.3l2.1,6.6c0,0,1.6,1.6,3.2-0.2c1.6-1.8,2.9-8,0.1-9
						C469.4,248.6,467.7,250.1,467,252.3z"/>
				</g>
				<g>
					<g>
						<g>
							<path class="st11" d="M544.9,348.1c0-33.4-0.8-56.9-21.9-60.5c-28.8-4.8-51.3,20.1-46.7,67.9c2.6,27.4-8.6,36.8-18.1,42.1
								c-6.2,3.5-18.1,2.7-18.1,2.7s-5.5-0.7-9.3-1c2.3,1.1,51.6,25.4,86.8,7.4C548.7,390.8,544.9,367.7,544.9,348.1z"/>
						</g>
					</g>
				</g>
				<g>
					<g>
						<g>
							<linearGradient id="SVGID_6_" gradientUnits="userSpaceOnUse" x1="487.876" y1="413.268" x2="487.876" y2="287.1912">
								<stop  offset="0" style="stop-color:#B4BCC5"/>
								<stop  offset="1" style="stop-color:#EDF1F2"/>
							</linearGradient>
							<path class="st34" d="M544.9,348.1c0-33.4-0.8-56.9-21.9-60.5c-1-0.2-2-0.3-3-0.4c-23.1,2.3-38.2,26.6-34.2,68.3
								c2.6,27.4-8.6,36.8-18.1,42.1c-6.2,3.5-18.1,2.7-18.1,2.7s-0.3-0.1-0.8-0.2c-4.6,0.5-8.7,0.2-8.7,0.2s-5.5-0.7-9.3-1
								c2.3,1.1,51.6,25.4,86.8,7.4C548.7,390.8,544.9,367.7,544.9,348.1z"/>
						</g>
					</g>
				</g>
			</g>
		</g>
	</g>
	<g>
		<g>
			<path class="st35" d="M271.7,119.1c-0.7,0.1-1.3,0.2-2,0.3"/>
			<path class="st36" d="M266.7,119.9c-67.8,12.5-86.7,72.3-95.9,152.2"/>
			<path class="st35" d="M170.7,273.6c-0.1,0.7-0.1,1.3-0.2,2"/>
		</g>
	</g>
	<g>
		<g>
			<path class="st35" d="M274.4,98.7c-0.7,0.1-1.3,0.2-2,0.3"/>
			<path class="st37" d="M269.5,99.5C191,113.2,173.4,183,163,272.2"/>
			<path class="st35" d="M162.8,273.6c-0.1,0.7-0.2,1.3-0.2,2"/>
		</g>
	</g>
	<path class="st38" d="M274.4,98.7"/>
</g>
</svg>
