<?xml version="1.0" encoding="utf-8"?>
<!-- Generator: Adobe Illustrator 19.2.0, SVG Export Plug-In . SVG Version: 6.00 Build 0)  -->
<svg version="1.1" id="Lager_1" xmlns="http://www.w3.org/2000/svg" xmlns:xlink="http://www.w3.org/1999/xlink" x="0px" y="0px"
	 viewBox="0 0 409 335" style="enable-background:new 0 0 409 335;" xml:space="preserve">
<style type="text/css">
	.st0{display:none;}
	.st1{display:inline;fill:#B8D5FF;}
	.st2{fill:url(#SVGID_1_);}
	.st3{fill:url(#SVGID_2_);}
	.st4{fill:url(#SVGID_3_);}
	.st5{fill:#FFFFFF;}
	.st6{opacity:0.2;fill:#283848;}
	.st7{fill:#283848;}
	.st8{fill:none;stroke:#283848;stroke-miterlimit:10;}
	.st9{opacity:0.3;fill:#B5D4B7;}
	.st10{fill:#8DA58F;}
	.st11{fill:#1A2631;}
	.st12{fill:#B5D4B7;}
	.st13{fill:#FC3535;}
	.st14{fill:#B2312C;}
	.st15{opacity:0.62;}
	.st16{opacity:0.26;}
	.st17{opacity:0.31;}
	.st18{fill:none;stroke:#FFFFFF;stroke-width:1.0545;stroke-linecap:round;stroke-linejoin:round;stroke-miterlimit:10;}
	.st19{fill:#4C4051;}
	.st20{fill:#FFE1BD;}
	.st21{fill:#492107;}
	.st22{fill:#594A5F;}
	.st23{fill:#E6991D;}
	.st24{fill:#FFC04D;}
	.st25{fill:#E8C5A0;}
	.st26{fill:#B4BCC5;}
	.st27{fill:#E8F1F8;}
	.st28{fill:#EDF1F2;}
	.st29{fill:#703412;}
	.st30{fill:#4C2E1E;}
	.st31{fill:#8C3200;}
	.st32{fill:#3A3A3A;}
	.st33{display:none;fill:#2672E7;}
	.st34{display:inline;}
	.st35{fill:#3A4C9F;}
	.st36{display:inline;fill:#FFFFFF;}
	.st37{font-family:'Poppins-Bold';}
	.st38{font-size:7.6975px;}
	.st39{fill:#FF6066;}
	.st40{display:none;fill:#FFFFFF;}
	.st41{font-size:8.273px;}
	.st42{fill:#39202E;}
	.st43{fill:url(#SVGID_6_);}
	.st44{font-family:'Montserrat-Black';}
	.st45{font-size:7.8368px;}
	.st46{fill:url(#SVGID_7_);}
	.st47{fill:url(#SVGID_8_);}
	.st48{fill:url(#SVGID_9_);}
	.st49{fill:none;stroke:#FC3535;stroke-miterlimit:10;}
	.st50{fill:#2672E7;}
	.st51{font-family:'Poppins-Regular';}
	.st52{font-size:0.5397px;}
	.st53{display:inline;fill:#2672E7;}
	.st54{fill:#FFCC99;}
	.st55{opacity:0.3;}
	.st56{fill:url(#SVGID_10_);}
	.st57{fill:url(#SVGID_11_);}
</style>
<g class="st0">
	<circle class="st1" cx="354" cy="119.4" r="3.9"/>
	<circle class="st1" cx="300.1" cy="112.1" r="3.9"/>
	<circle class="st1" cx="37.6" cy="105.5" r="3.9"/>
	<circle class="st1" cx="-13.4" cy="67.2" r="3.9"/>
	<circle class="st1" cx="339.4" cy="300.5" r="3.9"/>
	<circle class="st1" cx="-64.2" cy="304.6" r="3.9"/>
	<circle class="st1" cx="120.8" cy="194.8" r="3.9"/>
	<circle class="st1" cx="-55.6" cy="149.5" r="3.9"/>
	<circle class="st1" cx="82.6" cy="24.9" r="3.9"/>
	<circle class="st1" cx="351.2" cy="24.3" r="3.9"/>
	<path class="st1" d="M233.6,34.4h-2.8v-2.8c0-0.5-0.4-0.8-0.8-0.8s-0.8,0.4-0.8,0.8v2.8h-2.8c-0.5,0-0.8,0.4-0.8,0.8
		c0,0.5,0.4,0.8,0.8,0.8h2.8v2.8c0,0.5,0.4,0.8,0.8,0.8s0.8-0.4,0.8-0.8V36h2.8c0.5,0,0.8-0.4,0.8-0.8
		C234.4,34.8,234.1,34.4,233.6,34.4z"/>
	<path class="st1" d="M132.2,10.9h-2.8V8.1c0-0.5-0.4-0.8-0.8-0.8c-0.5,0-0.8,0.4-0.8,0.8v2.8h-2.8c-0.5,0-0.8,0.4-0.8,0.8
		c0,0.5,0.4,0.8,0.8,0.8h2.8v2.8c0,0.5,0.4,0.8,0.8,0.8c0.5,0,0.8-0.4,0.8-0.8v-2.8h2.8c0.5,0,0.8-0.4,0.8-0.8
		C133,11.3,132.6,10.9,132.2,10.9z"/>
	<path class="st1" d="M29.7,38.9h-2.8V36c0-0.5-0.4-0.8-0.8-0.8c-0.5,0-0.8,0.4-0.8,0.8v2.8h-2.8c-0.5,0-0.8,0.4-0.8,0.8
		c0,0.5,0.4,0.8,0.8,0.8h2.8v2.8c0,0.5,0.4,0.8,0.8,0.8c0.5,0,0.8-0.4,0.8-0.8v-2.8h2.8c0.5,0,0.8-0.4,0.8-0.8
		C30.5,39.3,30.2,38.9,29.7,38.9z"/>
	<path class="st1" d="M81.1,120.2h-2.8v-2.8c0-0.5-0.4-0.8-0.8-0.8c-0.5,0-0.8,0.4-0.8,0.8v2.8h-2.8c-0.5,0-0.8,0.4-0.8,0.8
		c0,0.5,0.4,0.8,0.8,0.8h2.8v2.8c0,0.5,0.4,0.8,0.8,0.8c0.5,0,0.8-0.4,0.8-0.8v-2.8h2.8c0.5,0,0.8-0.4,0.8-0.8
		C81.9,120.6,81.6,120.2,81.1,120.2z"/>
	<path class="st1" d="M32.6,252.9h-2.8V250c0-0.5-0.4-0.8-0.8-0.8s-0.8,0.4-0.8,0.8v2.8h-2.8c-0.5,0-0.8,0.4-0.8,0.8
		c0,0.5,0.4,0.8,0.8,0.8h2.8v2.8c0,0.5,0.4,0.8,0.8,0.8s0.8-0.4,0.8-0.8v-2.8h2.8c0.5,0,0.8-0.4,0.8-0.8
		C33.4,253.2,33,252.9,32.6,252.9z"/>
	<path class="st1" d="M354.8,252.9H352V250c0-0.5-0.4-0.8-0.8-0.8c-0.5,0-0.8,0.4-0.8,0.8v2.8h-2.8c-0.5,0-0.8,0.4-0.8,0.8
		c0,0.5,0.4,0.8,0.8,0.8h2.8v2.8c0,0.5,0.4,0.8,0.8,0.8c0.5,0,0.8-0.4,0.8-0.8v-2.8h2.8c0.5,0,0.8-0.4,0.8-0.8
		C355.7,253.2,355.3,252.9,354.8,252.9z"/>
	<path class="st1" d="M52.5,206.2h-2.8v-2.8c0-0.5-0.4-0.8-0.8-0.8s-0.8,0.4-0.8,0.8v2.8h-2.8c-0.5,0-0.8,0.4-0.8,0.8
		c0,0.5,0.4,0.8,0.8,0.8H48v2.8c0,0.5,0.4,0.8,0.8,0.8s0.8-0.4,0.8-0.8v-2.8h2.8c0.5,0,0.8-0.4,0.8-0.8
		C53.3,206.5,52.9,206.2,52.5,206.2z"/>
	<path class="st1" d="M223.4,306.1h-2.8v-2.8c0-0.5-0.4-0.8-0.8-0.8c-0.5,0-0.8,0.4-0.8,0.8v2.8H216c-0.5,0-0.8,0.4-0.8,0.8
		c0,0.5,0.4,0.8,0.8,0.8h2.8v2.8c0,0.5,0.4,0.8,0.8,0.8c0.5,0,0.8-0.4,0.8-0.8v-2.8h2.8c0.5,0,0.8-0.4,0.8-0.8
		C224.2,306.4,223.8,306.1,223.4,306.1z"/>
	<path class="st1" d="M334.1,181.3h-2.8v-2.8c0-0.5-0.4-0.8-0.8-0.8c-0.5,0-0.8,0.4-0.8,0.8v2.8h-2.8c-0.5,0-0.8,0.4-0.8,0.8
		c0,0.5,0.4,0.8,0.8,0.8h2.8v2.8c0,0.5,0.4,0.8,0.8,0.8c0.5,0,0.8-0.4,0.8-0.8v-2.8h2.8c0.5,0,0.8-0.4,0.8-0.8
		C335,181.6,334.6,181.3,334.1,181.3z"/>
</g>
<g>
	<linearGradient id="SVGID_1_" gradientUnits="userSpaceOnUse" x1="94.424" y1="232.9235" x2="94.424" y2="306.3084">
		<stop  offset="0" style="stop-color:#B2312C"/>
		<stop  offset="0.1068" style="stop-color:#C05551"/>
		<stop  offset="0.2744" style="stop-color:#D38986"/>
		<stop  offset="0.4392" style="stop-color:#E3B3B1"/>
		<stop  offset="0.5972" style="stop-color:#EFD4D3"/>
		<stop  offset="0.747" style="stop-color:#F8ECEB"/>
		<stop  offset="0.885" style="stop-color:#FDFAFA"/>
		<stop  offset="1" style="stop-color:#FFFFFF"/>
	</linearGradient>
	<path class="st2" d="M175.4,315.6c-12.5-32.6-44-55.7-81-55.7s-68.5,23.2-81,55.7H175.4z"/>
	<g>
		<linearGradient id="SVGID_2_" gradientUnits="userSpaceOnUse" x1="7.7207" y1="177.1949" x2="181.1272" y2="177.1949">
			<stop  offset="0" style="stop-color:#39202E"/>
			<stop  offset="1" style="stop-color:#FC3535"/>
		</linearGradient>
		<circle class="st3" cx="94.4" cy="177.2" r="86.7"/>
		<linearGradient id="SVGID_3_" gradientUnits="userSpaceOnUse" x1="-9.7468" y1="73.4527" x2="152.2896" y2="234.8225">
			<stop  offset="4.464290e-02" style="stop-color:#B2312C"/>
			<stop  offset="6.910387e-02" style="stop-color:#B43732"/>
			<stop  offset="0.4119" style="stop-color:#D48C89"/>
			<stop  offset="0.6916" style="stop-color:#EBCAC9"/>
			<stop  offset="0.8945" style="stop-color:#FAF0F0"/>
			<stop  offset="1" style="stop-color:#FFFFFF"/>
		</linearGradient>
		<circle class="st4" cx="94.4" cy="177.2" r="72.5"/>
		<circle class="st5" cx="94.4" cy="177.2" r="68.3"/>
		<circle class="st6" cx="93.6" cy="179" r="5.1"/>
		<g>
			<path class="st7" d="M91.8,116.2v15h-3.4v-11.4l-2.7,0.7l-0.8-2.9l3.9-1.4H91.8z"/>
			<path class="st7" d="M93.8,128.7l5-5.2c0.9-0.9,1.5-1.8,1.5-2.7c0-0.9-0.6-1.6-1.6-1.6c-1.1,0-1.8,0.7-2.2,1.6l-2.9-1.7
				c1-2.2,3-3.3,5.1-3.3c2.7,0,5.1,1.8,5.1,4.8c0,1.8-1,3.3-2.3,4.7l-2.5,2.5h5v3.3H93.8V128.7z"/>
		</g>
		<g>
			<path class="st7" d="M100,236.9c0,3.1-2.3,5.3-5.6,5.3c-3.3,0-5.6-2.2-5.6-5.3c0-1.2,0.3-2.2,0.9-3l4.6-7h3.9l-3.3,4.7
				C98,231.9,100,234,100,236.9z M96.6,236.9c0-1.3-1-2.1-2.1-2.1c-1.2,0-2.1,0.8-2.1,2.1s1,2.1,2.1,2.1
				C95.6,239,96.6,238.3,96.6,236.9z"/>
		</g>
		<g>
			<path class="st7" d="M39.7,177.9l-4.6,7h-3.9l3.3-4.7c-3-0.2-5-2.4-5-5.3c0-3.1,2.3-5.3,5.6-5.3c3.3,0,5.6,2.2,5.6,5.3
				C40.5,176,40.2,177,39.7,177.9z M35,176.9c1.2,0,2.1-0.8,2.1-2.1s-1-2.1-2.1-2.1c-1.1,0-2.1,0.8-2.1,2.1
				C32.8,176.1,33.8,176.9,35,176.9z"/>
		</g>
		<g>
			<path class="st7" d="M158.6,179.8c0,3.3-2.6,5-5.5,5c-2.3,0-4.3-1-5.2-3.2l3-1.7c0.3,1,1,1.6,2.3,1.6c1.4,0,2-0.8,2-1.7
				c0-0.9-0.6-1.7-2-1.7h-0.7l-1.3-1.9l2.7-3.4h-5.5v-3.2h9.6v2.8l-2.6,3.3C157.2,176.3,158.6,177.8,158.6,179.8z"/>
		</g>
		<circle class="st7" cx="94.4" cy="177.2" r="5.6"/>
		<g>
			<g>
				<g>
					<circle class="st7" cx="128.8" cy="129.4" r="2.4"/>
					<circle class="st7" cx="143.9" cy="147.6" r="2.4"/>
				</g>
				<g>
					<circle class="st7" cx="128.8" cy="225" r="2.4"/>
					<circle class="st7" cx="143.9" cy="206.8" r="2.4"/>
				</g>
			</g>
			<g>
				<g>
					<circle class="st7" cx="60.1" cy="129.4" r="2.4"/>
					<circle class="st7" cx="45" cy="147.6" r="2.4"/>
				</g>
				<g>
					<circle class="st7" cx="60.1" cy="225" r="2.4"/>
					<circle class="st7" cx="45" cy="206.8" r="2.4"/>
				</g>
			</g>
		</g>
		<g>
			<line class="st8" x1="94.4" y1="177.2" x2="94.4" y2="139.1"/>
			<line class="st8" x1="64.6" y1="177.2" x2="94.4" y2="177.2"/>
			<circle class="st7" cx="94.4" cy="139.4" r="2.1"/>
			<circle class="st7" cx="64.6" cy="177.2" r="2.1"/>
		</g>
	</g>
</g>
<g>
	<g>
		<ellipse class="st9" cx="212.3" cy="313.3" rx="29.5" ry="3.8"/>
		<g>
			<g>
				<g>
					<path class="st7" d="M240.1,54.5h93.4c10.9,0,19.7,8.8,19.7,19.7v198.8c0,10.9-8.8,19.7-19.7,19.7h-93.4
						c-10.9,0-19.7-8.8-19.7-19.7V74.2C220.4,63.3,229.2,54.5,240.1,54.5z"/>
					
						<rect x="225.9" y="80.7" transform="matrix(-1 -1.224647e-16 1.224647e-16 -1 573.5325 347.2974)" class="st10" width="121.7" height="186"/>
					<path class="st11" d="M267.7,68.8L267.7,68.8c0-0.9,0.7-1.7,1.7-1.7h34.9c0.9,0,1.7,0.7,1.7,1.7l0,0c0,0.9-0.7,1.7-1.7,1.7
						h-34.9C268.4,70.4,267.7,69.7,267.7,68.8z"/>
					<circle class="st11" cx="286.8" cy="278.8" r="7.3"/>
				</g>
				<rect x="225.9" y="126" class="st12" width="121.7" height="130.1"/>
				<rect x="257.1" y="97.5" class="st12" width="60" height="4.6"/>
				<rect x="257.1" y="105.8" class="st12" width="34.6" height="3.3"/>
				<circle class="st12" cx="241.8" cy="102.5" r="9.5"/>
				<path class="st12" d="M331.2,99.5c0,0.8-0.7,1.5-1.5,1.5c-0.8,0-1.5-0.7-1.5-1.5c0-0.8,0.7-1.5,1.5-1.5
					C330.5,98,331.2,98.7,331.2,99.5z M334.7,98c-0.8,0-1.5,0.7-1.5,1.5c0,0.8,0.7,1.5,1.5,1.5c0.8,0,1.5-0.7,1.5-1.5
					C336.2,98.7,335.5,98,334.7,98z M339.7,98c-0.8,0-1.5,0.7-1.5,1.5c0,0.8,0.7,1.5,1.5,1.5c0.8,0,1.5-0.7,1.5-1.5
					C341.2,98.7,340.5,98,339.7,98z"/>
				<g>
					<defs>
						<circle id="SVGID_4_" cx="241.8" cy="102.5" r="9.5"/>
					</defs>
					<clipPath id="SVGID_5_">
						<use xlink:href="#SVGID_4_"  style="overflow:visible;"/>
					</clipPath>
				</g>
				<g>
					<g>
						<g>
							<g>
								<rect x="242.5" y="186.4" class="st13" width="8.5" height="21.3"/>
							</g>
						</g>
					</g>
					<g>
						<g>
							<g>
								<rect x="261.6" y="167.8" class="st14" width="8.5" height="39.9"/>
							</g>
						</g>
					</g>
					<g>
						<g>
							<g>
								<rect x="280.7" y="171.9" class="st13" width="8.5" height="35.8"/>
							</g>
						</g>
					</g>
					<g>
						<g>
							<g>
								<rect x="299.8" y="158.1" class="st14" width="8.5" height="49.6"/>
							</g>
						</g>
					</g>
					<g class="st15">
						<g>
							<g>
								<rect x="261.6" y="167.8" class="st16" width="3.9" height="39.9"/>
							</g>
						</g>
					</g>
					<g class="st17">
						<g>
							<g>
								<rect x="242.5" y="186.4" class="st16" width="3.9" height="21.3"/>
							</g>
						</g>
					</g>
					<g class="st15">
						<g>
							<g>
								<rect x="299.8" y="158.1" class="st16" width="3.9" height="49.6"/>
							</g>
						</g>
					</g>
					<g class="st17">
						<g>
							<g>
								<rect x="280.7" y="171.9" class="st16" width="3.9" height="35.8"/>
							</g>
						</g>
					</g>
					<g>
						<g>
							<g>
								<rect x="319.9" y="147.7" class="st13" width="8.5" height="60"/>
							</g>
						</g>
					</g>
					<g class="st17">
						<g>
							<g>
								<rect x="319.9" y="147.7" class="st16" width="3.9" height="60"/>
							</g>
						</g>
					</g>
					<g>
						<g>
							<g>
								<polygon class="st5" points="334.2,214.6 235.2,214.6 235.2,133.9 236.4,133.9 236.4,213.4 334.2,213.4 								"/>
							</g>
						</g>
					</g>
					<g>
						<g>
							<g>
								<polygon class="st5" points="323.2,144 320.4,136.8 327.8,138.1 								"/>
							</g>
						</g>
					</g>
					<g>
						<g>
							<g>
								<g>
									<g>
										<rect x="235" y="223.8" class="st14" width="7.1" height="7.1"/>
									</g>
								</g>
							</g>
						</g>
						<g>
							<g>
								<g>
									<rect x="235" y="236.3" class="st13" width="7.1" height="7.1"/>
								</g>
							</g>
						</g>
						<g>
							<g>
								<g>
									<rect x="244.1" y="239.3" class="st10" width="36.8" height="4"/>
								</g>
							</g>
						</g>
						<g>
							<g>
								<g>
									<rect x="244.1" y="226.9" class="st10" width="36.8" height="4"/>
								</g>
							</g>
						</g>
					</g>
					<g>
						<g>
							<g>
								<g>
									<rect x="288" y="223.8" class="st14" width="7.1" height="7.1"/>
								</g>
							</g>
						</g>
						<g>
							<g>
								<g>
									<rect x="288" y="236.3" class="st13" width="7.1" height="7.1"/>
								</g>
							</g>
						</g>
						<g>
							<g>
								<g>
									<rect x="297.1" y="239.3" class="st10" width="36.8" height="4"/>
								</g>
							</g>
						</g>
						<g>
							<g>
								<g>
									<rect x="297.1" y="226.9" class="st10" width="36.8" height="4"/>
								</g>
							</g>
						</g>
					</g>
					<polyline class="st18" points="246.4,170.1 265.9,155.9 284.6,164.5 303.7,147.7 323.4,139.5 					"/>
				</g>
			</g>
		</g>
		<g>
			<g>
				<path class="st9" d="M324,317.9c0,0,0.3,11.2,6,11.2c5.7,0,16.2-6.8,17.8-6.2c1.6,0.7,15,7.7,16.4,7.4c1.4-0.3,1.1-2.3,2.8-2.5
					s20.7,10.5,24.4,2.1c2.3-5.1-8.5-7-8.5-7s12.5-14.1,15.7-25.1C401.8,286.9,324,317.9,324,317.9z"/>
				<g>
					<path class="st19" d="M363.5,321.9c0,0,13.4,0.6,23.5-8.5c8.1-7.2,14.1-19.3,15.8-24.6c1.7-5.3,2.4-15.9-0.1-17.6
						c-2.6-1.8-48.8,42.2-48.8,42.2L363.5,321.9z"/>
					<path class="st19" d="M303.7,293.3c0,0,5.6-6.3,20.6-6.3c11.7,0,50.1,10.5,50.1,10.5l-16.7,17.9L303.7,293.3z"/>
					<g>
						<polygon class="st20" points="373.6,318.7 365.8,315.4 363.1,320.4 366.6,323.3 372.6,323.3 						"/>
						<path class="st7" d="M367.5,323.7c0,0,2.6,0.3,4.6-2c1.9-2.3,0.8-3.3,2.1-3.4c1.3-0.1,6.7,2.4,12.1,1.8
							c5.4-0.6,7.1-1.4,7.4,0.6c0.3,2-0.4,9.5-7,9.2C380.1,329.7,367.5,323.7,367.5,323.7z"/>
						<path class="st21" d="M366.6,323.3c0,0,2.6,0.3,4.6-2c1.9-2.3,0.8-3.3,2.1-3.4c1.3-0.1,6.7,2.4,12.1,1.8s7.1-1.4,7.4,0.6
							c0.3,2-0.4,9.5-7,9.2C379.3,329.3,366.6,323.3,366.6,323.3z"/>
					</g>
					<path class="st22" d="M324.3,295.8c8.5,5.2,43.7,17,43.7,17s1.3,9-6.3,11.7c0,0-42.4-12-52.4-16.6c-10-4.6-7-12.6-5.6-14.7
						C305.1,291.1,313.7,289.4,324.3,295.8z"/>
				</g>
				<path class="st23" d="M356.3,233.4c0.8,0.4,1.5,1.1,1.8,1.9c0.5,0.9,0.6,1.9,0.4,2.9c-0.5,2.7-1.1,6.8-1.7,11.2
					c-1,7-2.2,14.6-3.2,17.7c-0.2,0.7,2.9,4.3,1.6,6c0,0.1-0.4,14.2-0.5,14.2c0,0-1.4,1.4-1.4,1.4c-0.5,0.3-2.6,1.2-3.6,0.7
					c-1.1-0.5-27,7.9-26.8,7.7c10.8-12.5,19.9-19.5,20.6-20.7c1.3-2.4,0.4-26.6,1-31.4c0.3-2.3,1.1-5.3,2.4-7.3c1.2-2,3-3.2,4.3-4.2
					C353.1,231.9,354.1,232.2,356.3,233.4z"/>
				<path class="st24" d="M383.2,271.2c-1.4,3.6-1.7,7.5-0.9,11.2c1.6,7.4-0.2,7.9-0.2,7.9s-8.9,6.2-17.6,7.1
					c-7.8,0.8-14.4,1.3-14.3-5.3l2.5,2c0-0.4,0-0.8,0-1.2c0.3-14.9-2.8-15.6-3.6-32.3c-0.8-17.1-4.9-19.4-1.2-24.2
					c5.5-7.2,20.2-10.8,31.9-8.1c8.7,2.1,11.6,4.4,11.6,10.8c0,2.2-0.4,4.8-0.9,8C389,255.3,385.6,265.1,383.2,271.2z"/>
				<g>
					<path class="st20" d="M374.2,218.6c-3,2-5.1,3.7-8.7,3.9c-0.4-0.5-1-0.8-2-0.9c-1.9-0.2-3-0.7-3.6-1.2c1.1,1.4,0.8,2.1,1.8,2.4
						c1.1,0.2,0.8,1.3,0.8,2.4l-0.4,4.2l1.6,5.4l5.5-2.9l4.9-3.2l-0.5-7.6C373.7,221.1,372.9,219.9,374.2,218.6z"/>
					<path class="st25" d="M359.1,219.4C359.1,219.4,359.1,219.5,359.1,219.4C359.1,219.4,359.1,219.4,359.1,219.4z"/>
					<path class="st25" d="M359.2,219.5c0.1,0.2,0.3,0.6,0.8,1c-0.2-0.2-0.4-0.4-0.6-0.7C359.3,219.7,359.2,219.6,359.2,219.5z"/>
				</g>
				<path class="st23" d="M374.4,226.7c0,0,1.5,0.4,3.3,2.1c0,0-1.7,1.1-3.2,2.4c-1.3,1.1-7.7,7.2-7.7,7.2l-2.9-3.6
					C363.8,234.8,370.5,228.5,374.4,226.7z"/>
				<path class="st23" d="M363.8,234.8c0,0-2.4,1.3-2.8,3.2c0,0-1.8-2-0.9-6.4c0,0,1.2-1.5,2.1-2.1L363.8,234.8z"/>
				<g>
					<polygon class="st26" points="373.6,291.7 332,291.3 356.7,300.6 					"/>
					<polygon class="st27" points="356.6,301.5 374.5,299.9 374.6,298.4 356.5,300.1 					"/>
				</g>
				<path class="st20" d="M360,288.3l-3.4,1.9c0,0-3.3-2.3-6.7,0.2c-3.3,2.5,0.7,9.6,3.1,8.9c2.5-0.7,9.6-6,9.6-6L360,288.3z"/>
				<path class="st23" d="M375.2,286.3c-6.3,2-12.9,12.1-12.9,12.1l-0.6-0.9c0,0-3.3-1.5-4.2-4.5c-0.4-1.2-0.3-4.7-0.3-4.7
					s15.8-7.9,20.7-13.3c2.4-2.6,2.6-4.8,4.8-5.9c-0.1-0.2-0.1-0.3-0.2-0.5c-2.5-7-2.4-17.1-3.4-22.2c-0.5-2.5-0.4-5,0.2-7.3
					c0.4-1.6,1.1-3.1,2.1-4.5c1.5-2.1,3.6-3.8,6.3-3.2c1,0.2,1.9,0.8,2.6,1.5c0.8,0.8,1.3,1.8,1.4,2.9c1,7.4,4.2,27.7,4,32.2
					c0,0.8-0.2,1.5-0.4,2.2c0,0.2-0.1,0.5-0.2,0.7C392.9,277.4,381.5,284.3,375.2,286.3z"/>
				<g>
					<path class="st26" d="M357.7,301.5l-43.2-4c-1.4-0.1-2.6-1.3-2.8-2.7l-3.4-30.1c-0.2-1.6,1.2-3,2.8-2.8l40.4,3.7
						c1.2,0.1,2.2,1.1,2.3,2.3L357.7,301.5z"/>
				</g>
				<g>
					<path class="st28" d="M356.6,301.5l-43.2-4c-1.4-0.1-2.6-1.3-2.8-2.7l-3.4-30.1c-0.2-1.6,1.2-3,2.8-2.8l40.4,3.7
						c1.2,0.1,2.2,1.1,2.3,2.3L356.6,301.5z"/>
				</g>
				<g>
					<path class="st29" d="M354.2,206.1c-0.1,0-0.1,0.7-1,1.8c-1,1.1-1,3.3-1,3.3c0-0.1-1.9-5.2-1.3-6.5c0.5-1.3,1.6-1.6,1.9-1.2
						C353.1,203.9,354.2,206.1,354.2,206.1z"/>
					<path class="st20" d="M375.9,214.7c0.1,1.4,0.2,2.7,0.1,3.7c0,0.1,0,0.3-0.1,0.4c0,0.1,0,0.3-0.1,0.4c-1,4.1-6.3,10-10,10.5
						c-0.5,0-1,0.1-1.4,0c-5.1-0.2-8.1-4.4-9.9-8.9c-0.1-0.2-0.1-0.3-0.2-0.5c-1.5-4.2-2-8.4-2.2-9.9c0-0.4,0-0.6,0-0.6
						c-0.3-1.6,0-2.9,0.1-3.4c0.1-0.2,0.1-0.3,0.1-0.3s0.1,0,0.2,0c1.4-0.4,11.1-3.4,11.3-3.4c0.2,0,10,0.7,10,0.7
						S375.4,209.8,375.9,214.7z"/>
					<path class="st30" d="M367,207.6"/>
					<path class="st31" d="M375.2,198c-2.4-3.3-5.3-3.2-5.3-3.2s-3.1-2.6-10.3-0.5c-7.2,2.1-11-0.6-11-0.3c0,0.2-1.1,2.3-0.6,7
						c0,0,0.3,7.4,12.5,4.5c12.2-3,11.3,9.2,11.3,9.2s1.7-4.1,2.2-2.5c0.3,0.8,0.2,2.4,0.2,3.7c-0.5,2.2-2.4,5.5-3.4,6
						c-0.1,0.1-0.3,0.1-0.4,0c-0.8-0.1-2.9-0.7-4.1-0.9c-1.3-0.2-4.1-0.2-6,0.5c-2.9,1.1-1.6,2.5-2.6,2.4c-1.1-0.1-3.2-3.5-3.2-3.5
						c0.1,0.2,0.1,0.3,0.2,0.5c1.7,4.6,3.9,9.3,10,9c0.4,0,0.8-0.1,1.3-0.1c5.7-0.5,10.8-7,11.4-11.1c0-0.1,0.1-0.3,0.1-0.4
						c0-0.4,0.1-0.9,0.1-1.4c0-0.1,0-0.2,0.1-0.3C377.5,215.5,377.6,201.4,375.2,198z"/>
				</g>
				<path class="st32" d="M371.7,212c-0.1-0.5-2.3-0.4-3.9-0.2c-1.6,0.2-5.8,0.7-6.7,1.2c-0.9,0.5-0.8,0.9-1.3,0.9
					c-0.5,0.1-0.5-0.3-1.5-0.6c-1-0.3-3.4,0-5,0.2c-1.6,0.2-3.1,0.5-3.1,1c0,0.5,0.2,1.4,0.6,1.6c0.3,0.1,0.3,0.1,1.4,2.1
					c0.6,1.1,1.7,1.8,3.7,1.4c2.6-0.5,2.9-2.6,3.1-3.5c0.2-0.9,0.4-1,0.8-1.1c0.4-0.1,0.7,0,1.1,0.8c0.5,0.8,0.7,2.7,3.4,2.7
					c3.5,0,5-0.9,5.6-2.5c0.8-2.2,0.6-2.2,0.9-2.4c0.1-0.1,0.9-0.4,0.9-0.7C371.7,212.7,371.7,212.3,371.7,212z M358.2,217
					c-0.1,1.1-0.9,2.2-2.7,2.4c-1.6,0.2-2.3-0.4-3.1-1.8c-0.7-1.3-0.7-2.3-0.4-2.6c0.3-0.4,1.1-0.4,3.1-0.5c2-0.2,2.6-0.2,2.9,0.4
					C358.2,215,358.3,215.9,358.2,217z M369.5,215.4c-0.4,1.6-1.2,2.4-3.4,2.7c-3.1,0.4-3.6-0.5-4-1.5c-0.4-1.1-0.5-1.9-0.5-2.2
					c0.1-0.7,0.8-0.8,2.7-1.1c2-0.3,4.6-0.8,4.9-0.5C369.6,213,369.9,214,369.5,215.4z"/>
				<g>
					<polygon class="st20" points="343.1,313.7 351,310.6 353.5,315.7 349.9,318.5 343.9,318.3 					"/>
					<path class="st7" d="M349,318.9c0,0-2.6,0.2-4.5-2.1c-1.9-2.4-0.7-3.3-2-3.5c-1.2-0.2-6.8,2.2-12.2,1.4
						c-5.4-0.7-7.1-1.6-7.4,0.4c-0.3,2,0.1,9.5,6.7,9.4C336.2,324.4,349,318.9,349,318.9z"/>
					<path class="st21" d="M349.9,318.5c0,0-2.6,0.2-4.5-2.1c-1.9-2.4-0.7-3.3-2-3.5c-1.2-0.2-6.8,2.2-12.2,1.4
						c-5.4-0.7-7.1-1.6-7.4,0.4c-0.3,2,0.1,9.5,6.7,9.4C337.1,324.1,349.9,318.5,349.9,318.5z"/>
				</g>
				<path class="st22" d="M348.3,307.9c0,0,20-16.2,28.3-24.9c8.4-8.6,13.6-17.1,23.4-13.7c9.7,3.4-2.5,21.5-11.4,28.6
					c-8.9,7.1-30.9,22.7-30.9,22.7S345.9,316.5,348.3,307.9z"/>
			</g>
			<path class="st26" d="M334.5,281.8c0.1,2.5-1.8,4.5-4.3,4.5s-4.6-2-4.7-4.5c-0.1-2.5,1.8-4.5,4.3-4.5S334.3,279.3,334.5,281.8z"
				/>
		</g>
		<path class="st33" d="M169,85.7h-67.7c-3.3,0-5.9,2.7-5.9,5.9v12.2c0,3.3,2.7,5.9,5.9,5.9H159l5.5,5.6v-5.6h4.6
			c3.3,0,5.9-2.7,5.9-5.9V91.6C175,88.4,172.3,85.7,169,85.7z"/>
		<g>
			<g>
				<g class="st0">
					<g class="st34">
						<circle class="st5" cx="108.7" cy="97.4" r="6.4"/>
						<path class="st35" d="M109.9,93.7c0.8,0.2,0.2,1.9-0.4,2.2l1.8,0c0.4,0,0.8,0.4,0.7,0.8l-0.4,2.1c-0.1,0.7-0.8,1.2-1.5,1.2
							l-2.5,0l0-4C108.9,95.8,109.2,93.5,109.9,93.7z M107,99.5v-2.7c0-0.3-0.3-0.6-0.6-0.6h-0.5c-0.3,0-0.6,0.3-0.6,0.6v2.7
							c0,0.3,0.3,0.6,0.6,0.6h0.5C106.7,100.1,107,99.8,107,99.5z"/>
					</g>
					<text transform="matrix(1 0 0 1 116.383 100.5379)" class="st36 st37 st38">1000</text>
				</g>
				<g class="st0">
					<g class="st34">
						<circle class="st5" cx="145" cy="97.4" r="6.4"/>
						<path class="st39" d="M148.9,96.3c0,2.4-3.9,4.3-3.9,4.3s-3.8-1.9-3.9-4.3c0-3,4-2.2,4-0.9C145.1,94.1,148.9,93.5,148.9,96.3z
							"/>
					</g>
					<text transform="matrix(1 0 0 1 152.7326 100.5379)" class="st36 st37 st38">980</text>
				</g>
			</g>
		</g>
		<text transform="matrix(1 0 0 1 110.2223 100.4954)" class="st40 st37 st41">&lt;/&gt; { ... } # @</text>
	</g>
</g>
<g>
	<g>
		<g>
			<path class="st9" d="M340.2,68.6c-3.3,6.3-22.5,21.8-22.5,21.8l-1.6-2.1l-1.7,1.5c-0.2,1.2-0.6,2.3-1.1,3.2l13.9,13.9
				c1.2,1.2,1.2,3.1,0,4.2l-32.6,32.6c-1.2,1.2-3.1,1.2-4.2,0L252,105.4c-1.2-1.2-1.2-3.1,0-4.2l24.3-24.3l0.9-0.9l7.5-7.5
				c1.2-1.2,3.1-1.2,4.2,0l18.3,18.3c0.4-0.1,0.9-0.3,1.5-0.3c0.6-0.1,1.1-0.1,1.6-0.1l2.7-2l-0.7-0.9l19.4-18.5l1.3-10.1
				c0,0,4.4,0.6,5.6,1.1c1.4,0.5,2.7,1.2,3.1,1.5c0,0,0.2,3.1-0.1,5C341.4,64.4,341,67.1,340.2,68.6z"/>
			
				<rect x="290.5" y="91.4" transform="matrix(0.7071 -0.7071 0.7071 0.7071 20.6547 232.5897)" class="st6" width="1.2" height="0"/>
		</g>
	</g>
</g>
<g>
	<g>
		<path class="st42" d="M297.6,19c-1,6.6,1.6,13.5,5.8,18.7c4.2,5.2,10,8.9,16,12c4.1,2.1,8.3,3.8,12.8,4.5
			c4.5,0.7,9.3,0.1,13.2-2.2c5.1-3.1,8.1-9.2,7.4-15.1c-0.7-5.9-5-11.2-10.6-13.1c-3.7-1.2-7.8-1.1-11.2-3c-2.4-1.4-4.2-3.6-5.8-5.9
			c-3.3-4.5-8.4-9.5-14.5-8.8C303.6,7,298.7,12,297.6,19z"/>
		<g>
			<path class="st42" d="M321.5,23.1c-0.4,3.4-2.8,5.8-2.8,5.8l0.5-5.3L321.5,23.1z"/>
			<g>
				<g>
					<path class="st20" d="M318.9,36.5c0,0-2.6,3.2-5.5,1.4c0,0-1.1-2.8-1.6-3.4c-0.5-0.7-5-0.4-7.4-4.6c-3.2-5.4-6.5-17.3,2.7-19.4
						c9.2-2.1,12.7,7.8,12.5,15.6C319.4,34.1,318.9,36.5,318.9,36.5z"/>
				</g>
			</g>
			<g>
				<g>
					<ellipse transform="matrix(0.8793 -0.4763 0.4763 0.8793 28.263 155.2168)" class="st20" cx="320.4" cy="21.8" rx="2" ry="2"/>
				</g>
			</g>
			<g>
				<g>
					
						<ellipse transform="matrix(0.8793 -0.4763 0.4763 0.8793 23.3087 147.5621)" class="st20" cx="302.8" cy="27.8" rx="2" ry="2"/>
				</g>
			</g>
			<path class="st42" d="M318.9,9.2c-3.2-3.1-12-2.7-16.4,2.7c-4.3,5.4,0,13.8,0,13.8l0.9,2.3c0,0,0.2-3.7-0.8-6.5
				c0,0,1.6-1.2,2.1-2.4c0.5-1.1,0.3-2.2,0.3-2.2c4.8,2.1,12.2,2.9,12.2,2.9l0.5,5.2c0.1,0,0.7,0,0.8,0.1c0-1.7-0.1-4.4,0.8-5
				c0,0,1.1-0.5,2.1-0.2C321.5,19.8,322.1,12.3,318.9,9.2z"/>
		</g>
		<linearGradient id="SVGID_6_" gradientUnits="userSpaceOnUse" x1="303.782" y1="109.4767" x2="314.1128" y2="42.0038">
			<stop  offset="0" style="stop-color:#E6991D"/>
			<stop  offset="0.9976" style="stop-color:#FFC04D"/>
		</linearGradient>
		<path class="st43" d="M339.1,43c-0.1-3.1-2.5-5.7-5.6-6l-2.3-0.2l-9.6-0.6l-0.6-3.3L309.7,36l1.7,3.2l-9,2.8l0,0l0,0
			c-3.1,1-19.3,5.7-17.1,12.4h22h0.9h20.6l-1.3,10.1L308.2,83l5.4,6.8c0,0,19.8-15.4,23.1-21.7C339.2,63,339.3,50.3,339.1,43z"/>
		<path class="st9" d="M319.1,57.4c-0.1,0-0.1,0-0.2,0c0.2,0.2,0.3,0.4,0.4,0.4c0.2,0.2,0.1,0.3,0.1,0.3c-0.2,0.3-0.4,0.2-0.7,0.2
			c-0.2,0-0.3-0.1-0.6-0.3c-0.2,0.2-0.4,0.2-0.7,0.2c-0.3,0-0.6-0.3-1.1-0.8c0.1,0.1,0,0.2,0,0.2c-0.3,0.2-0.5,0.2-0.8,0.2
			c-0.3,0-0.7-0.3-1.2-0.9c-0.2-0.2-0.4-0.4-0.6-0.7c-0.2-0.2-0.4-0.3-0.6-0.4c-0.4-0.3-0.8-0.3-0.9-0.3c0,0,0,0,0,0v0
			c-2.3,0-3.3-1-6.1-1h12.8c0,0,0,0-0.1,0c-0.1,0-0.4,0.1-0.8,0.1c0,0,0,0,0.1,0.1c0.2,0.2,0.3,0.4,0.5,0.6c0.5,0.6,1.2,1.4,1.3,1.6
			c0.2,0.2,0.1,0.3,0.1,0.3C319.6,57.4,319.4,57.4,319.1,57.4z"/>
		<path class="st20" d="M317.4,57.4c-0.1,0-0.1,0-0.2,0c0.2,0.2,0.3,0.4,0.4,0.4c0.2,0.2,0.1,0.3,0.1,0.3c-0.2,0.3-0.4,0.2-0.7,0.2
			c-0.2,0-0.3-0.1-0.6-0.3c-0.2,0.2-0.4,0.2-0.7,0.2c-0.3,0-0.6-0.3-1.1-0.8c0.1,0.1,0,0.2,0,0.2c-0.3,0.2-0.5,0.2-0.8,0.2
			c-0.3,0-0.7-0.3-1.2-0.9c-0.2-0.2-0.4-0.4-0.6-0.7c-0.2-0.2-0.4-0.3-0.6-0.4c-0.4-0.3-0.8-0.3-0.9-0.3c0,0,0,0,0,0v0
			c-2.3,0-3.3-1-6.1-1c0,0,6.6-3.2,10.6-0.9c0.4,0.1,1.2,0.2,1.7,0.2c1.2,0,0.8,0.6,0.5,0.8c-0.1,0-0.4,0.1-0.8,0.1c0,0,0,0,0.1,0.1
			c0.2,0.2,0.3,0.4,0.5,0.6c0.5,0.6,1.2,1.4,1.3,1.6c0.2,0.2,0.1,0.3,0.1,0.3C318,57.4,317.7,57.4,317.4,57.4z"/>
		<g>
			<path class="st23" d="M329.2,53.6C329.2,53.6,329.2,53.6,329.2,53.6c-0.2,0-0.3-0.2-0.3-0.3l1.1-10c0-0.2,0.1-0.3,0.3-0.3
				c0.2,0,0.3,0.2,0.3,0.3l-1.1,10C329.5,53.5,329.4,53.6,329.2,53.6z"/>
		</g>
		<g>
			<path class="st23" d="M305.7,48.6h-13c-0.2,0-0.3-0.1-0.3-0.3s0.1-0.3,0.3-0.3h12.7c0.3-2.4,2.8-5.4,2.9-5.5
				c0.1-0.1,0.3-0.1,0.4,0c0.1,0.1,0.1,0.3,0,0.4c0,0-2.7,3.2-2.8,5.4C306,48.5,305.8,48.6,305.7,48.6z"/>
		</g>
		<g>
			<path class="st5" d="M286.4,143.4l-38.9-38.9c-1-1-1-2.7,0-3.7l33.2-33.2c1-1,2.7-1,3.7,0l38.9,38.9c1,1,1,2.7,0,3.7l-33.2,33.2
				C289.1,144.5,287.4,144.5,286.4,143.4z"/>
			
				<rect x="263.8" y="96.6" transform="matrix(0.7071 0.7071 -0.7071 0.7071 154.7757 -179.3179)" class="st6" width="60.1" height="1.2"/>
			<g>
				<text transform="matrix(0.7071 0.7071 -0.7071 0.7071 283.3686 79.5156)" class="st14 st44 st45">to do list</text>
			</g>
			<linearGradient id="SVGID_7_" gradientUnits="userSpaceOnUse" x1="279.8259" y1="104.5639" x2="286.397" y2="93.1824">
				<stop  offset="0" style="stop-color:#8DA58F"/>
				<stop  offset="1" style="stop-color:#B5D4B7"/>
			</linearGradient>
			<path class="st46" d="M293.6,112.4l-24-24c-0.8-0.8-0.8-2.2,0-3.1l0,0c0.8-0.8,2.2-0.8,3.1,0l24,24c0.8,0.8,0.8,2.2,0,3.1l0,0
				C295.8,113.3,294.4,113.3,293.6,112.4z"/>
			<linearGradient id="SVGID_8_" gradientUnits="userSpaceOnUse" x1="273.3641" y1="111.0257" x2="279.9352" y2="99.6442">
				<stop  offset="0" style="stop-color:#8DA58F"/>
				<stop  offset="1" style="stop-color:#B5D4B7"/>
			</linearGradient>
			<path class="st47" d="M287.1,118.9l-24-24c-0.8-0.8-0.8-2.2,0-3.1l0,0c0.8-0.8,2.2-0.8,3.1,0l24,24c0.8,0.8,0.8,2.2,0,3.1l0,0
				C289.3,119.7,288,119.7,287.1,118.9z"/>
			<linearGradient id="SVGID_9_" gradientUnits="userSpaceOnUse" x1="266.9024" y1="117.4874" x2="273.4735" y2="106.1059">
				<stop  offset="0" style="stop-color:#8DA58F"/>
				<stop  offset="1" style="stop-color:#B5D4B7"/>
			</linearGradient>
			<path class="st48" d="M280.7,125.3l-24-24c-0.8-0.8-0.8-2.2,0-3.1l0,0c0.8-0.8,2.2-0.8,3.1,0l24,24c0.8,0.8,0.8,2.2,0,3.1l0,0
				C282.9,126.2,281.5,126.2,280.7,125.3z"/>
			<polyline class="st49" points="300.6,115.7 300.5,119.8 306.8,119.1 			"/>
			<polyline class="st49" points="294.2,122.1 294.1,126.2 300.4,125.6 			"/>
			<polyline class="st49" points="287.7,128.6 287.6,132.7 293.9,132 			"/>
		</g>
		<path class="st20" d="M310.2,82.9l-4,3c-0.5,0-1,0-1.6,0.1c-0.6,0.1-1.1,0.2-1.5,0.3c0.6,0.6,1.1,1.2,1.7,1.8
			c-1.5,1.3-2.9,2.6-4.4,3.9c0.1,0.3,1,3.6,3.2,4.1c2.3,0.6,5.8-2,6.7-6.9l4-3.6L310.2,82.9z"/>
	</g>
</g>
<g class="st0">
	<g class="st34">
		<path class="st50" d="M275.7,200h-63c-3,0-5.5-2.5-5.5-5.5v-11.3c0-3,2.5-5.5,5.5-5.5h63c3,0,5.5,2.5,5.5,5.5v11.3
			C281.2,197.5,278.7,200,275.7,200z"/>
		<text transform="matrix(1 0 0 1 14.7994 322.8914)" class="st5 st51 st52">&lt;/&gt; { ... } #@</text>
	</g>
	<polygon class="st53" points="259.6,197.1 263.9,206.3 268,197.7 	"/>
</g>
<g>
	<path class="st54" d="M214.4,299.8c0,0,0.9,3.9,0.8,7c-0.4,2.1,0,2.8,0,2.8l8.1-0.7c0,0-3.6-1.8-3.3-10.2
		C220.2,290.3,214.4,299.8,214.4,299.8z"/>
	<path class="st32" d="M215.1,307.4c0,0,3.5,1.3,7,0.3c4.1,1.9,7,2.6,10.8,3.1c3.7,0.5,3.1,3.6-3.3,3.1c-6.4-0.4-10.9-0.1-12.3,0
		c-1.4,0.1-3.7,0.3-3.8-0.7C213.4,312.4,213.9,307.1,215.1,307.4z"/>
	<path class="st54" d="M189.4,299.8c0,0,0.9,3.9,0.8,7c-0.4,2.1,0,2.8,0,2.8l8.1-0.7c0,0-3.6-1.8-3.3-10.2
		C195.2,290.3,189.4,299.8,189.4,299.8z"/>
	<path class="st32" d="M190.1,307.4c0,0,3.5,1.3,7,0.3c4.1,1.9,7,2.6,10.8,3.1c3.7,0.5,3.1,3.6-3.3,3.1c-6.4-0.4-10.9-0.1-12.3,0
		c-1.4,0.1-3.7,0.3-3.8-0.7C188.4,312.4,188.9,307.1,190.1,307.4z"/>
	<g class="st55">
		<g>
			<path class="st12" d="M221,182.3c0,0,5.2,54.9,5.6,62.1c0.3,7.2,0.3,9.6,0,14c-0.2,2.7,0.8,17.7,1.5,28.8
				c-1.7-1.5-2.6-2.7-4.3-4.8c-2.6-3.3-10.1,2.5-10.1-1.1c0-11.5-0.3-24.7-1.1-28.4c-1.6-6.8-7.6-41.5-7.6-41.5l15.4,0.8l0-30.3
				L221,182.3z"/>
		</g>
	</g>
	<linearGradient id="SVGID_10_" gradientUnits="userSpaceOnUse" x1="201.4839" y1="238.7414" x2="225.4772" y2="238.7414">
		<stop  offset="0" style="stop-color:#4C4051"/>
		<stop  offset="1" style="stop-color:#594A5F"/>
	</linearGradient>
	<path class="st56" d="M217.6,182.6c0,0,5.2,54.9,5.6,62.1c0.3,7.2,0.3,9.6,0,14c-0.3,4.4,2.4,41,2.4,41s-12.2,3.2-15.3,0.4
		c0,0,0.5-40-1-46.8c-1.6-6.8-7.6-41.5-7.6-41.5l7-35.4L217.6,182.6z"/>
	<path class="st42" d="M189.2,106.2c0,0,0.5-9.6,4.5-12.1c3.9-2.6,14.5-3.5,17.7,0.9c3.2,4.4,6.7,23.7-9.1,26.1l-8.2,37.8
		c0,0-21.3-2.2-23-13.6c-1.6-11.4,8.1-16.7,8.1-16.7s-4.7-9.6,0.2-16.4C184.3,105.5,189.2,106.2,189.2,106.2z"/>
	<path class="st9" d="M220.6,141c0,0,20.1,2.7,25.6,2.4c4.3,0.2,10.5-24.1,11.1-25.6c3.4-2.2,4.8-4,4.7-5.6c0-1.7-4.4-3.1-4.8-2.2
		c0.7-2.2,0.9-2.9,1.1-3.7c0.4-1.6-0.7-2.8-2.4,3.2c-1.7,5.9-1.5,4.9-1.9,7c-2.7,5.4-9.7,17.9-10.2,19.8c-9-0.2-24.2-3.8-24.2-3.8
		L220.6,141z"/>
	<path class="st54" d="M220,139.1c0,0,19.3,2.8,24.5,2.5c4.1,0.2,10-24,10.6-25.5c3.3-2.2,4.5-3.9,4.5-5.6c0-1.7-4.2-3.1-4.6-2.2
		c0.7-2.2,0.8-2.9,1-3.7c0.4-1.6-0.7-2.8-2.3,3.2c-1.6,5.9-1.4,4.9-1.8,7c-2.6,5.4-9.2,17.9-9.7,19.8c-8.6-0.2-23.2-3.9-23.2-3.9
		L220,139.1z"/>
	<path class="st22" d="M191.1,248.7c1.2-10.3-1-51.8-0.9-60.7c0.1-8.8,24.9-4.3,24.9-4.3s-7.8,51.6-8.7,59.1
		c-0.9,7.5-2.2,9.6-2.6,16.8c-0.5,7.2-3.9,40.7-3.9,40.7s-13.6,2.3-14.7-0.3C183,286.8,191.1,248.7,191.1,248.7z"/>
	<linearGradient id="SVGID_11_" gradientUnits="userSpaceOnUse" x1="176.486" y1="154.9067" x2="221.2403" y2="154.9067">
		<stop  offset="0" style="stop-color:#E6991D"/>
		<stop  offset="0.9976" style="stop-color:#FFC04D"/>
	</linearGradient>
	<path class="st57" d="M213.5,140.8h7.8c-1.2-2.8,0-12.2,0-12.2l-11.2-3c-6.9-1.9-6.9-5.2-14.3-4.4c-2.4,0.3-4.6,1.6-6.5,3.4
		c-5.8,2.6-12.8,12.5-12.8,12.5c1.2,7.2,8.1,10.6,8.1,10.6s0.5-0.7,1.9-2.2c4.7,6.7,10.5,16.6,7.8,22.1c-4.4,8.7-5.6,21.1-5.6,21.1
		c13.1-5.9,29.5-2.8,29.5-2.8c-0.9-5.9-7.5-37.3-6.7-39.1C212.1,144.9,213.5,140.8,213.5,140.8z"/>
	<path class="st54" d="M178,138c0,0-16.5,18.8-15.6,21.1c0.9,2.3,19.4,12.6,21,14c1.6,1.4,6.7,7,6.8,6.3c0.2-0.7,3.2-2.5,3.4-4.4
		c0.2-1.9-1.4-3.5-1.4-3.5l-7-0.9c0,0-12.6-10.5-13.1-11.9c-0.5-1.4,14.2-15.9,14.2-15.9L178,138z"/>
	<path class="st54" d="M209.4,98.3c0,0,3.4,9.3,1.2,13.6c-2.2,4.4-7.5,3.7-7.5,3.7v9.9c0,0-0.5,0.5-1.5,0.6c-1.6,0.1-6-2.7-6-2.7
		v-23L209.4,98.3z"/>
	<path class="st42" d="M209.9,96.9c0,0-2.2,10.6-7.4,13.4c-5.1,2.8-1.3,9.7-6.1,14.8c-2.6,2.7-7.6-0.3-7.6-0.3l4.9-26.6L209.9,96.9z
		"/>
</g>
</svg>
