<?xml version="1.0" encoding="utf-8"?>
<!-- Generator: Adobe Illustrator 19.2.0, SVG Export Plug-In . SVG Version: 6.00 Build 0)  -->
<svg version="1.1" id="Lager_1" xmlns="http://www.w3.org/2000/svg" xmlns:xlink="http://www.w3.org/1999/xlink" x="0px" y="0px"
	 viewBox="0 0 409 335" style="enable-background:new 0 0 409 335;" xml:space="preserve">
<style type="text/css">
	.st0{display:none;}
	.st1{display:inline;fill:#B8D5FF;}
	.st2{display:inline;}
	.st3{fill:#2672E7;}
	.st4{fill:#FFFFFF;}
	.st5{font-family:'Poppins-Regular';}
	.st6{font-size:0.5397px;}
	.st7{display:inline;fill:#2672E7;}
	.st8{opacity:0.3;fill:#B5D4B7;}
	.st9{fill:#FBBF4E;}
	.st10{opacity:0.3;}
	.st11{fill:#B5D4B7;}
	.st12{fill:none;stroke:#8DA58F;stroke-miterlimit:10;}
	.st13{fill:#8DA58F;}
	.st14{display:none;opacity:0.3;}
	.st15{display:inline;fill:url(#SVGID_1_);}
	.st16{display:inline;fill:url(#SVGID_2_);}
	.st17{display:inline;fill:url(#SVGID_3_);}
	.st18{display:inline;fill:url(#SVGID_4_);}
	.st19{fill:#283848;}
	.st20{fill:url(#SVGID_5_);}
	.st21{fill:#FFE1BD;}
	.st22{fill:#594A5F;}
	.st23{fill:#342977;}
	.st24{fill:#F3AE99;}
	.st25{fill:#FBCB96;}
	.st26{fill:#39202E;}
	.st27{fill:url(#SVGID_6_);}
	.st28{fill:#3A3A3A;}
	.st29{fill:url(#SVGID_7_);}
	.st30{fill:url(#SVGID_8_);}
	.st31{fill:url(#SVGID_9_);}
	.st32{fill:#8C3200;}
	.st33{fill:#B2BBC4;}
	.st34{fill:#ECF0F1;}
	.st35{fill:url(#SVGID_10_);}
	.st36{display:none;fill:none;stroke:#302E5E;stroke-linecap:round;stroke-linejoin:round;stroke-miterlimit:10;}
</style>
<g class="st0">
	<circle class="st1" cx="354" cy="119.4" r="3.9"/>
	<circle class="st1" cx="300.1" cy="112.1" r="3.9"/>
	<circle class="st1" cx="37.6" cy="105.5" r="3.9"/>
	<circle class="st1" cx="-13.4" cy="67.2" r="3.9"/>
	<circle class="st1" cx="339.4" cy="300.5" r="3.9"/>
	<circle class="st1" cx="-64.2" cy="304.6" r="3.9"/>
	<circle class="st1" cx="120.8" cy="194.8" r="3.9"/>
	<circle class="st1" cx="-55.6" cy="149.5" r="3.9"/>
	<circle class="st1" cx="82.6" cy="24.9" r="3.9"/>
	<circle class="st1" cx="351.2" cy="24.3" r="3.9"/>
	<path class="st1" d="M233.6,34.4h-2.8v-2.8c0-0.5-0.4-0.8-0.8-0.8s-0.8,0.4-0.8,0.8v2.8h-2.8c-0.5,0-0.8,0.4-0.8,0.8
		c0,0.5,0.4,0.8,0.8,0.8h2.8v2.8c0,0.5,0.4,0.8,0.8,0.8s0.8-0.4,0.8-0.8V36h2.8c0.5,0,0.8-0.4,0.8-0.8
		C234.4,34.8,234.1,34.4,233.6,34.4z"/>
	<path class="st1" d="M132.2,10.9h-2.8V8.1c0-0.5-0.4-0.8-0.8-0.8c-0.5,0-0.8,0.4-0.8,0.8v2.8h-2.8c-0.5,0-0.8,0.4-0.8,0.8
		c0,0.5,0.4,0.8,0.8,0.8h2.8v2.8c0,0.5,0.4,0.8,0.8,0.8c0.5,0,0.8-0.4,0.8-0.8v-2.8h2.8c0.5,0,0.8-0.4,0.8-0.8
		C133,11.3,132.6,10.9,132.2,10.9z"/>
	<path class="st1" d="M29.7,38.9h-2.8V36c0-0.5-0.4-0.8-0.8-0.8c-0.5,0-0.8,0.4-0.8,0.8v2.8h-2.8c-0.5,0-0.8,0.4-0.8,0.8
		c0,0.5,0.4,0.8,0.8,0.8h2.8v2.8c0,0.5,0.4,0.8,0.8,0.8c0.5,0,0.8-0.4,0.8-0.8v-2.8h2.8c0.5,0,0.8-0.4,0.8-0.8
		C30.5,39.3,30.2,38.9,29.7,38.9z"/>
	<path class="st1" d="M81.1,120.2h-2.8v-2.8c0-0.5-0.4-0.8-0.8-0.8c-0.5,0-0.8,0.4-0.8,0.8v2.8h-2.8c-0.5,0-0.8,0.4-0.8,0.8
		c0,0.5,0.4,0.8,0.8,0.8h2.8v2.8c0,0.5,0.4,0.8,0.8,0.8c0.5,0,0.8-0.4,0.8-0.8v-2.8h2.8c0.5,0,0.8-0.4,0.8-0.8
		C81.9,120.6,81.6,120.2,81.1,120.2z"/>
	<path class="st1" d="M32.6,252.9h-2.8V250c0-0.5-0.4-0.8-0.8-0.8s-0.8,0.4-0.8,0.8v2.8h-2.8c-0.5,0-0.8,0.4-0.8,0.8
		c0,0.5,0.4,0.8,0.8,0.8h2.8v2.8c0,0.5,0.4,0.8,0.8,0.8s0.8-0.4,0.8-0.8v-2.8h2.8c0.5,0,0.8-0.4,0.8-0.8
		C33.4,253.2,33,252.9,32.6,252.9z"/>
	<path class="st1" d="M354.8,252.9H352V250c0-0.5-0.4-0.8-0.8-0.8c-0.5,0-0.8,0.4-0.8,0.8v2.8h-2.8c-0.5,0-0.8,0.4-0.8,0.8
		c0,0.5,0.4,0.8,0.8,0.8h2.8v2.8c0,0.5,0.4,0.8,0.8,0.8c0.5,0,0.8-0.4,0.8-0.8v-2.8h2.8c0.5,0,0.8-0.4,0.8-0.8
		C355.7,253.2,355.3,252.9,354.8,252.9z"/>
	<path class="st1" d="M52.5,206.2h-2.8v-2.8c0-0.5-0.4-0.8-0.8-0.8s-0.8,0.4-0.8,0.8v2.8h-2.8c-0.5,0-0.8,0.4-0.8,0.8
		c0,0.5,0.4,0.8,0.8,0.8H48v2.8c0,0.5,0.4,0.8,0.8,0.8s0.8-0.4,0.8-0.8v-2.8h2.8c0.5,0,0.8-0.4,0.8-0.8
		C53.3,206.5,52.9,206.2,52.5,206.2z"/>
	<path class="st1" d="M223.4,306.1h-2.8v-2.8c0-0.5-0.4-0.8-0.8-0.8c-0.5,0-0.8,0.4-0.8,0.8v2.8H216c-0.5,0-0.8,0.4-0.8,0.8
		c0,0.5,0.4,0.8,0.8,0.8h2.8v2.8c0,0.5,0.4,0.8,0.8,0.8c0.5,0,0.8-0.4,0.8-0.8v-2.8h2.8c0.5,0,0.8-0.4,0.8-0.8
		C224.2,306.4,223.8,306.1,223.4,306.1z"/>
	<path class="st1" d="M334.1,181.3h-2.8v-2.8c0-0.5-0.4-0.8-0.8-0.8c-0.5,0-0.8,0.4-0.8,0.8v2.8h-2.8c-0.5,0-0.8,0.4-0.8,0.8
		c0,0.5,0.4,0.8,0.8,0.8h2.8v2.8c0,0.5,0.4,0.8,0.8,0.8c0.5,0,0.8-0.4,0.8-0.8v-2.8h2.8c0.5,0,0.8-0.4,0.8-0.8
		C335,181.6,334.6,181.3,334.1,181.3z"/>
</g>
<g class="st0">
	<g class="st2">
		<path class="st3" d="M275.7,200h-63c-3,0-5.5-2.5-5.5-5.5v-11.3c0-3,2.5-5.5,5.5-5.5h63c3,0,5.5,2.5,5.5,5.5v11.3
			C281.2,197.5,278.7,200,275.7,200z"/>
		<text transform="matrix(1 0 0 1 14.7994 322.8914)" class="st4 st5 st6">&lt;/&gt; { ... } #@</text>
	</g>
	<polygon class="st7" points="259.6,197.1 263.9,206.3 268,197.7 	"/>
</g>
<g>
	<g>
		<g>
			<path class="st8" d="M78.8,307.5c0,0-77.8-7.3-76.3-71.9c1.5-64.6,71.4-70.2,94.9-102.1c41.9-56.8,61.9-59.9,97.6-40.3
				c60.8,33.3,74.8-66.6,136.6-38.2c46.1,21.2,61.7,64.4,72.6,124.4c12.9,70.8-22.7,112.5-58,129.2c-1,0.5-21-0.7-21.8,0L78.8,307.5
				z"/>
			<path class="st8" d="M75.3,307.5c0,0-62.6-32-61.2-96.6c1.5-64.6,45.5-95,82.8-97.8c56.5-4.1,80.5,28.5,108,0
				c29.4-30.4,50.8-86.5,109.2-58.1C357.7,76.2,392,156.2,390,210.6c-1.3,35.8-14.2,74.8-36.9,98c-0.7,0.8-45-0.7-45.7,0L75.3,307.5
				z"/>
		</g>
		<g>
			<path class="st9" d="M349,29.2h-22.8c-6.9,0-12.5,5.6-12.5,12.5c0,4.6,2.5,8.6,6.1,10.8v8.2l6.4-6.4c0,0,0,0,0,0H349
				c6.9,0,12.5-5.6,12.5-12.5S355.9,29.2,349,29.2z"/>
			<g>
				<circle class="st4" cx="348.7" cy="41.7" r="3.2"/>
				<circle class="st4" cx="337.6" cy="41.7" r="3.2"/>
				<circle class="st4" cx="326.5" cy="41.7" r="3.2"/>
			</g>
		</g>
		<g class="st10">
			<path class="st11" d="M101,97.8c-2.6-2.3-6.2-4.8-9.6-4.4c-1.6,0.2-3.2,0.7-4.6-0.1c-0.8-0.4-1.3-1.2-1.8-1.9
				C79.7,84.3,70.8,80.1,62,80.7c-8.8,0.5-17.2,5.7-21.6,13.4c-4.9-2.7-11.8-0.8-14.5,4.1L101,97.8z"/>
		</g>
		<g class="st10">
			<path class="st11" d="M233.1,52.7c-1.4-1.3-3.4-2.6-5.3-2.4c-0.9,0.1-1.8,0.4-2.5-0.1c-0.4-0.2-0.7-0.6-1-1
				c-2.9-3.9-7.8-6.2-12.6-5.9c-4.8,0.3-9.4,3.1-11.9,7.3c-2.7-1.5-6.5-0.4-7.9,2.3L233.1,52.7z"/>
		</g>
		<g>
			<g>
				<g>
					<path class="st11" d="M117.3,302.5c-0.3-2.5,3.5-4.8,5.7-6.1c4-2.3,10.9-2.5,12.9-7.4c0.9-2.1,0.4-4.6,1.3-6.8
						c2.2-5.4,11-5,13.8-10.1c2.3-4.3-1-9.7,0.2-14.5c1.2-5,12.8-14.6,0.5-19.1c-4.9-1.8-9,2.8-11.9,5.4
						c-5.5,4.8-17.6,3.4-19.5,11.5c-0.9,3.6,1.3,7.4,0.4,10.9c-0.6,2.4-2.4,4.3-4.1,6.2c-3.9,4.4-7.5,10.2-6.1,16
						C111.6,292.9,113.9,299.5,117.3,302.5z"/>
				</g>
				<g>
					<path class="st11" d="M110.2,298.2c0.8-4.2-5.3-8.3-8.8-10.7c-6.3-4.3-17.8-5.4-20.6-13.8c-1.2-3.6-0.1-7.7-1.3-11.4
						c-3.1-9.2-17.6-9.6-21.6-18.4c-3.3-7.4,2.8-16,1.4-24c-1.5-8.4-19.6-25.7,1.4-31.6c8.4-2.4,14.5,5.7,19,10.3
						c8.5,8.6,28.7,7.7,31.1,21.4c1,6-3,12.1-2,18.1c0.7,4.1,3.5,7.4,6,10.7c6,7.8,11.2,17.8,8.2,27.1
						C120.8,282.9,116.2,293.7,110.2,298.2z"/>
				</g>
				<g>
					<path class="st11" d="M349.4,304c0-1.9-3.1-3.3-4.9-4c-3.2-1.4-8.4-0.8-10.4-4.4c-0.9-1.5-0.7-3.5-1.6-5
						c-2.2-3.9-8.8-2.7-11.3-6.3c-2.2-3-0.2-7.4-1.5-10.9c-1.4-3.6-11-9.8-2.2-14.3c3.6-1.8,7,1.3,9.4,2.9
						c4.6,3.1,13.5,0.9,15.8,6.8c1,2.6-0.3,5.7,0.7,8.3c0.7,1.8,2.2,3,3.6,4.2c3.4,3,6.6,7,6.1,11.4
						C352.7,296.3,351.7,301.5,349.4,304z"/>
				</g>
				<g>
					<path class="st11" d="M358.5,300.8c-0.7-3.1,3.8-6.5,6.4-8.4c4.7-3.4,13.4-4.5,15.2-11c0.8-2.8-0.1-5.9,0.7-8.7
						c2.1-7.1,13.1-7.7,15.9-14.5c2.3-5.7-2.5-12-1.7-18.1c0.9-6.4,14.2-20-1.9-24c-6.4-1.6-10.9,4.7-14.2,8.3
						c-6.2,6.8-21.6,6.6-23,17c-0.6,4.6,2.6,9.1,2,13.7c-0.4,3.1-2.4,5.7-4.3,8.3c-4.4,6.1-8,13.8-5.5,20.8
						C350.1,289.6,353.8,297.6,358.5,300.8z"/>
				</g>
			</g>
			<g>
				<path class="st12" d="M117.3,308.8c0,0-3.2-31.9,26.8-58.8"/>
				<g>
					<g>
						<path class="st13" d="M119.9,288.5c-1.1-1.7-2.3-3.2-3.6-4.7c-0.4-0.5-1.2,0.2-0.7,0.7c1.3,1.4,2.5,2.9,3.5,4.5
							C119.4,289.6,120.3,289.1,119.9,288.5L119.9,288.5z"/>
					</g>
				</g>
				<g>
					<g>
						<path class="st13" d="M122.5,280.9c2.2-0.2,4.3-0.5,6.5-0.9c0.6-0.1,0.4-1.1-0.3-1c-2.1,0.4-4.1,0.7-6.2,0.8
							C121.9,280,121.9,281,122.5,280.9L122.5,280.9z"/>
					</g>
				</g>
				<g>
					<g>
						<path class="st13" d="M128.5,268.9c-0.1-1.9-0.8-3.7-2-5.2c-0.4-0.5-1.1,0.2-0.7,0.7c1,1.3,1.6,2.8,1.7,4.5
							C127.6,269.6,128.6,269.6,128.5,268.9L128.5,268.9z"/>
					</g>
				</g>
				<g>
					<g>
						<path class="st13" d="M134.3,260.9c2.1-0.2,4.1-0.1,6.2,0.1c0.6,0.1,0.6-0.9,0-1c-2.1-0.2-4.1-0.2-6.2-0.1
							C133.7,260,133.7,261,134.3,260.9L134.3,260.9z"/>
					</g>
				</g>
				<g>
					<g>
						<path class="st13" d="M139.6,254.5c-0.5-1.3-1-2.6-1.6-3.9c-0.3-0.6-1.1-0.1-0.9,0.5c0.5,1.2,1,2.4,1.5,3.6
							C138.9,255.4,139.8,255.1,139.6,254.5L139.6,254.5z"/>
					</g>
				</g>
				<path class="st12" d="M109.5,308.7c0,0,9.1-52.5-37.6-100.6"/>
				<g>
					<g>
						<path class="st13" d="M108.6,275.5c1.9-2.6,4-4.9,6.4-7c0.5-0.4-0.2-1.1-0.7-0.7c-2.4,2.2-4.6,4.6-6.5,7.2
							C107.3,275.5,108.2,276,108.6,275.5L108.6,275.5z"/>
					</g>
				</g>
				<g>
					<g>
						<path class="st13" d="M104.2,260.5c-3.5-0.5-7-1.3-10.4-2.2c-0.6-0.2-0.9,0.8-0.3,1c3.4,0.9,6.9,1.6,10.4,2.2
							C104.6,261.6,104.9,260.6,104.2,260.5L104.2,260.5z"/>
					</g>
				</g>
				<g>
					<g>
						<path class="st13" d="M96.8,241.3c0.4-2.8,1.6-5.3,3.5-7.4c0.4-0.5-0.3-1.2-0.7-0.7c-2.1,2.3-3.4,5-3.8,8.1
							C95.7,242,96.7,242,96.8,241.3L96.8,241.3z"/>
					</g>
				</g>
				<g>
					<g>
						<path class="st13" d="M87,226c-3.5-0.5-6.9-0.7-10.4-0.7c-0.6,0-0.6,1,0,1c3.4-0.1,6.8,0.1,10.1,0.6
							C87.4,227.1,87.6,226.1,87,226L87,226z"/>
					</g>
				</g>
				<g>
					<g>
						<path class="st13" d="M80,216.6c0.9-2,1.9-4.1,3-6c0.3-0.6-0.6-1.1-0.9-0.5c-1.1,2-2.1,4-3,6C78.9,216.7,79.7,217.2,80,216.6
							L80,216.6z"/>
					</g>
				</g>
				<path class="st12" d="M350,308.8c0,0-0.6-24.3-25.7-41.7"/>
				<g>
					<g>
						<path class="st13" d="M346.8,294.2c0.6-1.3,1.4-2.6,2.2-3.8c0.4-0.5-0.5-1-0.9-0.5c-0.9,1.2-1.6,2.4-2.2,3.8
							C345.7,294.3,346.6,294.8,346.8,294.2L346.8,294.2z"/>
					</g>
				</g>
				<g>
					<g>
						<path class="st13" d="M343.3,287.4c-1.6,0.1-3.2,0.1-4.9,0c-0.6,0-0.6,1,0,1c1.6,0.1,3.2,0.1,4.9,0
							C344,288.4,344,287.4,343.3,287.4L343.3,287.4z"/>
					</g>
				</g>
				<g>
					<g>
						<path class="st13" d="M338.6,279.8c-0.1-1.3,0.2-2.5,0.9-3.6c0.3-0.6-0.5-1.1-0.9-0.5c-0.7,1.2-1.1,2.6-1,4.1
							C337.6,280.5,338.6,280.5,338.6,279.8L338.6,279.8z"/>
					</g>
				</g>
				<g>
					<g>
						<path class="st13" d="M332.6,273.5c-1.6,0.1-3.2,0.3-4.8,0.6c-0.6,0.1-0.4,1.1,0.3,1c1.5-0.3,3-0.5,4.5-0.6
							C333.2,274.5,333.2,273.5,332.6,273.5L332.6,273.5z"/>
					</g>
				</g>
				<g>
					<g>
						<path class="st13" d="M328.9,270.3c0.2-1,0.5-2,0.8-3c0.2-0.6-0.8-0.9-1-0.3c-0.3,1-0.6,2-0.8,3
							C327.8,270.6,328.7,270.9,328.9,270.3L328.9,270.3z"/>
					</g>
				</g>
				<path class="st12" d="M359.3,308.8c0,0-8.2-39.6,25.9-77.2"/>
				<g>
					<g>
						<path class="st13" d="M359.8,283c-1.5-1.9-3.2-3.7-5.1-5.3c-0.5-0.4-1.2,0.3-0.7,0.7c1.9,1.6,3.5,3.3,5.1,5.3
							C359.5,284.2,360.2,283.5,359.8,283L359.8,283z"/>
					</g>
				</g>
				<g>
					<g>
						<path class="st13" d="M362.3,273c2.7-0.5,5.3-1.1,7.9-1.9c0.6-0.2,0.4-1.1-0.3-1c-2.6,0.8-5.2,1.4-7.9,1.9
							C361.4,272.1,361.7,273.1,362.3,273L362.3,273z"/>
					</g>
				</g>
				<g>
					<g>
						<path class="st13" d="M368.1,257.3c-0.4-2.3-1.4-4.4-3.1-6c-0.5-0.5-1.2,0.2-0.7,0.7c1.5,1.6,2.5,3.4,2.8,5.6
							C367.2,258.2,368.2,257.9,368.1,257.3L368.1,257.3z"/>
					</g>
				</g>
				<g>
					<g>
						<path class="st13" d="M374.5,246.4c2.5-0.5,5.1-0.7,7.6-0.7c0.6,0,0.6-1,0-1c-2.7,0-5.3,0.3-7.9,0.8
							C373.6,245.5,373.8,246.5,374.5,246.4L374.5,246.4z"/>
					</g>
				</g>
				<g>
					<g>
						<path class="st13" d="M380.1,237.8c-0.7-1.5-1.5-3-2.4-4.5c-0.3-0.6-1.2-0.1-0.9,0.5c0.9,1.5,1.7,3,2.4,4.5
							C379.5,238.9,380.3,238.3,380.1,237.8L380.1,237.8z"/>
					</g>
				</g>
			</g>
		</g>
		<g class="st14">
			<linearGradient id="SVGID_1_" gradientUnits="userSpaceOnUse" x1="236.427" y1="195.7556" x2="345.3089" y2="195.7556">
				<stop  offset="0" style="stop-color:#FC3535"/>
				<stop  offset="1" style="stop-color:#39202E"/>
			</linearGradient>
			<path class="st15" d="M345.3,202.9v-14.3c0-1.2-1-2.3-2.3-2.3h-8.9c-1,0-1.9-0.7-2.2-1.6c-1-3.6-2.4-7-4.2-10.2
				c-0.5-0.9-0.3-2,0.4-2.7l6.3-6.3c0.9-0.9,0.9-2.3,0-3.2l-10.1-10.1c-0.9-0.9-2.3-0.9-3.2,0l-6.3,6.3c-0.7,0.7-1.8,0.9-2.7,0.4
				c-3.2-1.8-6.6-3.3-10.2-4.2c-1-0.3-1.6-1.2-1.6-2.2v-8.9c0-1.2-1-2.3-2.3-2.3h-14.3c-1.2,0-2.3,1-2.3,2.3v8.9
				c0,1-0.7,1.9-1.6,2.2c-3.6,1-7,2.4-10.2,4.2c-0.9,0.5-2,0.3-2.7-0.4l-6.3-6.3c-0.9-0.9-2.3-0.9-3.2,0l-10.1,10.1
				c-0.9,0.9-0.9,2.3,0,3.2l6.3,6.3c0.7,0.7,0.9,1.8,0.4,2.7c-1.8,3.2-3.3,6.6-4.2,10.2c-0.3,1-1.2,1.6-2.2,1.6h-8.9
				c-1.2,0-2.3,1-2.3,2.3v14.3c0,1.2,1,2.3,2.3,2.3h8.9c1,0,1.9,0.7,2.2,1.6c1,3.6,2.4,7,4.2,10.2c0.5,0.9,0.3,2-0.4,2.7l-6.3,6.3
				c-0.9,0.9-0.9,2.3,0,3.2l10.1,10.1c0.9,0.9,2.3,0.9,3.2,0l6.3-6.3c0.7-0.7,1.8-0.9,2.7-0.4c3.2,1.8,6.6,3.3,10.2,4.2
				c1,0.3,1.6,1.2,1.6,2.2v8.9c0,1.2,1,2.3,2.3,2.3H298c1.2,0,2.3-1,2.3-2.3V239c0-1,0.7-1.9,1.6-2.2c3.6-1,7-2.4,10.2-4.2
				c0.9-0.5,2-0.3,2.7,0.4l6.3,6.3c0.9,0.9,2.3,0.9,3.2,0l10.1-10.1c0.9-0.9,0.9-2.3,0-3.2l-6.3-6.3c-0.7-0.7-0.9-1.8-0.4-2.7
				c1.8-3.2,3.3-6.6,4.2-10.2c0.3-1,1.2-1.6,2.2-1.6h8.9C344.3,205.2,345.3,204.1,345.3,202.9z M290.9,223.1
				c-15.1,0-27.4-12.3-27.4-27.4s12.3-27.4,27.4-27.4s27.4,12.3,27.4,27.4S306,223.1,290.9,223.1z"/>
			<linearGradient id="SVGID_2_" gradientUnits="userSpaceOnUse" x1="203.3575" y1="241.057" x2="247.719" y2="241.057">
				<stop  offset="0" style="stop-color:#FC3535"/>
				<stop  offset="1" style="stop-color:#39202E"/>
			</linearGradient>
			<path class="st16" d="M247.7,240.4l-1-6c-0.1-0.5-0.6-0.9-1.1-0.8l-3.6,0.6c-0.4,0.1-0.8-0.2-1-0.5c-0.6-1.5-1.5-2.8-2.4-4
				c-0.3-0.3-0.3-0.8,0-1.2l2.1-3.1c0.3-0.4,0.2-1-0.2-1.3l-4.7-3.6c-0.4-0.3-1-0.2-1.3,0.2l-2.1,3.1c-0.2,0.3-0.7,0.5-1,0.3
				c-1.4-0.6-2.9-0.9-4.4-1.1c-0.4,0-0.7-0.4-0.8-0.8l-0.6-3.8c-0.1-0.5-0.6-0.9-1.1-0.8l-5.7,1c-0.5,0.1-0.8,0.6-0.7,1.1l0.6,3.8
				c0.1,0.4-0.1,0.8-0.5,1c-1.4,0.7-2.6,1.5-3.8,2.5c-0.3,0.3-0.8,0.3-1.1,0l-3-2.2c-0.4-0.3-1-0.2-1.3,0.2l-3.3,4.9
				c-0.3,0.4-0.2,1,0.2,1.3l3,2.2c0.3,0.3,0.5,0.7,0.3,1.1c-0.5,1.5-0.8,3-0.9,4.6c0,0.4-0.3,0.8-0.7,0.8l-3.6,0.6
				c-0.5,0.1-0.8,0.6-0.7,1.1l1,6c0.1,0.5,0.6,0.9,1.1,0.8l3.6-0.6c0.4-0.1,0.8,0.2,1,0.5c0.6,1.5,1.5,2.8,2.4,4
				c0.3,0.3,0.3,0.8,0,1.2l-2.1,3.1c-0.3,0.4-0.2,1,0.2,1.3l4.7,3.6c0.4,0.3,1,0.2,1.3-0.2l2.1-3.1c0.2-0.3,0.7-0.5,1-0.3
				c1.4,0.6,2.9,0.9,4.4,1.1c0.4,0,0.7,0.4,0.8,0.8l0.6,3.8c0.1,0.5,0.6,0.9,1.1,0.8l5.7-1c0.5-0.1,0.8-0.6,0.7-1.1l-0.6-3.8
				c-0.1-0.4,0.1-0.8,0.5-1c1.4-0.7,2.6-1.5,3.8-2.5c0.3-0.3,0.8-0.3,1.1,0l3,2.2c0.4,0.3,1,0.2,1.3-0.2l3.3-4.9
				c0.3-0.4,0.2-1-0.2-1.3l-3-2.2c-0.3-0.3-0.5-0.7-0.3-1.1c0.5-1.5,0.8-3,0.9-4.6c0-0.4,0.3-0.8,0.7-0.8l3.6-0.6
				C247.5,241.4,247.8,240.9,247.7,240.4z M227.5,252.6c-6,1-11.8-3.3-12.9-9.7c-1.1-6.4,2.9-12.3,8.9-13.4c6-1,11.8,3.3,12.9,9.7
				S233.5,251.5,227.5,252.6z"/>
			<linearGradient id="SVGID_3_" gradientUnits="userSpaceOnUse" x1="71.7321" y1="158.195" x2="116.0937" y2="158.195">
				<stop  offset="0" style="stop-color:#FC3535"/>
				<stop  offset="1" style="stop-color:#39202E"/>
			</linearGradient>
			<path class="st17" d="M116.1,157.5l-1-6c-0.1-0.5-0.6-0.9-1.1-0.8l-3.6,0.6c-0.4,0.1-0.8-0.2-1-0.5c-0.6-1.5-1.5-2.8-2.4-4
				c-0.3-0.3-0.3-0.8,0-1.2l2.1-3.1c0.3-0.4,0.2-1-0.2-1.3l-4.7-3.6c-0.4-0.3-1-0.2-1.3,0.2l-2.1,3.1c-0.2,0.3-0.7,0.5-1,0.3
				c-1.4-0.6-2.9-0.9-4.4-1.1c-0.4,0-0.7-0.4-0.8-0.8l-0.6-3.8c-0.1-0.5-0.6-0.9-1.1-0.8l-5.7,1c-0.5,0.1-0.8,0.6-0.7,1.1l0.6,3.8
				c0.1,0.4-0.1,0.8-0.5,1c-1.4,0.7-2.6,1.5-3.8,2.5c-0.3,0.3-0.8,0.3-1.1,0l-3-2.2c-0.4-0.3-1-0.2-1.3,0.2l-3.3,4.9
				c-0.3,0.4-0.2,1,0.2,1.3l3,2.2c0.3,0.3,0.5,0.7,0.3,1.1c-0.5,1.5-0.8,3-0.9,4.6c0,0.4-0.3,0.8-0.7,0.8l-3.6,0.6
				c-0.5,0.1-0.8,0.6-0.7,1.1l1,6c0.1,0.5,0.6,0.9,1.1,0.8l3.6-0.6c0.4-0.1,0.8,0.2,1,0.5c0.6,1.5,1.5,2.8,2.4,4
				c0.3,0.3,0.3,0.8,0,1.2l-2.1,3.1c-0.3,0.4-0.2,1,0.2,1.3l4.7,3.6c0.4,0.3,1,0.2,1.3-0.2l2.1-3.1c0.2-0.3,0.7-0.5,1-0.3
				c1.4,0.6,2.9,0.9,4.4,1.1c0.4,0,0.7,0.4,0.8,0.8l0.6,3.8c0.1,0.5,0.6,0.9,1.1,0.8l5.7-1c0.5-0.1,0.8-0.6,0.7-1.1l-0.6-3.8
				c-0.1-0.4,0.1-0.8,0.5-1c1.4-0.7,2.6-1.5,3.8-2.5c0.3-0.3,0.8-0.3,1.1,0l3,2.2c0.4,0.3,1,0.2,1.3-0.2l3.3-4.9
				c0.3-0.4,0.2-1-0.2-1.3l-3-2.2c-0.3-0.3-0.5-0.7-0.3-1.1c0.5-1.5,0.8-3,0.9-4.6c0-0.4,0.3-0.8,0.7-0.8l3.6-0.6
				C115.8,158.5,116.2,158,116.1,157.5z M95.9,169.7c-6,1-11.8-3.3-12.9-9.7s2.9-12.3,8.9-13.4c6-1,11.8,3.3,12.9,9.7
				C105.9,162.7,101.9,168.7,95.9,169.7z"/>
			<linearGradient id="SVGID_4_" gradientUnits="userSpaceOnUse" x1="115.6574" y1="189.3546" x2="176.668" y2="189.3546">
				<stop  offset="0" style="stop-color:#FC3535"/>
				<stop  offset="1" style="stop-color:#39202E"/>
			</linearGradient>
			<path class="st18" d="M169.7,208.3l4.3-7.1c0.4-0.6,0.2-1.4-0.4-1.8l-4.2-2.5c-0.5-0.3-0.7-0.9-0.5-1.4c0.6-2.1,1-4.2,1.1-6.3
				c0-0.6,0.4-1.1,1-1.2l4.9-1.4c0.7-0.2,1.1-0.9,1-1.6l-1.7-7.9c-0.2-0.7-0.8-1.1-1.5-0.9l-4.9,1.4c-0.6,0.2-1.1-0.1-1.4-0.6
				c-0.9-1.8-2.1-3.5-3.5-5c-0.4-0.4-0.4-1-0.1-1.5l2.7-4.4c0.4-0.6,0.2-1.4-0.4-1.8l-6.7-4c-0.6-0.4-1.4-0.1-1.7,0.5l-2.7,4.4
				c-0.3,0.5-0.9,0.8-1.4,0.6c-2-0.5-4-0.8-6.1-0.8c-0.6,0-1-0.4-1.2-0.9l-1.1-4.9c-0.2-0.7-0.8-1.1-1.5-0.9l-7.8,2.2
				c-0.7,0.2-1.1,0.9-1,1.6l1.1,4.9c0.1,0.6-0.1,1.2-0.6,1.4c-1.8,1.1-3.5,2.4-5,3.9c-0.4,0.4-1,0.5-1.5,0.2l-4.2-2.5
				c-0.6-0.4-1.4-0.1-1.7,0.5l-4.3,7.1c-0.4,0.6-0.2,1.4,0.4,1.8l4.2,2.5c0.5,0.3,0.7,0.9,0.5,1.4c-0.6,2.1-1,4.2-1.1,6.3
				c0,0.6-0.4,1.1-1,1.2l-4.9,1.4c-0.7,0.2-1.1,0.9-1,1.6l1.7,7.9c0.2,0.7,0.8,1.1,1.5,0.9l4.9-1.4c0.6-0.2,1.1,0.1,1.4,0.6
				c0.9,1.8,2.1,3.5,3.5,5c0.4,0.4,0.4,1,0.1,1.5l-2.7,4.4c-0.4,0.6-0.2,1.4,0.4,1.8l6.7,4c0.6,0.4,1.4,0.1,1.7-0.5l2.7-4.4
				c0.3-0.5,0.9-0.8,1.4-0.6c2,0.5,4,0.8,6.1,0.8c0.6,0,1,0.4,1.2,0.9l1.1,4.9c0.2,0.7,0.8,1.1,1.5,0.9l7.8-2.2
				c0.7-0.2,1.1-0.9,1-1.6l-1.1-4.9c-0.1-0.6,0.1-1.2,0.6-1.4c1.8-1.1,3.5-2.4,5-3.9c0.4-0.4,1-0.5,1.5-0.2l4.2,2.5
				C168.5,209.1,169.3,208.9,169.7,208.3z M138,203c-7.1-4.3-9.2-13.8-4.7-21.4c4.5-7.5,13.9-10.2,21.1-5.9
				c7.1,4.3,9.2,13.8,4.7,21.4C154.5,204.6,145.1,207.2,138,203z"/>
		</g>
		<g>
			<path class="st4" d="M345.3,202.9v-14.3c0-1.2-1-2.3-2.3-2.3h-8.9c-1,0-1.9-0.7-2.2-1.6c-1-3.6-2.4-7-4.2-10.2
				c-0.5-0.9-0.3-2,0.4-2.7l6.3-6.3c0.9-0.9,0.9-2.3,0-3.2l-10.1-10.1c-0.9-0.9-2.3-0.9-3.2,0l-6.3,6.3c-0.7,0.7-1.8,0.9-2.7,0.4
				c-3.2-1.8-6.6-3.3-10.2-4.2c-1-0.3-1.6-1.2-1.6-2.2v-8.9c0-1.2-1-2.3-2.3-2.3h-14.3c-1.2,0-2.3,1-2.3,2.3v8.9
				c0,1-0.7,1.9-1.6,2.2c-3.6,1-7,2.4-10.2,4.2c-0.9,0.5-2,0.3-2.7-0.4l-6.3-6.3c-0.9-0.9-2.3-0.9-3.2,0l-10.1,10.1
				c-0.9,0.9-0.9,2.3,0,3.2l6.3,6.3c0.7,0.7,0.9,1.8,0.4,2.7c-1.8,3.2-3.3,6.6-4.2,10.2c-0.3,1-1.2,1.6-2.2,1.6h-8.9
				c-1.2,0-2.3,1-2.3,2.3v14.3c0,1.2,1,2.3,2.3,2.3h8.9c1,0,1.9,0.7,2.2,1.6c1,3.6,2.4,7,4.2,10.2c0.5,0.9,0.3,2-0.4,2.7l-6.3,6.3
				c-0.9,0.9-0.9,2.3,0,3.2l10.1,10.1c0.9,0.9,2.3,0.9,3.2,0l6.3-6.3c0.7-0.7,1.8-0.9,2.7-0.4c3.2,1.8,6.6,3.3,10.2,4.2
				c1,0.3,1.6,1.2,1.6,2.2v8.9c0,1.2,1,2.3,2.3,2.3H298c1.2,0,2.3-1,2.3-2.3V239c0-1,0.7-1.9,1.6-2.2c3.6-1,7-2.4,10.2-4.2
				c0.9-0.5,2-0.3,2.7,0.4l6.3,6.3c0.9,0.9,2.3,0.9,3.2,0l10.1-10.1c0.9-0.9,0.9-2.3,0-3.2l-6.3-6.3c-0.7-0.7-0.9-1.8-0.4-2.7
				c1.8-3.2,3.3-6.6,4.2-10.2c0.3-1,1.2-1.6,2.2-1.6h8.9C344.3,205.2,345.3,204.1,345.3,202.9z M290.9,223.1
				c-15.1,0-27.4-12.3-27.4-27.4s12.3-27.4,27.4-27.4s27.4,12.3,27.4,27.4S306,223.1,290.9,223.1z"/>
			<path class="st4" d="M247.7,240.4l-1-6c-0.1-0.5-0.6-0.9-1.1-0.8l-3.6,0.6c-0.4,0.1-0.8-0.2-1-0.5c-0.6-1.5-1.5-2.8-2.4-4
				c-0.3-0.3-0.3-0.8,0-1.2l2.1-3.1c0.3-0.4,0.2-1-0.2-1.3l-4.7-3.6c-0.4-0.3-1-0.2-1.3,0.2l-2.1,3.1c-0.2,0.3-0.7,0.5-1,0.3
				c-1.4-0.6-2.9-0.9-4.4-1.1c-0.4,0-0.7-0.4-0.8-0.8l-0.6-3.8c-0.1-0.5-0.6-0.9-1.1-0.8l-5.7,1c-0.5,0.1-0.8,0.6-0.7,1.1l0.6,3.8
				c0.1,0.4-0.1,0.8-0.5,1c-1.4,0.7-2.6,1.5-3.8,2.5c-0.3,0.3-0.8,0.3-1.1,0l-3-2.2c-0.4-0.3-1-0.2-1.3,0.2l-3.3,4.9
				c-0.3,0.4-0.2,1,0.2,1.3l3,2.2c0.3,0.3,0.5,0.7,0.3,1.1c-0.5,1.5-0.8,3-0.9,4.6c0,0.4-0.3,0.8-0.7,0.8l-3.6,0.6
				c-0.5,0.1-0.8,0.6-0.7,1.1l1,6c0.1,0.5,0.6,0.9,1.1,0.8l3.6-0.6c0.4-0.1,0.8,0.2,1,0.5c0.6,1.5,1.5,2.8,2.4,4
				c0.3,0.3,0.3,0.8,0,1.2l-2.1,3.1c-0.3,0.4-0.2,1,0.2,1.3l4.7,3.6c0.4,0.3,1,0.2,1.3-0.2l2.1-3.1c0.2-0.3,0.7-0.5,1-0.3
				c1.4,0.6,2.9,0.9,4.4,1.1c0.4,0,0.7,0.4,0.8,0.8l0.6,3.8c0.1,0.5,0.6,0.9,1.1,0.8l5.7-1c0.5-0.1,0.8-0.6,0.7-1.1l-0.6-3.8
				c-0.1-0.4,0.1-0.8,0.5-1c1.4-0.7,2.6-1.5,3.8-2.5c0.3-0.3,0.8-0.3,1.1,0l3,2.2c0.4,0.3,1,0.2,1.3-0.2l3.3-4.9
				c0.3-0.4,0.2-1-0.2-1.3l-3-2.2c-0.3-0.3-0.5-0.7-0.3-1.1c0.5-1.5,0.8-3,0.9-4.6c0-0.4,0.3-0.8,0.7-0.8l3.6-0.6
				C247.5,241.4,247.8,240.9,247.7,240.4z M227.5,252.6c-6,1-11.8-3.3-12.9-9.7c-1.1-6.4,2.9-12.3,8.9-13.4c6-1,11.8,3.3,12.9,9.7
				S233.5,251.5,227.5,252.6z"/>
			<path class="st4" d="M116.1,157.5l-1-6c-0.1-0.5-0.6-0.9-1.1-0.8l-3.6,0.6c-0.4,0.1-0.8-0.2-1-0.5c-0.6-1.5-1.5-2.8-2.4-4
				c-0.3-0.3-0.3-0.8,0-1.2l2.1-3.1c0.3-0.4,0.2-1-0.2-1.3l-4.7-3.6c-0.4-0.3-1-0.2-1.3,0.2l-2.1,3.1c-0.2,0.3-0.7,0.5-1,0.3
				c-1.4-0.6-2.9-0.9-4.4-1.1c-0.4,0-0.7-0.4-0.8-0.8l-0.6-3.8c-0.1-0.5-0.6-0.9-1.1-0.8l-5.7,1c-0.5,0.1-0.8,0.6-0.7,1.1l0.6,3.8
				c0.1,0.4-0.1,0.8-0.5,1c-1.4,0.7-2.6,1.5-3.8,2.5c-0.3,0.3-0.8,0.3-1.1,0l-3-2.2c-0.4-0.3-1-0.2-1.3,0.2l-3.3,4.9
				c-0.3,0.4-0.2,1,0.2,1.3l3,2.2c0.3,0.3,0.5,0.7,0.3,1.1c-0.5,1.5-0.8,3-0.9,4.6c0,0.4-0.3,0.8-0.7,0.8l-3.6,0.6
				c-0.5,0.1-0.8,0.6-0.7,1.1l1,6c0.1,0.5,0.6,0.9,1.1,0.8l3.6-0.6c0.4-0.1,0.8,0.2,1,0.5c0.6,1.5,1.5,2.8,2.4,4
				c0.3,0.3,0.3,0.8,0,1.2l-2.1,3.1c-0.3,0.4-0.2,1,0.2,1.3l4.7,3.6c0.4,0.3,1,0.2,1.3-0.2l2.1-3.1c0.2-0.3,0.7-0.5,1-0.3
				c1.4,0.6,2.9,0.9,4.4,1.1c0.4,0,0.7,0.4,0.8,0.8l0.6,3.8c0.1,0.5,0.6,0.9,1.1,0.8l5.7-1c0.5-0.1,0.8-0.6,0.7-1.1l-0.6-3.8
				c-0.1-0.4,0.1-0.8,0.5-1c1.4-0.7,2.6-1.5,3.8-2.5c0.3-0.3,0.8-0.3,1.1,0l3,2.2c0.4,0.3,1,0.2,1.3-0.2l3.3-4.9
				c0.3-0.4,0.2-1-0.2-1.3l-3-2.2c-0.3-0.3-0.5-0.7-0.3-1.1c0.5-1.5,0.8-3,0.9-4.6c0-0.4,0.3-0.8,0.7-0.8l3.6-0.6
				C115.8,158.5,116.2,158,116.1,157.5z M95.9,169.7c-6,1-11.8-3.3-12.9-9.7s2.9-12.3,8.9-13.4c6-1,11.8,3.3,12.9,9.7
				C105.9,162.7,101.9,168.7,95.9,169.7z"/>
			<path class="st4" d="M169.7,208.3l4.3-7.1c0.4-0.6,0.2-1.4-0.4-1.8l-4.2-2.5c-0.5-0.3-0.7-0.9-0.5-1.4c0.6-2.1,1-4.2,1.1-6.3
				c0-0.6,0.4-1.1,1-1.2l4.9-1.4c0.7-0.2,1.1-0.9,1-1.6l-1.7-7.9c-0.2-0.7-0.8-1.1-1.5-0.9l-4.9,1.4c-0.6,0.2-1.1-0.1-1.4-0.6
				c-0.9-1.8-2.1-3.5-3.5-5c-0.4-0.4-0.4-1-0.1-1.5l2.7-4.4c0.4-0.6,0.2-1.4-0.4-1.8l-6.7-4c-0.6-0.4-1.4-0.1-1.7,0.5l-2.7,4.4
				c-0.3,0.5-0.9,0.8-1.4,0.6c-2-0.5-4-0.8-6.1-0.8c-0.6,0-1-0.4-1.2-0.9l-1.1-4.9c-0.2-0.7-0.8-1.1-1.5-0.9l-7.8,2.2
				c-0.7,0.2-1.1,0.9-1,1.6l1.1,4.9c0.1,0.6-0.1,1.2-0.6,1.4c-1.8,1.1-3.5,2.4-5,3.9c-0.4,0.4-1,0.5-1.5,0.2l-4.2-2.5
				c-0.6-0.4-1.4-0.1-1.7,0.5l-4.3,7.1c-0.4,0.6-0.2,1.4,0.4,1.8l4.2,2.5c0.5,0.3,0.7,0.9,0.5,1.4c-0.6,2.1-1,4.2-1.1,6.3
				c0,0.6-0.4,1.1-1,1.2l-4.9,1.4c-0.7,0.2-1.1,0.9-1,1.6l1.7,7.9c0.2,0.7,0.8,1.1,1.5,0.9l4.9-1.4c0.6-0.2,1.1,0.1,1.4,0.6
				c0.9,1.8,2.1,3.5,3.5,5c0.4,0.4,0.4,1,0.1,1.5l-2.7,4.4c-0.4,0.6-0.2,1.4,0.4,1.8l6.7,4c0.6,0.4,1.4,0.1,1.7-0.5l2.7-4.4
				c0.3-0.5,0.9-0.8,1.4-0.6c2,0.5,4,0.8,6.1,0.8c0.6,0,1,0.4,1.2,0.9l1.1,4.9c0.2,0.7,0.8,1.1,1.5,0.9l7.8-2.2
				c0.7-0.2,1.1-0.9,1-1.6l-1.1-4.9c-0.1-0.6,0.1-1.2,0.6-1.4c1.8-1.1,3.5-2.4,5-3.9c0.4-0.4,1-0.5,1.5-0.2l4.2,2.5
				C168.5,209.1,169.3,208.9,169.7,208.3z M138,203c-7.1-4.3-9.2-13.8-4.7-21.4c4.5-7.5,13.9-10.2,21.1-5.9
				c7.1,4.3,9.2,13.8,4.7,21.4C154.5,204.6,145.1,207.2,138,203z"/>
		</g>
		<g>
			<path class="st19" d="M101.4,58.9h22.8c6.9,0,12.5,5.6,12.5,12.5c0,4.6-2.5,8.6-6.1,10.8v8.2l-6.4-6.4c0,0,0,0,0,0h-22.8
				c-6.9,0-12.5-5.6-12.5-12.5S94.5,58.9,101.4,58.9z"/>
			<g>
				<circle class="st4" cx="101.7" cy="71.4" r="3.2"/>
				<circle class="st4" cx="112.8" cy="71.4" r="3.2"/>
				<circle class="st4" cx="123.9" cy="71.4" r="3.2"/>
			</g>
		</g>
	</g>
	<g>
		<g>
			<g>
				<path class="st4" d="M367.6,151.6c-0.4,0-0.6-0.3-0.6-0.6v-3.6c0-0.4,0.3-0.6,0.6-0.6c0.4,0,0.6,0.3,0.6,0.6v3.6
					C368.2,151.3,367.9,151.6,367.6,151.6z"/>
			</g>
			<g>
				<path class="st4" d="M369.4,149.8h-3.6c-0.4,0-0.6-0.3-0.6-0.6c0-0.4,0.3-0.6,0.6-0.6h3.6c0.4,0,0.6,0.3,0.6,0.6
					C370,149.5,369.7,149.8,369.4,149.8z"/>
			</g>
		</g>
		<g>
			<g>
				<path class="st4" d="M223.8,181.6c-0.4,0-0.6-0.3-0.6-0.6v-3.6c0-0.4,0.3-0.6,0.6-0.6c0.4,0,0.6,0.3,0.6,0.6v3.6
					C224.4,181.3,224.1,181.6,223.8,181.6z"/>
			</g>
			<g>
				<path class="st4" d="M225.5,179.8H222c-0.4,0-0.6-0.3-0.6-0.6c0-0.4,0.3-0.6,0.6-0.6h3.6c0.4,0,0.6,0.3,0.6,0.6
					C226.2,179.5,225.9,179.8,225.5,179.8z"/>
			</g>
		</g>
		<g>
			<g>
				<path class="st4" d="M109.3,126.1c-0.4,0-0.6-0.3-0.6-0.6v-3.6c0-0.4,0.3-0.6,0.6-0.6s0.6,0.3,0.6,0.6v3.6
					C110,125.8,109.7,126.1,109.3,126.1z"/>
			</g>
			<g>
				<path class="st4" d="M111.1,124.3h-3.6c-0.4,0-0.6-0.3-0.6-0.6s0.3-0.6,0.6-0.6h3.6c0.4,0,0.6,0.3,0.6,0.6
					S111.5,124.3,111.1,124.3z"/>
			</g>
		</g>
		<g>
			<g>
				<path class="st4" d="M363,207c-0.4,0-0.6-0.3-0.6-0.6v-3.6c0-0.4,0.3-0.6,0.6-0.6c0.4,0,0.6,0.3,0.6,0.6v3.6
					C363.6,206.7,363.3,207,363,207z"/>
			</g>
			<g>
				<path class="st4" d="M364.7,205.2h-3.6c-0.4,0-0.6-0.3-0.6-0.6c0-0.4,0.3-0.6,0.6-0.6h3.6c0.4,0,0.6,0.3,0.6,0.6
					C365.4,205,365.1,205.2,364.7,205.2z"/>
			</g>
		</g>
		<g>
			<g>
				<path class="st4" d="M252.8,106.2c-0.4,0-0.6-0.3-0.6-0.6v-6.1c0-0.4,0.3-0.6,0.6-0.6c0.4,0,0.6,0.3,0.6,0.6v6.1
					C253.5,105.9,253.2,106.2,252.8,106.2z"/>
			</g>
			<g>
				<path class="st4" d="M255.9,103.1h-6.1c-0.4,0-0.6-0.3-0.6-0.6c0-0.4,0.3-0.6,0.6-0.6h6.1c0.4,0,0.6,0.3,0.6,0.6
					C256.5,102.8,256.2,103.1,255.9,103.1z"/>
			</g>
		</g>
		<g>
			<path class="st4" d="M340.5,104.5c-1.7,0-3-1.4-3-3c0-1.7,1.4-3,3-3c1.7,0,3,1.4,3,3C343.6,103.1,342.2,104.5,340.5,104.5z
				 M340.5,99.7c-1,0-1.8,0.8-1.8,1.8c0,1,0.8,1.8,1.8,1.8c1,0,1.8-0.8,1.8-1.8C342.3,100.5,341.5,99.7,340.5,99.7z"/>
		</g>
		<g>
			<path class="st4" d="M57.8,157.7c-1.7,0-3-1.4-3-3c0-1.7,1.4-3,3-3c1.7,0,3,1.4,3,3C60.8,156.3,59.5,157.7,57.8,157.7z
				 M57.8,152.9c-1,0-1.8,0.8-1.8,1.8c0,1,0.8,1.8,1.8,1.8c1,0,1.8-0.8,1.8-1.8C59.6,153.7,58.8,152.9,57.8,152.9z"/>
		</g>
	</g>
	<g>
		<linearGradient id="SVGID_5_" gradientUnits="userSpaceOnUse" x1="250.4408" y1="131.2713" x2="294.6871" y2="131.2713">
			<stop  offset="0" style="stop-color:#FFC04D"/>
			<stop  offset="1" style="stop-color:#E6991D"/>
		</linearGradient>
		<path class="st20" d="M250.4,149c0,0,17.3-4.1,23.7-11.8c6.4-7.7,10.5-24.3,13.3-26.2c2.9-1.9,7.2-3,7.2-3l-6,32.1
			c0,0-2.8,5.7-12.6,8.8c-9.8,3.1-24.1,5.8-24.1,5.8L250.4,149z"/>
		<path class="st21" d="M308.8,96c0,3.6,0.7,5.3,1.4,7.1c0.6,1.8,6.7,3.8,6.7,3.8s-18.3,20.3-25.3,20.2c-7.1-0.1,3.1-19.2,3.1-19.2
			s3-1.8,3.6-3.7c0.6-1.9,1-6.3,1-6.3l8.3-10.6L308.8,96z"/>
		<path class="st22" d="M324.6,305.7h-7c0,0-3.8-21.4-7.8-47.2c-4.1-27-7-50.2-7.1-52.4c1.3,31.4-3.4,99.9-3.4,99.9h-7.1
			c0,0-2.5-20.6-7.7-68.8c-5.3-48.2,2.1-60.7,2.1-60.7l25.7,2.7l10.1-0.3c0.5,2.8,0.4,5.6,1.3,8.3
			C330.4,206,324.6,305.7,324.6,305.7z"/>
		<path class="st23" d="M323.7,187c-0.7,0.1-1.3,0.1-1.9,0c-2.1-0.2-3.9-1-5.3-2.2c-2.1-1.7-3.4-4-4.2-5.8l10.1-0.3
			c0.2,1.1,0.4,2.2,0.6,3.3c0,0.1,0,0.3,0.1,0.4C323.2,184,323.5,185.5,323.7,187z"/>
		<path class="st24" d="M323.9,181.2c-1.1,2-2.1,4.7-2.1,5.9c-2.1-0.2-3.9-1-5.3-2.2c0.3-0.3,0.6-0.6,0.8-0.6
			c1.2-0.4,3.4-4.8,3.4-4.8l3.2,1.3l0.2,0.1C324,181,324,181.1,323.9,181.2z"/>
		<path class="st25" d="M151.3,180.9c1.1,2,2.1,4.7,2.1,5.9c2.1-0.2,3.9-1,5.3-2.2c-0.3-0.3-0.6-0.6-0.8-0.6
			c-1.2-0.4-3.4-4.8-3.4-4.8l-3.2,1.3l-0.2,0.1C151.2,180.7,151.2,180.8,151.3,180.9z"/>
		<path class="st21" d="M251.1,149.2c-0.7,0.1-7,0-6.9,1.2c0.1,1.2,0.1,1.2,0.1,1.2s-2.3,0-1.2,3.3c1.1,3.3,9.4-0.9,9.4-0.9
			L251.1,149.2z"/>
		<path class="st25" d="M242.1,148.7c0,0,7.5-0.8,7.8,1.2c0,0,1.5,0.1,1.5,3.1c0,3-6,2.8-10.2,0.7L242.1,148.7z"/>
		<path class="st26" d="M193.5,180.5l-23.9,3.4c0,0.1,0,0.2,0,0.3l-14.5-3c0,0-9.4,5.5,0,123h7.2c0,0,9.8-68.7,9.8-94.3
			c3.2,40.2,7.6,94.3,7.6,94.3h7.4C198.7,224.1,193.5,180.5,193.5,180.5z"/>
		<path class="st25" d="M187.2,82.2c0.9,7.3-0.8,15.9-8,15.9s-16.8-6.2-16.8-13.4c0-5.2,3.2-7.8,10-10.4
			C177.1,72.4,185.8,71.3,187.2,82.2z"/>
		<rect x="167.1" y="93.2" class="st25" width="9.5" height="11.6"/>
		<linearGradient id="SVGID_6_" gradientUnits="userSpaceOnUse" x1="134.4964" y1="145.381" x2="162.3969" y2="145.381">
			<stop  offset="0" style="stop-color:#1A2631"/>
			<stop  offset="1" style="stop-color:#283848"/>
		</linearGradient>
		<path class="st27" d="M153.4,107.8c0,0-16.5,18.9-18.7,31.7c-2.2,12.8,16.9,43.4,16.9,43.4l3.9-2c0,0-12-32.5-9.4-37.3
			c2.6-4.8,10.5-12.1,10.5-12.1S171.6,113.7,153.4,107.8z"/>
		<path class="st28" d="M187.6,66.4c0,0,3.7,13.9-9,14.1c0,0,0.8,5.3-1.8,6.6c0,0-1.9-2.9-3.4-1.8c-1.5,1-0.6,4.9,1.8,6
			c0,0-1.1,3.6-8,3.3c0,0-3.2-3.1-6.3-7.3c-3.1-4.3-3.4-12.2,3.3-14.8C172.5,69.1,179.2,69.8,187.6,66.4z"/>
		<linearGradient id="SVGID_7_" gradientUnits="userSpaceOnUse" x1="151.9398" y1="143.2335" x2="194.0175" y2="143.2335">
			<stop  offset="0" style="stop-color:#1A2631"/>
			<stop  offset="1" style="stop-color:#283848"/>
		</linearGradient>
		<path class="st29" d="M167.1,101.4c0,0,1.8,1.7,9.5,0.4c0,0,8,2,12.7,4.6c3.5,2,4.8,4.4,4.8,8.5c0,9.5-0.5,65.6-0.5,65.6
			s-22.1,9.8-38.4,0.8c0,0-6.1-70.7-1.5-73.7C158.3,104.6,167.1,101.4,167.1,101.4z"/>
		<linearGradient id="SVGID_8_" gradientUnits="userSpaceOnUse" x1="184.9132" y1="130.2034" x2="243.3503" y2="130.2034">
			<stop  offset="0" style="stop-color:#1A2631"/>
			<stop  offset="1" style="stop-color:#283848"/>
		</linearGradient>
		<path class="st30" d="M186.1,108.4c0.5-1.8,0.8-3.2,2.5-2.4c3.9,1.8,9.6,4,13.5,12.9c5.7,13,14.4,24.6,41.3,29.1l-1.6,6.6
			c0,0-20.9-2.5-30.4-7.7C201.4,141.6,179.5,131.2,186.1,108.4z"/>
		<path class="st28" d="M155.1,303.6l-0.6,5h16.9c0.7,0,1.3-0.5,1.4-1.2l0,0c0.1-0.7-0.3-1.4-1-1.6l-9.3-3.2L155.1,303.6z"/>
		<path class="st28" d="M179.9,303.6l-0.6,5h16.9c0.7,0,1.3-0.5,1.4-1.2l0,0c0.1-0.7-0.3-1.4-1-1.6l-9.3-3.2L179.9,303.6z"/>
		<path class="st28" d="M324.7,303.8l1.2,4.8H309c-0.7,0-1.3-0.5-1.4-1.2l0,0c-0.1-0.7,0.3-1.4,1-1.6l9.3-3.2L324.7,303.8z"/>
		<path class="st28" d="M299.5,303.6l0.6,5h-16.9c-0.7,0-1.3-0.5-1.4-1.2l0,0c-0.1-0.7,0.3-1.4,1-1.6l9.3-3.2L299.5,303.6z"/>
		<linearGradient id="SVGID_9_" gradientUnits="userSpaceOnUse" x1="285.9613" y1="142.8597" x2="323.488" y2="142.8597">
			<stop  offset="0" style="stop-color:#FFC04D"/>
			<stop  offset="1" style="stop-color:#E6991D"/>
		</linearGradient>
		<path class="st31" d="M310.7,103.8c-0.8,0.9-1.9,1.8-3.2,2.6c-5.3,3.1-10.9,2-12.8,1.5c-1,0.3-2,0.7-3,1c0,0-7.7,14.7-5.2,67.5
			c0,0,7.6,10.6,35.9,2.4c0,0-0.6-49.5,1.1-68C323.5,110.7,315.7,105.9,310.7,103.8z"/>
		<path class="st21" d="M295.2,75.8c-1.2,0.8-3.3,2.4-3.3,3.6c-0.1,1.2-0.5,4.7-0.3,6.8c0.2,2.1,0.3,7.4,0.6,9.8
			c0.3,2.4,0.6,5.7,1.2,6.1c0.6,0.4,6.3,0.6,7.5,0c1.2-0.6,7.1-6.5,6.9-11.7c0,0,2.3,1.1,4.1-3.6c0.5-1.2-3.6-5.8-4.1-7.2
			c-1.2-3.4-8.2-2.5-10-2.7C295.8,76.6,295.2,75.8,295.2,75.8z"/>
		<path class="st32" d="M291.9,79.4c0,0,0.7-1.6,2.1-0.9c1.4,0.7,4.3,1.1,6.5,0.9c2.2-0.2,4.4-1.1,4.4-1.1s0,3.2,0.6,4
			c0.6,0.9,2,1.9,2.1,2.9c0.1,1,0,2.1,0,2.1s1.4-1.8,2.5-1.5c1.1,0.3,1.1,2.2,0,3.1c-1.1,0.9-2.2,1.5-2.2,1.5s0,1.5,0.3,2.6
			c0.3,1.1,0.8,3,0.8,3s2.4-6.5,4.4-9.2c2-2.7,2.9-8.1-0.9-10.2c0,0,0-5.1-5.4-6.1c-5.4-0.9-10.1,0.4-12.4-0.3
			c-2.3-0.8-2.9-1.5-2.9-1.5s-2,3.9-0.9,6.5C291.7,77.8,291.9,79.4,291.9,79.4z"/>
		<g>
			<path id="XMLID_42_" class="st33" d="M296.1,185l2.4-22.8c0.2-1.6,1.8-2.7,3.7-2.6l39.9,4.5c1.8,0.2,3.1,1.6,2.9,3.2l-2.3,22.7
				c-0.9,2.5-2.1,3.4-3.9,3.3l-39.7-4.3C297.3,188.8,296.3,188,296.1,185z"/>
			<path id="XMLID_40_" class="st34" d="M296.1,184l2.4-22.9c0.2-1.6,1.8-2.8,3.7-2.6l40.1,4.5c1.8,0.2,3.1,1.6,2.9,3.2l-2.3,22.8
				c-0.2,1.7-1.9,2.9-3.7,2.7l-40.1-4.3C297.3,187.3,295.9,185.7,296.1,184z"/>
			<circle class="st33" cx="320.5" cy="176.4" r="4.6"/>
		</g>
		<path class="st32" d="M300.8,95.1c-1.6-0.2-2.7-1.8-4.6-1.8c-2,0-2.1,1-3,1.1c-0.9,0.1-1.1-0.9-1.3-2.1c0,0-0.4,2.6,0,4
			c0.4,1.5,0.5,4.8,1.4,5.7c0.9,0.9,5.8,1.7,9.2,0c3.3-1.7,4.9-5.9,5-8.8c0-0.8,0.1-1.8,0.2-2.8c0,0,0,0,0,0
			c-0.4-0.2-1.6,1.1-2.6,2.3C303.1,94.9,301.7,95.2,300.8,95.1z"/>
		<path class="st21" d="M318,181.3l-1.5,2.7c0,0-3.7,2.8-3.9,3.2c-0.1,0.4-0.6,2.4-0.6,2.4l0.9,0.4l1.5-1.7c0,0,0.1,1.5,0,2.2
			c-0.1,0.7-0.5,2-0.5,2s1.6,0.7,2.5,0.8c0.9,0.2,4.2,0.5,4.2,0.5s2.8-3.7,2.9-4.8s0.2-5.2,0.2-5.2l-2-3L318,181.3z"/>
		<linearGradient id="SVGID_10_" gradientUnits="userSpaceOnUse" x1="317.6739" y1="147.2335" x2="338.3577" y2="147.2335">
			<stop  offset="0" style="stop-color:#FFC04D"/>
			<stop  offset="1" style="stop-color:#E6991D"/>
		</linearGradient>
		<path class="st35" d="M323.5,110.7c0,0,5.5,3.7,7.4,9.7c1.9,6,9.4,26.2,7,32.1c-2.4,5.9-14.7,31.2-14.7,31.2l-4.3-2.3
			c0,0,8.1-22.5,9.4-31.8c1.3-9.3-9.2-20.8-9.2-20.8S313.8,112.6,323.5,110.7z"/>
	</g>
	<line class="st36" x1="38.6" y1="308.6" x2="382.1" y2="308.6"/>
</g>
</svg>
